<?xml version="1.0" encoding="UTF-8" standalone="no"?><svg xmlns="http://www.w3.org/2000/svg" xmlns:xlink="http://www.w3.org/1999/xlink" clip-rule="evenodd" stroke-miterlimit="10" viewBox="0 0 1024 768"><desc>SVG generated by Keynote</desc><defs></defs><g transform="matrix(1.00, 0.00, -0.00, -1.00, 0.0, 768.0)"><g><clipPath id="clip0x6100008ae880"><path d="M 0.0 768.0 L 1024.0 768.0 L 1024.0 0.0 L 0.0 0.0 Z M 0.0 768.0 "></path></clipPath><g clip-path="url(#clip0x6100008ae880)"><image xlink:href="../../B32C0A43-AFB7-4D6F-9198-B3909335F6E9/assets/574DCE55A4CF432400CBDDDE1DFDFC9B.jpeg" width="2048.00" height="1536.00" transform="matrix(0.50, 0.00, -0.00, -0.50, 0.0, 768.0)"></image></g></g><path d="M 462.0 579.0 L 462.0 649.0 C 462.0 657.3 468.7 664.0 477.0 664.0 L 547.0 664.0 C 555.3 664.0 562.0 657.3 562.0 649.0 L 562.0 579.0 C 562.0 570.7 555.3 564.0 547.0 564.0 L 477.0 564.0 C 468.7 564.0 462.0 570.7 462.0 579.0 Z M 462.0 579.0 " fill="#D99719"></path><path d="M 107.0 371.0 L 107.0 441.0 C 107.0 449.3 113.7 456.0 122.0 456.0 L 192.0 456.0 C 200.3 456.0 207.0 449.3 207.0 441.0 L 207.0 371.0 C 207.0 362.7 200.3 356.0 192.0 356.0 L 122.0 356.0 C 113.7 356.0 107.0 362.7 107.0 371.0 Z M 107.0 371.0 " fill="#D99719"></path><path d="M 158.0 374.1 L 158.0 397.9 C 158.0 400.7 160.3 403.0 163.1 403.0 L 186.0 403.0 C 188.8 403.0 191.0 400.7 191.0 397.9 L 191.0 374.1 C 191.0 371.3 188.8 369.0 186.0 369.0 L 163.1 369.0 C 160.3 369.0 158.0 371.3 158.0 374.1 Z M 158.0 374.1 " fill="#FF2600"></path><path d="M 276.5 371.0 L 277.0 441.0 C 277.0 449.3 283.3 456.0 291.5 456.0 L 361.5 456.0 C 369.8 456.0 377.0 449.3 377.0 441.0 L 377.0 371.0 C 377.0 362.7 369.8 356.0 361.5 356.0 L 291.5 356.0 C 283.3 356.0 276.5 362.7 276.5 371.0 Z M 276.5 371.0 " fill="#D99719"></path><path d="M 331.0 374.1 L 331.0 397.9 C 331.0 400.7 333.3 403.0 336.2 403.0 L 359.0 403.0 C 361.9 403.0 364.0 400.7 364.0 397.9 L 364.0 374.1 C 364.0 371.3 361.9 369.0 359.0 369.0 L 336.2 369.0 C 333.3 369.0 331.0 371.3 331.0 374.1 Z M 331.0 374.1 " fill="#FF2600"></path><path d="M 462.0 371.0 L 462.0 441.0 C 462.0 449.3 468.7 456.0 477.0 456.0 L 547.0 456.0 C 555.3 456.0 562.0 449.3 562.0 441.0 L 562.0 371.0 C 562.0 362.7 555.3 356.0 547.0 356.0 L 477.0 356.0 C 468.7 356.0 462.0 362.7 462.0 371.0 Z M 462.0 371.0 " fill="#D99719"></path><path d="M 518.0 374.1 L 518.0 397.9 C 518.0 400.7 520.3 403.0 523.1 403.0 L 546.0 403.0 C 548.8 403.0 551.0 400.7 551.0 397.9 L 551.0 374.1 C 551.0 371.3 548.8 369.0 546.0 369.0 L 523.1 369.0 C 520.3 369.0 518.0 371.3 518.0 374.1 Z M 518.0 374.1 " fill="#FF2600"></path><path d="M 647.5 371.0 L 647.0 441.0 C 647.0 449.3 654.2 456.0 662.5 456.0 L 732.5 456.0 C 740.7 456.0 747.0 449.3 747.0 441.0 L 747.0 371.0 C 747.0 362.7 740.7 356.0 732.5 356.0 L 662.5 356.0 C 654.2 356.0 647.5 362.7 647.5 371.0 Z M 647.5 371.0 " fill="#D99719"></path><path d="M 698.5 374.1 L 698.0 397.9 C 698.0 400.7 700.7 403.0 703.6 403.0 L 726.4 403.0 C 729.3 403.0 732.0 400.7 732.0 397.9 L 732.0 374.1 C 732.0 371.3 729.3 369.0 726.4 369.0 L 703.6 369.0 C 700.7 369.0 698.5 371.3 698.5 374.1 Z M 698.5 374.1 " fill="#FF2600"></path><path d="M 817.0 371.0 L 817.0 441.0 C 817.0 449.3 823.7 456.0 832.0 456.0 L 902.0 456.0 C 910.3 456.0 917.0 449.3 917.0 441.0 L 917.0 371.0 C 917.0 362.7 910.3 356.0 902.0 356.0 L 832.0 356.0 C 823.7 356.0 817.0 362.7 817.0 371.0 Z M 817.0 371.0 " fill="#D99719"></path><path d="M 871.5 374.1 L 872.0 397.9 C 872.0 400.7 873.8 403.0 876.6 403.0 L 899.5 403.0 C 902.3 403.0 905.0 400.7 905.0 397.9 L 905.0 374.1 C 905.0 371.3 902.3 369.0 899.5 369.0 L 876.6 369.0 C 873.8 369.0 871.5 371.3 871.5 374.1 Z M 871.5 374.1 " fill="#FF2600"></path><path d="M 273.0 148.4 L 273.0 193.0 C 273.0 201.3 279.7 208.0 288.0 208.0 L 543.7 208.0 C 552.0 208.0 559.0 201.3 559.0 193.0 L 559.0 148.4 C 559.0 140.1 552.0 133.0 543.7 133.0 L 288.0 133.0 C 279.7 133.0 273.0 140.1 273.0 148.4 Z M 273.0 148.4 " fill="#D99719"></path><image xlink:href="../../96259928-B742-42AB-A711-6753D68E93EF/assets/4407A370D7B960C7A78C7D0E02318BD5.png" width="142.00" height="32.00" transform="matrix(1.00, 0.00, -0.00, -1.00, 346.0, 185.0)"></image><text xml:space="preserve" font-family="GillSans-Light,Gill Sans" font-size="36.0" fill="#000000" transform="matrix(1.00, 0.00, -0.00, -1.00, 346.5, 158.8)">D</text><text xml:space="preserve" font-family="GillSans-Light,Gill Sans" font-size="36.0" fill="#000000" transform="matrix(1.00, 0.00, -0.00, -1.00, 373.1, 158.8)">e</text><text xml:space="preserve" font-family="GillSans-Light,Gill Sans" font-size="36.0" fill="#000000" transform="matrix(1.00, 0.00, -0.00, -1.00, 390.4, 158.8)">a</text><text xml:space="preserve" font-family="GillSans-Light,Gill Sans" font-size="36.0" fill="#000000" transform="matrix(1.00, 0.00, -0.00, -1.00, 405.7, 158.8)">d</text><text xml:space="preserve" font-family="GillSans-Light,Gill Sans" font-size="36.0" fill="#000000" transform="matrix(1.00, 0.00, -0.00, -1.00, 424.1, 158.8)">l</text><text xml:space="preserve" font-family="GillSans-Light,Gill Sans" font-size="36.0" fill="#000000" transform="matrix(1.00, 0.00, -0.00, -1.00, 430.8, 158.8)">i</text><text xml:space="preserve" font-family="GillSans-Light,Gill Sans" font-size="36.0" fill="#000000" transform="matrix(1.00, 0.00, -0.00, -1.00, 437.6, 158.8)">n</text><text xml:space="preserve" font-family="GillSans-Light,Gill Sans" font-size="36.0" fill="#000000" transform="matrix(1.00, 0.00, -0.00, -1.00, 455.3, 158.8)">e</text><text xml:space="preserve" font-family="GillSans-Light,Gill Sans" font-size="36.0" fill="#000000" transform="matrix(1.00, 0.00, -0.00, -1.00, 472.5, 158.8)">s</text><path d="M 0.0 0.0 L 252.6 0.0 " fill="none" stroke="#FF2600" stroke-width="2.00" transform="matrix(0.71, 0.71, 0.71, -0.71, 530.9, 210.7)"></path><path d="M 0.0 0.0 L 177.2 0.0 " fill="none" stroke="#FF2600" stroke-width="2.00" transform="matrix(0.32, 0.95, 0.95, -0.32, 476.0, 215.9)"></path><path d="M 0.0 0.0 L 181.2 0.0 " fill="none" stroke="#FF2600" stroke-width="2.00" transform="matrix(-0.10, 0.99, 0.99, 0.10, 377.9, 209.9)"></path><path d="M 0.0 0.0 L 198.1 0.0 " fill="none" stroke="#FF2600" stroke-width="2.00" transform="matrix(-0.56, 0.83, 0.83, 0.56, 296.5, 209.9)"></path><path d="M 0.0 0.0 L 374.5 0.0 " fill="none" stroke="#FF2600" stroke-width="2.00" transform="matrix(-0.87, -0.50, -0.50, 0.87, 887.9, 374.1)"></path><image xlink:href="../../B75D4956-D763-4EA9-BE1D-32D6E70874D0/assets/E3CF28419D5E29B1051B32300E365060.png" width="1256.00" height="206.00" transform="matrix(0.57, 0.00, -0.00, -0.57, 201.0, 229.0)"></image><path d="M 536.4 118.2 C 535.9 118.5 534.7 118.1 534.4 118.4 M 536.4 118.2 C 535.2 116.4 533.0 116.3 530.1 115.9 C 526.9 115.9 530.2 117.6 529.8 118.4 C 525.7 119.1 525.7 117.8 526.2 115.8 C 524.7 117.2 519.9 114.8 520.9 117.3 C 527.6 117.3 516.2 117.9 521.8 119.3 C 522.4 119.7 520.8 120.3 520.2 120.3 C 522.0 121.4 518.9 122.5 521.8 123.3 C 522.2 124.8 521.7 124.2 523.6 125.4 C 524.4 125.5 524.1 125.0 524.0 124.7 C 524.3 122.8 526.3 125.7 527.8 124.5 C 529.3 126.9 530.7 124.1 529.5 123.1 C 530.9 123.4 532.5 125.9 534.0 124.1 C 534.8 125.3 538.6 124.5 536.3 123.1 C 534.7 122.1 536.5 121.4 536.8 120.8 C 536.2 120.3 533.9 121.1 533.5 120.6 C 534.2 120.2 537.2 119.4 534.1 119.4 C 535.1 118.6 533.5 118.1 536.4 118.2 C 536.4 118.2 536.4 118.2 536.4 118.2 Z M 525.1 116.9 C 525.1 116.2 526.2 116.9 525.1 116.9 C 525.1 116.9 525.1 116.9 525.1 116.9 Z M 532.8 125.4 C 532.8 124.7 533.9 125.4 532.8 125.4 C 532.8 125.4 532.8 125.4 532.8 125.4 Z M 524.5 124.7 C 524.5 124.1 525.6 124.7 524.5 124.7 C 524.5 124.7 524.5 124.7 524.5 124.7 Z M 528.0 117.3 C 529.8 117.8 526.5 118.2 526.3 117.6 C 526.7 117.7 527.6 116.8 528.0 117.3 C 528.0 117.3 528.0 117.3 528.0 117.3 Z M 528.3 121.0 C 528.4 120.7 529.2 120.6 529.1 121.3 C 528.6 121.5 528.1 121.2 528.3 121.0 C 528.3 121.0 528.3 121.0 528.3 121.0 Z M 519.5 118.4 C 519.6 118.1 520.3 118.0 520.2 118.7 C 519.8 118.9 519.3 118.6 519.5 118.4 C 519.5 118.4 519.5 118.4 519.5 118.4 Z M 530.1 119.0 C 530.5 119.1 530.7 119.7 530.1 119.7 C 529.9 119.5 528.6 119.3 530.1 119.0 C 530.1 119.0 530.1 119.0 530.1 119.0 Z M 532.9 116.9 C 534.3 117.2 531.3 118.1 531.4 117.8 C 530.9 117.4 532.0 116.3 532.9 116.9 C 532.9 116.9 532.9 116.9 532.9 116.9 Z M 530.9 119.8 C 532.1 120.1 530.4 120.3 530.9 119.8 C 530.9 119.8 530.9 119.8 530.9 119.8 Z M 520.7 123.1 C 521.9 123.4 520.1 123.5 520.7 123.1 C 520.7 123.1 520.7 123.1 520.7 123.1 Z M 527.2 125.0 C 528.4 125.3 526.7 125.5 527.2 125.0 C 527.2 125.0 527.2 125.0 527.2 125.0 Z M 524.7 118.5 C 522.6 118.5 524.5 116.9 524.7 118.5 C 524.7 118.5 524.7 118.5 524.7 118.5 Z M 536.3 116.7 C 534.1 116.7 536.0 115.1 536.3 116.7 C 536.3 116.7 536.3 116.7 536.3 116.7 Z M 643.3 117.3 C 645.3 116.9 637.6 114.9 640.5 117.3 C 641.4 119.4 636.2 119.2 637.5 117.3 C 635.9 117.1 635.9 117.0 635.1 117.9 C 634.8 116.4 631.2 115.7 629.9 116.5 C 629.2 117.7 632.4 116.6 630.3 118.0 C 625.8 118.4 630.6 119.4 628.9 121.1 C 628.7 121.1 628.6 120.3 628.2 120.8 C 628.0 122.3 630.6 123.4 629.5 124.6 C 630.1 124.4 633.4 126.1 632.0 124.7 C 631.6 123.2 635.6 126.5 635.3 124.1 C 636.4 125.2 637.5 123.6 638.6 125.0 C 639.4 125.3 639.4 124.0 639.3 123.7 C 639.2 122.5 640.2 126.3 641.5 124.2 C 641.6 124.8 645.3 124.6 642.6 123.7 C 643.3 123.9 647.5 124.4 645.3 122.2 C 642.4 121.2 648.3 119.9 644.9 119.8 C 642.3 119.6 641.7 120.0 643.7 118.9 C 644.3 119.0 647.3 118.8 644.8 117.8 C 644.2 118.1 643.0 117.9 643.3 117.3 C 643.3 117.3 643.3 117.3 643.3 117.3 Z M 643.9 120.5 C 642.3 120.6 643.7 119.7 643.9 120.5 C 643.9 120.5 643.9 120.5 643.9 120.5 Z M 638.3 125.5 C 636.8 125.6 638.2 124.7 638.3 125.5 C 638.3 125.5 638.3 125.5 638.3 125.5 Z M 638.6 116.7 C 637.8 117.4 637.6 115.1 638.6 116.7 C 638.6 116.7 638.6 116.7 638.6 116.7 Z M 640.9 123.7 C 640.8 123.7 641.2 123.4 641.4 123.3 C 641.4 123.4 641.0 123.7 640.9 123.7 C 640.9 123.7 640.9 123.7 640.9 123.7 Z M 636.0 116.7 C 633.7 117.8 635.5 114.9 636.0 116.7 C 636.0 116.7 636.0 116.7 636.0 116.7 Z M 631.4 118.9 C 631.1 121.2 629.0 118.4 631.4 118.9 C 631.4 118.9 631.4 118.9 631.4 118.9 Z M 634.6 123.9 C 635.0 123.4 635.0 124.2 634.6 123.9 C 634.6 123.9 634.6 123.9 634.6 123.9 Z M 644.5 124.2 C 644.9 123.8 644.9 124.5 644.5 124.2 C 644.5 124.2 644.5 124.2 644.5 124.2 Z M 631.7 123.7 C 631.9 122.9 632.6 124.1 631.7 123.7 C 631.7 123.7 631.7 123.7 631.7 123.7 Z M 638.1 117.6 C 640.2 115.8 640.7 120.3 638.1 117.6 C 638.1 117.6 638.1 117.6 638.1 117.6 Z M 641.9 117.5 C 643.3 117.1 641.6 118.6 641.0 118.3 C 641.0 118.1 641.6 117.6 641.9 117.5 C 641.9 117.5 641.9 117.5 641.9 117.5 Z M 635.9 117.8 C 637.4 116.9 637.3 118.3 635.9 117.8 C 635.9 117.8 635.9 117.8 635.9 117.8 Z M 639.6 116.8 C 640.3 117.1 639.0 117.1 639.6 116.8 C 639.6 116.8 639.6 116.8 639.6 116.8 Z M 633.1 115.9 C 633.8 116.2 632.5 116.2 633.1 115.9 C 633.1 115.9 633.1 115.9 633.1 115.9 Z M 643.6 116.5 C 644.3 116.7 643.0 116.8 643.6 116.5 C 643.6 116.5 643.6 116.5 643.6 116.5 Z M 633.7 117.1 C 633.5 118.0 635.5 119.8 631.9 118.2 C 631.3 117.7 632.8 116.5 633.7 117.1 C 633.7 117.1 633.7 117.1 633.7 117.1 Z M 540.6 118.3 C 534.2 115.7 535.8 120.2 535.5 121.1 C 534.6 122.3 535.5 123.1 536.7 123.9 C 538.1 126.7 538.8 121.0 539.7 123.8 C 541.4 127.6 541.6 120.5 542.4 124.5 C 542.1 125.5 544.6 124.7 544.4 124.4 C 545.6 126.3 547.4 122.9 547.4 122.6 C 548.2 123.1 548.3 126.7 550.9 124.0 C 552.9 123.1 553.8 126.6 553.2 124.1 C 554.7 126.9 554.2 123.4 555.7 124.3 C 556.7 125.8 555.7 121.9 557.5 124.8 C 558.3 122.6 556.7 126.4 561.6 124.7 C 559.2 124.5 563.9 122.9 563.0 124.4 C 561.3 126.1 565.3 123.8 567.5 124.8 C 568.1 124.0 570.8 121.9 570.4 124.2 C 572.7 126.8 572.7 122.6 573.7 124.7 C 574.5 125.6 574.8 123.7 575.3 123.8 C 576.1 125.5 576.8 124.4 579.7 124.8 C 586.0 125.6 580.6 120.6 583.0 120.1 C 583.4 119.3 579.9 114.0 581.3 118.0 C 580.9 116.9 575.7 121.1 578.3 116.6 C 576.3 118.4 578.7 114.8 574.8 116.9 C 580.2 120.0 568.7 118.2 573.8 116.7 C 573.0 115.8 570.8 115.9 572.4 116.7 C 573.0 119.5 568.7 115.4 570.8 118.9 C 567.5 117.9 568.4 121.0 567.5 118.8 C 566.7 115.1 567.6 119.8 565.9 118.7 C 562.0 118.7 565.1 114.4 562.7 117.2 C 558.9 115.4 561.9 118.9 560.5 119.3 C 560.2 121.9 556.6 117.3 559.5 117.0 C 558.0 118.4 559.3 115.8 557.5 117.4 C 558.8 119.8 555.2 114.9 555.8 116.8 C 554.2 117.4 555.0 118.8 554.5 118.9 C 552.2 118.9 552.9 116.6 552.5 118.3 C 551.9 119.3 550.8 116.2 550.5 116.9 C 552.9 117.1 548.5 119.5 548.3 118.2 C 549.8 118.0 547.5 115.1 546.6 116.9 C 547.8 122.1 544.5 115.6 543.4 117.4 C 544.5 120.3 538.2 117.8 540.6 116.4 C 540.4 116.7 540.6 118.3 540.6 118.3 M 549.8 117.4 C 551.8 117.6 547.7 117.9 549.8 117.4 M 549.7 116.6 C 550.6 117.6 547.9 115.9 549.8 116.3 C 549.9 116.3 549.6 116.5 549.7 116.6 M 557.9 116.5 C 557.6 117.3 556.8 116.0 557.9 116.5 M 559.5 118.3 C 560.8 119.0 557.7 118.4 559.5 118.3 M 577.5 117.7 C 575.7 122.0 575.6 115.3 577.5 117.7 M 565.6 116.8 C 563.4 117.4 566.3 115.1 565.6 116.8 M 564.9 117.9 C 563.9 118.6 564.7 116.9 564.9 117.9 M 574.1 117.7 C 574.2 117.8 574.2 117.8 574.1 117.7 C 574.1 117.7 574.1 117.7 574.1 117.7 Z M 579.4 117.8 C 579.4 117.8 579.4 117.8 579.4 117.8 C 579.4 117.8 579.4 117.8 579.4 117.8 Z M 568.9 118.2 C 567.2 117.2 571.6 117.8 568.9 118.2 C 568.9 118.2 568.9 118.2 568.9 118.2 Z M 576.8 124.3 C 576.8 124.4 576.8 124.4 576.8 124.3 C 576.8 124.3 576.8 124.3 576.8 124.3 Z M 548.3 119.3 C 548.2 119.4 548.2 119.4 548.3 119.3 C 548.3 119.3 548.3 119.3 548.3 119.3 Z M 542.2 117.7 C 542.3 118.3 541.1 117.3 542.2 117.7 C 542.2 117.7 542.2 117.7 542.2 117.7 Z M 537.3 122.6 C 537.2 122.7 537.2 122.7 537.3 122.6 C 537.3 122.6 537.3 122.6 537.3 122.6 Z M 546.2 121.6 C 546.2 121.6 546.2 121.6 546.2 121.6 C 546.2 121.6 546.2 121.6 546.2 121.6 Z M 547.1 118.4 C 546.1 116.0 549.4 119.0 547.1 118.4 C 547.1 118.4 547.1 118.4 547.1 118.4 Z M 566.8 124.1 C 566.9 123.1 568.2 124.4 566.8 124.1 C 566.8 124.1 566.8 124.1 566.8 124.1 Z M 559.7 119.2 C 559.9 118.7 560.6 119.5 559.7 119.2 C 559.7 119.2 559.7 119.2 559.7 119.2 Z M 556.3 116.0 C 556.6 115.5 557.2 116.3 556.3 116.0 C 556.3 116.0 556.3 116.0 556.3 116.0 Z M 542.3 117.1 C 542.4 116.9 542.4 116.9 542.3 117.1 C 542.3 117.1 542.3 117.1 542.3 117.1 Z M 544.5 118.8 C 543.0 116.6 546.8 120.0 544.5 118.8 C 544.5 118.8 544.5 118.8 544.5 118.8 Z M 541.9 119.5 C 542.7 120.3 539.9 119.1 541.9 119.5 M 543.4 122.9 C 545.2 121.9 541.7 126.8 543.4 122.9 C 543.4 122.9 543.4 122.9 543.4 122.9 Z M 552.7 123.7 C 552.8 123.8 552.8 123.8 552.7 123.7 C 552.7 123.7 552.7 123.7 552.7 123.7 Z M 551.7 117.3 C 553.4 117.4 550.7 117.8 551.7 117.3 C 551.7 117.3 551.7 117.3 551.7 117.3 Z M 537.6 116.8 C 539.3 116.9 536.6 117.3 537.6 116.8 C 537.6 116.8 537.6 116.8 537.6 116.8 Z M 558.2 121.6 C 560.8 121.2 556.5 122.8 558.2 121.6 C 558.2 121.6 558.2 121.6 558.2 121.6 Z M 567.9 119.0 C 568.0 119.1 568.0 119.1 567.9 119.0 C 567.9 119.0 567.9 119.0 567.9 119.0 Z M 569.8 118.1 C 569.8 118.2 569.8 118.2 569.8 118.1 C 569.8 118.1 569.8 118.1 569.8 118.1 Z M 577.3 120.4 C 577.4 120.5 577.4 120.5 577.3 120.4 C 577.3 120.4 577.3 120.4 577.3 120.4 Z M 571.4 117.1 C 571.5 117.1 571.5 117.1 571.4 117.1 C 571.4 117.1 571.4 117.1 571.4 117.1 Z M 576.6 117.6 C 576.8 117.7 576.8 117.7 576.6 117.6 C 576.6 117.6 576.6 117.6 576.6 117.6 Z M 575.9 115.7 C 576.0 115.8 576.0 115.8 575.9 115.7 C 575.9 115.7 575.9 115.7 575.9 115.7 Z M 564.3 125.4 C 564.4 125.4 564.4 125.4 564.3 125.4 C 564.3 125.4 564.3 125.4 564.3 125.4 Z M 545.2 116.3 C 545.3 116.5 545.3 116.5 545.2 116.3 C 545.2 116.3 545.2 116.3 545.2 116.3 Z M 576.2 118.5 C 576.3 118.5 576.3 118.5 576.2 118.5 C 576.2 118.5 576.2 118.5 576.2 118.5 Z M 563.4 120.2 C 563.5 122.1 562.3 117.7 563.8 120.1 C 563.7 120.2 563.3 119.9 563.4 120.2 M 565.2 123.4 C 565.1 123.4 565.1 123.4 565.2 123.4 C 565.2 123.4 565.2 123.4 565.2 123.4 Z M 559.3 124.5 C 559.3 124.6 559.3 124.6 559.3 124.5 C 559.3 124.5 559.3 124.5 559.3 124.5 Z M 570.5 116.7 C 570.3 115.6 571.9 117.5 570.3 116.7 M 577.4 123.7 C 577.1 122.6 578.8 124.5 577.2 123.7 M 535.8 117.5 C 535.6 118.3 534.7 117.0 535.8 117.5 M 558.1 125.5 C 557.8 126.3 557.0 125.0 558.1 125.5 M 560.8 123.1 C 560.5 122.1 562.2 123.9 560.5 123.2 M 573.4 123.6 C 573.5 123.6 573.5 123.6 573.4 123.6 C 573.4 123.6 573.4 123.6 573.4 123.6 Z M 554.2 117.5 C 554.3 117.5 554.3 117.5 554.2 117.5 C 554.2 117.5 554.2 117.5 554.2 117.5 Z M 561.3 119.7 C 560.3 118.3 562.6 120.7 561.3 119.7 M 552.2 120.0 C 550.8 118.2 554.4 120.6 552.2 120.0 M 580.4 124.1 C 578.8 122.0 581.5 125.3 580.4 124.1 M 572.6 118.7 C 571.0 116.5 573.8 119.9 572.6 118.7 M 555.6 118.4 C 555.6 117.3 557.2 119.1 555.6 118.4 M 539.5 117.3 C 538.0 117.1 541.4 116.4 539.5 117.3 M 569.6 123.7 C 569.6 123.8 569.6 123.8 569.6 123.7 C 569.6 123.7 569.6 123.7 569.6 123.7 Z M 544.4 125.6 C 544.4 125.6 544.4 125.6 544.4 125.6 C 544.4 125.6 544.4 125.6 544.4 125.6 Z M 582.4 117.0 C 582.5 117.1 582.5 117.1 582.4 117.0 C 582.4 117.0 582.4 117.0 582.4 117.0 Z M 571.6 119.7 C 571.7 119.8 571.7 119.8 571.6 119.7 C 571.6 119.7 571.6 119.7 571.6 119.7 Z M 579.4 116.7 C 579.5 116.9 579.5 116.9 579.4 116.7 C 579.4 116.7 579.4 116.7 579.4 116.7 Z M 566.7 121.4 C 566.8 121.4 566.8 121.4 566.7 121.4 C 566.7 121.4 566.7 121.4 566.7 121.4 Z M 565.8 115.9 C 565.8 115.9 565.8 115.9 565.8 115.9 C 565.8 115.9 565.8 115.9 565.8 115.9 Z M 560.4 118.2 C 560.4 118.3 560.4 118.3 560.4 118.2 C 560.4 118.2 560.4 118.2 560.4 118.2 Z M 568.2 116.3 C 571.4 116.0 566.6 118.1 568.2 116.3 C 568.2 116.3 568.2 116.3 568.2 116.3 Z M 562.7 121.8 C 562.7 121.9 562.7 121.9 562.7 121.8 C 562.7 121.8 562.7 121.8 562.7 121.8 Z M 562.2 117.9 C 564.2 116.3 563.3 120.6 562.2 117.9 M 553.3 116.6 C 553.9 115.8 553.6 117.9 553.3 116.6 M 549.7 123.8 C 549.7 123.9 549.7 123.9 549.7 123.8 C 549.7 123.8 549.7 123.8 549.7 123.8 Z M 550.7 123.3 C 550.8 123.3 550.8 123.3 550.7 123.3 C 550.7 123.3 550.7 123.3 550.7 123.3 Z M 551.1 116.3 C 551.2 116.3 551.2 116.3 551.1 116.3 C 551.1 116.3 551.1 116.3 551.1 116.3 Z M 550.8 125.3 C 550.9 125.4 550.9 125.4 550.8 125.3 C 550.8 125.3 550.8 125.3 550.8 125.3 Z M 564.5 116.0 C 564.6 116.1 564.6 116.1 564.5 116.0 C 564.5 116.0 564.5 116.0 564.5 116.0 Z M 581.0 116.0 C 581.0 116.0 581.0 116.0 581.0 116.0 C 581.0 116.0 581.0 116.0 581.0 116.0 Z M 539.9 123.1 C 540.0 123.2 540.0 123.2 539.9 123.1 C 539.9 123.1 539.9 123.1 539.9 123.1 Z M 566.2 118.2 C 566.3 118.3 566.3 118.3 566.2 118.2 C 566.2 118.2 566.2 118.2 566.2 118.2 Z M 547.4 123.5 C 547.5 123.6 547.5 123.6 547.4 123.5 C 547.4 123.5 547.4 123.5 547.4 123.5 Z M 565.2 117.7 C 565.2 117.8 565.2 117.8 565.2 117.7 C 565.2 117.7 565.2 117.7 565.2 117.7 Z M 569.1 124.1 C 569.1 124.2 569.1 124.2 569.1 124.1 C 569.1 124.1 569.1 124.1 569.1 124.1 Z M 572.6 125.4 C 572.6 125.4 572.6 125.4 572.6 125.4 C 572.6 125.4 572.6 125.4 572.6 125.4 Z M 568.8 120.3 C 568.9 120.3 568.9 120.3 568.8 120.3 C 568.8 120.3 568.8 120.3 568.8 120.3 Z M 546.3 121.1 C 539.8 119.3 551.4 120.3 546.3 121.1 M 569.9 120.8 C 565.4 120.3 573.5 118.6 569.9 120.8 C 570.4 120.2 570.0 120.7 569.9 120.8 M 584.0 116.1 C 582.1 118.2 582.2 120.1 583.0 122.2 C 583.9 123.2 583.8 119.2 583.9 122.6 C 581.8 123.3 584.8 127.7 584.8 123.3 C 587.5 122.7 585.2 126.1 586.9 124.4 C 589.9 124.0 588.3 125.3 590.6 125.0 C 592.0 122.6 592.0 126.2 592.5 123.9 C 591.4 126.4 595.0 123.2 595.1 124.3 C 593.0 125.9 603.0 124.4 597.6 123.6 C 599.8 122.5 599.4 124.5 600.1 124.8 C 601.1 123.4 603.8 126.0 605.2 124.5 C 604.9 124.2 604.2 124.1 604.0 123.6 C 603.6 122.7 605.5 123.8 605.3 123.8 C 606.2 123.2 609.9 121.7 606.0 124.3 C 605.8 125.5 609.1 123.8 609.0 124.9 C 612.4 124.9 609.9 122.5 611.3 124.3 C 613.7 124.3 615.4 124.3 615.4 124.0 C 616.9 124.3 617.2 125.7 618.4 124.3 C 621.4 127.0 620.5 119.3 621.6 124.4 C 622.4 123.2 623.2 126.6 623.1 123.4 C 622.1 124.9 628.1 125.9 625.5 123.6 C 626.2 122.8 629.9 126.8 629.4 123.6 C 630.8 121.2 630.5 118.9 627.6 116.6 C 627.9 118.5 624.5 114.7 626.7 117.9 C 629.2 118.9 622.1 119.0 623.6 117.9 C 624.0 114.1 620.1 120.2 618.6 117.5 C 619.9 119.0 614.1 119.8 615.8 117.0 C 614.7 116.7 614.4 118.1 613.3 116.4 C 616.7 116.7 611.9 119.4 612.1 117.7 C 612.7 116.6 607.6 115.7 608.1 117.3 C 609.9 121.2 606.7 116.5 605.9 118.1 C 603.0 118.9 606.3 114.7 604.2 117.6 C 603.6 117.1 599.8 117.1 602.2 116.3 C 603.1 116.7 600.0 120.6 599.6 117.2 C 603.6 115.4 594.9 116.2 596.3 117.2 C 602.5 119.0 589.6 119.3 594.5 117.5 C 591.8 115.7 595.4 116.8 591.9 117.6 C 592.4 118.6 589.7 119.6 590.3 117.5 C 589.8 114.4 589.4 121.7 587.3 117.4 C 587.0 115.6 583.1 118.8 584.6 116.7 C 584.7 116.5 584.1 116.1 584.0 116.1 M 585.2 116.5 C 584.8 117.2 584.5 115.6 585.2 116.5 M 584.7 117.2 C 584.7 117.1 584.7 117.1 584.7 117.2 C 584.7 117.2 584.7 117.2 584.7 117.2 Z M 591.4 117.7 C 591.4 117.6 591.4 117.6 591.4 117.7 C 591.4 117.7 591.4 117.7 591.4 117.7 Z M 596.7 125.6 C 596.6 125.5 596.6 125.5 596.7 125.6 C 596.7 125.6 596.7 125.6 596.7 125.6 Z M 595.9 117.9 C 595.8 117.8 595.8 117.8 595.9 117.9 C 595.9 117.9 595.9 117.9 595.9 117.9 Z M 589.0 118.2 C 589.0 118.2 589.0 118.2 589.0 118.2 C 589.0 118.2 589.0 118.2 589.0 118.2 Z M 595.4 116.7 C 595.8 117.9 593.9 115.8 595.5 116.5 C 595.6 116.6 595.3 116.6 595.4 116.7 M 601.2 116.2 C 601.3 116.4 601.3 116.4 601.2 116.2 M 614.0 125.5 C 614.1 125.7 614.1 125.7 614.0 125.5 M 615.1 116.1 C 615.2 116.3 615.2 116.3 615.1 116.1 M 607.0 117.4 C 608.8 117.3 607.4 118.0 607.0 117.4 M 619.7 116.8 C 617.5 116.0 622.1 116.2 619.7 116.8 M 621.9 116.1 C 622.1 116.2 622.1 116.2 621.9 116.1 M 611.8 116.6 C 611.8 116.7 611.8 116.7 611.8 116.6 C 611.8 116.6 611.8 116.6 611.8 116.6 Z M 606.3 116.9 C 603.9 116.3 608.6 115.8 606.3 116.9 M 592.2 116.5 C 593.5 116.0 592.2 118.1 592.2 116.5 M 589.6 117.2 C 589.5 117.3 589.5 117.3 589.6 117.2 C 589.6 117.2 589.6 117.2 589.6 117.2 Z M 616.2 116.7 C 616.1 116.8 616.1 116.8 616.2 116.7 C 616.2 116.7 616.2 116.7 616.2 116.7 Z M 618.7 116.5 C 618.6 116.6 618.6 116.6 618.7 116.5 C 618.7 116.5 618.7 116.5 618.7 116.5 Z M 623.0 125.2 C 622.9 125.2 622.9 125.2 623.0 125.2 C 623.0 125.2 623.0 125.2 623.0 125.2 Z M 591.5 120.8 C 589.8 120.2 593.3 118.0 592.9 120.1 C 593.1 121.0 591.7 120.6 591.5 120.8 M 604.6 119.6 C 605.0 122.6 602.9 115.6 604.6 119.6 M 622.2 118.1 C 623.9 121.6 620.0 115.6 622.2 118.1 M 625.7 117.4 C 626.8 118.2 619.2 117.8 624.5 116.9 C 625.0 116.3 625.4 117.1 625.7 117.4 M 601.3 117.7 C 601.8 119.3 598.6 116.9 601.3 117.7 M 612.0 122.6 C 612.8 121.5 615.0 120.6 614.1 122.4 C 614.0 124.7 611.0 123.5 612.0 122.6 M 585.8 118.2 C 587.2 115.5 585.7 120.4 585.8 118.2 M 592.5 118.4 C 592.5 118.3 592.5 118.3 592.5 118.4 C 592.5 118.4 592.5 118.4 592.5 118.4 Z M 595.2 118.0 C 595.3 118.2 595.3 118.2 595.2 118.0 M 586.9 115.9 C 587.0 116.1 587.0 116.1 586.9 115.9 M 611.9 119.9 C 612.1 120.1 612.1 120.1 611.9 119.9 M 606.5 118.1 C 609.1 120.7 605.1 118.6 606.5 118.1 M 600.1 123.1 C 600.9 124.3 598.5 123.2 600.1 123.1 M 610.8 117.1 C 612.6 119.6 608.2 119.5 610.8 117.1 M 605.2 117.9 C 605.3 117.9 605.3 117.9 605.2 117.9 C 605.2 117.9 605.2 117.9 605.2 117.9 Z M 612.7 122.8 C 612.6 122.9 612.6 122.9 612.7 122.8 C 612.7 122.8 612.7 122.8 612.7 122.8 Z M 613.5 122.7 C 613.4 122.8 613.4 122.8 613.5 122.7 C 613.5 122.7 613.5 122.7 613.5 122.7 Z M 613.0 116.8 C 612.9 116.9 612.9 116.9 613.0 116.8 C 613.0 116.8 613.0 116.8 613.0 116.8 Z M 589.4 124.0 C 591.2 124.2 587.9 124.4 589.4 124.0 C 589.4 124.0 589.4 124.0 589.4 124.0 Z M 597.5 116.7 C 600.6 118.7 595.4 118.6 597.5 116.7 C 597.5 116.7 597.5 116.7 597.5 116.7 Z M 601.0 119.9 C 601.0 120.1 601.0 120.1 601.0 119.9 C 601.0 119.9 601.0 119.9 601.0 119.9 Z M 609.6 115.6 C 609.6 115.7 609.6 115.7 609.6 115.6 C 609.6 115.6 609.6 115.6 609.6 115.6 Z M 590.3 124.3 C 590.3 124.4 590.3 124.4 590.3 124.3 C 590.3 124.3 590.3 124.3 590.3 124.3 Z M 618.3 118.2 C 618.3 118.3 618.3 118.3 618.3 118.2 C 618.3 118.2 618.3 118.2 618.3 118.2 Z M 607.7 123.2 C 608.3 122.3 607.8 124.0 607.7 123.2 C 607.7 123.2 607.7 123.2 607.7 123.2 Z M 610.4 123.3 C 610.5 123.2 610.5 123.2 610.4 123.3 C 610.4 123.3 610.4 123.3 610.4 123.3 Z M 622.6 115.9 C 622.7 115.9 622.7 115.9 622.6 115.9 C 622.6 115.9 622.6 115.9 622.6 115.9 Z M 617.4 125.6 C 617.5 125.5 617.5 125.5 617.4 125.6 C 617.4 125.6 617.4 125.6 617.4 125.6 Z M 619.7 122.7 C 619.7 122.7 619.7 122.7 619.7 122.7 C 619.7 122.7 619.7 122.7 619.7 122.7 Z M 612.5 117.4 C 615.3 117.0 611.9 118.5 612.5 117.4 C 612.5 117.4 612.5 117.4 612.5 117.4 Z M 626.5 121.9 C 626.6 122.0 626.6 122.0 626.5 121.9 C 626.5 121.9 626.5 121.9 626.5 121.9 Z M 627.9 118.5 C 628.0 118.7 628.0 118.7 627.9 118.5 C 627.9 118.5 627.9 118.5 627.9 118.5 Z M 628.6 116.7 C 628.7 116.9 628.7 116.9 628.6 116.7 C 628.6 116.7 628.6 116.7 628.6 116.7 Z M 595.1 121.6 C 595.1 121.5 595.1 121.5 595.1 121.6 C 595.1 121.6 595.1 121.6 595.1 121.6 Z M 594.0 116.1 C 594.0 116.1 594.0 116.1 594.0 116.1 C 594.0 116.1 594.0 116.1 594.0 116.1 Z M 597.8 115.9 C 597.7 115.8 597.7 115.8 597.8 115.9 C 597.8 115.9 597.8 115.9 597.8 115.9 Z M 594.5 124.9 C 594.4 124.8 594.4 124.8 594.5 124.9 C 594.5 124.9 594.5 124.9 594.5 124.9 Z M 608.4 120.3 C 608.4 120.2 608.4 120.2 608.4 120.3 C 608.4 120.3 608.4 120.3 608.4 120.3 Z M 609.7 122.5 C 609.7 122.4 609.7 122.4 609.7 122.5 C 609.7 122.5 609.7 122.5 609.7 122.5 Z M 606.5 125.4 C 606.5 125.4 606.5 125.4 606.5 125.4 C 606.5 125.4 606.5 125.4 606.5 125.4 Z M 610.8 124.4 C 610.7 124.3 610.7 124.3 610.8 124.4 C 610.8 124.4 610.8 124.4 610.8 124.4 Z M 585.1 123.9 C 585.1 124.0 585.1 124.0 585.1 123.9 C 585.1 123.9 585.1 123.9 585.1 123.9 Z M 584.8 119.7 C 584.8 119.8 584.8 119.8 584.8 119.7 C 584.8 119.7 584.8 119.7 584.8 119.7 Z M 608.9 117.2 C 609.5 116.3 610.1 118.4 608.9 117.2 M 603.5 117.8 C 603.5 117.8 603.5 117.8 603.5 117.8 C 603.5 117.8 603.5 117.8 603.5 117.8 Z M 617.8 117.4 C 618.5 119.0 615.3 116.5 617.8 117.4 C 617.8 117.4 617.8 117.4 617.8 117.4 Z M 615.0 124.4 C 615.0 124.4 615.0 124.4 615.0 124.4 C 615.0 124.4 615.0 124.4 615.0 124.4 Z M 616.4 123.7 C 616.5 123.8 616.5 123.8 616.4 123.7 C 616.4 123.7 616.4 123.7 616.4 123.7 Z M 624.1 119.1 C 624.2 119.3 624.2 119.3 624.1 119.1 M 602.9 116.3 C 603.6 117.0 603.5 116.9 602.9 116.3 M 619.6 117.4 C 619.5 117.5 619.5 117.5 619.6 117.4 C 619.6 117.4 619.6 117.4 619.6 117.4 Z M 625.8 118.2 C 625.7 118.3 625.7 118.3 625.8 118.2 C 625.8 118.2 625.8 118.2 625.8 118.2 Z M 599.1 117.4 C 599.2 119.4 598.5 118.9 599.1 117.4 M 588.5 118.0 C 588.5 118.2 588.5 118.2 588.5 118.0 C 588.5 118.0 588.5 118.0 588.5 118.0 Z M 588.5 118.0 " fill="#FF2600"></path></g></svg>