<?xml version="1.0" encoding="UTF-8" standalone="no"?><svg xmlns="http://www.w3.org/2000/svg" xmlns:xlink="http://www.w3.org/1999/xlink" clip-rule="evenodd" stroke-miterlimit="4.00" viewBox="0 0 1024 768"><desc>SVG generated by Keynote</desc><defs></defs><g transform="matrix(1.00, 0.00, -0.00, -1.00, 0.0, 768.0)"><g><clipPath id="clip-227"><path d="M 0.0 768.0 L 1024.0 768.0 L 1024.0 0.0 L 0.0 0.0 Z M 0.0 768.0 "></path></clipPath><g clip-path="url(#clip-227)"><image xlink:href="../../E8782ACA-0DD6-462E-AFA6-8D26C4A2FECE/assets/107E65D87114B546DB29000410A7B5AF.jpeg" width="1024.00" height="768.00" transform="matrix(1.00, 0.00, -0.00, -1.00, 0.0, 768.0)"></image></g></g><image xlink:href="../../B73D32B8-A885-41A1-9D11-A0A9CE1562FE/assets/A22F8967EA8CB5E3D46AAE963254AEC6.png" width="956.00" height="393.00" transform="matrix(1.00, 0.00, -0.00, -1.00, 34.0, 574.0)"></image><image xlink:href="../../BF160EF9-7224-4F85-93B3-F420F04E9E7F/assets/2B8A3C3B42CEC36CC4FECAE6DD8DA786.png" width="303.00" height="23.00" transform="matrix(1.00, 0.00, -0.00, -1.00, 361.0, 113.0)"></image><text xml:space="preserve" font-family="AvenirNext-Medium" font-size="17.0" fill="#5D514B" transform="matrix(1.00, 0.00, -0.00, -1.00, 363.0, 99.0)">O</text><text xml:space="preserve" font-family="AvenirNext-Medium" font-size="17.0" fill="#5D514B" transform="matrix(1.00, 0.00, -0.00, -1.00, 377.4, 99.0)">p</text><text xml:space="preserve" font-family="AvenirNext-Medium" font-size="17.0" fill="#5D514B" transform="matrix(1.00, 0.00, -0.00, -1.00, 388.2, 99.0)">e</text><text xml:space="preserve" font-family="AvenirNext-Medium" font-size="17.0" fill="#5D514B" transform="matrix(1.00, 0.00, -0.00, -1.00, 398.0, 99.0)">n</text><text xml:space="preserve" font-family="AvenirNext-Medium" font-size="17.0" fill="#5D514B" transform="matrix(1.00, 0.00, -0.00, -1.00, 407.8, 99.0)"> </text><text xml:space="preserve" font-family="AvenirNext-Medium" font-size="17.0" fill="#5D514B" transform="matrix(1.00, 0.00, -0.00, -1.00, 412.1, 99.0)">D</text><text xml:space="preserve" font-family="AvenirNext-Medium" font-size="17.0" fill="#5D514B" transform="matrix(1.00, 0.00, -0.00, -1.00, 425.0, 99.0)">a</text><text xml:space="preserve" font-family="AvenirNext-Medium" font-size="17.0" fill="#5D514B" transform="matrix(1.00, 0.00, -0.00, -1.00, 434.1, 99.0)">t</text><text xml:space="preserve" font-family="AvenirNext-Medium" font-size="17.0" fill="#5D514B" transform="matrix(1.00, 0.00, -0.00, -1.00, 439.7, 99.0)">a</text><text xml:space="preserve" font-family="AvenirNext-Medium" font-size="17.0" fill="#5D514B" transform="matrix(1.00, 0.00, -0.00, -1.00, 448.9, 99.0)"> </text><text xml:space="preserve" font-family="AvenirNext-Medium" font-size="17.0" fill="#5D514B" transform="matrix(1.00, 0.00, -0.00, -1.00, 453.1, 99.0)">N</text><text xml:space="preserve" font-family="AvenirNext-Medium" font-size="17.0" fill="#5D514B" transform="matrix(1.00, 0.00, -0.00, -1.00, 466.3, 99.0)">e</text><text xml:space="preserve" font-family="AvenirNext-Medium" font-size="17.0" fill="#5D514B" transform="matrix(1.00, 0.00, -0.00, -1.00, 476.0, 99.0)">w</text><text xml:space="preserve" font-family="AvenirNext-Medium" font-size="17.0" fill="#5D514B" transform="matrix(1.00, 0.00, -0.00, -1.00, 489.1, 99.0)">f</text><text xml:space="preserve" font-family="AvenirNext-Medium" font-size="17.0" fill="#5D514B" transform="matrix(1.00, 0.00, -0.00, -1.00, 494.4, 99.0)">o</text><text xml:space="preserve" font-family="AvenirNext-Medium" font-size="17.0" fill="#5D514B" transform="matrix(1.00, 0.00, -0.00, -1.00, 504.8, 99.0)">u</text><text xml:space="preserve" font-family="AvenirNext-Medium" font-size="17.0" fill="#5D514B" transform="matrix(1.00, 0.00, -0.00, -1.00, 514.7, 99.0)">n</text><text xml:space="preserve" font-family="AvenirNext-Medium" font-size="17.0" fill="#5D514B" transform="matrix(1.00, 0.00, -0.00, -1.00, 524.6, 99.0)">d</text><text xml:space="preserve" font-family="AvenirNext-Medium" font-size="17.0" fill="#5D514B" transform="matrix(1.00, 0.00, -0.00, -1.00, 535.4, 99.0)">l</text><text xml:space="preserve" font-family="AvenirNext-Medium" font-size="17.0" fill="#5D514B" transform="matrix(1.00, 0.00, -0.00, -1.00, 539.8, 99.0)">a</text><text xml:space="preserve" font-family="AvenirNext-Medium" font-size="17.0" fill="#5D514B" transform="matrix(1.00, 0.00, -0.00, -1.00, 549.0, 99.0)">n</text><text xml:space="preserve" font-family="AvenirNext-Medium" font-size="17.0" fill="#5D514B" transform="matrix(1.00, 0.00, -0.00, -1.00, 558.9, 99.0)">d</text><text xml:space="preserve" font-family="AvenirNext-Medium" font-size="17.0" fill="#5D514B" transform="matrix(1.00, 0.00, -0.00, -1.00, 569.7, 99.0)"> </text><text xml:space="preserve" font-family="AvenirNext-Medium" font-size="17.0" fill="#5D514B" transform="matrix(1.00, 0.00, -0.00, -1.00, 573.9, 99.0)">&amp;</text><text xml:space="preserve" font-family="AvenirNext-Medium" font-size="17.0" fill="#5D514B" transform="matrix(1.00, 0.00, -0.00, -1.00, 586.2, 99.0)"> </text><text xml:space="preserve" font-family="AvenirNext-Medium" font-size="17.0" fill="#5D514B" transform="matrix(1.00, 0.00, -0.00, -1.00, 590.5, 99.0)">L</text><text xml:space="preserve" font-family="AvenirNext-Medium" font-size="17.0" fill="#5D514B" transform="matrix(1.00, 0.00, -0.00, -1.00, 599.2, 99.0)">a</text><text xml:space="preserve" font-family="AvenirNext-Medium" font-size="17.0" fill="#5D514B" transform="matrix(1.00, 0.00, -0.00, -1.00, 608.4, 99.0)">b</text><text xml:space="preserve" font-family="AvenirNext-Medium" font-size="17.0" fill="#5D514B" transform="matrix(1.00, 0.00, -0.00, -1.00, 619.2, 99.0)">r</text><text xml:space="preserve" font-family="AvenirNext-Medium" font-size="17.0" fill="#5D514B" transform="matrix(1.00, 0.00, -0.00, -1.00, 625.1, 99.0)">a</text><text xml:space="preserve" font-family="AvenirNext-Medium" font-size="17.0" fill="#5D514B" transform="matrix(1.00, 0.00, -0.00, -1.00, 634.3, 99.0)">d</text><text xml:space="preserve" font-family="AvenirNext-Medium" font-size="17.0" fill="#5D514B" transform="matrix(1.00, 0.00, -0.00, -1.00, 645.1, 99.0)">o</text><text xml:space="preserve" font-family="AvenirNext-Medium" font-size="17.0" fill="#5D514B" transform="matrix(1.00, 0.00, -0.00, -1.00, 655.5, 99.0)">r</text><g><clipPath id="clip-228"><path d="M 361.7 96.5 L 661.3 96.5 L 661.3 99.4 L 361.7 99.4 Z M 361.7 96.5 "></path></clipPath><g clip-path="url(#clip-228)"><path d="M 101.0 22.1 L 399.6 22.1 " fill="none" stroke="#5D514B" stroke-width="0.85" stroke-miterlimit="0.00" transform="matrix(1.00, 0.00, 0.00, -1.00, 261.7, 120.0)"></path></g></g></g></svg>