<?xml version="1.0" encoding="UTF-8" standalone="no"?><svg xmlns="http://www.w3.org/2000/svg" xmlns:xlink="http://www.w3.org/1999/xlink" clip-rule="evenodd" stroke-miterlimit="4.00" viewBox="0 0 1024 768"><desc>SVG generated by Keynote</desc><defs></defs><g transform="matrix(1.00, 0.00, -0.00, -1.00, 0.0, 768.0)"><g><clipPath id="clip-141"><path d="M 0.0 768.0 L 1024.0 768.0 L 1024.0 0.0 L 0.0 0.0 Z M 0.0 768.0 "></path></clipPath><g clip-path="url(#clip-141)"><image xlink:href="../../E8782ACA-0DD6-462E-AFA6-8D26C4A2FECE/assets/107E65D87114B546DB29000410A7B5AF.jpeg" width="1024.00" height="768.00" transform="matrix(1.00, 0.00, -0.00, -1.00, 0.0, 768.0)"></image></g></g><image xlink:href="../../FC304BCC-1D70-463B-B68E-C189D463DE80/assets/D60E7AE5D053E42B36E6A1F77EC4BFE5.png" width="864.00" height="540.00" transform="matrix(1.01, 0.00, -0.00, -1.01, 77.0, 692.0)"></image><image xlink:href="../../FC304BCC-1D70-463B-B68E-C189D463DE80/assets/62149B7ACCDD2E67DC7248AF30E582E1.png" width="315.00" height="23.00" transform="matrix(1.00, 0.00, -0.00, -1.00, 354.0, 88.0)"></image><text xml:space="preserve" font-family="AvenirNext-Medium" font-size="17.0" fill="#5D514B" transform="matrix(1.00, 0.00, -0.00, -1.00, 355.0, 74.0)">P</text><text xml:space="preserve" font-family="AvenirNext-Medium" font-size="17.0" fill="#5D514B" transform="matrix(1.00, 0.00, -0.00, -1.00, 364.3, 74.0)">r</text><text xml:space="preserve" font-family="AvenirNext-Medium" font-size="17.0" fill="#5D514B" transform="matrix(1.00, 0.00, -0.00, -1.00, 370.5, 74.0)">i</text><text xml:space="preserve" font-family="AvenirNext-Medium" font-size="17.0" fill="#5D514B" transform="matrix(1.00, 0.00, -0.00, -1.00, 374.9, 74.0)">n</text><text xml:space="preserve" font-family="AvenirNext-Medium" font-size="17.0" fill="#5D514B" transform="matrix(1.00, 0.00, -0.00, -1.00, 384.8, 74.0)">c</text><text xml:space="preserve" font-family="AvenirNext-Medium" font-size="17.0" fill="#5D514B" transform="matrix(1.00, 0.00, -0.00, -1.00, 393.2, 74.0)">e</text><text xml:space="preserve" font-family="AvenirNext-Medium" font-size="17.0" fill="#5D514B" transform="matrix(1.00, 0.00, -0.00, -1.00, 402.9, 74.0)"> </text><text xml:space="preserve" font-family="AvenirNext-Medium" font-size="17.0" fill="#5D514B" transform="matrix(1.00, 0.00, -0.00, -1.00, 407.2, 74.0)">E</text><text xml:space="preserve" font-family="AvenirNext-Medium" font-size="17.0" fill="#5D514B" transform="matrix(1.00, 0.00, -0.00, -1.00, 417.4, 74.0)">d</text><text xml:space="preserve" font-family="AvenirNext-Medium" font-size="17.0" fill="#5D514B" transform="matrix(1.00, 0.00, -0.00, -1.00, 428.2, 74.0)">w</text><text xml:space="preserve" font-family="AvenirNext-Medium" font-size="17.0" fill="#5D514B" transform="matrix(1.00, 0.00, -0.00, -1.00, 441.3, 74.0)">a</text><text xml:space="preserve" font-family="AvenirNext-Medium" font-size="17.0" fill="#5D514B" transform="matrix(1.00, 0.00, -0.00, -1.00, 450.5, 74.0)">r</text><text xml:space="preserve" font-family="AvenirNext-Medium" font-size="17.0" fill="#5D514B" transform="matrix(1.00, 0.00, -0.00, -1.00, 456.4, 74.0)">d</text><text xml:space="preserve" font-family="AvenirNext-Medium" font-size="17.0" fill="#5D514B" transform="matrix(1.00, 0.00, -0.00, -1.00, 467.2, 74.0)"> </text><text xml:space="preserve" font-family="AvenirNext-Medium" font-size="17.0" fill="#5D514B" transform="matrix(1.00, 0.00, -0.00, -1.00, 471.4, 74.0)">I</text><text xml:space="preserve" font-family="AvenirNext-Medium" font-size="17.0" fill="#5D514B" transform="matrix(1.00, 0.00, -0.00, -1.00, 476.0, 74.0)">s</text><text xml:space="preserve" font-family="AvenirNext-Medium" font-size="17.0" fill="#5D514B" transform="matrix(1.00, 0.00, -0.00, -1.00, 483.6, 74.0)">l</text><text xml:space="preserve" font-family="AvenirNext-Medium" font-size="17.0" fill="#5D514B" transform="matrix(1.00, 0.00, -0.00, -1.00, 488.0, 74.0)">a</text><text xml:space="preserve" font-family="AvenirNext-Medium" font-size="17.0" fill="#5D514B" transform="matrix(1.00, 0.00, -0.00, -1.00, 497.2, 74.0)">n</text><text xml:space="preserve" font-family="AvenirNext-Medium" font-size="17.0" fill="#5D514B" transform="matrix(1.00, 0.00, -0.00, -1.00, 507.1, 74.0)">d</text><text xml:space="preserve" font-family="AvenirNext-Medium" font-size="17.0" fill="#5D514B" transform="matrix(1.00, 0.00, -0.00, -1.00, 517.9, 74.0)"> </text><text xml:space="preserve" font-family="AvenirNext-Medium" font-size="17.0" fill="#5D514B" transform="matrix(1.00, 0.00, -0.00, -1.00, 522.2, 74.0)">E</text><text xml:space="preserve" font-family="AvenirNext-Medium" font-size="17.0" fill="#5D514B" transform="matrix(1.00, 0.00, -0.00, -1.00, 532.4, 74.0)">n</text><text xml:space="preserve" font-family="AvenirNext-Medium" font-size="17.0" fill="#5D514B" transform="matrix(1.00, 0.00, -0.00, -1.00, 542.3, 74.0)">e</text><text xml:space="preserve" font-family="AvenirNext-Medium" font-size="17.0" fill="#5D514B" transform="matrix(1.00, 0.00, -0.00, -1.00, 552.0, 74.0)">r</text><text xml:space="preserve" font-family="AvenirNext-Medium" font-size="17.0" fill="#5D514B" transform="matrix(1.00, 0.00, -0.00, -1.00, 557.9, 74.0)">g</text><text xml:space="preserve" font-family="AvenirNext-Medium" font-size="17.0" fill="#5D514B" transform="matrix(1.00, 0.00, -0.00, -1.00, 568.6, 74.0)">y</text><text xml:space="preserve" font-family="AvenirNext-Medium" font-size="17.0" fill="#5D514B" transform="matrix(1.00, 0.00, -0.00, -1.00, 577.2, 74.0)"> </text><text xml:space="preserve" font-family="AvenirNext-Medium" font-size="17.0" fill="#5D514B" transform="matrix(1.00, 0.00, -0.00, -1.00, 581.4, 74.0)">D</text><text xml:space="preserve" font-family="AvenirNext-Medium" font-size="17.0" fill="#5D514B" transform="matrix(1.00, 0.00, -0.00, -1.00, 594.4, 74.0)">a</text><text xml:space="preserve" font-family="AvenirNext-Medium" font-size="17.0" fill="#5D514B" transform="matrix(1.00, 0.00, -0.00, -1.00, 603.6, 74.0)">s</text><text xml:space="preserve" font-family="AvenirNext-Medium" font-size="17.0" fill="#5D514B" transform="matrix(1.00, 0.00, -0.00, -1.00, 611.1, 74.0)">h</text><text xml:space="preserve" font-family="AvenirNext-Medium" font-size="17.0" fill="#5D514B" transform="matrix(1.00, 0.00, -0.00, -1.00, 621.0, 74.0)">b</text><text xml:space="preserve" font-family="AvenirNext-Medium" font-size="17.0" fill="#5D514B" transform="matrix(1.00, 0.00, -0.00, -1.00, 631.9, 74.0)">o</text><text xml:space="preserve" font-family="AvenirNext-Medium" font-size="17.0" fill="#5D514B" transform="matrix(1.00, 0.00, -0.00, -1.00, 642.2, 74.0)">a</text><text xml:space="preserve" font-family="AvenirNext-Medium" font-size="17.0" fill="#5D514B" transform="matrix(1.00, 0.00, -0.00, -1.00, 651.4, 74.0)">r</text><text xml:space="preserve" font-family="AvenirNext-Medium" font-size="17.0" fill="#5D514B" transform="matrix(1.00, 0.00, -0.00, -1.00, 657.3, 74.0)">d</text><g><clipPath id="clip-142"><path d="M 354.5 71.6 L 668.5 71.6 L 668.5 74.5 L 354.5 74.5 Z M 354.5 71.6 "></path></clipPath><g clip-path="url(#clip-142)"><path d="M 93.8 22.1 L 406.9 22.1 " fill="none" stroke="#5D514B" stroke-width="0.85" stroke-miterlimit="0.00" transform="matrix(1.00, 0.00, 0.00, -1.00, 261.7, 95.1)"></path></g></g></g></svg>