<?xml version="1.0" encoding="UTF-8" standalone="no"?><svg xmlns="http://www.w3.org/2000/svg" xmlns:xlink="http://www.w3.org/1999/xlink" clip-rule="evenodd" stroke-miterlimit="4.00" viewBox="0 0 1024 768"><desc>SVG generated by Keynote</desc><defs></defs><g transform="matrix(1.00, 0.00, -0.00, -1.00, 0.0, 768.0)"><g><clipPath id="clip-932"><path d="M 0.0 768.0 L 1024.0 768.0 L 1024.0 0.0 L 0.0 0.0 Z M 0.0 768.0 "></path></clipPath><g clip-path="url(#clip-932)"><image xlink:href="../../E8782ACA-0DD6-462E-AFA6-8D26C4A2FECE/assets/107E65D87114B546DB29000410A7B5AF.jpeg" width="1024.00" height="768.00" transform="matrix(1.00, 0.00, -0.00, -1.00, 0.0, 768.0)"></image></g></g><text xml:space="preserve" font-family="GillSans-SemiBold" font-weight="bold" font-size="36.0" fill="#525252" transform="matrix(1.00, 0.00, -0.00, -1.00, 172.0, 580.0)">C</text><text xml:space="preserve" font-family="GillSans-SemiBold" font-weight="bold" font-size="36.0" fill="#525252" transform="matrix(1.00, 0.00, -0.00, -1.00, 198.1, 580.0)">o</text><text xml:space="preserve" font-family="GillSans-SemiBold" font-weight="bold" font-size="36.0" fill="#525252" transform="matrix(1.00, 0.00, -0.00, -1.00, 218.8, 580.0)">n</text><text xml:space="preserve" font-family="GillSans-SemiBold" font-weight="bold" font-size="36.0" fill="#525252" transform="matrix(1.00, 0.00, -0.00, -1.00, 238.2, 580.0)">t</text><text xml:space="preserve" font-family="GillSans-SemiBold" font-weight="bold" font-size="36.0" fill="#525252" transform="matrix(1.00, 0.00, -0.00, -1.00, 251.5, 580.0)">a</text><text xml:space="preserve" font-family="GillSans-SemiBold" font-weight="bold" font-size="36.0" fill="#525252" transform="matrix(1.00, 0.00, -0.00, -1.00, 268.9, 580.0)">c</text><text xml:space="preserve" font-family="GillSans-SemiBold" font-weight="bold" font-size="36.0" fill="#525252" transform="matrix(1.00, 0.00, -0.00, -1.00, 285.5, 580.0)">t</text><text xml:space="preserve" font-family="GillSans-SemiBold" font-weight="bold" font-size="36.0" fill="#525252" transform="matrix(1.00, 0.00, -0.00, -1.00, 298.8, 580.0)">:</text><text xml:space="preserve" font-family="GillSans-SemiBold" font-weight="bold" font-size="36.0" fill="#525252" transform="matrix(1.00, 0.00, -0.00, -1.00, 307.6, 580.0)"> </text><text xml:space="preserve" font-family="GillSans-SemiBold" font-weight="bold" font-size="36.0" fill="#525252" transform="matrix(1.00, 0.00, -0.00, -1.00, 317.6, 580.0)">M</text><text xml:space="preserve" font-family="GillSans-SemiBold" font-weight="bold" font-size="36.0" fill="#525252" transform="matrix(1.00, 0.00, -0.00, -1.00, 347.7, 580.0)">i</text><text xml:space="preserve" font-family="GillSans-SemiBold" font-weight="bold" font-size="36.0" fill="#525252" transform="matrix(1.00, 0.00, -0.00, -1.00, 356.6, 580.0)">c</text><text xml:space="preserve" font-family="GillSans-SemiBold" font-weight="bold" font-size="36.0" fill="#525252" transform="matrix(1.00, 0.00, -0.00, -1.00, 373.2, 580.0)">h</text><text xml:space="preserve" font-family="GillSans-SemiBold" font-weight="bold" font-size="36.0" fill="#525252" transform="matrix(1.00, 0.00, -0.00, -1.00, 392.7, 580.0)">a</text><text xml:space="preserve" font-family="GillSans-SemiBold" font-weight="bold" font-size="36.0" fill="#525252" transform="matrix(1.00, 0.00, -0.00, -1.00, 410.1, 580.0)">e</text><text xml:space="preserve" font-family="GillSans-SemiBold" font-weight="bold" font-size="36.0" fill="#525252" transform="matrix(1.00, 0.00, -0.00, -1.00, 428.7, 580.0)">l</text><text xml:space="preserve" font-family="GillSans-SemiBold" font-weight="bold" font-size="36.0" fill="#525252" transform="matrix(1.00, 0.00, -0.00, -1.00, 437.6, 580.0)"> </text><text xml:space="preserve" font-family="GillSans-SemiBold" font-weight="bold" font-size="36.0" fill="#525252" transform="matrix(1.00, 0.00, -0.00, -1.00, 447.6, 580.0)">E</text><text xml:space="preserve" font-family="GillSans-SemiBold" font-weight="bold" font-size="36.0" fill="#525252" transform="matrix(1.00, 0.00, -0.00, -1.00, 468.1, 580.0)">a</text><text xml:space="preserve" font-family="GillSans-SemiBold" font-weight="bold" font-size="36.0" fill="#525252" transform="matrix(1.00, 0.00, -0.00, -1.00, 485.5, 580.0)">s</text><text xml:space="preserve" font-family="GillSans-SemiBold" font-weight="bold" font-size="36.0" fill="#525252" transform="matrix(1.00, 0.00, -0.00, -1.00, 500.0, 580.0)">t</text><text xml:space="preserve" font-family="GillSans-SemiBold" font-weight="bold" font-size="36.0" fill="#525252" transform="matrix(1.00, 0.00, -0.00, -1.00, 513.3, 580.0)">e</text><text xml:space="preserve" font-family="GillSans-SemiBold" font-weight="bold" font-size="36.0" fill="#525252" transform="matrix(1.00, 0.00, -0.00, -1.00, 531.9, 580.0)">r</text><text xml:space="preserve" font-family="GillSans-SemiBold" font-weight="bold" font-size="36.0" fill="#525252" transform="matrix(1.00, 0.00, -0.00, -1.00, 547.0, 580.0)"> </text><text xml:space="preserve" font-family="GillSans-Light" font-size="36.0" fill="#525252" transform="matrix(1.00, 0.00, -0.00, -1.00, 172.0, 538.0)">c</text><text xml:space="preserve" font-family="GillSans-Light" font-size="36.0" fill="#525252" transform="matrix(1.00, 0.00, -0.00, -1.00, 187.0, 538.0)">o</text><text xml:space="preserve" font-family="GillSans-Light" font-size="36.0" fill="#525252" transform="matrix(1.00, 0.00, -0.00, -1.00, 206.5, 538.0)">d</text><text xml:space="preserve" font-family="GillSans-Light" font-size="36.0" fill="#525252" transform="matrix(1.00, 0.00, -0.00, -1.00, 224.9, 538.0)">e</text><text xml:space="preserve" font-family="GillSans-Light" font-size="36.0" fill="#525252" transform="matrix(1.00, 0.00, -0.00, -1.00, 242.1, 538.0)">t</text><text xml:space="preserve" font-family="GillSans-Light" font-size="36.0" fill="#525252" transform="matrix(1.00, 0.00, -0.00, -1.00, 253.0, 538.0)">o</text><text xml:space="preserve" font-family="GillSans-Light" font-size="36.0" fill="#525252" transform="matrix(1.00, 0.00, -0.00, -1.00, 272.5, 538.0)">j</text><text xml:space="preserve" font-family="GillSans-Light" font-size="36.0" fill="#525252" transform="matrix(1.00, 0.00, -0.00, -1.00, 279.2, 538.0)">o</text><text xml:space="preserve" font-family="GillSans-Light" font-size="36.0" fill="#525252" transform="matrix(1.00, 0.00, -0.00, -1.00, 298.0, 538.0)">y</text><text xml:space="preserve" font-family="GillSans-Light" font-size="36.0" fill="#525252" transform="matrix(1.00, 0.00, -0.00, -1.00, 313.1, 538.0)">@</text><text xml:space="preserve" font-family="GillSans-Light" font-size="36.0" fill="#525252" transform="matrix(1.00, 0.00, -0.00, -1.00, 341.8, 538.0)">g</text><text xml:space="preserve" font-family="GillSans-Light" font-size="36.0" fill="#525252" transform="matrix(1.00, 0.00, -0.00, -1.00, 357.2, 538.0)">m</text><text xml:space="preserve" font-family="GillSans-Light" font-size="36.0" fill="#525252" transform="matrix(1.00, 0.00, -0.00, -1.00, 384.9, 538.0)">a</text><text xml:space="preserve" font-family="GillSans-Light" font-size="36.0" fill="#525252" transform="matrix(1.00, 0.00, -0.00, -1.00, 400.3, 538.0)">i</text><text xml:space="preserve" font-family="GillSans-Light" font-size="36.0" fill="#525252" transform="matrix(1.00, 0.00, -0.00, -1.00, 407.1, 538.0)">l</text><text xml:space="preserve" font-family="GillSans-Light" font-size="36.0" fill="#525252" transform="matrix(1.00, 0.00, -0.00, -1.00, 413.8, 538.0)">.</text><text xml:space="preserve" font-family="GillSans-Light" font-size="36.0" fill="#525252" transform="matrix(1.00, 0.00, -0.00, -1.00, 420.2, 538.0)">c</text><text xml:space="preserve" font-family="GillSans-Light" font-size="36.0" fill="#525252" transform="matrix(1.00, 0.00, -0.00, -1.00, 435.2, 538.0)">o</text><text xml:space="preserve" font-family="GillSans-Light" font-size="36.0" fill="#525252" transform="matrix(1.00, 0.00, -0.00, -1.00, 454.7, 538.0)">m</text><text xml:space="preserve" font-family="GillSans-SemiBold" font-weight="bold" font-size="36.0" fill="#525252" transform="matrix(1.00, 0.00, -0.00, -1.00, 172.0, 453.0)">C</text><text xml:space="preserve" font-family="GillSans-SemiBold" font-weight="bold" font-size="36.0" fill="#525252" transform="matrix(1.00, 0.00, -0.00, -1.00, 198.1, 453.0)">o</text><text xml:space="preserve" font-family="GillSans-SemiBold" font-weight="bold" font-size="36.0" fill="#525252" transform="matrix(1.00, 0.00, -0.00, -1.00, 218.8, 453.0)">n</text><text xml:space="preserve" font-family="GillSans-SemiBold" font-weight="bold" font-size="36.0" fill="#525252" transform="matrix(1.00, 0.00, -0.00, -1.00, 238.2, 453.0)">t</text><text xml:space="preserve" font-family="GillSans-SemiBold" font-weight="bold" font-size="36.0" fill="#525252" transform="matrix(1.00, 0.00, -0.00, -1.00, 251.5, 453.0)">a</text><text xml:space="preserve" font-family="GillSans-SemiBold" font-weight="bold" font-size="36.0" fill="#525252" transform="matrix(1.00, 0.00, -0.00, -1.00, 268.9, 453.0)">c</text><text xml:space="preserve" font-family="GillSans-SemiBold" font-weight="bold" font-size="36.0" fill="#525252" transform="matrix(1.00, 0.00, -0.00, -1.00, 285.5, 453.0)">t</text><text xml:space="preserve" font-family="GillSans-SemiBold" font-weight="bold" font-size="36.0" fill="#525252" transform="matrix(1.00, 0.00, -0.00, -1.00, 298.8, 453.0)">:</text><text xml:space="preserve" font-family="GillSans-SemiBold" font-weight="bold" font-size="36.0" fill="#525252" transform="matrix(1.00, 0.00, -0.00, -1.00, 307.6, 453.0)"> </text><text xml:space="preserve" font-family="GillSans-SemiBold" font-weight="bold" font-size="36.0" fill="#525252" transform="matrix(1.00, 0.00, -0.00, -1.00, 317.6, 453.0)">P</text><text xml:space="preserve" font-family="GillSans-SemiBold" font-weight="bold" font-size="36.0" fill="#525252" transform="matrix(1.00, 0.00, -0.00, -1.00, 338.7, 453.0)">E</text><text xml:space="preserve" font-family="GillSans-SemiBold" font-weight="bold" font-size="36.0" fill="#525252" transform="matrix(1.00, 0.00, -0.00, -1.00, 359.2, 453.0)">I</text><text xml:space="preserve" font-family="GillSans-SemiBold" font-weight="bold" font-size="36.0" fill="#525252" transform="matrix(1.00, 0.00, -0.00, -1.00, 369.6, 453.0)"> </text><text xml:space="preserve" font-family="GillSans-SemiBold" font-weight="bold" font-size="36.0" fill="#525252" transform="matrix(1.00, 0.00, -0.00, -1.00, 379.6, 453.0)">O</text><text xml:space="preserve" font-family="GillSans-SemiBold" font-weight="bold" font-size="36.0" fill="#525252" transform="matrix(1.00, 0.00, -0.00, -1.00, 410.1, 453.0)">p</text><text xml:space="preserve" font-family="GillSans-SemiBold" font-weight="bold" font-size="36.0" fill="#525252" transform="matrix(1.00, 0.00, -0.00, -1.00, 429.9, 453.0)">e</text><text xml:space="preserve" font-family="GillSans-SemiBold" font-weight="bold" font-size="36.0" fill="#525252" transform="matrix(1.00, 0.00, -0.00, -1.00, 448.5, 453.0)">n</text><text xml:space="preserve" font-family="GillSans-SemiBold" font-weight="bold" font-size="36.0" fill="#525252" transform="matrix(1.00, 0.00, -0.00, -1.00, 467.9, 453.0)"> </text><text xml:space="preserve" font-family="GillSans-SemiBold" font-weight="bold" font-size="36.0" fill="#525252" transform="matrix(1.00, 0.00, -0.00, -1.00, 477.9, 453.0)">D</text><text xml:space="preserve" font-family="GillSans-SemiBold" font-weight="bold" font-size="36.0" fill="#525252" transform="matrix(1.00, 0.00, -0.00, -1.00, 505.7, 453.0)">a</text><text xml:space="preserve" font-family="GillSans-SemiBold" font-weight="bold" font-size="36.0" fill="#525252" transform="matrix(1.00, 0.00, -0.00, -1.00, 523.1, 453.0)">t</text><text xml:space="preserve" font-family="GillSans-SemiBold" font-weight="bold" font-size="36.0" fill="#525252" transform="matrix(1.00, 0.00, -0.00, -1.00, 536.4, 453.0)">a</text><text xml:space="preserve" font-family="GillSans-SemiBold" font-weight="bold" font-size="36.0" fill="#525252" transform="matrix(1.00, 0.00, -0.00, -1.00, 553.8, 453.0)"> </text><text xml:space="preserve" font-family="GillSans-SemiBold" font-weight="bold" font-size="36.0" fill="#525252" transform="matrix(1.00, 0.00, -0.00, -1.00, 563.8, 453.0)">B</text><text xml:space="preserve" font-family="GillSans-SemiBold" font-weight="bold" font-size="36.0" fill="#525252" transform="matrix(1.00, 0.00, -0.00, -1.00, 586.4, 453.0)">o</text><text xml:space="preserve" font-family="GillSans-SemiBold" font-weight="bold" font-size="36.0" fill="#525252" transform="matrix(1.00, 0.00, -0.00, -1.00, 607.0, 453.0)">o</text><text xml:space="preserve" font-family="GillSans-SemiBold" font-weight="bold" font-size="36.0" fill="#525252" transform="matrix(1.00, 0.00, -0.00, -1.00, 627.7, 453.0)">k</text><text xml:space="preserve" font-family="GillSans-SemiBold" font-weight="bold" font-size="36.0" fill="#525252" transform="matrix(1.00, 0.00, -0.00, -1.00, 646.3, 453.0)"> </text><text xml:space="preserve" font-family="GillSans-SemiBold" font-weight="bold" font-size="36.0" fill="#525252" transform="matrix(1.00, 0.00, -0.00, -1.00, 656.3, 453.0)">C</text><text xml:space="preserve" font-family="GillSans-SemiBold" font-weight="bold" font-size="36.0" fill="#525252" transform="matrix(1.00, 0.00, -0.00, -1.00, 682.4, 453.0)">l</text><text xml:space="preserve" font-family="GillSans-SemiBold" font-weight="bold" font-size="36.0" fill="#525252" transform="matrix(1.00, 0.00, -0.00, -1.00, 691.4, 453.0)">u</text><text xml:space="preserve" font-family="GillSans-SemiBold" font-weight="bold" font-size="36.0" fill="#525252" transform="matrix(1.00, 0.00, -0.00, -1.00, 710.8, 453.0)">b</text><text xml:space="preserve" font-family="GillSans-SemiBold" font-weight="bold" font-size="36.0" fill="#525252" transform="matrix(1.00, 0.00, -0.00, -1.00, 730.6, 453.0)"> </text><text xml:space="preserve" font-family="GillSans-Light" font-size="36.0" fill="#525252" transform="matrix(1.00, 0.00, -0.00, -1.00, 172.0, 411.0)">o</text><text xml:space="preserve" font-family="GillSans-Light" font-size="36.0" fill="#525252" transform="matrix(1.00, 0.00, -0.00, -1.00, 191.5, 411.0)">p</text><text xml:space="preserve" font-family="GillSans-Light" font-size="36.0" fill="#525252" transform="matrix(1.00, 0.00, -0.00, -1.00, 209.9, 411.0)">e</text><text xml:space="preserve" font-family="GillSans-Light" font-size="36.0" fill="#525252" transform="matrix(1.00, 0.00, -0.00, -1.00, 227.1, 411.0)">n</text><text xml:space="preserve" font-family="GillSans-Light" font-size="36.0" fill="#525252" transform="matrix(1.00, 0.00, -0.00, -1.00, 244.8, 411.0)">d</text><text xml:space="preserve" font-family="GillSans-Light" font-size="36.0" fill="#525252" transform="matrix(1.00, 0.00, -0.00, -1.00, 263.1, 411.0)">a</text><text xml:space="preserve" font-family="GillSans-Light" font-size="36.0" fill="#525252" transform="matrix(1.00, 0.00, -0.00, -1.00, 278.5, 411.0)">t</text><text xml:space="preserve" font-family="GillSans-Light" font-size="36.0" fill="#525252" transform="matrix(1.00, 0.00, -0.00, -1.00, 289.3, 411.0)">a</text><text xml:space="preserve" font-family="GillSans-Light" font-size="36.0" fill="#525252" transform="matrix(1.00, 0.00, -0.00, -1.00, 304.7, 411.0)">p</text><text xml:space="preserve" font-family="GillSans-Light" font-size="36.0" fill="#525252" transform="matrix(1.00, 0.00, -0.00, -1.00, 323.0, 411.0)">e</text><text xml:space="preserve" font-family="GillSans-Light" font-size="36.0" fill="#525252" transform="matrix(1.00, 0.00, -0.00, -1.00, 340.3, 411.0)">i</text><text xml:space="preserve" font-family="GillSans-Light" font-size="36.0" fill="#525252" transform="matrix(1.00, 0.00, -0.00, -1.00, 347.0, 411.0)">@</text><text xml:space="preserve" font-family="GillSans-Light" font-size="36.0" fill="#525252" transform="matrix(1.00, 0.00, -0.00, -1.00, 375.8, 411.0)">g</text><text xml:space="preserve" font-family="GillSans-Light" font-size="36.0" fill="#525252" transform="matrix(1.00, 0.00, -0.00, -1.00, 391.2, 411.0)">m</text><text xml:space="preserve" font-family="GillSans-Light" font-size="36.0" fill="#525252" transform="matrix(1.00, 0.00, -0.00, -1.00, 418.9, 411.0)">a</text><text xml:space="preserve" font-family="GillSans-Light" font-size="36.0" fill="#525252" transform="matrix(1.00, 0.00, -0.00, -1.00, 434.3, 411.0)">i</text><text xml:space="preserve" font-family="GillSans-Light" font-size="36.0" fill="#525252" transform="matrix(1.00, 0.00, -0.00, -1.00, 441.0, 411.0)">l</text><text xml:space="preserve" font-family="GillSans-Light" font-size="36.0" fill="#525252" transform="matrix(1.00, 0.00, -0.00, -1.00, 447.8, 411.0)">.</text><text xml:space="preserve" font-family="GillSans-Light" font-size="36.0" fill="#525252" transform="matrix(1.00, 0.00, -0.00, -1.00, 454.2, 411.0)">c</text><text xml:space="preserve" font-family="GillSans-Light" font-size="36.0" fill="#525252" transform="matrix(1.00, 0.00, -0.00, -1.00, 469.2, 411.0)">o</text><text xml:space="preserve" font-family="GillSans-Light" font-size="36.0" fill="#525252" transform="matrix(1.00, 0.00, -0.00, -1.00, 488.7, 411.0)">m</text><text xml:space="preserve" font-family="GillSans-Light" font-size="36.0" fill="#525252" transform="matrix(1.00, 0.00, -0.00, -1.00, 172.0, 370.0)">h</text><text xml:space="preserve" font-family="GillSans-Light" font-size="36.0" fill="#525252" transform="matrix(1.00, 0.00, -0.00, -1.00, 189.7, 370.0)">t</text><text xml:space="preserve" font-family="GillSans-Light" font-size="36.0" fill="#525252" transform="matrix(1.00, 0.00, -0.00, -1.00, 200.5, 370.0)">t</text><text xml:space="preserve" font-family="GillSans-Light" font-size="36.0" fill="#525252" transform="matrix(1.00, 0.00, -0.00, -1.00, 211.4, 370.0)">p</text><text xml:space="preserve" font-family="GillSans-Light" font-size="36.0" fill="#525252" transform="matrix(1.00, 0.00, -0.00, -1.00, 229.7, 370.0)">:</text><text xml:space="preserve" font-family="GillSans-Light" font-size="36.0" fill="#525252" transform="matrix(1.00, 0.00, -0.00, -1.00, 236.1, 370.0)">/</text><text xml:space="preserve" font-family="GillSans-Light" font-size="36.0" fill="#525252" transform="matrix(1.00, 0.00, -0.00, -1.00, 246.2, 370.0)">/</text><text xml:space="preserve" font-family="GillSans-Light" font-size="36.0" fill="#525252" transform="matrix(1.00, 0.00, -0.00, -1.00, 256.3, 370.0)">p</text><text xml:space="preserve" font-family="GillSans-Light" font-size="36.0" fill="#525252" transform="matrix(1.00, 0.00, -0.00, -1.00, 274.6, 370.0)">e</text><text xml:space="preserve" font-family="GillSans-Light" font-size="36.0" fill="#525252" transform="matrix(1.00, 0.00, -0.00, -1.00, 291.9, 370.0)">i</text><text xml:space="preserve" font-family="GillSans-Light" font-size="36.0" fill="#525252" transform="matrix(1.00, 0.00, -0.00, -1.00, 298.6, 370.0)">d</text><text xml:space="preserve" font-family="GillSans-Light" font-size="36.0" fill="#525252" transform="matrix(1.00, 0.00, -0.00, -1.00, 317.0, 370.0)">e</text><text xml:space="preserve" font-family="GillSans-Light" font-size="36.0" fill="#525252" transform="matrix(1.00, 0.00, -0.00, -1.00, 334.2, 370.0)">v</text><text xml:space="preserve" font-family="GillSans-Light" font-size="36.0" fill="#525252" transform="matrix(1.00, 0.00, -0.00, -1.00, 349.6, 370.0)">s</text><text xml:space="preserve" font-family="GillSans-Light" font-size="36.0" fill="#525252" transform="matrix(1.00, 0.00, -0.00, -1.00, 362.3, 370.0)">.</text><text xml:space="preserve" font-family="GillSans-Light" font-size="36.0" fill="#525252" transform="matrix(1.00, 0.00, -0.00, -1.00, 368.7, 370.0)">g</text><text xml:space="preserve" font-family="GillSans-Light" font-size="36.0" fill="#525252" transform="matrix(1.00, 0.00, -0.00, -1.00, 384.0, 370.0)">i</text><text xml:space="preserve" font-family="GillSans-Light" font-size="36.0" fill="#525252" transform="matrix(1.00, 0.00, -0.00, -1.00, 390.8, 370.0)">t</text><text xml:space="preserve" font-family="GillSans-Light" font-size="36.0" fill="#525252" transform="matrix(1.00, 0.00, -0.00, -1.00, 401.6, 370.0)">h</text><text xml:space="preserve" font-family="GillSans-Light" font-size="36.0" fill="#525252" transform="matrix(1.00, 0.00, -0.00, -1.00, 419.3, 370.0)">u</text><text xml:space="preserve" font-family="GillSans-Light" font-size="36.0" fill="#525252" transform="matrix(1.00, 0.00, -0.00, -1.00, 437.0, 370.0)">b</text><text xml:space="preserve" font-family="GillSans-Light" font-size="36.0" fill="#525252" transform="matrix(1.00, 0.00, -0.00, -1.00, 454.6, 370.0)">.</text><text xml:space="preserve" font-family="GillSans-Light" font-size="36.0" fill="#525252" transform="matrix(1.00, 0.00, -0.00, -1.00, 460.9, 370.0)">i</text><text xml:space="preserve" font-family="GillSans-Light" font-size="36.0" fill="#525252" transform="matrix(1.00, 0.00, -0.00, -1.00, 467.7, 370.0)">o</text><text xml:space="preserve" font-family="GillSans-Light" font-size="36.0" fill="#525252" transform="matrix(1.00, 0.00, -0.00, -1.00, 487.2, 370.0)">/</text><text xml:space="preserve" font-family="GillSans-Light" font-size="36.0" fill="#525252" transform="matrix(1.00, 0.00, -0.00, -1.00, 497.3, 370.0)">O</text><text xml:space="preserve" font-family="GillSans-Light" font-size="36.0" fill="#525252" transform="matrix(1.00, 0.00, -0.00, -1.00, 527.0, 370.0)">p</text><text xml:space="preserve" font-family="GillSans-Light" font-size="36.0" fill="#525252" transform="matrix(1.00, 0.00, -0.00, -1.00, 545.3, 370.0)">e</text><text xml:space="preserve" font-family="GillSans-Light" font-size="36.0" fill="#525252" transform="matrix(1.00, 0.00, -0.00, -1.00, 562.5, 370.0)">n</text><text xml:space="preserve" font-family="GillSans-Light" font-size="36.0" fill="#525252" transform="matrix(1.00, 0.00, -0.00, -1.00, 580.2, 370.0)">D</text><text xml:space="preserve" font-family="GillSans-Light" font-size="36.0" fill="#525252" transform="matrix(1.00, 0.00, -0.00, -1.00, 606.9, 370.0)">a</text><text xml:space="preserve" font-family="GillSans-Light" font-size="36.0" fill="#525252" transform="matrix(1.00, 0.00, -0.00, -1.00, 622.2, 370.0)">t</text><text xml:space="preserve" font-family="GillSans-Light" font-size="36.0" fill="#525252" transform="matrix(1.00, 0.00, -0.00, -1.00, 633.1, 370.0)">a</text><text xml:space="preserve" font-family="GillSans-Light" font-size="36.0" fill="#525252" transform="matrix(1.00, 0.00, -0.00, -1.00, 648.4, 370.0)">B</text><text xml:space="preserve" font-family="GillSans-Light" font-size="36.0" fill="#525252" transform="matrix(1.00, 0.00, -0.00, -1.00, 667.5, 370.0)">o</text><text xml:space="preserve" font-family="GillSans-Light" font-size="36.0" fill="#525252" transform="matrix(1.00, 0.00, -0.00, -1.00, 687.0, 370.0)">o</text><text xml:space="preserve" font-family="GillSans-Light" font-size="36.0" fill="#525252" transform="matrix(1.00, 0.00, -0.00, -1.00, 706.6, 370.0)">k</text><text xml:space="preserve" font-family="GillSans-Light" font-size="36.0" fill="#525252" transform="matrix(1.00, 0.00, -0.00, -1.00, 721.9, 370.0)">C</text><text xml:space="preserve" font-family="GillSans-Light" font-size="36.0" fill="#525252" transform="matrix(1.00, 0.00, -0.00, -1.00, 746.3, 370.0)">l</text><text xml:space="preserve" font-family="GillSans-Light" font-size="36.0" fill="#525252" transform="matrix(1.00, 0.00, -0.00, -1.00, 753.0, 370.0)">u</text><text xml:space="preserve" font-family="GillSans-Light" font-size="36.0" fill="#525252" transform="matrix(1.00, 0.00, -0.00, -1.00, 770.7, 370.0)">b</text><g><clipPath id="clip-933"><path d="M 171.3 365.5 L 789.4 365.5 L 789.4 369.3 L 171.3 369.3 Z M 171.3 365.5 "></path></clipPath><g clip-path="url(#clip-933)"><path d="M 4.0 250.1 L 621.2 250.1 " fill="none" stroke="#525252" stroke-width="1.79" stroke-miterlimit="0.00" transform="matrix(1.00, 0.00, 0.00, -1.00, 168.3, 617.5)"></path></g></g><text xml:space="preserve" font-family="GillSans-SemiBold" font-weight="bold" font-size="36.0" fill="#525252" transform="matrix(1.00, 0.00, -0.00, -1.00, 172.0, 287.0)">C</text><text xml:space="preserve" font-family="GillSans-SemiBold" font-weight="bold" font-size="36.0" fill="#525252" transform="matrix(1.00, 0.00, -0.00, -1.00, 198.1, 287.0)">o</text><text xml:space="preserve" font-family="GillSans-SemiBold" font-weight="bold" font-size="36.0" fill="#525252" transform="matrix(1.00, 0.00, -0.00, -1.00, 218.8, 287.0)">n</text><text xml:space="preserve" font-family="GillSans-SemiBold" font-weight="bold" font-size="36.0" fill="#525252" transform="matrix(1.00, 0.00, -0.00, -1.00, 238.2, 287.0)">t</text><text xml:space="preserve" font-family="GillSans-SemiBold" font-weight="bold" font-size="36.0" fill="#525252" transform="matrix(1.00, 0.00, -0.00, -1.00, 251.5, 287.0)">a</text><text xml:space="preserve" font-family="GillSans-SemiBold" font-weight="bold" font-size="36.0" fill="#525252" transform="matrix(1.00, 0.00, -0.00, -1.00, 268.9, 287.0)">c</text><text xml:space="preserve" font-family="GillSans-SemiBold" font-weight="bold" font-size="36.0" fill="#525252" transform="matrix(1.00, 0.00, -0.00, -1.00, 285.5, 287.0)">t</text><text xml:space="preserve" font-family="GillSans-SemiBold" font-weight="bold" font-size="36.0" fill="#525252" transform="matrix(1.00, 0.00, -0.00, -1.00, 298.8, 287.0)">:</text><text xml:space="preserve" font-family="GillSans-SemiBold" font-weight="bold" font-size="36.0" fill="#525252" transform="matrix(1.00, 0.00, -0.00, -1.00, 307.6, 287.0)"> </text><text xml:space="preserve" font-family="GillSans-SemiBold" font-weight="bold" font-size="36.0" fill="#525252" transform="matrix(1.00, 0.00, -0.00, -1.00, 317.6, 287.0)">P</text><text xml:space="preserve" font-family="GillSans-SemiBold" font-weight="bold" font-size="36.0" fill="#525252" transform="matrix(1.00, 0.00, -0.00, -1.00, 338.7, 287.0)">E</text><text xml:space="preserve" font-family="GillSans-SemiBold" font-weight="bold" font-size="36.0" fill="#525252" transform="matrix(1.00, 0.00, -0.00, -1.00, 359.2, 287.0)">I</text><text xml:space="preserve" font-family="GillSans-SemiBold" font-weight="bold" font-size="36.0" fill="#525252" transform="matrix(1.00, 0.00, -0.00, -1.00, 369.6, 287.0)"> </text><text xml:space="preserve" font-family="GillSans-SemiBold" font-weight="bold" font-size="36.0" fill="#525252" transform="matrix(1.00, 0.00, -0.00, -1.00, 379.6, 287.0)">D</text><text xml:space="preserve" font-family="GillSans-SemiBold" font-weight="bold" font-size="36.0" fill="#525252" transform="matrix(1.00, 0.00, -0.00, -1.00, 407.4, 287.0)">e</text><text xml:space="preserve" font-family="GillSans-SemiBold" font-weight="bold" font-size="36.0" fill="#525252" transform="matrix(1.00, 0.00, -0.00, -1.00, 426.0, 287.0)">v</text><text xml:space="preserve" font-family="GillSans-SemiBold" font-weight="bold" font-size="36.0" fill="#525252" transform="matrix(1.00, 0.00, -0.00, -1.00, 443.2, 287.0)">s</text><text xml:space="preserve" font-family="GillSans-SemiBold" font-weight="bold" font-size="36.0" fill="#525252" transform="matrix(1.00, 0.00, -0.00, -1.00, 457.7, 287.0)"> </text><text xml:space="preserve" font-family="GillSans-Light" font-size="36.0" fill="#525252" transform="matrix(1.00, 0.00, -0.00, -1.00, 172.0, 245.0)">p</text><text xml:space="preserve" font-family="GillSans-Light" font-size="36.0" fill="#525252" transform="matrix(1.00, 0.00, -0.00, -1.00, 190.3, 245.0)">e</text><text xml:space="preserve" font-family="GillSans-Light" font-size="36.0" fill="#525252" transform="matrix(1.00, 0.00, -0.00, -1.00, 207.6, 245.0)">i</text><text xml:space="preserve" font-family="GillSans-Light" font-size="36.0" fill="#525252" transform="matrix(1.00, 0.00, -0.00, -1.00, 214.4, 245.0)">d</text><text xml:space="preserve" font-family="GillSans-Light" font-size="36.0" fill="#525252" transform="matrix(1.00, 0.00, -0.00, -1.00, 232.7, 245.0)">e</text><text xml:space="preserve" font-family="GillSans-Light" font-size="36.0" fill="#525252" transform="matrix(1.00, 0.00, -0.00, -1.00, 249.9, 245.0)">v</text><text xml:space="preserve" font-family="GillSans-Light" font-size="36.0" fill="#525252" transform="matrix(1.00, 0.00, -0.00, -1.00, 265.3, 245.0)">s</text><text xml:space="preserve" font-family="GillSans-Light" font-size="36.0" fill="#525252" transform="matrix(1.00, 0.00, -0.00, -1.00, 278.0, 245.0)">@</text><text xml:space="preserve" font-family="GillSans-Light" font-size="36.0" fill="#525252" transform="matrix(1.00, 0.00, -0.00, -1.00, 306.8, 245.0)">g</text><text xml:space="preserve" font-family="GillSans-Light" font-size="36.0" fill="#525252" transform="matrix(1.00, 0.00, -0.00, -1.00, 322.2, 245.0)">m</text><text xml:space="preserve" font-family="GillSans-Light" font-size="36.0" fill="#525252" transform="matrix(1.00, 0.00, -0.00, -1.00, 349.9, 245.0)">a</text><text xml:space="preserve" font-family="GillSans-Light" font-size="36.0" fill="#525252" transform="matrix(1.00, 0.00, -0.00, -1.00, 365.3, 245.0)">i</text><text xml:space="preserve" font-family="GillSans-Light" font-size="36.0" fill="#525252" transform="matrix(1.00, 0.00, -0.00, -1.00, 372.1, 245.0)">l</text><text xml:space="preserve" font-family="GillSans-Light" font-size="36.0" fill="#525252" transform="matrix(1.00, 0.00, -0.00, -1.00, 378.8, 245.0)">.</text><text xml:space="preserve" font-family="GillSans-Light" font-size="36.0" fill="#525252" transform="matrix(1.00, 0.00, -0.00, -1.00, 385.2, 245.0)">c</text><text xml:space="preserve" font-family="GillSans-Light" font-size="36.0" fill="#525252" transform="matrix(1.00, 0.00, -0.00, -1.00, 400.2, 245.0)">o</text><text xml:space="preserve" font-family="GillSans-Light" font-size="36.0" fill="#525252" transform="matrix(1.00, 0.00, -0.00, -1.00, 419.7, 245.0)">m</text><text xml:space="preserve" font-family="GillSans-Light" font-size="36.0" fill="#525252" transform="matrix(1.00, 0.00, -0.00, -1.00, 172.0, 204.0)">h</text><text xml:space="preserve" font-family="GillSans-Light" font-size="36.0" fill="#525252" transform="matrix(1.00, 0.00, -0.00, -1.00, 189.7, 204.0)">t</text><text xml:space="preserve" font-family="GillSans-Light" font-size="36.0" fill="#525252" transform="matrix(1.00, 0.00, -0.00, -1.00, 200.5, 204.0)">t</text><text xml:space="preserve" font-family="GillSans-Light" font-size="36.0" fill="#525252" transform="matrix(1.00, 0.00, -0.00, -1.00, 211.4, 204.0)">p</text><text xml:space="preserve" font-family="GillSans-Light" font-size="36.0" fill="#525252" transform="matrix(1.00, 0.00, -0.00, -1.00, 229.7, 204.0)">:</text><text xml:space="preserve" font-family="GillSans-Light" font-size="36.0" fill="#525252" transform="matrix(1.00, 0.00, -0.00, -1.00, 236.1, 204.0)">/</text><text xml:space="preserve" font-family="GillSans-Light" font-size="36.0" fill="#525252" transform="matrix(1.00, 0.00, -0.00, -1.00, 246.2, 204.0)">/</text><text xml:space="preserve" font-family="GillSans-Light" font-size="36.0" fill="#525252" transform="matrix(1.00, 0.00, -0.00, -1.00, 256.3, 204.0)">p</text><text xml:space="preserve" font-family="GillSans-Light" font-size="36.0" fill="#525252" transform="matrix(1.00, 0.00, -0.00, -1.00, 274.6, 204.0)">e</text><text xml:space="preserve" font-family="GillSans-Light" font-size="36.0" fill="#525252" transform="matrix(1.00, 0.00, -0.00, -1.00, 291.9, 204.0)">i</text><text xml:space="preserve" font-family="GillSans-Light" font-size="36.0" fill="#525252" transform="matrix(1.00, 0.00, -0.00, -1.00, 298.6, 204.0)">d</text><text xml:space="preserve" font-family="GillSans-Light" font-size="36.0" fill="#525252" transform="matrix(1.00, 0.00, -0.00, -1.00, 317.0, 204.0)">e</text><text xml:space="preserve" font-family="GillSans-Light" font-size="36.0" fill="#525252" transform="matrix(1.00, 0.00, -0.00, -1.00, 334.2, 204.0)">v</text><text xml:space="preserve" font-family="GillSans-Light" font-size="36.0" fill="#525252" transform="matrix(1.00, 0.00, -0.00, -1.00, 349.6, 204.0)">s</text><text xml:space="preserve" font-family="GillSans-Light" font-size="36.0" fill="#525252" transform="matrix(1.00, 0.00, -0.00, -1.00, 362.3, 204.0)">.</text><text xml:space="preserve" font-family="GillSans-Light" font-size="36.0" fill="#525252" transform="matrix(1.00, 0.00, -0.00, -1.00, 368.7, 204.0)">g</text><text xml:space="preserve" font-family="GillSans-Light" font-size="36.0" fill="#525252" transform="matrix(1.00, 0.00, -0.00, -1.00, 384.0, 204.0)">i</text><text xml:space="preserve" font-family="GillSans-Light" font-size="36.0" fill="#525252" transform="matrix(1.00, 0.00, -0.00, -1.00, 390.8, 204.0)">t</text><text xml:space="preserve" font-family="GillSans-Light" font-size="36.0" fill="#525252" transform="matrix(1.00, 0.00, -0.00, -1.00, 401.6, 204.0)">h</text><text xml:space="preserve" font-family="GillSans-Light" font-size="36.0" fill="#525252" transform="matrix(1.00, 0.00, -0.00, -1.00, 419.3, 204.0)">u</text><text xml:space="preserve" font-family="GillSans-Light" font-size="36.0" fill="#525252" transform="matrix(1.00, 0.00, -0.00, -1.00, 437.0, 204.0)">b</text><text xml:space="preserve" font-family="GillSans-Light" font-size="36.0" fill="#525252" transform="matrix(1.00, 0.00, -0.00, -1.00, 454.6, 204.0)">.</text><text xml:space="preserve" font-family="GillSans-Light" font-size="36.0" fill="#525252" transform="matrix(1.00, 0.00, -0.00, -1.00, 460.9, 204.0)">i</text><text xml:space="preserve" font-family="GillSans-Light" font-size="36.0" fill="#525252" transform="matrix(1.00, 0.00, -0.00, -1.00, 467.7, 204.0)">o</text><g><clipPath id="clip-934"><path d="M 171.3 199.5 L 487.6 199.5 L 487.6 203.3 L 171.3 203.3 Z M 171.3 199.5 "></path></clipPath><g clip-path="url(#clip-934)"><path d="M 4.0 416.1 L 319.3 416.1 " fill="none" stroke="#525252" stroke-width="1.79" stroke-miterlimit="0.00" transform="matrix(1.00, 0.00, 0.00, -1.00, 168.3, 617.5)"></path></g></g></g></svg>