<?xml version="1.0" encoding="UTF-8" standalone="no"?><svg xmlns="http://www.w3.org/2000/svg" xmlns:xlink="http://www.w3.org/1999/xlink" clip-rule="evenodd" stroke-miterlimit="10" viewBox="0 0 1024 768"><desc>SVG generated by Keynote</desc><defs></defs><g transform="matrix(1.00, 0.00, -0.00, -1.00, 0.0, 768.0)"><g><clipPath id="clip0x610000ab1700"><path d="M 0.0 768.0 L 1024.0 768.0 L 1024.0 0.0 L 0.0 0.0 Z M 0.0 768.0 "></path></clipPath><g clip-path="url(#clip0x610000ab1700)"><image xlink:href="../../B32C0A43-AFB7-4D6F-9198-B3909335F6E9/assets/574DCE55A4CF432400CBDDDE1DFDFC9B.jpeg" width="2048.00" height="1536.00" transform="matrix(0.50, 0.00, -0.00, -0.50, 0.0, 768.0)"></image></g></g><text xml:space="preserve" font-family="GillSans-Light,Gill Sans" font-size="38.0" fill="#525252" transform="matrix(1.00, 0.00, -0.00, -1.00, 425.2, 634.1)">T</text><text xml:space="preserve" font-family="GillSans-Light,Gill Sans" font-size="38.0" fill="#525252" transform="matrix(1.00, 0.00, -0.00, -1.00, 447.0, 634.1)">h</text><text xml:space="preserve" font-family="GillSans-Light,Gill Sans" font-size="38.0" fill="#525252" transform="matrix(1.00, 0.00, -0.00, -1.00, 465.6, 634.1)">a</text><text xml:space="preserve" font-family="GillSans-Light,Gill Sans" font-size="38.0" fill="#525252" transform="matrix(1.00, 0.00, -0.00, -1.00, 481.8, 634.1)">n</text><text xml:space="preserve" font-family="GillSans-Light,Gill Sans" font-size="38.0" fill="#525252" transform="matrix(1.00, 0.00, -0.00, -1.00, 500.5, 634.1)">k</text><text xml:space="preserve" font-family="GillSans-Light,Gill Sans" font-size="38.0" fill="#525252" transform="matrix(1.00, 0.00, -0.00, -1.00, 516.7, 634.1)"> </text><text xml:space="preserve" font-family="GillSans-Light,Gill Sans" font-size="38.0" fill="#525252" transform="matrix(1.00, 0.00, -0.00, -1.00, 527.2, 634.1)">y</text><text xml:space="preserve" font-family="GillSans-Light,Gill Sans" font-size="38.0" fill="#525252" transform="matrix(1.00, 0.00, -0.00, -1.00, 542.3, 634.1)">o</text><text xml:space="preserve" font-family="GillSans-Light,Gill Sans" font-size="38.0" fill="#525252" transform="matrix(1.00, 0.00, -0.00, -1.00, 562.9, 634.1)">u</text><text xml:space="preserve" font-family="GillSans-Light,Gill Sans" font-size="38.0" fill="#525252" transform="matrix(1.00, 0.00, -0.00, -1.00, 581.5, 634.1)"> </text><text xml:space="preserve" font-family="GillSans-Light,Gill Sans" font-size="38.0" fill="#525252" transform="matrix(1.00, 0.00, -0.00, -1.00, 592.1, 634.1)">!</text><text xml:space="preserve" font-family="GillSans-Light,Gill Sans" font-size="38.0" fill="#525252" transform="matrix(1.00, 0.00, -0.00, -1.00, 461.6, 591.1)">M</text><text xml:space="preserve" font-family="GillSans-Light,Gill Sans" font-size="38.0" fill="#525252" transform="matrix(1.00, 0.00, -0.00, -1.00, 491.3, 591.1)">e</text><text xml:space="preserve" font-family="GillSans-Light,Gill Sans" font-size="38.0" fill="#525252" transform="matrix(1.00, 0.00, -0.00, -1.00, 509.5, 591.1)">r</text><text xml:space="preserve" font-family="GillSans-Light,Gill Sans" font-size="38.0" fill="#525252" transform="matrix(1.00, 0.00, -0.00, -1.00, 522.1, 591.1)">c</text><text xml:space="preserve" font-family="GillSans-Light,Gill Sans" font-size="38.0" fill="#525252" transform="matrix(1.00, 0.00, -0.00, -1.00, 538.0, 591.1)">i</text><text xml:space="preserve" font-family="GillSans-Light,Gill Sans" font-size="38.0" fill="#525252" transform="matrix(1.00, 0.00, -0.00, -1.00, 545.1, 591.1)"> </text><text xml:space="preserve" font-family="GillSans-Light,Gill Sans" font-size="38.0" fill="#525252" transform="matrix(1.00, 0.00, -0.00, -1.00, 555.7, 591.1)">!</text><image xlink:href="AB910E59331BC8EF54005CBC2FEE6897.jpeg" width="640.00" height="640.00" transform="matrix(0.35, 0.00, -0.00, -0.35, 401.0, 495.0)"></image><text xml:space="preserve" font-family="Helvetica-Bold,Helvetica" font-weight="bold" font-size="38.0" fill="#525252" transform="matrix(1.00, 0.00, -0.00, -1.00, 277.0, 151.7)">o</text><text xml:space="preserve" font-family="Helvetica-Bold,Helvetica" font-weight="bold" font-size="38.0" fill="#525252" transform="matrix(1.00, 0.00, -0.00, -1.00, 300.2, 151.7)">p</text><text xml:space="preserve" font-family="Helvetica-Bold,Helvetica" font-weight="bold" font-size="38.0" fill="#525252" transform="matrix(1.00, 0.00, -0.00, -1.00, 323.5, 151.7)">e</text><text xml:space="preserve" font-family="Helvetica-Bold,Helvetica" font-weight="bold" font-size="38.0" fill="#525252" transform="matrix(1.00, 0.00, -0.00, -1.00, 344.6, 151.7)">n</text><text xml:space="preserve" font-family="Helvetica-Bold,Helvetica" font-weight="bold" font-size="38.0" fill="#525252" transform="matrix(1.00, 0.00, -0.00, -1.00, 367.8, 151.7)">d</text><text xml:space="preserve" font-family="Helvetica-Bold,Helvetica" font-weight="bold" font-size="38.0" fill="#525252" transform="matrix(1.00, 0.00, -0.00, -1.00, 391.0, 151.7)">a</text><text xml:space="preserve" font-family="Helvetica-Bold,Helvetica" font-weight="bold" font-size="38.0" fill="#525252" transform="matrix(1.00, 0.00, -0.00, -1.00, 412.1, 151.7)">t</text><text xml:space="preserve" font-family="Helvetica-Bold,Helvetica" font-weight="bold" font-size="38.0" fill="#525252" transform="matrix(1.00, 0.00, -0.00, -1.00, 424.8, 151.7)">a</text><text xml:space="preserve" font-family="Helvetica-Bold,Helvetica" font-weight="bold" font-size="38.0" fill="#525252" transform="matrix(1.00, 0.00, -0.00, -1.00, 445.9, 151.7)">p</text><text xml:space="preserve" font-family="Helvetica-Bold,Helvetica" font-weight="bold" font-size="38.0" fill="#525252" transform="matrix(1.00, 0.00, -0.00, -1.00, 469.1, 151.7)">e</text><text xml:space="preserve" font-family="Helvetica-Bold,Helvetica" font-weight="bold" font-size="38.0" fill="#525252" transform="matrix(1.00, 0.00, -0.00, -1.00, 490.3, 151.7)">i</text><text xml:space="preserve" font-family="Helvetica-Bold,Helvetica" font-weight="bold" font-size="38.0" fill="#525252" transform="matrix(1.00, 0.00, -0.00, -1.00, 500.8, 151.7)"> </text><text xml:space="preserve" font-family="Helvetica-Bold,Helvetica" font-weight="bold" font-size="38.0" fill="#525252" transform="matrix(1.00, 0.00, -0.00, -1.00, 511.4, 151.7)">@</text><text xml:space="preserve" font-family="Helvetica-Bold,Helvetica" font-weight="bold" font-size="38.0" fill="#525252" transform="matrix(1.00, 0.00, -0.00, -1.00, 548.4, 151.7)"> </text><text xml:space="preserve" font-family="Helvetica-Bold,Helvetica" font-weight="bold" font-size="38.0" fill="#525252" transform="matrix(1.00, 0.00, -0.00, -1.00, 559.0, 151.7)">g</text><text xml:space="preserve" font-family="Helvetica-Bold,Helvetica" font-weight="bold" font-size="38.0" fill="#525252" transform="matrix(1.00, 0.00, -0.00, -1.00, 582.2, 151.7)">m</text><text xml:space="preserve" font-family="Helvetica-Bold,Helvetica" font-weight="bold" font-size="38.0" fill="#525252" transform="matrix(1.00, 0.00, -0.00, -1.00, 616.0, 151.7)">a</text><text xml:space="preserve" font-family="Helvetica-Bold,Helvetica" font-weight="bold" font-size="38.0" fill="#525252" transform="matrix(1.00, 0.00, -0.00, -1.00, 637.1, 151.7)">i</text><text xml:space="preserve" font-family="Helvetica-Bold,Helvetica" font-weight="bold" font-size="38.0" fill="#525252" transform="matrix(1.00, 0.00, -0.00, -1.00, 647.7, 151.7)">l</text><text xml:space="preserve" font-family="Helvetica-Bold,Helvetica" font-weight="bold" font-size="38.0" fill="#525252" transform="matrix(1.00, 0.00, -0.00, -1.00, 658.2, 151.7)">.</text><text xml:space="preserve" font-family="Helvetica-Bold,Helvetica" font-weight="bold" font-size="38.0" fill="#525252" transform="matrix(1.00, 0.00, -0.00, -1.00, 668.8, 151.7)">c</text><text xml:space="preserve" font-family="Helvetica-Bold,Helvetica" font-weight="bold" font-size="38.0" fill="#525252" transform="matrix(1.00, 0.00, -0.00, -1.00, 689.9, 151.7)">o</text><text xml:space="preserve" font-family="Helvetica-Bold,Helvetica" font-weight="bold" font-size="38.0" fill="#525252" transform="matrix(1.00, 0.00, -0.00, -1.00, 713.1, 151.7)">m</text><text xml:space="preserve" font-family="GillSans-Light,Gill Sans" font-size="18.0" fill="#525252" transform="matrix(1.00, 0.00, -0.00, -1.00, 57.9, 51.3)">s</text><text xml:space="preserve" font-family="GillSans-Light,Gill Sans" font-size="18.0" fill="#525252" transform="matrix(1.00, 0.00, -0.00, -1.00, 64.3, 51.3)">e</text><text xml:space="preserve" font-family="GillSans-Light,Gill Sans" font-size="18.0" fill="#525252" transform="matrix(1.00, 0.00, -0.00, -1.00, 72.9, 51.3)">e</text><text xml:space="preserve" font-family="GillSans-Light,Gill Sans" font-size="18.0" fill="#525252" transform="matrix(1.00, 0.00, -0.00, -1.00, 81.5, 51.3)"> </text><text xml:space="preserve" font-family="GillSans-Light,Gill Sans" font-size="18.0" fill="#525252" transform="matrix(1.00, 0.00, -0.00, -1.00, 86.5, 51.3)">R</text><text xml:space="preserve" font-family="GillSans-Light,Gill Sans" font-size="18.0" fill="#525252" transform="matrix(1.00, 0.00, -0.00, -1.00, 96.8, 51.3)">e</text><text xml:space="preserve" font-family="GillSans-Light,Gill Sans" font-size="18.0" fill="#525252" transform="matrix(1.00, 0.00, -0.00, -1.00, 105.5, 51.3)">f</text><text xml:space="preserve" font-family="GillSans-Light,Gill Sans" font-size="18.0" fill="#525252" transform="matrix(1.00, 0.00, -0.00, -1.00, 109.5, 51.3)">e</text><text xml:space="preserve" font-family="GillSans-Light,Gill Sans" font-size="18.0" fill="#525252" transform="matrix(1.00, 0.00, -0.00, -1.00, 118.1, 51.3)">r</text><text xml:space="preserve" font-family="GillSans-Light,Gill Sans" font-size="18.0" fill="#525252" transform="matrix(1.00, 0.00, -0.00, -1.00, 124.1, 51.3)">e</text><text xml:space="preserve" font-family="GillSans-Light,Gill Sans" font-size="18.0" fill="#525252" transform="matrix(1.00, 0.00, -0.00, -1.00, 132.8, 51.3)">n</text><text xml:space="preserve" font-family="GillSans-Light,Gill Sans" font-size="18.0" fill="#525252" transform="matrix(1.00, 0.00, -0.00, -1.00, 141.6, 51.3)">c</text><text xml:space="preserve" font-family="GillSans-Light,Gill Sans" font-size="18.0" fill="#525252" transform="matrix(1.00, 0.00, -0.00, -1.00, 149.1, 51.3)">e</text><text xml:space="preserve" font-family="GillSans-Light,Gill Sans" font-size="18.0" fill="#525252" transform="matrix(1.00, 0.00, -0.00, -1.00, 157.7, 51.3)">s</text></g></svg>