<?xml version="1.0" encoding="UTF-8" standalone="no"?><svg xmlns="http://www.w3.org/2000/svg" xmlns:xlink="http://www.w3.org/1999/xlink" clip-rule="evenodd" stroke-miterlimit="10" viewBox="0 0 1024 768"><desc>SVG generated by Keynote</desc><defs></defs><g transform="matrix(1.00, 0.00, -0.00, -1.00, 0.0, 768.0)"><g><clipPath id="clip0x6180004ada40"><path d="M 0.0 768.0 L 1024.0 768.0 L 1024.0 0.0 L 0.0 0.0 Z M 0.0 768.0 "></path></clipPath><g clip-path="url(#clip0x6180004ada40)"><image xlink:href="../../B32C0A43-AFB7-4D6F-9198-B3909335F6E9/assets/574DCE55A4CF432400CBDDDE1DFDFC9B.jpeg" width="2048.00" height="1536.00" transform="matrix(0.50, 0.00, -0.00, -0.50, 0.0, 768.0)"></image></g></g><g><clipPath id="clip0x6080008b58a0"><path d="M 0.0 768.0 L 1024.0 768.0 L 1024.0 0.0 L 0.0 0.0 Z M 0.0 768.0 "></path></clipPath><g clip-path="url(#clip0x6080008b58a0)"><image xlink:href="11D76FEB8463B73311965F401B5BC9F0.jpeg" width="640.00" height="448.00" transform="matrix(1.35, 0.00, -0.00, -1.35, 80.0, 686.0)"></image></g></g><text xml:space="preserve" font-family="GillSans-Light,Gill Sans" font-size="18.0" fill="#525252" transform="matrix(1.00, 0.00, -0.00, -1.00, 636.0, 35.3)">P</text><text xml:space="preserve" font-family="GillSans-Light,Gill Sans" font-size="18.0" fill="#525252" transform="matrix(1.00, 0.00, -0.00, -1.00, 645.2, 35.3)">D</text><text xml:space="preserve" font-family="GillSans-Light,Gill Sans" font-size="18.0" fill="#525252" transform="matrix(1.00, 0.00, -0.00, -1.00, 658.5, 35.3)">F</text><text xml:space="preserve" font-family="GillSans-Light,Gill Sans" font-size="18.0" fill="#525252" transform="matrix(1.00, 0.00, -0.00, -1.00, 666.4, 35.3)"> </text><text xml:space="preserve" font-family="GillSans-Light,Gill Sans" font-size="18.0" fill="#525252" transform="matrix(1.00, 0.00, -0.00, -1.00, 671.4, 35.3)">1</text><text xml:space="preserve" font-family="GillSans-Light,Gill Sans" font-size="18.0" fill="#525252" transform="matrix(1.00, 0.00, -0.00, -1.00, 680.4, 35.3)">,</text><text xml:space="preserve" font-family="GillSans-Light,Gill Sans" font-size="18.0" fill="#525252" transform="matrix(1.00, 0.00, -0.00, -1.00, 682.1, 35.3)"> </text><text xml:space="preserve" font-family="GillSans-Light,Gill Sans" font-size="18.0" fill="#525252" transform="matrix(1.00, 0.00, -0.00, -1.00, 686.1, 35.3)">A</text><text xml:space="preserve" font-family="GillSans-Light,Gill Sans" font-size="18.0" fill="#525252" transform="matrix(1.00, 0.00, -0.00, -1.00, 698.1, 35.3)">n</text><text xml:space="preserve" font-family="GillSans-Light,Gill Sans" font-size="18.0" fill="#525252" transform="matrix(1.00, 0.00, -0.00, -1.00, 706.9, 35.3)">d</text><text xml:space="preserve" font-family="GillSans-Light,Gill Sans" font-size="18.0" fill="#525252" transform="matrix(1.00, 0.00, -0.00, -1.00, 716.1, 35.3)">r</text><text xml:space="preserve" font-family="GillSans-Light,Gill Sans" font-size="18.0" fill="#525252" transform="matrix(1.00, 0.00, -0.00, -1.00, 722.1, 35.3)">é</text><text xml:space="preserve" font-family="GillSans-Light,Gill Sans" font-size="18.0" fill="#525252" transform="matrix(1.00, 0.00, -0.00, -1.00, 730.7, 35.3)"> </text><text xml:space="preserve" font-family="GillSans-Light,Gill Sans" font-size="18.0" fill="#525252" transform="matrix(1.00, 0.00, -0.00, -1.00, 735.7, 35.3)">G</text><text xml:space="preserve" font-family="GillSans-Light,Gill Sans" font-size="18.0" fill="#525252" transform="matrix(1.00, 0.00, -0.00, -1.00, 748.6, 35.3)">u</text><text xml:space="preserve" font-family="GillSans-Light,Gill Sans" font-size="18.0" fill="#525252" transform="matrix(1.00, 0.00, -0.00, -1.00, 757.5, 35.3)">s</text><text xml:space="preserve" font-family="GillSans-Light,Gill Sans" font-size="18.0" fill="#525252" transform="matrix(1.00, 0.00, -0.00, -1.00, 763.8, 35.3)">t</text><text xml:space="preserve" font-family="GillSans-Light,Gill Sans" font-size="18.0" fill="#525252" transform="matrix(1.00, 0.00, -0.00, -1.00, 769.3, 35.3)">a</text><text xml:space="preserve" font-family="GillSans-Light,Gill Sans" font-size="18.0" fill="#525252" transform="matrix(1.00, 0.00, -0.00, -1.00, 776.5, 35.3)">v</text><text xml:space="preserve" font-family="GillSans-Light,Gill Sans" font-size="18.0" fill="#525252" transform="matrix(1.00, 0.00, -0.00, -1.00, 783.9, 35.3)">o</text><text xml:space="preserve" font-family="GillSans-Light,Gill Sans" font-size="18.0" fill="#525252" transform="matrix(1.00, 0.00, -0.00, -1.00, 793.6, 35.3)"> </text><text xml:space="preserve" font-family="GillSans-Light,Gill Sans" font-size="18.0" fill="#525252" transform="matrix(1.00, 0.00, -0.00, -1.00, 798.6, 35.3)">S</text><text xml:space="preserve" font-family="GillSans-Light,Gill Sans" font-size="18.0" fill="#525252" transform="matrix(1.00, 0.00, -0.00, -1.00, 807.1, 35.3)">t</text><text xml:space="preserve" font-family="GillSans-Light,Gill Sans" font-size="18.0" fill="#525252" transform="matrix(1.00, 0.00, -0.00, -1.00, 812.5, 35.3)">u</text><text xml:space="preserve" font-family="GillSans-Light,Gill Sans" font-size="18.0" fill="#525252" transform="matrix(1.00, 0.00, -0.00, -1.00, 821.3, 35.3)">m</text><text xml:space="preserve" font-family="GillSans-Light,Gill Sans" font-size="18.0" fill="#525252" transform="matrix(1.00, 0.00, -0.00, -1.00, 835.2, 35.3)">p</text><text xml:space="preserve" font-family="GillSans-Light,Gill Sans" font-size="18.0" fill="#525252" transform="matrix(1.00, 0.00, -0.00, -1.00, 844.4, 35.3)">f</text><text xml:space="preserve" font-family="GillSans-Light,Gill Sans" font-size="18.0" fill="#525252" transform="matrix(1.00, 0.00, -0.00, -1.00, 848.7, 35.3)"> </text><text xml:space="preserve" font-family="GillSans-Light,Gill Sans" font-size="18.0" fill="#525252" transform="matrix(1.00, 0.00, -0.00, -1.00, 853.7, 35.3)">-</text><text xml:space="preserve" font-family="GillSans-Light,Gill Sans" font-size="18.0" fill="#525252" transform="matrix(1.00, 0.00, -0.00, -1.00, 859.4, 35.3)"> </text><text xml:space="preserve" font-family="GillSans-Light,Gill Sans" font-size="18.0" fill="#525252" transform="matrix(1.00, 0.00, -0.00, -1.00, 864.4, 35.3)">C</text><text xml:space="preserve" font-family="GillSans-Light,Gill Sans" font-size="18.0" fill="#525252" transform="matrix(1.00, 0.00, -0.00, -1.00, 876.6, 35.3)">C</text><text xml:space="preserve" font-family="GillSans-Light,Gill Sans" font-size="18.0" fill="#525252" transform="matrix(1.00, 0.00, -0.00, -1.00, 888.7, 35.3)"> </text><text xml:space="preserve" font-family="GillSans-Light,Gill Sans" font-size="18.0" fill="#525252" transform="matrix(1.00, 0.00, -0.00, -1.00, 893.7, 35.3)">B</text><text xml:space="preserve" font-family="GillSans-Light,Gill Sans" font-size="18.0" fill="#525252" transform="matrix(1.00, 0.00, -0.00, -1.00, 903.3, 35.3)">Y</text><text xml:space="preserve" font-family="GillSans-Light,Gill Sans" font-size="18.0" fill="#525252" transform="matrix(1.00, 0.00, -0.00, -1.00, 913.8, 35.3)"> </text><text xml:space="preserve" font-family="GillSans-Light,Gill Sans" font-size="18.0" fill="#525252" transform="matrix(1.00, 0.00, -0.00, -1.00, 918.8, 35.3)">2</text><text xml:space="preserve" font-family="GillSans-Light,Gill Sans" font-size="18.0" fill="#525252" transform="matrix(1.00, 0.00, -0.00, -1.00, 927.8, 35.3)">.</text><text xml:space="preserve" font-family="GillSans-Light,Gill Sans" font-size="18.0" fill="#525252" transform="matrix(1.00, 0.00, -0.00, -1.00, 930.9, 35.3)">0</text></g></svg>