<?xml version="1.0" encoding="UTF-8" standalone="no"?><svg xmlns="http://www.w3.org/2000/svg" xmlns:xlink="http://www.w3.org/1999/xlink" clip-rule="evenodd" stroke-miterlimit="4.00" viewBox="0 0 1024 768"><desc>SVG generated by Keynote</desc><defs></defs><g transform="matrix(1.00, 0.00, -0.00, -1.00, 0.0, 768.0)"><g><clipPath id="clip-1059"><path d="M 0.0 768.0 L 1024.0 768.0 L 1024.0 0.0 L 0.0 0.0 Z M 0.0 768.0 "></path></clipPath><g clip-path="url(#clip-1059)"><image xlink:href="../../E8782ACA-0DD6-462E-AFA6-8D26C4A2FECE/assets/107E65D87114B546DB29000410A7B5AF.jpeg" width="1024.00" height="768.00" transform="matrix(1.00, 0.00, -0.00, -1.00, 0.0, 768.0)"></image></g></g><text xml:space="preserve" font-family="GillSans-Light" font-size="36.0" fill="#525252" transform="matrix(1.00, 0.00, -0.00, -1.00, 356.0, 393.0)">L</text><text xml:space="preserve" font-family="GillSans-Light" font-size="36.0" fill="#525252" transform="matrix(1.00, 0.00, -0.00, -1.00, 372.9, 393.0)">o</text><text xml:space="preserve" font-family="GillSans-Light" font-size="36.0" fill="#525252" transform="matrix(1.00, 0.00, -0.00, -1.00, 392.4, 393.0)">c</text><text xml:space="preserve" font-family="GillSans-Light" font-size="36.0" fill="#525252" transform="matrix(1.00, 0.00, -0.00, -1.00, 407.4, 393.0)">a</text><text xml:space="preserve" font-family="GillSans-Light" font-size="36.0" fill="#525252" transform="matrix(1.00, 0.00, -0.00, -1.00, 422.8, 393.0)">l</text><text xml:space="preserve" font-family="GillSans-Light" font-size="36.0" fill="#525252" transform="matrix(1.00, 0.00, -0.00, -1.00, 429.5, 393.0)">l</text><text xml:space="preserve" font-family="GillSans-Light" font-size="36.0" fill="#525252" transform="matrix(1.00, 0.00, -0.00, -1.00, 436.0, 393.0)">y</text><text xml:space="preserve" font-family="GillSans-Light" font-size="36.0" fill="#525252" transform="matrix(1.00, 0.00, -0.00, -1.00, 447.7, 393.0)">,</text><text xml:space="preserve" font-family="GillSans-Light" font-size="36.0" fill="#525252" transform="matrix(1.00, 0.00, -0.00, -1.00, 451.2, 393.0)"> </text><text xml:space="preserve" font-family="GillSans-Light" font-size="36.0" fill="#525252" transform="matrix(1.00, 0.00, -0.00, -1.00, 461.2, 393.0)">P</text><text xml:space="preserve" font-family="GillSans-Light" font-size="36.0" fill="#525252" transform="matrix(1.00, 0.00, -0.00, -1.00, 477.8, 393.0)">e</text><text xml:space="preserve" font-family="GillSans-Light" font-size="36.0" fill="#525252" transform="matrix(1.00, 0.00, -0.00, -1.00, 495.0, 393.0)">t</text><text xml:space="preserve" font-family="GillSans-Light" font-size="36.0" fill="#525252" transform="matrix(1.00, 0.00, -0.00, -1.00, 505.9, 393.0)">e</text><text xml:space="preserve" font-family="GillSans-Light" font-size="36.0" fill="#525252" transform="matrix(1.00, 0.00, -0.00, -1.00, 523.1, 393.0)">r</text><text xml:space="preserve" font-family="GillSans-Light" font-size="36.0" fill="#525252" transform="matrix(1.00, 0.00, -0.00, -1.00, 535.1, 393.0)"> </text><text xml:space="preserve" font-family="GillSans-Light" font-size="36.0" fill="#525252" transform="matrix(1.00, 0.00, -0.00, -1.00, 545.1, 393.0)">R</text><text xml:space="preserve" font-family="GillSans-Light" font-size="36.0" fill="#525252" transform="matrix(1.00, 0.00, -0.00, -1.00, 565.7, 393.0)">u</text><text xml:space="preserve" font-family="GillSans-Light" font-size="36.0" fill="#525252" transform="matrix(1.00, 0.00, -0.00, -1.00, 583.4, 393.0)">k</text><text xml:space="preserve" font-family="GillSans-Light" font-size="36.0" fill="#525252" transform="matrix(1.00, 0.00, -0.00, -1.00, 598.7, 393.0)">a</text><text xml:space="preserve" font-family="GillSans-Light" font-size="36.0" fill="#525252" transform="matrix(1.00, 0.00, -0.00, -1.00, 613.2, 393.0)">v</text><text xml:space="preserve" font-family="GillSans-Light" font-size="36.0" fill="#525252" transform="matrix(1.00, 0.00, -0.00, -1.00, 628.6, 393.0)">i</text><text xml:space="preserve" font-family="GillSans-Light" font-size="36.0" fill="#525252" transform="matrix(1.00, 0.00, -0.00, -1.00, 635.3, 393.0)">n</text><text xml:space="preserve" font-family="GillSans-Light" font-size="36.0" fill="#525252" transform="matrix(1.00, 0.00, -0.00, -1.00, 653.0, 393.0)">a</text><text xml:space="preserve" font-family="GillSans-Light" font-size="36.0" fill="#525252" transform="matrix(1.00, 0.00, -0.00, -1.00, 668.3, 393.0)"> </text><text xml:space="preserve" font-family="GillSans-Light" font-size="36.0" fill="#525252" transform="matrix(1.00, 0.00, -0.00, -1.00, 297.0, 352.0)">h</text><text xml:space="preserve" font-family="GillSans-Light" font-size="36.0" fill="#525252" transform="matrix(1.00, 0.00, -0.00, -1.00, 314.7, 352.0)">a</text><text xml:space="preserve" font-family="GillSans-Light" font-size="36.0" fill="#525252" transform="matrix(1.00, 0.00, -0.00, -1.00, 330.0, 352.0)">s</text><text xml:space="preserve" font-family="GillSans-Light" font-size="36.0" fill="#525252" transform="matrix(1.00, 0.00, -0.00, -1.00, 342.8, 352.0)"> </text><text xml:space="preserve" font-family="GillSans-Light" font-size="36.0" fill="#525252" transform="matrix(1.00, 0.00, -0.00, -1.00, 352.8, 352.0)">m</text><text xml:space="preserve" font-family="GillSans-Light" font-size="36.0" fill="#525252" transform="matrix(1.00, 0.00, -0.00, -1.00, 380.5, 352.0)">a</text><text xml:space="preserve" font-family="GillSans-Light" font-size="36.0" fill="#525252" transform="matrix(1.00, 0.00, -0.00, -1.00, 395.9, 352.0)">n</text><text xml:space="preserve" font-family="GillSans-Light" font-size="36.0" fill="#525252" transform="matrix(1.00, 0.00, -0.00, -1.00, 413.0, 352.0)">y</text><text xml:space="preserve" font-family="GillSans-Light" font-size="36.0" fill="#525252" transform="matrix(1.00, 0.00, -0.00, -1.00, 428.0, 352.0)"> </text><text xml:space="preserve" font-family="GillSans-Light" font-size="36.0" fill="#525252" transform="matrix(1.00, 0.00, -0.00, -1.00, 438.0, 352.0)">O</text><text xml:space="preserve" font-family="GillSans-Light" font-size="36.0" fill="#525252" transform="matrix(1.00, 0.00, -0.00, -1.00, 467.6, 352.0)">p</text><text xml:space="preserve" font-family="GillSans-Light" font-size="36.0" fill="#525252" transform="matrix(1.00, 0.00, -0.00, -1.00, 486.0, 352.0)">e</text><text xml:space="preserve" font-family="GillSans-Light" font-size="36.0" fill="#525252" transform="matrix(1.00, 0.00, -0.00, -1.00, 503.2, 352.0)">n</text><text xml:space="preserve" font-family="GillSans-Light" font-size="36.0" fill="#525252" transform="matrix(1.00, 0.00, -0.00, -1.00, 520.9, 352.0)"> </text><text xml:space="preserve" font-family="GillSans-Light" font-size="36.0" fill="#525252" transform="matrix(1.00, 0.00, -0.00, -1.00, 530.9, 352.0)">D</text><text xml:space="preserve" font-family="GillSans-Light" font-size="36.0" fill="#525252" transform="matrix(1.00, 0.00, -0.00, -1.00, 557.5, 352.0)">a</text><text xml:space="preserve" font-family="GillSans-Light" font-size="36.0" fill="#525252" transform="matrix(1.00, 0.00, -0.00, -1.00, 572.9, 352.0)">t</text><text xml:space="preserve" font-family="GillSans-Light" font-size="36.0" fill="#525252" transform="matrix(1.00, 0.00, -0.00, -1.00, 583.7, 352.0)">a</text><text xml:space="preserve" font-family="GillSans-Light" font-size="36.0" fill="#525252" transform="matrix(1.00, 0.00, -0.00, -1.00, 599.1, 352.0)"> </text><text xml:space="preserve" font-family="GillSans-Light" font-size="36.0" fill="#525252" transform="matrix(1.00, 0.00, -0.00, -1.00, 609.1, 352.0)">p</text><text xml:space="preserve" font-family="GillSans-Light" font-size="36.0" fill="#525252" transform="matrix(1.00, 0.00, -0.00, -1.00, 627.4, 352.0)">r</text><text xml:space="preserve" font-family="GillSans-Light" font-size="36.0" fill="#525252" transform="matrix(1.00, 0.00, -0.00, -1.00, 639.4, 352.0)">o</text><text xml:space="preserve" font-family="GillSans-Light" font-size="36.0" fill="#525252" transform="matrix(1.00, 0.00, -0.00, -1.00, 658.9, 352.0)">j</text><text xml:space="preserve" font-family="GillSans-Light" font-size="36.0" fill="#525252" transform="matrix(1.00, 0.00, -0.00, -1.00, 665.7, 352.0)">e</text><text xml:space="preserve" font-family="GillSans-Light" font-size="36.0" fill="#525252" transform="matrix(1.00, 0.00, -0.00, -1.00, 682.9, 352.0)">c</text><text xml:space="preserve" font-family="GillSans-Light" font-size="36.0" fill="#525252" transform="matrix(1.00, 0.00, -0.00, -1.00, 698.0, 352.0)">t</text><text xml:space="preserve" font-family="GillSans-Light" font-size="36.0" fill="#525252" transform="matrix(1.00, 0.00, -0.00, -1.00, 708.8, 352.0)">s</text><text xml:space="preserve" font-family="GillSans-Light" font-size="36.0" fill="#525252" transform="matrix(1.00, 0.00, -0.00, -1.00, 721.6, 352.0)">.</text></g></svg>