<?xml version="1.0" encoding="UTF-8" standalone="no"?><svg xmlns="http://www.w3.org/2000/svg" xmlns:xlink="http://www.w3.org/1999/xlink" clip-rule="evenodd" stroke-miterlimit="4.00" viewBox="0 0 1024 768"><desc>SVG generated by Keynote</desc><defs></defs><g transform="matrix(1.00, 0.00, -0.00, -1.00, 0.0, 768.0)"><g><clipPath id="clip-1278"><path d="M 0.0 768.0 L 1024.0 768.0 L 1024.0 0.0 L 0.0 0.0 Z M 0.0 768.0 "></path></clipPath><g clip-path="url(#clip-1278)"><image xlink:href="../../E8782ACA-0DD6-462E-AFA6-8D26C4A2FECE/assets/107E65D87114B546DB29000410A7B5AF.jpeg" width="1024.00" height="768.00" transform="matrix(1.00, 0.00, -0.00, -1.00, 0.0, 768.0)"></image></g></g><g><clipPath id="clip-1279"><path d="M 93.0 765.0 L 931.0 765.0 L 931.0 137.0 L 93.0 137.0 Z M 93.4 764.5 "></path></clipPath><g clip-path="url(#clip-1279)"><image xlink:href="../../CEA0FD8A-F045-46A8-B37B-5006F73EBC42/assets/8735A950F171266B71344B8C369583E7.jpeg" width="640.00" height="448.00" transform="matrix(1.10, 0.00, -0.00, -1.10, 159.0, 698.0)"></image></g></g><text xml:space="preserve" font-family="GillSans-Light" font-size="24.0" fill="#525252" transform="matrix(1.00, 0.00, -0.00, -1.00, 730.0, 108.0)">P</text><text xml:space="preserve" font-family="GillSans-Light" font-size="24.0" fill="#525252" transform="matrix(1.00, 0.00, -0.00, -1.00, 742.2, 108.0)">h</text><text xml:space="preserve" font-family="GillSans-Light" font-size="24.0" fill="#525252" transform="matrix(1.00, 0.00, -0.00, -1.00, 754.0, 108.0)">o</text><text xml:space="preserve" font-family="GillSans-Light" font-size="24.0" fill="#525252" transform="matrix(1.00, 0.00, -0.00, -1.00, 767.0, 108.0)">t</text><text xml:space="preserve" font-family="GillSans-Light" font-size="24.0" fill="#525252" transform="matrix(1.00, 0.00, -0.00, -1.00, 774.2, 108.0)">o</text><text xml:space="preserve" font-family="GillSans-Light" font-size="24.0" fill="#525252" transform="matrix(1.00, 0.00, -0.00, -1.00, 787.3, 108.0)"> </text><text xml:space="preserve" font-family="GillSans-Light" font-size="24.0" fill="#525252" transform="matrix(1.00, 0.00, -0.00, -1.00, 793.9, 108.0)">C</text><text xml:space="preserve" font-family="GillSans-Light" font-size="24.0" fill="#525252" transform="matrix(1.00, 0.00, -0.00, -1.00, 810.2, 108.0)">r</text><text xml:space="preserve" font-family="GillSans-Light" font-size="24.0" fill="#525252" transform="matrix(1.00, 0.00, -0.00, -1.00, 818.1, 108.0)">e</text><text xml:space="preserve" font-family="GillSans-Light" font-size="24.0" fill="#525252" transform="matrix(1.00, 0.00, -0.00, -1.00, 829.6, 108.0)">d</text><text xml:space="preserve" font-family="GillSans-Light" font-size="24.0" fill="#525252" transform="matrix(1.00, 0.00, -0.00, -1.00, 841.9, 108.0)">i</text><text xml:space="preserve" font-family="GillSans-Light" font-size="24.0" fill="#525252" transform="matrix(1.00, 0.00, -0.00, -1.00, 846.4, 108.0)">t</text><text xml:space="preserve" font-family="GillSans-Light" font-size="24.0" fill="#525252" transform="matrix(1.00, 0.00, -0.00, -1.00, 853.6, 108.0)">s</text><g><clipPath id="clip-1280"><path d="M 729.4 104.8 L 862.6 104.8 L 862.6 108.0 L 729.4 108.0 Z M 729.4 104.8 "></path></clipPath><g clip-path="url(#clip-1280)"><path d="M 4.5 28.1 L 136.6 28.1 " fill="none" stroke="#525252" stroke-width="1.20" stroke-miterlimit="0.00" transform="matrix(1.00, 0.00, 0.00, -1.00, 725.9, 134.5)"></path></g></g></g></svg>