<?xml version="1.0" encoding="UTF-8" standalone="no"?><svg xmlns="http://www.w3.org/2000/svg" xmlns:xlink="http://www.w3.org/1999/xlink" clip-rule="evenodd" stroke-miterlimit="4.00" viewBox="0 0 1024 768"><desc>SVG generated by Keynote</desc><defs></defs><g transform="matrix(1.00, 0.00, -0.00, -1.00, 0.0, 768.0)"><g><clipPath id="clip-703"><path d="M 0.0 768.0 L 1024.0 768.0 L 1024.0 0.0 L 0.0 0.0 Z M 0.0 768.0 "></path></clipPath><g clip-path="url(#clip-703)"><image xlink:href="../../E8782ACA-0DD6-462E-AFA6-8D26C4A2FECE/assets/107E65D87114B546DB29000410A7B5AF.jpeg" width="1024.00" height="768.00" transform="matrix(1.00, 0.00, -0.00, -1.00, 0.0, 768.0)"></image></g></g><text xml:space="preserve" font-family="GillSans-Light" font-size="36.0" fill="#525252" transform="matrix(1.00, 0.00, -0.00, -1.00, 341.0, 454.0)">T</text><text xml:space="preserve" font-family="GillSans-Light" font-size="36.0" fill="#525252" transform="matrix(1.00, 0.00, -0.00, -1.00, 361.6, 454.0)">h</text><text xml:space="preserve" font-family="GillSans-Light" font-size="36.0" fill="#525252" transform="matrix(1.00, 0.00, -0.00, -1.00, 379.3, 454.0)">e</text><text xml:space="preserve" font-family="GillSans-Light" font-size="36.0" fill="#525252" transform="matrix(1.00, 0.00, -0.00, -1.00, 396.5, 454.0)">r</text><text xml:space="preserve" font-family="GillSans-Light" font-size="36.0" fill="#525252" transform="matrix(1.00, 0.00, -0.00, -1.00, 408.5, 454.0)">e</text><text xml:space="preserve" font-family="GillSans-Light" font-size="36.0" fill="#525252" transform="matrix(1.00, 0.00, -0.00, -1.00, 425.8, 454.0)"> </text><text xml:space="preserve" font-family="GillSans-Light" font-size="36.0" fill="#525252" transform="matrix(1.00, 0.00, -0.00, -1.00, 435.8, 454.0)">a</text><text xml:space="preserve" font-family="GillSans-Light" font-size="36.0" fill="#525252" transform="matrix(1.00, 0.00, -0.00, -1.00, 451.1, 454.0)">r</text><text xml:space="preserve" font-family="GillSans-Light" font-size="36.0" fill="#525252" transform="matrix(1.00, 0.00, -0.00, -1.00, 463.1, 454.0)">e</text><text xml:space="preserve" font-family="GillSans-Light" font-size="36.0" fill="#525252" transform="matrix(1.00, 0.00, -0.00, -1.00, 480.4, 454.0)"> </text><text xml:space="preserve" font-family="GillSans-Light" font-size="36.0" fill="#525252" transform="matrix(1.00, 0.00, -0.00, -1.00, 490.4, 454.0)">s</text><text xml:space="preserve" font-family="GillSans-Light" font-size="36.0" fill="#525252" transform="matrix(1.00, 0.00, -0.00, -1.00, 503.1, 454.0)">e</text><text xml:space="preserve" font-family="GillSans-Light" font-size="36.0" fill="#525252" transform="matrix(1.00, 0.00, -0.00, -1.00, 520.3, 454.0)">v</text><text xml:space="preserve" font-family="GillSans-Light" font-size="36.0" fill="#525252" transform="matrix(1.00, 0.00, -0.00, -1.00, 535.2, 454.0)">e</text><text xml:space="preserve" font-family="GillSans-Light" font-size="36.0" fill="#525252" transform="matrix(1.00, 0.00, -0.00, -1.00, 552.4, 454.0)">r</text><text xml:space="preserve" font-family="GillSans-Light" font-size="36.0" fill="#525252" transform="matrix(1.00, 0.00, -0.00, -1.00, 565.3, 454.0)">a</text><text xml:space="preserve" font-family="GillSans-Light" font-size="36.0" fill="#525252" transform="matrix(1.00, 0.00, -0.00, -1.00, 580.6, 454.0)">l</text><text xml:space="preserve" font-family="GillSans-Light" font-size="36.0" fill="#525252" transform="matrix(1.00, 0.00, -0.00, -1.00, 587.4, 454.0)"> </text><text xml:space="preserve" font-family="GillSans-Light" font-size="36.0" fill="#525252" transform="matrix(1.00, 0.00, -0.00, -1.00, 597.4, 454.0)">n</text><text xml:space="preserve" font-family="GillSans-Light" font-size="36.0" fill="#525252" transform="matrix(1.00, 0.00, -0.00, -1.00, 615.1, 454.0)">o</text><text xml:space="preserve" font-family="GillSans-Light" font-size="36.0" fill="#525252" transform="matrix(1.00, 0.00, -0.00, -1.00, 634.6, 454.0)">d</text><text xml:space="preserve" font-family="GillSans-Light" font-size="36.0" fill="#525252" transform="matrix(1.00, 0.00, -0.00, -1.00, 652.9, 454.0)">e</text><text xml:space="preserve" font-family="GillSans-Light" font-size="36.0" fill="#525252" transform="matrix(1.00, 0.00, -0.00, -1.00, 670.2, 454.0)">s</text><text xml:space="preserve" font-family="GillSans-Light" font-size="36.0" fill="#525252" transform="matrix(1.00, 0.00, -0.00, -1.00, 682.9, 454.0)"> </text><g><clipPath id="clip-704"><path d="M 489.4 449.5 L 683.0 449.5 L 683.0 453.3 L 489.4 453.3 Z M 489.4 449.5 "></path></clipPath><g clip-path="url(#clip-704)"><path d="M 322.1 39.1 L 514.7 39.1 " fill="none" stroke="#525252" stroke-width="1.79" stroke-miterlimit="0.00" transform="matrix(1.00, 0.00, 0.00, -1.00, 168.3, 490.5)"></path></g></g><text xml:space="preserve" font-family="GillSans-Light" font-size="36.0" fill="#525252" transform="matrix(1.00, 0.00, -0.00, -1.00, 291.0, 413.0)">(</text><text xml:space="preserve" font-family="GillSans-Light" font-size="36.0" fill="#525252" transform="matrix(1.00, 0.00, -0.00, -1.00, 303.0, 413.0)">f</text><text xml:space="preserve" font-family="GillSans-Light" font-size="36.0" fill="#525252" transform="matrix(1.00, 0.00, -0.00, -1.00, 311.6, 413.0)">r</text><text xml:space="preserve" font-family="GillSans-Light" font-size="36.0" fill="#525252" transform="matrix(1.00, 0.00, -0.00, -1.00, 324.5, 413.0)">a</text><text xml:space="preserve" font-family="GillSans-Light" font-size="36.0" fill="#525252" transform="matrix(1.00, 0.00, -0.00, -1.00, 339.9, 413.0)">n</text><text xml:space="preserve" font-family="GillSans-Light" font-size="36.0" fill="#525252" transform="matrix(1.00, 0.00, -0.00, -1.00, 357.5, 413.0)">c</text><text xml:space="preserve" font-family="GillSans-Light" font-size="36.0" fill="#525252" transform="matrix(1.00, 0.00, -0.00, -1.00, 372.6, 413.0)">h</text><text xml:space="preserve" font-family="GillSans-Light" font-size="36.0" fill="#525252" transform="matrix(1.00, 0.00, -0.00, -1.00, 390.2, 413.0)">a</text><text xml:space="preserve" font-family="GillSans-Light" font-size="36.0" fill="#525252" transform="matrix(1.00, 0.00, -0.00, -1.00, 405.6, 413.0)">i</text><text xml:space="preserve" font-family="GillSans-Light" font-size="36.0" fill="#525252" transform="matrix(1.00, 0.00, -0.00, -1.00, 412.3, 413.0)">s</text><text xml:space="preserve" font-family="GillSans-Light" font-size="36.0" fill="#525252" transform="matrix(1.00, 0.00, -0.00, -1.00, 425.1, 413.0)">e</text><text xml:space="preserve" font-family="GillSans-Light" font-size="36.0" fill="#525252" transform="matrix(1.00, 0.00, -0.00, -1.00, 442.3, 413.0)">s</text><text xml:space="preserve" font-family="GillSans-Light" font-size="36.0" fill="#525252" transform="matrix(1.00, 0.00, -0.00, -1.00, 455.1, 413.0)">)</text><text xml:space="preserve" font-family="GillSans-Light" font-size="36.0" fill="#525252" transform="matrix(1.00, 0.00, -0.00, -1.00, 467.1, 413.0)"> </text><text xml:space="preserve" font-family="GillSans-Light" font-size="36.0" fill="#525252" transform="matrix(1.00, 0.00, -0.00, -1.00, 477.0, 413.0)">a</text><text xml:space="preserve" font-family="GillSans-Light" font-size="36.0" fill="#525252" transform="matrix(1.00, 0.00, -0.00, -1.00, 492.4, 413.0)">r</text><text xml:space="preserve" font-family="GillSans-Light" font-size="36.0" fill="#525252" transform="matrix(1.00, 0.00, -0.00, -1.00, 504.4, 413.0)">o</text><text xml:space="preserve" font-family="GillSans-Light" font-size="36.0" fill="#525252" transform="matrix(1.00, 0.00, -0.00, -1.00, 523.9, 413.0)">u</text><text xml:space="preserve" font-family="GillSans-Light" font-size="36.0" fill="#525252" transform="matrix(1.00, 0.00, -0.00, -1.00, 541.6, 413.0)">n</text><text xml:space="preserve" font-family="GillSans-Light" font-size="36.0" fill="#525252" transform="matrix(1.00, 0.00, -0.00, -1.00, 559.2, 413.0)">d</text><text xml:space="preserve" font-family="GillSans-Light" font-size="36.0" fill="#525252" transform="matrix(1.00, 0.00, -0.00, -1.00, 577.6, 413.0)"> </text><text xml:space="preserve" font-family="GillSans-Light" font-size="36.0" fill="#525252" transform="matrix(1.00, 0.00, -0.00, -1.00, 587.6, 413.0)">t</text><text xml:space="preserve" font-family="GillSans-Light" font-size="36.0" fill="#525252" transform="matrix(1.00, 0.00, -0.00, -1.00, 598.4, 413.0)">h</text><text xml:space="preserve" font-family="GillSans-Light" font-size="36.0" fill="#525252" transform="matrix(1.00, 0.00, -0.00, -1.00, 616.1, 413.0)">e</text><text xml:space="preserve" font-family="GillSans-Light" font-size="36.0" fill="#525252" transform="matrix(1.00, 0.00, -0.00, -1.00, 633.3, 413.0)"> </text><text xml:space="preserve" font-family="GillSans-Light" font-size="36.0" fill="#525252" transform="matrix(1.00, 0.00, -0.00, -1.00, 643.3, 413.0)">w</text><text xml:space="preserve" font-family="GillSans-Light" font-size="36.0" fill="#525252" transform="matrix(1.00, 0.00, -0.00, -1.00, 668.2, 413.0)">o</text><text xml:space="preserve" font-family="GillSans-Light" font-size="36.0" fill="#525252" transform="matrix(1.00, 0.00, -0.00, -1.00, 687.8, 413.0)">r</text><text xml:space="preserve" font-family="GillSans-Light" font-size="36.0" fill="#525252" transform="matrix(1.00, 0.00, -0.00, -1.00, 701.2, 413.0)">l</text><text xml:space="preserve" font-family="GillSans-Light" font-size="36.0" fill="#525252" transform="matrix(1.00, 0.00, -0.00, -1.00, 708.0, 413.0)">d</text><text xml:space="preserve" font-family="GillSans-Light" font-size="36.0" fill="#525252" transform="matrix(1.00, 0.00, -0.00, -1.00, 726.3, 413.0)">.</text><text xml:space="preserve" font-family="GillSans-Light" font-size="36.0" fill="#525252" transform="matrix(1.00, 0.00, -0.00, -1.00, 388.0, 331.0)">I</text><text xml:space="preserve" font-family="GillSans-Light" font-size="36.0" fill="#525252" transform="matrix(1.00, 0.00, -0.00, -1.00, 395.5, 331.0)">n</text><text xml:space="preserve" font-family="GillSans-Light" font-size="36.0" fill="#525252" transform="matrix(1.00, 0.00, -0.00, -1.00, 413.1, 331.0)">c</text><text xml:space="preserve" font-family="GillSans-Light" font-size="36.0" fill="#525252" transform="matrix(1.00, 0.00, -0.00, -1.00, 428.2, 331.0)">l</text><text xml:space="preserve" font-family="GillSans-Light" font-size="36.0" fill="#525252" transform="matrix(1.00, 0.00, -0.00, -1.00, 434.9, 331.0)">u</text><text xml:space="preserve" font-family="GillSans-Light" font-size="36.0" fill="#525252" transform="matrix(1.00, 0.00, -0.00, -1.00, 452.6, 331.0)">d</text><text xml:space="preserve" font-family="GillSans-Light" font-size="36.0" fill="#525252" transform="matrix(1.00, 0.00, -0.00, -1.00, 470.9, 331.0)">i</text><text xml:space="preserve" font-family="GillSans-Light" font-size="36.0" fill="#525252" transform="matrix(1.00, 0.00, -0.00, -1.00, 477.7, 331.0)">n</text><text xml:space="preserve" font-family="GillSans-Light" font-size="36.0" fill="#525252" transform="matrix(1.00, 0.00, -0.00, -1.00, 495.3, 331.0)">g</text><text xml:space="preserve" font-family="GillSans-Light" font-size="36.0" fill="#525252" transform="matrix(1.00, 0.00, -0.00, -1.00, 510.7, 331.0)"> </text><text xml:space="preserve" font-family="GillSans-Light" font-size="36.0" fill="#525252" transform="matrix(1.00, 0.00, -0.00, -1.00, 515.7, 331.0)">T</text><text xml:space="preserve" font-family="GillSans-Light" font-size="36.0" fill="#525252" transform="matrix(1.00, 0.00, -0.00, -1.00, 531.3, 331.0)">o</text><text xml:space="preserve" font-family="GillSans-Light" font-size="36.0" fill="#525252" transform="matrix(1.00, 0.00, -0.00, -1.00, 550.8, 331.0)">r</text><text xml:space="preserve" font-family="GillSans-Light" font-size="36.0" fill="#525252" transform="matrix(1.00, 0.00, -0.00, -1.00, 562.8, 331.0)">o</text><text xml:space="preserve" font-family="GillSans-Light" font-size="36.0" fill="#525252" transform="matrix(1.00, 0.00, -0.00, -1.00, 582.3, 331.0)">n</text><text xml:space="preserve" font-family="GillSans-Light" font-size="36.0" fill="#525252" transform="matrix(1.00, 0.00, -0.00, -1.00, 599.9, 331.0)">t</text><text xml:space="preserve" font-family="GillSans-Light" font-size="36.0" fill="#525252" transform="matrix(1.00, 0.00, -0.00, -1.00, 610.8, 331.0)">o</text><text xml:space="preserve" font-family="GillSans-Light" font-size="36.0" fill="#525252" transform="matrix(1.00, 0.00, -0.00, -1.00, 629.6, 331.0)">.</text><g><clipPath id="clip-705"><path d="M 514.7 326.5 L 629.6 326.5 L 629.6 330.3 L 514.7 330.3 Z M 514.7 326.5 "></path></clipPath><g clip-path="url(#clip-705)"><path d="M 347.4 162.1 L 461.3 162.1 " fill="none" stroke="#525252" stroke-width="1.79" stroke-miterlimit="0.00" transform="matrix(1.00, 0.00, 0.00, -1.00, 168.3, 490.5)"></path></g></g></g></svg>