<?xml version="1.0" encoding="UTF-8" standalone="no"?><svg xmlns="http://www.w3.org/2000/svg" xmlns:xlink="http://www.w3.org/1999/xlink" clip-rule="evenodd" stroke-miterlimit="4.00" viewBox="0 0 1024 768"><desc>SVG generated by Keynote</desc><defs></defs><g transform="matrix(1.00, 0.00, -0.00, -1.00, 0.0, 768.0)"><g><clipPath id="clip-0"><path d="M 0.0 768.0 L 1024.0 768.0 L 1024.0 0.0 L 0.0 0.0 Z M 0.0 768.0 "></path></clipPath><g clip-path="url(#clip-0)"><image xlink:href="107E65D87114B546DB29000410A7B5AF.jpeg" width="1024.00" height="768.00" transform="matrix(1.00, 0.00, -0.00, -1.00, 0.0, 768.0)"></image></g></g><text xml:space="preserve" font-family="GillSans-Light" font-size="72.0" fill="#525252" transform="matrix(1.00, 0.00, -0.00, -1.00, 146.0, 373.0)">O</text><text xml:space="preserve" font-family="GillSans-Light" font-size="72.0" fill="#525252" transform="matrix(1.00, 0.00, -0.00, -1.00, 205.3, 373.0)">P</text><text xml:space="preserve" font-family="GillSans-Light" font-size="72.0" fill="#525252" transform="matrix(1.00, 0.00, -0.00, -1.00, 242.0, 373.0)">E</text><text xml:space="preserve" font-family="GillSans-Light" font-size="72.0" fill="#525252" transform="matrix(1.00, 0.00, -0.00, -1.00, 277.3, 373.0)">N</text><text xml:space="preserve" font-family="GillSans-Light" font-size="72.0" fill="#525252" transform="matrix(1.00, 0.00, -0.00, -1.00, 332.8, 373.0)"> </text><text xml:space="preserve" font-family="GillSans-Light" font-size="72.0" fill="#525252" transform="matrix(1.00, 0.00, -0.00, -1.00, 352.8, 373.0)">D</text><text xml:space="preserve" font-family="GillSans-Light" font-size="72.0" fill="#525252" transform="matrix(1.00, 0.00, -0.00, -1.00, 403.2, 373.0)">A</text><text xml:space="preserve" font-family="GillSans-Light" font-size="72.0" fill="#525252" transform="matrix(1.00, 0.00, -0.00, -1.00, 444.0, 373.0)">T</text><text xml:space="preserve" font-family="GillSans-Light" font-size="72.0" fill="#525252" transform="matrix(1.00, 0.00, -0.00, -1.00, 478.1, 373.0)">A</text><text xml:space="preserve" font-family="GillSans-Light" font-size="72.0" fill="#525252" transform="matrix(1.00, 0.00, -0.00, -1.00, 526.1, 373.0)"> </text><text xml:space="preserve" font-family="GillSans-Light" font-size="72.0" fill="#525252" transform="matrix(1.00, 0.00, -0.00, -1.00, 546.1, 373.0)">B</text><text xml:space="preserve" font-family="GillSans-Light" font-size="72.0" fill="#525252" transform="matrix(1.00, 0.00, -0.00, -1.00, 584.3, 373.0)">O</text><text xml:space="preserve" font-family="GillSans-Light" font-size="72.0" fill="#525252" transform="matrix(1.00, 0.00, -0.00, -1.00, 643.6, 373.0)">O</text><text xml:space="preserve" font-family="GillSans-Light" font-size="72.0" fill="#525252" transform="matrix(1.00, 0.00, -0.00, -1.00, 702.9, 373.0)">K</text><text xml:space="preserve" font-family="GillSans-Light" font-size="72.0" fill="#525252" transform="matrix(1.00, 0.00, -0.00, -1.00, 741.1, 373.0)"> </text><text xml:space="preserve" font-family="GillSans-Light" font-size="72.0" fill="#525252" transform="matrix(1.00, 0.00, -0.00, -1.00, 761.1, 373.0)">C</text><text xml:space="preserve" font-family="GillSans-Light" font-size="72.0" fill="#525252" transform="matrix(1.00, 0.00, -0.00, -1.00, 809.8, 373.0)">L</text><text xml:space="preserve" font-family="GillSans-Light" font-size="72.0" fill="#525252" transform="matrix(1.00, 0.00, -0.00, -1.00, 843.6, 373.0)">U</text><text xml:space="preserve" font-family="GillSans-Light" font-size="72.0" fill="#525252" transform="matrix(1.00, 0.00, -0.00, -1.00, 893.9, 373.0)">B</text><text xml:space="preserve" font-family="GillSans-LightItalic" font-style="italic" font-size="25.8" fill="#525252" transform="matrix(1.00, 0.00, -0.00, -1.00, 342.0, 326.0)">c</text><text xml:space="preserve" font-family="GillSans-LightItalic" font-style="italic" font-size="25.8" fill="#525252" transform="matrix(1.00, 0.00, -0.00, -1.00, 351.9, 326.0)">o</text><text xml:space="preserve" font-family="GillSans-LightItalic" font-style="italic" font-size="25.8" fill="#525252" transform="matrix(1.00, 0.00, -0.00, -1.00, 363.5, 326.0)">n</text><text xml:space="preserve" font-family="GillSans-LightItalic" font-style="italic" font-size="25.8" fill="#525252" transform="matrix(1.00, 0.00, -0.00, -1.00, 375.1, 326.0)">v</text><text xml:space="preserve" font-family="GillSans-LightItalic" font-style="italic" font-size="25.8" fill="#525252" transform="matrix(1.00, 0.00, -0.00, -1.00, 384.5, 326.0)">e</text><text xml:space="preserve" font-family="GillSans-LightItalic" font-style="italic" font-size="25.8" fill="#525252" transform="matrix(1.00, 0.00, -0.00, -1.00, 396.1, 326.0)">r</text><text xml:space="preserve" font-family="GillSans-LightItalic" font-style="italic" font-size="25.8" fill="#525252" transform="matrix(1.00, 0.00, -0.00, -1.00, 403.8, 326.0)">s</text><text xml:space="preserve" font-family="GillSans-LightItalic" font-style="italic" font-size="25.8" fill="#525252" transform="matrix(1.00, 0.00, -0.00, -1.00, 412.9, 326.0)">a</text><text xml:space="preserve" font-family="GillSans-LightItalic" font-style="italic" font-size="25.8" fill="#525252" transform="matrix(1.00, 0.00, -0.00, -1.00, 425.3, 326.0)">t</text><text xml:space="preserve" font-family="GillSans-LightItalic" font-style="italic" font-size="25.8" fill="#525252" transform="matrix(1.00, 0.00, -0.00, -1.00, 432.6, 326.0)">i</text><text xml:space="preserve" font-family="GillSans-LightItalic" font-style="italic" font-size="25.8" fill="#525252" transform="matrix(1.00, 0.00, -0.00, -1.00, 437.1, 326.0)">o</text><text xml:space="preserve" font-family="GillSans-LightItalic" font-style="italic" font-size="25.8" fill="#525252" transform="matrix(1.00, 0.00, -0.00, -1.00, 448.7, 326.0)">n</text><text xml:space="preserve" font-family="GillSans-LightItalic" font-style="italic" font-size="25.8" fill="#525252" transform="matrix(1.00, 0.00, -0.00, -1.00, 460.5, 326.0)">s</text><text xml:space="preserve" font-family="GillSans-LightItalic" font-style="italic" font-size="25.8" fill="#525252" transform="matrix(1.00, 0.00, -0.00, -1.00, 469.7, 326.0)"> </text><text xml:space="preserve" font-family="GillSans-LightItalic" font-style="italic" font-size="25.8" fill="#525252" transform="matrix(1.00, 0.00, -0.00, -1.00, 476.9, 326.0)">f</text><text xml:space="preserve" font-family="GillSans-LightItalic" font-style="italic" font-size="25.8" fill="#525252" transform="matrix(1.00, 0.00, -0.00, -1.00, 483.1, 326.0)">o</text><text xml:space="preserve" font-family="GillSans-LightItalic" font-style="italic" font-size="25.8" fill="#525252" transform="matrix(1.00, 0.00, -0.00, -1.00, 494.7, 326.0)">r</text><text xml:space="preserve" font-family="GillSans-LightItalic" font-style="italic" font-size="25.8" fill="#525252" transform="matrix(1.00, 0.00, -0.00, -1.00, 501.7, 326.0)"> </text><text xml:space="preserve" font-family="GillSans-LightItalic" font-style="italic" font-size="25.8" fill="#525252" transform="matrix(1.00, 0.00, -0.00, -1.00, 508.8, 326.0)">e</text><text xml:space="preserve" font-family="GillSans-LightItalic" font-style="italic" font-size="25.8" fill="#525252" transform="matrix(1.00, 0.00, -0.00, -1.00, 520.4, 326.0)">n</text><text xml:space="preserve" font-family="GillSans-LightItalic" font-style="italic" font-size="25.8" fill="#525252" transform="matrix(1.00, 0.00, -0.00, -1.00, 532.3, 326.0)">g</text><text xml:space="preserve" font-family="GillSans-LightItalic" font-style="italic" font-size="25.8" fill="#525252" transform="matrix(1.00, 0.00, -0.00, -1.00, 543.3, 326.0)">a</text><text xml:space="preserve" font-family="GillSans-LightItalic" font-style="italic" font-size="25.8" fill="#525252" transform="matrix(1.00, 0.00, -0.00, -1.00, 555.7, 326.0)">g</text><text xml:space="preserve" font-family="GillSans-LightItalic" font-style="italic" font-size="25.8" fill="#525252" transform="matrix(1.00, 0.00, -0.00, -1.00, 566.7, 326.0)">e</text><text xml:space="preserve" font-family="GillSans-LightItalic" font-style="italic" font-size="25.8" fill="#525252" transform="matrix(1.00, 0.00, -0.00, -1.00, 578.3, 326.0)">d</text><text xml:space="preserve" font-family="GillSans-LightItalic" font-style="italic" font-size="25.8" fill="#525252" transform="matrix(1.00, 0.00, -0.00, -1.00, 590.4, 326.0)"> </text><text xml:space="preserve" font-family="GillSans-LightItalic" font-style="italic" font-size="25.8" fill="#525252" transform="matrix(1.00, 0.00, -0.00, -1.00, 597.6, 326.0)">I</text><text xml:space="preserve" font-family="GillSans-LightItalic" font-style="italic" font-size="25.8" fill="#525252" transform="matrix(1.00, 0.00, -0.00, -1.00, 602.7, 326.0)">s</text><text xml:space="preserve" font-family="GillSans-LightItalic" font-style="italic" font-size="25.8" fill="#525252" transform="matrix(1.00, 0.00, -0.00, -1.00, 611.8, 326.0)">l</text><text xml:space="preserve" font-family="GillSans-LightItalic" font-style="italic" font-size="25.8" fill="#525252" transform="matrix(1.00, 0.00, -0.00, -1.00, 616.4, 326.0)">a</text><text xml:space="preserve" font-family="GillSans-LightItalic" font-style="italic" font-size="25.8" fill="#525252" transform="matrix(1.00, 0.00, -0.00, -1.00, 628.8, 326.0)">n</text><text xml:space="preserve" font-family="GillSans-LightItalic" font-style="italic" font-size="25.8" fill="#525252" transform="matrix(1.00, 0.00, -0.00, -1.00, 640.6, 326.0)">d</text><text xml:space="preserve" font-family="GillSans-LightItalic" font-style="italic" font-size="25.8" fill="#525252" transform="matrix(1.00, 0.00, -0.00, -1.00, 652.8, 326.0)">e</text><text xml:space="preserve" font-family="GillSans-LightItalic" font-style="italic" font-size="25.8" fill="#525252" transform="matrix(1.00, 0.00, -0.00, -1.00, 664.3, 326.0)">r</text><text xml:space="preserve" font-family="GillSans-LightItalic" font-style="italic" font-size="25.8" fill="#525252" transform="matrix(1.00, 0.00, -0.00, -1.00, 672.0, 326.0)">s</text><text xml:space="preserve" font-family="GillSans-Light" font-size="25.8" fill="#525252" transform="matrix(1.00, 0.00, -0.00, -1.00, 407.0, 268.0)">f</text><text xml:space="preserve" font-family="GillSans-Light" font-size="25.8" fill="#525252" transform="matrix(1.00, 0.00, -0.00, -1.00, 413.0, 268.0)">o</text><text xml:space="preserve" font-family="GillSans-Light" font-size="25.8" fill="#525252" transform="matrix(1.00, 0.00, -0.00, -1.00, 427.0, 268.0)">r</text><text xml:space="preserve" font-family="GillSans-Light" font-size="25.8" fill="#525252" transform="matrix(1.00, 0.00, -0.00, -1.00, 435.6, 268.0)"> </text><text xml:space="preserve" font-family="GillSans-Light" font-size="25.8" fill="#525252" transform="matrix(1.00, 0.00, -0.00, -1.00, 442.7, 268.0)">D</text><text xml:space="preserve" font-family="GillSans-Light" font-size="25.8" fill="#525252" transform="matrix(1.00, 0.00, -0.00, -1.00, 461.9, 268.0)">i</text><text xml:space="preserve" font-family="GillSans-Light" font-size="25.8" fill="#525252" transform="matrix(1.00, 0.00, -0.00, -1.00, 466.7, 268.0)">r</text><text xml:space="preserve" font-family="GillSans-Light" font-size="25.8" fill="#525252" transform="matrix(1.00, 0.00, -0.00, -1.00, 475.3, 268.0)">e</text><text xml:space="preserve" font-family="GillSans-Light" font-size="25.8" fill="#525252" transform="matrix(1.00, 0.00, -0.00, -1.00, 487.7, 268.0)">c</text><text xml:space="preserve" font-family="GillSans-Light" font-size="25.8" fill="#525252" transform="matrix(1.00, 0.00, -0.00, -1.00, 498.5, 268.0)">t</text><text xml:space="preserve" font-family="GillSans-Light" font-size="25.8" fill="#525252" transform="matrix(1.00, 0.00, -0.00, -1.00, 506.3, 268.0)">o</text><text xml:space="preserve" font-family="GillSans-Light" font-size="25.8" fill="#525252" transform="matrix(1.00, 0.00, -0.00, -1.00, 520.3, 268.0)">r</text><text xml:space="preserve" font-family="GillSans-Light" font-size="25.8" fill="#525252" transform="matrix(1.00, 0.00, -0.00, -1.00, 529.9, 268.0)">s</text><text xml:space="preserve" font-family="GillSans-Light" font-size="25.8" fill="#525252" transform="matrix(1.00, 0.00, -0.00, -1.00, 539.1, 268.0)">’</text><text xml:space="preserve" font-family="GillSans-Light" font-size="25.8" fill="#525252" transform="matrix(1.00, 0.00, -0.00, -1.00, 541.6, 268.0)"> </text><text xml:space="preserve" font-family="GillSans-Light" font-size="25.8" fill="#525252" transform="matrix(1.00, 0.00, -0.00, -1.00, 548.7, 268.0)">F</text><text xml:space="preserve" font-family="GillSans-Light" font-size="25.8" fill="#525252" transform="matrix(1.00, 0.00, -0.00, -1.00, 560.1, 268.0)">o</text><text xml:space="preserve" font-family="GillSans-Light" font-size="25.8" fill="#525252" transform="matrix(1.00, 0.00, -0.00, -1.00, 574.1, 268.0)">r</text><text xml:space="preserve" font-family="GillSans-Light" font-size="25.8" fill="#525252" transform="matrix(1.00, 0.00, -0.00, -1.00, 583.7, 268.0)">u</text><text xml:space="preserve" font-family="GillSans-Light" font-size="25.8" fill="#525252" transform="matrix(1.00, 0.00, -0.00, -1.00, 596.4, 268.0)">m</text><text xml:space="preserve" font-family="GillSans-Light" font-size="25.8" fill="#525252" transform="matrix(1.00, 0.00, -0.00, -1.00, 325.0, 239.0)">G</text><text xml:space="preserve" font-family="GillSans-Light" font-size="25.8" fill="#525252" transform="matrix(1.00, 0.00, -0.00, -1.00, 343.6, 239.0)">o</text><text xml:space="preserve" font-family="GillSans-Light" font-size="25.8" fill="#525252" transform="matrix(1.00, 0.00, -0.00, -1.00, 357.1, 239.0)">v</text><text xml:space="preserve" font-family="GillSans-Light" font-size="25.8" fill="#525252" transform="matrix(1.00, 0.00, -0.00, -1.00, 367.7, 239.0)">e</text><text xml:space="preserve" font-family="GillSans-Light" font-size="25.8" fill="#525252" transform="matrix(1.00, 0.00, -0.00, -1.00, 380.1, 239.0)">r</text><text xml:space="preserve" font-family="GillSans-Light" font-size="25.8" fill="#525252" transform="matrix(1.00, 0.00, -0.00, -1.00, 389.3, 239.0)">n</text><text xml:space="preserve" font-family="GillSans-Light" font-size="25.8" fill="#525252" transform="matrix(1.00, 0.00, -0.00, -1.00, 402.0, 239.0)">m</text><text xml:space="preserve" font-family="GillSans-Light" font-size="25.8" fill="#525252" transform="matrix(1.00, 0.00, -0.00, -1.00, 421.9, 239.0)">e</text><text xml:space="preserve" font-family="GillSans-Light" font-size="25.8" fill="#525252" transform="matrix(1.00, 0.00, -0.00, -1.00, 434.3, 239.0)">n</text><text xml:space="preserve" font-family="GillSans-Light" font-size="25.8" fill="#525252" transform="matrix(1.00, 0.00, -0.00, -1.00, 447.0, 239.0)">t</text><text xml:space="preserve" font-family="GillSans-Light" font-size="25.8" fill="#525252" transform="matrix(1.00, 0.00, -0.00, -1.00, 454.8, 239.0)"> </text><text xml:space="preserve" font-family="GillSans-Light" font-size="25.8" fill="#525252" transform="matrix(1.00, 0.00, -0.00, -1.00, 461.9, 239.0)">o</text><text xml:space="preserve" font-family="GillSans-Light" font-size="25.8" fill="#525252" transform="matrix(1.00, 0.00, -0.00, -1.00, 476.0, 239.0)">f</text><text xml:space="preserve" font-family="GillSans-Light" font-size="25.8" fill="#525252" transform="matrix(1.00, 0.00, -0.00, -1.00, 482.2, 239.0)"> </text><text xml:space="preserve" font-family="GillSans-Light" font-size="25.8" fill="#525252" transform="matrix(1.00, 0.00, -0.00, -1.00, 489.3, 239.0)">P</text><text xml:space="preserve" font-family="GillSans-Light" font-size="25.8" fill="#525252" transform="matrix(1.00, 0.00, -0.00, -1.00, 502.5, 239.0)">r</text><text xml:space="preserve" font-family="GillSans-Light" font-size="25.8" fill="#525252" transform="matrix(1.00, 0.00, -0.00, -1.00, 511.8, 239.0)">i</text><text xml:space="preserve" font-family="GillSans-Light" font-size="25.8" fill="#525252" transform="matrix(1.00, 0.00, -0.00, -1.00, 516.6, 239.0)">n</text><text xml:space="preserve" font-family="GillSans-Light" font-size="25.8" fill="#525252" transform="matrix(1.00, 0.00, -0.00, -1.00, 529.3, 239.0)">c</text><text xml:space="preserve" font-family="GillSans-Light" font-size="25.8" fill="#525252" transform="matrix(1.00, 0.00, -0.00, -1.00, 540.1, 239.0)">e</text><text xml:space="preserve" font-family="GillSans-Light" font-size="25.8" fill="#525252" transform="matrix(1.00, 0.00, -0.00, -1.00, 552.4, 239.0)"> </text><text xml:space="preserve" font-family="GillSans-Light" font-size="25.8" fill="#525252" transform="matrix(1.00, 0.00, -0.00, -1.00, 559.6, 239.0)">E</text><text xml:space="preserve" font-family="GillSans-Light" font-size="25.8" fill="#525252" transform="matrix(1.00, 0.00, -0.00, -1.00, 572.3, 239.0)">d</text><text xml:space="preserve" font-family="GillSans-Light" font-size="25.8" fill="#525252" transform="matrix(1.00, 0.00, -0.00, -1.00, 585.5, 239.0)">w</text><text xml:space="preserve" font-family="GillSans-Light" font-size="25.8" fill="#525252" transform="matrix(1.00, 0.00, -0.00, -1.00, 603.7, 239.0)">a</text><text xml:space="preserve" font-family="GillSans-Light" font-size="25.8" fill="#525252" transform="matrix(1.00, 0.00, -0.00, -1.00, 614.8, 239.0)">r</text><text xml:space="preserve" font-family="GillSans-Light" font-size="25.8" fill="#525252" transform="matrix(1.00, 0.00, -0.00, -1.00, 623.4, 239.0)">d</text><text xml:space="preserve" font-family="GillSans-Light" font-size="25.8" fill="#525252" transform="matrix(1.00, 0.00, -0.00, -1.00, 636.5, 239.0)"> </text><text xml:space="preserve" font-family="GillSans-Light" font-size="25.8" fill="#525252" transform="matrix(1.00, 0.00, -0.00, -1.00, 643.7, 239.0)">I</text><text xml:space="preserve" font-family="GillSans-Light" font-size="25.8" fill="#525252" transform="matrix(1.00, 0.00, -0.00, -1.00, 649.1, 239.0)">s</text><text xml:space="preserve" font-family="GillSans-Light" font-size="25.8" fill="#525252" transform="matrix(1.00, 0.00, -0.00, -1.00, 658.2, 239.0)">l</text><text xml:space="preserve" font-family="GillSans-Light" font-size="25.8" fill="#525252" transform="matrix(1.00, 0.00, -0.00, -1.00, 663.1, 239.0)">a</text><text xml:space="preserve" font-family="GillSans-Light" font-size="25.8" fill="#525252" transform="matrix(1.00, 0.00, -0.00, -1.00, 674.1, 239.0)">n</text><text xml:space="preserve" font-family="GillSans-Light" font-size="25.8" fill="#525252" transform="matrix(1.00, 0.00, -0.00, -1.00, 686.8, 239.0)">d</text><text xml:space="preserve" font-family="GillSans-Light" font-size="25.8" fill="#525252" transform="matrix(1.00, 0.00, -0.00, -1.00, 396.0, 210.0)">b</text><text xml:space="preserve" font-family="GillSans-Light" font-size="25.8" fill="#525252" transform="matrix(1.00, 0.00, -0.00, -1.00, 408.8, 210.0)">y</text><text xml:space="preserve" font-family="GillSans-Light" font-size="25.8" fill="#525252" transform="matrix(1.00, 0.00, -0.00, -1.00, 419.5, 210.0)"> </text><text xml:space="preserve" font-family="GillSans-Light" font-size="25.8" fill="#525252" transform="matrix(1.00, 0.00, -0.00, -1.00, 426.7, 210.0)">M</text><text xml:space="preserve" font-family="GillSans-Light" font-size="25.8" fill="#525252" transform="matrix(1.00, 0.00, -0.00, -1.00, 446.9, 210.0)">i</text><text xml:space="preserve" font-family="GillSans-Light" font-size="25.8" fill="#525252" transform="matrix(1.00, 0.00, -0.00, -1.00, 451.8, 210.0)">c</text><text xml:space="preserve" font-family="GillSans-Light" font-size="25.8" fill="#525252" transform="matrix(1.00, 0.00, -0.00, -1.00, 462.5, 210.0)">h</text><text xml:space="preserve" font-family="GillSans-Light" font-size="25.8" fill="#525252" transform="matrix(1.00, 0.00, -0.00, -1.00, 475.2, 210.0)">a</text><text xml:space="preserve" font-family="GillSans-Light" font-size="25.8" fill="#525252" transform="matrix(1.00, 0.00, -0.00, -1.00, 486.2, 210.0)">e</text><text xml:space="preserve" font-family="GillSans-Light" font-size="25.8" fill="#525252" transform="matrix(1.00, 0.00, -0.00, -1.00, 498.6, 210.0)">l</text><text xml:space="preserve" font-family="GillSans-Light" font-size="25.8" fill="#525252" transform="matrix(1.00, 0.00, -0.00, -1.00, 503.5, 210.0)"> </text><text xml:space="preserve" font-family="GillSans-Light" font-size="25.8" fill="#525252" transform="matrix(1.00, 0.00, -0.00, -1.00, 510.6, 210.0)">E</text><text xml:space="preserve" font-family="GillSans-Light" font-size="25.8" fill="#525252" transform="matrix(1.00, 0.00, -0.00, -1.00, 523.3, 210.0)">a</text><text xml:space="preserve" font-family="GillSans-Light" font-size="25.8" fill="#525252" transform="matrix(1.00, 0.00, -0.00, -1.00, 534.3, 210.0)">s</text><text xml:space="preserve" font-family="GillSans-Light" font-size="25.8" fill="#525252" transform="matrix(1.00, 0.00, -0.00, -1.00, 543.5, 210.0)">t</text><text xml:space="preserve" font-family="GillSans-Light" font-size="25.8" fill="#525252" transform="matrix(1.00, 0.00, -0.00, -1.00, 551.3, 210.0)">e</text><text xml:space="preserve" font-family="GillSans-Light" font-size="25.8" fill="#525252" transform="matrix(1.00, 0.00, -0.00, -1.00, 563.6, 210.0)">r</text><text xml:space="preserve" font-family="GillSans-Light" font-size="25.8" fill="#525252" transform="matrix(1.00, 0.00, -0.00, -1.00, 572.2, 210.0)"> </text><text xml:space="preserve" font-family="GillSans-Light" font-size="25.8" fill="#525252" transform="matrix(1.00, 0.00, -0.00, -1.00, 579.4, 210.0)">e</text><text xml:space="preserve" font-family="GillSans-Light" font-size="25.8" fill="#525252" transform="matrix(1.00, 0.00, -0.00, -1.00, 591.8, 210.0)">t</text><text xml:space="preserve" font-family="GillSans-Light" font-size="25.8" fill="#525252" transform="matrix(1.00, 0.00, -0.00, -1.00, 599.6, 210.0)"> </text><text xml:space="preserve" font-family="GillSans-Light" font-size="25.8" fill="#525252" transform="matrix(1.00, 0.00, -0.00, -1.00, 606.8, 210.0)">a</text><text xml:space="preserve" font-family="GillSans-Light" font-size="25.8" fill="#525252" transform="matrix(1.00, 0.00, -0.00, -1.00, 617.8, 210.0)">l</text><text xml:space="preserve" font-family="GillSans-Light" font-size="25.8" fill="#525252" transform="matrix(1.00, 0.00, -0.00, -1.00, 622.6, 210.0)">.</text><text xml:space="preserve" font-family="GillSans-Light" font-size="25.8" fill="#525252" transform="matrix(1.00, 0.00, -0.00, -1.00, 442.0, 181.0)">D</text><text xml:space="preserve" font-family="GillSans-Light" font-size="25.8" fill="#525252" transform="matrix(1.00, 0.00, -0.00, -1.00, 461.1, 181.0)">e</text><text xml:space="preserve" font-family="GillSans-Light" font-size="25.8" fill="#525252" transform="matrix(1.00, 0.00, -0.00, -1.00, 473.5, 181.0)">c</text><text xml:space="preserve" font-family="GillSans-Light" font-size="25.8" fill="#525252" transform="matrix(1.00, 0.00, -0.00, -1.00, 484.9, 181.0)">.</text><text xml:space="preserve" font-family="GillSans-Light" font-size="25.8" fill="#525252" transform="matrix(1.00, 0.00, -0.00, -1.00, 487.4, 181.0)"> </text><text xml:space="preserve" font-family="GillSans-Light" font-size="25.8" fill="#525252" transform="matrix(1.00, 0.00, -0.00, -1.00, 494.6, 181.0)">1</text><text xml:space="preserve" font-family="GillSans-Light" font-size="25.8" fill="#525252" transform="matrix(1.00, 0.00, -0.00, -1.00, 507.5, 181.0)">7</text><text xml:space="preserve" font-family="GillSans-Light" font-size="25.8" fill="#525252" transform="matrix(1.00, 0.00, -0.00, -1.00, 520.4, 181.0)">,</text><text xml:space="preserve" font-family="GillSans-Light" font-size="25.8" fill="#525252" transform="matrix(1.00, 0.00, -0.00, -1.00, 522.9, 181.0)"> </text><text xml:space="preserve" font-family="GillSans-Light" font-size="25.8" fill="#525252" transform="matrix(1.00, 0.00, -0.00, -1.00, 530.1, 181.0)">2</text><text xml:space="preserve" font-family="GillSans-Light" font-size="25.8" fill="#525252" transform="matrix(1.00, 0.00, -0.00, -1.00, 543.0, 181.0)">0</text><text xml:space="preserve" font-family="GillSans-Light" font-size="25.8" fill="#525252" transform="matrix(1.00, 0.00, -0.00, -1.00, 555.9, 181.0)">1</text><text xml:space="preserve" font-family="GillSans-Light" font-size="25.8" fill="#525252" transform="matrix(1.00, 0.00, -0.00, -1.00, 568.9, 181.0)">5</text></g></svg>