<?xml version="1.0" encoding="UTF-8" standalone="no"?><svg xmlns="http://www.w3.org/2000/svg" xmlns:xlink="http://www.w3.org/1999/xlink" clip-rule="evenodd" stroke-miterlimit="4.00" viewBox="0 0 1024 768"><desc>SVG generated by Keynote</desc><defs></defs><g transform="matrix(1.00, 0.00, -0.00, -1.00, 0.0, 768.0)"><g><clipPath id="clip-1184"><path d="M 0.0 768.0 L 1024.0 768.0 L 1024.0 0.0 L 0.0 0.0 Z M 0.0 768.0 "></path></clipPath><g clip-path="url(#clip-1184)"><image xlink:href="../../E8782ACA-0DD6-462E-AFA6-8D26C4A2FECE/assets/107E65D87114B546DB29000410A7B5AF.jpeg" width="1024.00" height="768.00" transform="matrix(1.00, 0.00, -0.00, -1.00, 0.0, 768.0)"></image></g></g><image xlink:href="D5B86560A92ADA95EF91E5ACAD8F8020.png" width="690.00" height="498.00" transform="matrix(1.00, 0.00, -0.00, -1.00, 167.0, 704.0)"></image><image xlink:href="4ADE28B75804FD1E1D06390F0BCD637E.png" width="97.00" height="19.00" transform="matrix(1.00, 0.00, -0.00, -1.00, 463.0, 124.0)"></image><text xml:space="preserve" font-family="AvenirNext-Medium" font-size="17.0" fill="#5D514B" transform="matrix(1.00, 0.00, -0.00, -1.00, 465.0, 110.0)">C</text><text xml:space="preserve" font-family="AvenirNext-Medium" font-size="17.0" fill="#5D514B" transform="matrix(1.00, 0.00, -0.00, -1.00, 476.8, 110.0)">O</text><text xml:space="preserve" font-family="AvenirNext-Medium" font-size="17.0" fill="#5D514B" transform="matrix(1.00, 0.00, -0.00, -1.00, 491.3, 110.0)">D</text><text xml:space="preserve" font-family="AvenirNext-Medium" font-size="17.0" fill="#5D514B" transform="matrix(1.00, 0.00, -0.00, -1.00, 504.2, 110.0)">S</text><text xml:space="preserve" font-family="AvenirNext-Medium" font-size="17.0" fill="#5D514B" transform="matrix(1.00, 0.00, -0.00, -1.00, 513.9, 110.0)"> </text><text xml:space="preserve" font-family="AvenirNext-Medium" font-size="17.0" fill="#5D514B" transform="matrix(1.00, 0.00, -0.00, -1.00, 518.1, 110.0)">2</text><text xml:space="preserve" font-family="AvenirNext-Medium" font-size="17.0" fill="#5D514B" transform="matrix(1.00, 0.00, -0.00, -1.00, 528.2, 110.0)">0</text><text xml:space="preserve" font-family="AvenirNext-Medium" font-size="17.0" fill="#5D514B" transform="matrix(1.00, 0.00, -0.00, -1.00, 538.4, 110.0)">1</text><text xml:space="preserve" font-family="AvenirNext-Medium" font-size="17.0" fill="#5D514B" transform="matrix(1.00, 0.00, -0.00, -1.00, 548.5, 110.0)">6</text><g><clipPath id="clip-1185"><path d="M 464.2 107.3 L 558.8 107.3 L 558.8 110.2 L 464.2 110.2 Z M 464.2 107.3 "></path></clipPath><g clip-path="url(#clip-1185)"><path d="M 203.5 22.1 L 297.1 22.1 " fill="none" stroke="#5D514B" stroke-width="0.85" stroke-miterlimit="0.00" transform="matrix(1.00, 0.00, 0.00, -1.00, 261.7, 130.8)"></path></g></g></g></svg>