<?xml version="1.0" encoding="UTF-8" standalone="no"?><svg xmlns="http://www.w3.org/2000/svg" xmlns:xlink="http://www.w3.org/1999/xlink" clip-rule="evenodd" stroke-miterlimit="4.00" viewBox="0 0 1024 768"><desc>SVG generated by Keynote</desc><defs></defs><g transform="matrix(1.00, 0.00, -0.00, -1.00, 0.0, 768.0)"><g><clipPath id="clip-1331"><path d="M 0.0 768.0 L 1024.0 768.0 L 1024.0 0.0 L 0.0 0.0 Z M 0.0 768.0 "></path></clipPath><g clip-path="url(#clip-1331)"><image xlink:href="../../E8782ACA-0DD6-462E-AFA6-8D26C4A2FECE/assets/107E65D87114B546DB29000410A7B5AF.jpeg" width="1024.00" height="768.00" transform="matrix(1.00, 0.00, -0.00, -1.00, 0.0, 768.0)"></image></g></g><g><clipPath id="clip-1332"><path d="M 161.0 703.0 L 863.0 703.0 L 863.0 169.0 L 161.0 169.0 Z M 161.0 703.0 "></path></clipPath><g clip-path="url(#clip-1332)"><image xlink:href="B6B213F5E0ACBEB7554305E6E8AC063F.png" width="587.00" height="446.00" transform="matrix(1.00, 0.00, -0.00, -1.00, 219.0, 674.0)"></image></g></g><image xlink:href="6F799718EE5E954C07720BA71E810F90.png" width="429.00" height="29.00" transform="matrix(1.00, 0.00, -0.00, -1.00, 297.0, 121.0)"></image><text xml:space="preserve" font-family="AvenirNext-Medium" font-size="24.0" fill="#5D514B" transform="matrix(1.00, 0.00, -0.00, -1.00, 298.0, 102.0)">G</text><text xml:space="preserve" font-family="AvenirNext-Medium" font-size="24.0" fill="#5D514B" transform="matrix(1.00, 0.00, -0.00, -1.00, 316.7, 102.0)">e</text><text xml:space="preserve" font-family="AvenirNext-Medium" font-size="24.0" fill="#5D514B" transform="matrix(1.00, 0.00, -0.00, -1.00, 330.4, 102.0)">n</text><text xml:space="preserve" font-family="AvenirNext-Medium" font-size="24.0" fill="#5D514B" transform="matrix(1.00, 0.00, -0.00, -1.00, 344.4, 102.0)">e</text><text xml:space="preserve" font-family="AvenirNext-Medium" font-size="24.0" fill="#5D514B" transform="matrix(1.00, 0.00, -0.00, -1.00, 358.1, 102.0)">r</text><text xml:space="preserve" font-family="AvenirNext-Medium" font-size="24.0" fill="#5D514B" transform="matrix(1.00, 0.00, -0.00, -1.00, 366.5, 102.0)">a</text><text xml:space="preserve" font-family="AvenirNext-Medium" font-size="24.0" fill="#5D514B" transform="matrix(1.00, 0.00, -0.00, -1.00, 379.3, 102.0)">t</text><text xml:space="preserve" font-family="AvenirNext-Medium" font-size="24.0" fill="#5D514B" transform="matrix(1.00, 0.00, -0.00, -1.00, 387.2, 102.0)">i</text><text xml:space="preserve" font-family="AvenirNext-Medium" font-size="24.0" fill="#5D514B" transform="matrix(1.00, 0.00, -0.00, -1.00, 393.4, 102.0)">o</text><text xml:space="preserve" font-family="AvenirNext-Medium" font-size="24.0" fill="#5D514B" transform="matrix(1.00, 0.00, -0.00, -1.00, 408.0, 102.0)">n</text><text xml:space="preserve" font-family="AvenirNext-Medium" font-size="24.0" fill="#5D514B" transform="matrix(1.00, 0.00, -0.00, -1.00, 422.0, 102.0)"> </text><text xml:space="preserve" font-family="AvenirNext-Medium" font-size="24.0" fill="#5D514B" transform="matrix(1.00, 0.00, -0.00, -1.00, 428.0, 102.0)">O</text><text xml:space="preserve" font-family="AvenirNext-Medium" font-size="24.0" fill="#5D514B" transform="matrix(1.00, 0.00, -0.00, -1.00, 448.4, 102.0)">p</text><text xml:space="preserve" font-family="AvenirNext-Medium" font-size="24.0" fill="#5D514B" transform="matrix(1.00, 0.00, -0.00, -1.00, 463.6, 102.0)">e</text><text xml:space="preserve" font-family="AvenirNext-Medium" font-size="24.0" fill="#5D514B" transform="matrix(1.00, 0.00, -0.00, -1.00, 477.4, 102.0)">n</text><text xml:space="preserve" font-family="AvenirNext-Medium" font-size="24.0" fill="#5D514B" transform="matrix(1.00, 0.00, -0.00, -1.00, 491.3, 102.0)">:</text><text xml:space="preserve" font-family="AvenirNext-Medium" font-size="24.0" fill="#5D514B" transform="matrix(1.00, 0.00, -0.00, -1.00, 498.5, 102.0)"> </text><text xml:space="preserve" font-family="AvenirNext-Medium" font-size="24.0" fill="#5D514B" transform="matrix(1.00, 0.00, -0.00, -1.00, 504.5, 102.0)">a</text><text xml:space="preserve" font-family="AvenirNext-Medium" font-size="24.0" fill="#5D514B" transform="matrix(1.00, 0.00, -0.00, -1.00, 517.5, 102.0)">n</text><text xml:space="preserve" font-family="AvenirNext-Medium" font-size="24.0" fill="#5D514B" transform="matrix(1.00, 0.00, -0.00, -1.00, 531.5, 102.0)"> </text><text xml:space="preserve" font-family="AvenirNext-Medium" font-size="24.0" fill="#5D514B" transform="matrix(1.00, 0.00, -0.00, -1.00, 537.5, 102.0)">o</text><text xml:space="preserve" font-family="AvenirNext-Medium" font-size="24.0" fill="#5D514B" transform="matrix(1.00, 0.00, -0.00, -1.00, 552.1, 102.0)">p</text><text xml:space="preserve" font-family="AvenirNext-Medium" font-size="24.0" fill="#5D514B" transform="matrix(1.00, 0.00, -0.00, -1.00, 567.4, 102.0)">e</text><text xml:space="preserve" font-family="AvenirNext-Medium" font-size="24.0" fill="#5D514B" transform="matrix(1.00, 0.00, -0.00, -1.00, 581.1, 102.0)">n</text><text xml:space="preserve" font-family="AvenirNext-Medium" font-size="24.0" fill="#5D514B" transform="matrix(1.00, 0.00, -0.00, -1.00, 595.1, 102.0)"> </text><text xml:space="preserve" font-family="AvenirNext-Medium" font-size="24.0" fill="#5D514B" transform="matrix(1.00, 0.00, -0.00, -1.00, 601.1, 102.0)">d</text><text xml:space="preserve" font-family="AvenirNext-Medium" font-size="24.0" fill="#5D514B" transform="matrix(1.00, 0.00, -0.00, -1.00, 616.3, 102.0)">e</text><text xml:space="preserve" font-family="AvenirNext-Medium" font-size="24.0" fill="#5D514B" transform="matrix(1.00, 0.00, -0.00, -1.00, 630.1, 102.0)">c</text><text xml:space="preserve" font-family="AvenirNext-Medium" font-size="24.0" fill="#5D514B" transform="matrix(1.00, 0.00, -0.00, -1.00, 641.9, 102.0)">l</text><text xml:space="preserve" font-family="AvenirNext-Medium" font-size="24.0" fill="#5D514B" transform="matrix(1.00, 0.00, -0.00, -1.00, 648.2, 102.0)">a</text><text xml:space="preserve" font-family="AvenirNext-Medium" font-size="24.0" fill="#5D514B" transform="matrix(1.00, 0.00, -0.00, -1.00, 661.2, 102.0)">r</text><text xml:space="preserve" font-family="AvenirNext-Medium" font-size="24.0" fill="#5D514B" transform="matrix(1.00, 0.00, -0.00, -1.00, 669.5, 102.0)">a</text><text xml:space="preserve" font-family="AvenirNext-Medium" font-size="24.0" fill="#5D514B" transform="matrix(1.00, 0.00, -0.00, -1.00, 682.3, 102.0)">t</text><text xml:space="preserve" font-family="AvenirNext-Medium" font-size="24.0" fill="#5D514B" transform="matrix(1.00, 0.00, -0.00, -1.00, 690.2, 102.0)">i</text><text xml:space="preserve" font-family="AvenirNext-Medium" font-size="24.0" fill="#5D514B" transform="matrix(1.00, 0.00, -0.00, -1.00, 696.4, 102.0)">o</text><text xml:space="preserve" font-family="AvenirNext-Medium" font-size="24.0" fill="#5D514B" transform="matrix(1.00, 0.00, -0.00, -1.00, 711.1, 102.0)">n</text><g><clipPath id="clip-1333"><path d="M 297.5 98.5 L 725.5 98.5 L 725.5 101.7 L 297.5 101.7 Z M 297.5 98.5 "></path></clipPath><g clip-path="url(#clip-1333)"><path d="M 36.8 30.0 L 463.8 30.0 " fill="none" stroke="#5D514B" stroke-width="1.20" stroke-miterlimit="0.00" transform="matrix(1.00, 0.00, 0.00, -1.00, 261.7, 130.1)"></path></g></g></g></svg>