<?xml version="1.0" encoding="UTF-8" standalone="no"?><svg xmlns="http://www.w3.org/2000/svg" xmlns:xlink="http://www.w3.org/1999/xlink" clip-rule="evenodd" stroke-miterlimit="10" viewBox="0 0 1024 768"><desc>SVG generated by Keynote</desc><defs></defs><g transform="matrix(1.00, 0.00, -0.00, -1.00, 0.0, 768.0)"><g><clipPath id="clip0x6180004bbd80"><path d="M 0.0 768.0 L 1024.0 768.0 L 1024.0 0.0 L 0.0 0.0 Z M 0.0 768.0 "></path></clipPath><g clip-path="url(#clip0x6180004bbd80)"><image xlink:href="../../B32C0A43-AFB7-4D6F-9198-B3909335F6E9/assets/574DCE55A4CF432400CBDDDE1DFDFC9B.jpeg" width="2048.00" height="1536.00" transform="matrix(0.50, 0.00, -0.00, -0.50, 0.0, 768.0)"></image></g></g><text xml:space="preserve" font-family="GillSans-Light,Gill Sans" font-size="36.0" fill="#525252" transform="matrix(1.00, 0.00, -0.00, -1.00, 313.4, 413.1)">B</text><text xml:space="preserve" font-family="GillSans-Light,Gill Sans" font-size="36.0" fill="#525252" transform="matrix(1.00, 0.00, -0.00, -1.00, 332.5, 413.1)">u</text><text xml:space="preserve" font-family="GillSans-Light,Gill Sans" font-size="36.0" fill="#525252" transform="matrix(1.00, 0.00, -0.00, -1.00, 350.1, 413.1)">t</text><text xml:space="preserve" font-family="GillSans-Light,Gill Sans" font-size="36.0" fill="#525252" transform="matrix(1.00, 0.00, -0.00, -1.00, 361.0, 413.1)"> </text><text xml:space="preserve" font-family="GillSans-Light,Gill Sans" font-size="36.0" fill="#525252" transform="matrix(1.00, 0.00, -0.00, -1.00, 371.0, 413.1)">a</text><text xml:space="preserve" font-family="GillSans-Light,Gill Sans" font-size="36.0" fill="#525252" transform="matrix(1.00, 0.00, -0.00, -1.00, 386.3, 413.1)">s</text><text xml:space="preserve" font-family="GillSans-Light,Gill Sans" font-size="36.0" fill="#525252" transform="matrix(1.00, 0.00, -0.00, -1.00, 399.1, 413.1)"> </text><text xml:space="preserve" font-family="GillSans-Light,Gill Sans" font-size="36.0" fill="#525252" transform="matrix(1.00, 0.00, -0.00, -1.00, 409.1, 413.1)">P</text><text xml:space="preserve" font-family="GillSans-Light,Gill Sans" font-size="36.0" fill="#525252" transform="matrix(1.00, 0.00, -0.00, -1.00, 425.6, 413.1)">e</text><text xml:space="preserve" font-family="GillSans-Light,Gill Sans" font-size="36.0" fill="#525252" transform="matrix(1.00, 0.00, -0.00, -1.00, 442.9, 413.1)">t</text><text xml:space="preserve" font-family="GillSans-Light,Gill Sans" font-size="36.0" fill="#525252" transform="matrix(1.00, 0.00, -0.00, -1.00, 453.7, 413.1)">e</text><text xml:space="preserve" font-family="GillSans-Light,Gill Sans" font-size="36.0" fill="#525252" transform="matrix(1.00, 0.00, -0.00, -1.00, 471.0, 413.1)">r</text><text xml:space="preserve" font-family="GillSans-Light,Gill Sans" font-size="36.0" fill="#525252" transform="matrix(1.00, 0.00, -0.00, -1.00, 483.0, 413.1)"> </text><text xml:space="preserve" font-family="GillSans-Light,Gill Sans" font-size="36.0" fill="#525252" transform="matrix(1.00, 0.00, -0.00, -1.00, 493.0, 413.1)">R</text><text xml:space="preserve" font-family="GillSans-Light,Gill Sans" font-size="36.0" fill="#525252" transform="matrix(1.00, 0.00, -0.00, -1.00, 513.6, 413.1)">u</text><text xml:space="preserve" font-family="GillSans-Light,Gill Sans" font-size="36.0" fill="#525252" transform="matrix(1.00, 0.00, -0.00, -1.00, 531.3, 413.1)">k</text><text xml:space="preserve" font-family="GillSans-Light,Gill Sans" font-size="36.0" fill="#525252" transform="matrix(1.00, 0.00, -0.00, -1.00, 546.6, 413.1)">a</text><text xml:space="preserve" font-family="GillSans-Light,Gill Sans" font-size="36.0" fill="#525252" transform="matrix(1.00, 0.00, -0.00, -1.00, 561.1, 413.1)">v</text><text xml:space="preserve" font-family="GillSans-Light,Gill Sans" font-size="36.0" fill="#525252" transform="matrix(1.00, 0.00, -0.00, -1.00, 576.4, 413.1)">i</text><text xml:space="preserve" font-family="GillSans-Light,Gill Sans" font-size="36.0" fill="#525252" transform="matrix(1.00, 0.00, -0.00, -1.00, 583.2, 413.1)">n</text><text xml:space="preserve" font-family="GillSans-Light,Gill Sans" font-size="36.0" fill="#525252" transform="matrix(1.00, 0.00, -0.00, -1.00, 600.9, 413.1)">a</text><text xml:space="preserve" font-family="GillSans-Light,Gill Sans" font-size="36.0" fill="#525252" transform="matrix(1.00, 0.00, -0.00, -1.00, 616.2, 413.1)"> </text><text xml:space="preserve" font-family="GillSans-Light,Gill Sans" font-size="36.0" fill="#525252" transform="matrix(1.00, 0.00, -0.00, -1.00, 626.2, 413.1)">n</text><text xml:space="preserve" font-family="GillSans-Light,Gill Sans" font-size="36.0" fill="#525252" transform="matrix(1.00, 0.00, -0.00, -1.00, 643.9, 413.1)">o</text><text xml:space="preserve" font-family="GillSans-Light,Gill Sans" font-size="36.0" fill="#525252" transform="matrix(1.00, 0.00, -0.00, -1.00, 663.4, 413.1)">t</text><text xml:space="preserve" font-family="GillSans-Light,Gill Sans" font-size="36.0" fill="#525252" transform="matrix(1.00, 0.00, -0.00, -1.00, 674.2, 413.1)">e</text><text xml:space="preserve" font-family="GillSans-Light,Gill Sans" font-size="36.0" fill="#525252" transform="matrix(1.00, 0.00, -0.00, -1.00, 691.5, 413.1)">s</text><text xml:space="preserve" font-family="GillSans-Light,Gill Sans" font-size="36.0" fill="#525252" transform="matrix(1.00, 0.00, -0.00, -1.00, 704.3, 413.1)">,</text><g><clipPath id="clip0x6100008a3fc0"><path d="M 408.1 408.5 L 704.3 408.5 L 704.3 412.3 L 408.1 412.3 Z M 408.1 408.5 "></path></clipPath><g clip-path="url(#clip0x6100008a3fc0)"><path d="M 240.8 39.1 L 536.0 39.1 " fill="none" stroke="#525252" stroke-width="1.79" transform="matrix(1.00, 0.00, 0.00, -1.00, 168.3, 449.5)"></path></g></g><text xml:space="preserve" font-family="GillSans-Light,Gill Sans" font-size="36.0" fill="#525252" transform="matrix(1.00, 0.00, -0.00, -1.00, 284.2, 372.1)">w</text><text xml:space="preserve" font-family="GillSans-Light,Gill Sans" font-size="36.0" fill="#525252" transform="matrix(1.00, 0.00, -0.00, -1.00, 309.1, 372.1)">e</text><text xml:space="preserve" font-family="GillSans-Light,Gill Sans" font-size="36.0" fill="#525252" transform="matrix(1.00, 0.00, -0.00, -1.00, 326.4, 372.1)"> </text><text xml:space="preserve" font-family="GillSans-Light,Gill Sans" font-size="36.0" fill="#525252" transform="matrix(1.00, 0.00, -0.00, -1.00, 336.4, 372.1)">d</text><text xml:space="preserve" font-family="GillSans-Light,Gill Sans" font-size="36.0" fill="#525252" transform="matrix(1.00, 0.00, -0.00, -1.00, 354.7, 372.1)">o</text><text xml:space="preserve" font-family="GillSans-Light,Gill Sans" font-size="36.0" fill="#525252" transform="matrix(1.00, 0.00, -0.00, -1.00, 374.2, 372.1)">n</text><text xml:space="preserve" font-family="GillSans-Light,Gill Sans" font-size="36.0" fill="#525252" transform="matrix(1.00, 0.00, -0.00, -1.00, 391.9, 372.1)">’</text><text xml:space="preserve" font-family="GillSans-Light,Gill Sans" font-size="36.0" fill="#525252" transform="matrix(1.00, 0.00, -0.00, -1.00, 398.2, 372.1)">t</text><text xml:space="preserve" font-family="GillSans-Light,Gill Sans" font-size="36.0" fill="#525252" transform="matrix(1.00, 0.00, -0.00, -1.00, 409.1, 372.1)"> </text><text xml:space="preserve" font-family="GillSans-Light,Gill Sans" font-size="36.0" fill="#525252" transform="matrix(1.00, 0.00, -0.00, -1.00, 419.1, 372.1)">k</text><text xml:space="preserve" font-family="GillSans-Light,Gill Sans" font-size="36.0" fill="#525252" transform="matrix(1.00, 0.00, -0.00, -1.00, 434.4, 372.1)">n</text><text xml:space="preserve" font-family="GillSans-Light,Gill Sans" font-size="36.0" fill="#525252" transform="matrix(1.00, 0.00, -0.00, -1.00, 452.1, 372.1)">o</text><text xml:space="preserve" font-family="GillSans-Light,Gill Sans" font-size="36.0" fill="#525252" transform="matrix(1.00, 0.00, -0.00, -1.00, 471.1, 372.1)">w</text><text xml:space="preserve" font-family="GillSans-Light,Gill Sans" font-size="36.0" fill="#525252" transform="matrix(1.00, 0.00, -0.00, -1.00, 496.6, 372.1)"> </text><text xml:space="preserve" font-family="GillSans-Light,Gill Sans" font-size="36.0" fill="#525252" transform="matrix(1.00, 0.00, -0.00, -1.00, 506.6, 372.1)">h</text><text xml:space="preserve" font-family="GillSans-Light,Gill Sans" font-size="36.0" fill="#525252" transform="matrix(1.00, 0.00, -0.00, -1.00, 524.2, 372.1)">o</text><text xml:space="preserve" font-family="GillSans-Light,Gill Sans" font-size="36.0" fill="#525252" transform="matrix(1.00, 0.00, -0.00, -1.00, 543.2, 372.1)">w</text><text xml:space="preserve" font-family="GillSans-Light,Gill Sans" font-size="36.0" fill="#525252" transform="matrix(1.00, 0.00, -0.00, -1.00, 568.7, 372.1)"> </text><text xml:space="preserve" font-family="GillSans-Light,Gill Sans" font-size="36.0" fill="#525252" transform="matrix(1.00, 0.00, -0.00, -1.00, 578.7, 372.1)">O</text><text xml:space="preserve" font-family="GillSans-Light,Gill Sans" font-size="36.0" fill="#525252" transform="matrix(1.00, 0.00, -0.00, -1.00, 608.3, 372.1)">p</text><text xml:space="preserve" font-family="GillSans-Light,Gill Sans" font-size="36.0" fill="#525252" transform="matrix(1.00, 0.00, -0.00, -1.00, 626.6, 372.1)">e</text><text xml:space="preserve" font-family="GillSans-Light,Gill Sans" font-size="36.0" fill="#525252" transform="matrix(1.00, 0.00, -0.00, -1.00, 643.9, 372.1)">n</text><text xml:space="preserve" font-family="GillSans-Light,Gill Sans" font-size="36.0" fill="#525252" transform="matrix(1.00, 0.00, -0.00, -1.00, 661.5, 372.1)"> </text><text xml:space="preserve" font-family="GillSans-Light,Gill Sans" font-size="36.0" fill="#525252" transform="matrix(1.00, 0.00, -0.00, -1.00, 671.5, 372.1)">D</text><text xml:space="preserve" font-family="GillSans-Light,Gill Sans" font-size="36.0" fill="#525252" transform="matrix(1.00, 0.00, -0.00, -1.00, 698.2, 372.1)">a</text><text xml:space="preserve" font-family="GillSans-Light,Gill Sans" font-size="36.0" fill="#525252" transform="matrix(1.00, 0.00, -0.00, -1.00, 713.6, 372.1)">t</text><text xml:space="preserve" font-family="GillSans-Light,Gill Sans" font-size="36.0" fill="#525252" transform="matrix(1.00, 0.00, -0.00, -1.00, 724.4, 372.1)">a</text><text xml:space="preserve" font-family="GillSans-Light,Gill Sans" font-size="36.0" fill="#525252" transform="matrix(1.00, 0.00, -0.00, -1.00, 408.8, 331.1)">m</text><text xml:space="preserve" font-family="GillSans-Light,Gill Sans" font-size="36.0" fill="#525252" transform="matrix(1.00, 0.00, -0.00, -1.00, 436.6, 331.1)">i</text><text xml:space="preserve" font-family="GillSans-Light,Gill Sans" font-size="36.0" fill="#525252" transform="matrix(1.00, 0.00, -0.00, -1.00, 443.3, 331.1)">g</text><text xml:space="preserve" font-family="GillSans-Light,Gill Sans" font-size="36.0" fill="#525252" transform="matrix(1.00, 0.00, -0.00, -1.00, 458.7, 331.1)">h</text><text xml:space="preserve" font-family="GillSans-Light,Gill Sans" font-size="36.0" fill="#525252" transform="matrix(1.00, 0.00, -0.00, -1.00, 476.4, 331.1)">t</text><text xml:space="preserve" font-family="GillSans-Light,Gill Sans" font-size="36.0" fill="#525252" transform="matrix(1.00, 0.00, -0.00, -1.00, 487.2, 331.1)"> </text><text xml:space="preserve" font-family="GillSans-Light,Gill Sans" font-size="36.0" fill="#525252" transform="matrix(1.00, 0.00, -0.00, -1.00, 497.2, 331.1)">b</text><text xml:space="preserve" font-family="GillSans-Light,Gill Sans" font-size="36.0" fill="#525252" transform="matrix(1.00, 0.00, -0.00, -1.00, 515.6, 331.1)">e</text><text xml:space="preserve" font-family="GillSans-Light,Gill Sans" font-size="36.0" fill="#525252" transform="matrix(1.00, 0.00, -0.00, -1.00, 532.8, 331.1)"> </text><text xml:space="preserve" font-family="GillSans-Light,Gill Sans" font-size="36.0" fill="#525252" transform="matrix(1.00, 0.00, -0.00, -1.00, 542.8, 331.1)">u</text><text xml:space="preserve" font-family="GillSans-Light,Gill Sans" font-size="36.0" fill="#525252" transform="matrix(1.00, 0.00, -0.00, -1.00, 560.5, 331.1)">s</text><text xml:space="preserve" font-family="GillSans-Light,Gill Sans" font-size="36.0" fill="#525252" transform="matrix(1.00, 0.00, -0.00, -1.00, 573.2, 331.1)">e</text><text xml:space="preserve" font-family="GillSans-Light,Gill Sans" font-size="36.0" fill="#525252" transform="matrix(1.00, 0.00, -0.00, -1.00, 590.4, 331.1)">d</text><text xml:space="preserve" font-family="GillSans-Light,Gill Sans" font-size="36.0" fill="#525252" transform="matrix(1.00, 0.00, -0.00, -1.00, 608.8, 331.1)">.</text></g></svg>