<?xml version="1.0" encoding="UTF-8" standalone="no"?><svg xmlns="http://www.w3.org/2000/svg" xmlns:xlink="http://www.w3.org/1999/xlink" clip-rule="evenodd" stroke-miterlimit="4.00" viewBox="0 0 1024 768"><desc>SVG generated by Keynote</desc><defs></defs><g transform="matrix(1.00, 0.00, -0.00, -1.00, 0.0, 768.0)"><g><clipPath id="clip-273"><path d="M 0.0 768.0 L 1024.0 768.0 L 1024.0 0.0 L 0.0 0.0 Z M 0.0 768.0 "></path></clipPath><g clip-path="url(#clip-273)"><image xlink:href="../../E8782ACA-0DD6-462E-AFA6-8D26C4A2FECE/assets/107E65D87114B546DB29000410A7B5AF.jpeg" width="1024.00" height="768.00" transform="matrix(1.00, 0.00, -0.00, -1.00, 0.0, 768.0)"></image></g></g><image xlink:href="C908156CB87C2545708F717668047670.png" width="756.00" height="421.00" transform="matrix(1.00, 0.00, -0.00, -1.00, 134.0, 693.0)"></image><image xlink:href="78D95270C7944E67FB5947A9BEDD09DD.png" width="91.00" height="19.00" transform="matrix(1.00, 0.00, -0.00, -1.00, 467.0, 124.0)"></image><text xml:space="preserve" font-family="AvenirNext-Medium" font-size="17.0" fill="#5D514B" transform="matrix(1.00, 0.00, -0.00, -1.00, 468.0, 110.0)">I</text><text xml:space="preserve" font-family="AvenirNext-Medium" font-size="17.0" fill="#5D514B" transform="matrix(1.00, 0.00, -0.00, -1.00, 472.6, 110.0)">O</text><text xml:space="preserve" font-family="AvenirNext-Medium" font-size="17.0" fill="#5D514B" transform="matrix(1.00, 0.00, -0.00, -1.00, 487.0, 110.0)">D</text><text xml:space="preserve" font-family="AvenirNext-Medium" font-size="17.0" fill="#5D514B" transform="matrix(1.00, 0.00, -0.00, -1.00, 500.0, 110.0)">C</text><text xml:space="preserve" font-family="AvenirNext-Medium" font-size="17.0" fill="#5D514B" transform="matrix(1.00, 0.00, -0.00, -1.00, 512.0, 110.0)"> </text><text xml:space="preserve" font-family="AvenirNext-Medium" font-size="17.0" fill="#5D514B" transform="matrix(1.00, 0.00, -0.00, -1.00, 516.3, 110.0)">2</text><text xml:space="preserve" font-family="AvenirNext-Medium" font-size="17.0" fill="#5D514B" transform="matrix(1.00, 0.00, -0.00, -1.00, 526.4, 110.0)">0</text><text xml:space="preserve" font-family="AvenirNext-Medium" font-size="17.0" fill="#5D514B" transform="matrix(1.00, 0.00, -0.00, -1.00, 536.5, 110.0)">1</text><text xml:space="preserve" font-family="AvenirNext-Medium" font-size="17.0" fill="#5D514B" transform="matrix(1.00, 0.00, -0.00, -1.00, 546.6, 110.0)">6</text><g><clipPath id="clip-274"><path d="M 466.6 107.3 L 556.4 107.3 L 556.4 110.2 L 466.6 110.2 Z M 466.6 107.3 "></path></clipPath><g clip-path="url(#clip-274)"><path d="M 206.0 22.1 L 294.7 22.1 " fill="none" stroke="#5D514B" stroke-width="0.85" stroke-miterlimit="0.00" transform="matrix(1.00, 0.00, 0.00, -1.00, 261.7, 130.8)"></path></g></g></g></svg>