<?xml version="1.0" encoding="UTF-8" standalone="no"?><svg xmlns="http://www.w3.org/2000/svg" xmlns:xlink="http://www.w3.org/1999/xlink" clip-rule="evenodd" stroke-miterlimit="10" viewBox="0 0 1024 768"><desc>SVG generated by Keynote</desc><defs></defs><g transform="matrix(1.00, 0.00, -0.00, -1.00, 0.0, 768.0)"><g><clipPath id="clip0x608000aaaf20"><path d="M 0.0 768.0 L 1024.0 768.0 L 1024.0 0.0 L 0.0 0.0 Z M 0.0 768.0 "></path></clipPath><g clip-path="url(#clip0x608000aaaf20)"><image xlink:href="../../B32C0A43-AFB7-4D6F-9198-B3909335F6E9/assets/574DCE55A4CF432400CBDDDE1DFDFC9B.jpeg" width="2048.00" height="1536.00" transform="matrix(0.50, 0.00, -0.00, -0.50, 0.0, 768.0)"></image></g></g><path d="M 168.0 358.9 L 168.0 428.9 C 168.0 437.2 174.7 444.0 183.0 444.0 L 253.0 444.0 C 261.3 444.0 268.0 437.2 268.0 428.9 L 268.0 358.9 C 268.0 350.6 261.3 344.0 253.0 344.0 L 183.0 344.0 C 174.7 344.0 168.0 350.6 168.0 358.9 Z M 168.0 358.9 " fill="#D99719"></path><path d="M 449.3 80.3 L 449.0 150.3 C 449.0 158.6 456.1 165.0 464.3 165.0 L 534.3 165.0 C 542.6 165.0 549.0 158.6 549.0 150.3 L 549.0 80.3 C 549.0 72.0 542.6 65.0 534.3 65.0 L 464.3 65.0 C 456.1 65.0 449.3 72.0 449.3 80.3 Z M 449.3 80.3 " fill="#D99719"></path><path d="M 500.3 83.4 L 500.0 107.2 C 500.0 110.0 502.6 112.0 505.4 112.0 L 528.3 112.0 C 531.1 112.0 533.0 110.0 533.0 107.2 L 533.0 83.4 C 533.0 80.5 531.1 78.0 528.3 78.0 L 505.4 78.0 C 502.6 78.0 500.3 80.5 500.3 83.4 Z M 500.3 83.4 " fill="#FF2600"></path><path d="M 449.3 226.1 L 449.0 296.1 C 449.0 304.3 456.1 311.0 464.3 311.0 L 534.3 311.0 C 542.6 311.0 549.0 304.3 549.0 296.1 L 549.0 226.1 C 549.0 217.8 542.6 211.0 534.3 211.0 L 464.3 211.0 C 456.1 211.0 449.3 217.8 449.3 226.1 Z M 449.3 226.1 " fill="#D99719"></path><path d="M 503.8 229.1 L 504.0 253.0 C 504.0 255.8 506.1 258.0 508.9 258.0 L 531.8 258.0 C 534.6 258.0 537.0 255.8 537.0 253.0 L 537.0 229.1 C 537.0 226.3 534.6 224.0 531.8 224.0 L 508.9 224.0 C 506.1 224.0 503.8 226.3 503.8 229.1 Z M 503.8 229.1 " fill="#FF2600"></path><path d="M 449.3 491.7 L 449.0 561.7 C 449.0 570.0 456.1 577.0 464.3 577.0 L 534.3 577.0 C 542.6 577.0 549.0 570.0 549.0 561.7 L 549.0 491.7 C 549.0 483.4 542.6 477.0 534.3 477.0 L 464.3 477.0 C 456.1 477.0 449.3 483.4 449.3 491.7 Z M 449.3 491.7 " fill="#D99719"></path><path d="M 505.3 494.8 L 505.0 518.6 C 505.0 521.4 507.6 524.0 510.4 524.0 L 533.3 524.0 C 536.1 524.0 538.0 521.4 538.0 518.6 L 538.0 494.8 C 538.0 491.9 536.1 490.0 533.3 490.0 L 510.4 490.0 C 507.6 490.0 505.3 491.9 505.3 494.8 Z M 505.3 494.8 " fill="#FF2600"></path><path d="M 449.3 358.9 L 449.0 428.9 C 449.0 437.2 456.1 444.0 464.3 444.0 L 534.3 444.0 C 542.6 444.0 549.0 437.2 549.0 428.9 L 549.0 358.9 C 549.0 350.6 542.6 344.0 534.3 344.0 L 464.3 344.0 C 456.1 344.0 449.3 350.6 449.3 358.9 Z M 449.3 358.9 " fill="#D99719"></path><path d="M 500.3 361.9 L 500.0 385.8 C 500.0 388.6 502.6 391.0 505.4 391.0 L 528.3 391.0 C 531.1 391.0 533.0 388.6 533.0 385.8 L 533.0 361.9 C 533.0 359.1 531.1 357.0 528.3 357.0 L 505.4 357.0 C 502.6 357.0 500.3 359.1 500.3 361.9 Z M 500.3 361.9 " fill="#FF2600"></path><path d="M 449.3 624.5 L 449.0 694.5 C 449.0 702.8 456.1 709.0 464.3 709.0 L 534.3 709.0 C 542.6 709.0 549.0 702.8 549.0 694.5 L 549.0 624.5 C 549.0 616.2 542.6 609.0 534.3 609.0 L 464.3 609.0 C 456.1 609.0 449.3 616.2 449.3 624.5 Z M 449.3 624.5 " fill="#D99719"></path><path d="M 503.8 627.6 L 504.0 651.4 C 504.0 654.2 506.1 656.0 508.9 656.0 L 531.8 656.0 C 534.6 656.0 537.0 654.2 537.0 651.4 L 537.0 627.6 C 537.0 624.7 534.6 622.0 531.8 622.0 L 508.9 622.0 C 506.1 622.0 503.8 624.7 503.8 627.6 Z M 503.8 627.6 " fill="#FF2600"></path><path d="M 485.4 39.0 C 485.4 37.0 485.0 34.3 482.0 33.9 C 479.0 33.6 476.7 35.8 476.7 38.9 C 476.7 41.9 478.3 41.1 478.3 48.2 C 478.3 50.9 483.8 51.0 483.8 48.3 C 483.8 42.0 485.4 42.8 485.4 39.0 C 485.4 39.0 485.4 39.0 485.4 39.0 Z M 476.7 728.6 C 476.7 729.3 476.7 729.9 476.8 730.4 L 481.0 734.7 C 483.4 734.2 484.4 732.9 484.5 730.5 C 484.6 728.0 483.2 726.7 481.0 726.2 L 485.3 730.4 C 485.4 729.9 485.4 729.3 485.4 728.6 C 485.4 725.3 483.8 725.5 483.8 719.9 C 483.9 717.0 478.3 717.5 478.3 719.9 C 478.3 725.7 476.7 724.9 476.7 728.6 C 476.7 728.6 476.7 728.6 476.7 728.6 Z M 483.8 48.5 C 483.8 46.0 478.3 45.9 478.3 48.9 C 478.3 52.1 479.3 59.0 479.2 60.8 C 479.0 62.6 478.0 67.6 478.0 69.2 C 478.0 70.7 479.6 78.4 479.2 81.7 C 478.7 84.9 478.9 85.9 478.9 88.1 C 478.9 90.4 479.3 94.0 479.4 96.1 C 479.5 98.3 478.1 100.2 478.4 103.0 C 478.8 105.8 478.3 107.3 478.3 109.3 C 478.3 112.4 483.8 112.2 483.8 109.3 C 483.8 106.5 484.1 104.6 484.0 102.2 C 483.9 99.8 483.3 97.8 483.9 95.5 C 484.5 93.3 483.9 88.9 483.5 86.2 C 483.2 83.5 483.3 80.5 483.6 78.4 C 484.0 74.1 483.0 63.8 483.4 62.4 C 483.9 60.9 483.5 56.2 483.5 54.5 C 483.5 52.9 483.8 52.0 483.8 48.5 C 483.8 48.5 483.8 48.5 483.8 48.5 Z M 478.3 170.1 C 478.3 173.0 483.8 173.5 483.8 170.1 C 483.8 166.8 483.3 160.7 483.4 158.9 C 483.5 157.1 483.8 149.5 483.8 148.0 C 483.8 146.4 483.0 140.7 483.5 137.5 C 484.0 134.2 483.0 131.0 483.3 128.8 C 483.6 126.0 483.3 124.5 483.2 122.3 C 483.1 120.2 484.2 116.9 483.7 115.1 C 483.2 113.3 483.8 112.2 483.8 109.7 C 483.8 107.2 478.3 107.2 478.3 109.6 C 478.3 112.0 478.4 114.0 478.5 116.4 C 478.6 118.7 478.7 121.6 478.7 124.2 C 478.7 126.5 478.0 130.0 478.4 132.7 C 478.7 135.4 478.9 139.4 478.9 140.9 C 479.0 142.9 478.9 147.1 479.2 148.9 C 479.5 151.2 479.0 155.2 478.5 156.7 C 478.0 158.2 478.7 159.2 478.6 162.4 C 478.5 164.3 478.3 167.3 478.3 170.1 C 478.3 170.1 478.3 170.1 478.3 170.1 Z M 478.3 171.0 C 478.3 174.3 479.0 179.6 479.0 180.9 C 479.0 182.2 478.6 186.6 478.7 188.7 C 478.8 190.7 479.3 191.4 479.4 194.9 C 479.5 199.2 479.0 202.1 478.9 202.3 C 478.7 202.9 478.2 205.0 478.4 208.0 C 478.6 211.9 478.1 213.0 478.3 214.8 C 478.9 217.8 478.3 218.1 478.4 220.3 C 478.6 222.6 478.3 224.0 478.6 225.9 C 479.0 227.9 478.2 229.3 478.3 231.2 C 478.3 234.1 483.8 233.8 483.8 231.1 C 483.8 229.4 483.2 227.9 483.2 226.2 C 483.2 224.5 483.3 222.9 483.6 221.2 C 483.8 219.5 483.4 215.9 483.6 213.1 C 483.7 210.3 484.0 205.6 483.9 202.3 C 483.8 199.0 482.5 197.0 483.3 190.4 C 483.6 188.2 483.4 183.9 483.4 182.2 C 483.4 179.1 483.8 173.2 483.8 170.7 C 483.8 167.7 478.3 167.8 478.3 171.0 C 478.3 171.0 478.3 171.0 478.3 171.0 Z M 478.3 292.2 C 478.3 295.0 483.8 295.5 483.8 292.2 C 483.8 288.8 483.3 282.7 483.4 280.9 C 483.5 279.1 483.8 271.6 483.8 270.0 C 483.8 268.4 483.0 262.8 483.5 259.5 C 484.0 256.2 483.0 253.0 483.3 250.8 C 483.6 248.0 483.3 246.5 483.2 244.3 C 483.1 242.2 484.2 238.9 483.7 237.1 C 483.2 235.3 483.8 234.2 483.8 231.7 C 483.8 229.2 478.3 229.2 478.3 231.6 C 478.3 234.0 478.4 236.0 478.5 238.4 C 478.6 240.7 478.7 243.6 478.7 246.2 C 478.7 248.5 478.0 252.0 478.4 254.7 C 478.7 257.4 478.9 261.4 478.9 262.9 C 479.0 264.9 478.9 269.1 479.2 270.9 C 479.5 273.2 479.0 277.3 478.5 278.7 C 478.0 280.2 478.7 281.2 478.6 284.4 C 478.5 286.3 478.3 289.3 478.3 292.2 C 478.3 292.2 478.3 292.2 478.3 292.2 Z M 478.3 293.0 C 478.3 296.3 479.0 301.6 479.0 302.9 C 479.0 304.2 478.6 308.6 478.7 310.7 C 478.8 312.7 479.3 313.4 479.4 316.9 C 479.5 321.3 479.0 324.1 478.9 324.3 C 478.7 324.9 478.2 327.0 478.4 330.0 C 478.6 333.9 478.1 335.0 478.3 336.8 C 478.9 339.8 478.3 340.1 478.4 342.3 C 478.6 344.6 478.3 346.1 478.6 347.9 C 479.0 349.9 478.2 351.3 478.3 353.2 C 478.3 356.1 483.8 355.8 483.8 353.1 C 483.8 351.4 483.2 349.9 483.2 348.2 C 483.2 346.5 483.3 344.9 483.6 343.2 C 483.8 341.5 483.4 337.9 483.6 335.1 C 483.7 332.3 484.0 327.6 483.9 324.3 C 483.8 321.1 482.5 319.0 483.3 312.4 C 483.6 310.2 483.4 305.9 483.4 304.2 C 483.4 301.1 483.8 295.3 483.8 292.7 C 483.8 289.7 478.3 289.8 478.3 293.0 C 478.3 293.0 478.3 293.0 478.3 293.0 Z M 478.3 414.2 C 478.3 417.0 483.8 417.5 483.8 414.2 C 483.8 410.8 483.3 404.7 483.4 402.9 C 483.5 401.1 483.8 393.6 483.8 392.0 C 483.8 390.4 483.0 384.8 483.5 381.5 C 484.0 378.2 483.0 375.0 483.3 372.8 C 483.6 370.0 483.3 368.5 483.2 366.3 C 483.1 364.2 484.2 360.9 483.7 359.1 C 483.2 357.3 483.8 356.3 483.8 353.7 C 483.8 351.2 478.3 351.2 478.3 353.6 C 478.3 356.0 478.4 358.0 478.5 360.4 C 478.6 362.8 478.7 365.6 478.7 368.2 C 478.7 370.5 478.0 374.0 478.4 376.7 C 478.7 379.4 478.9 383.4 478.9 385.0 C 479.0 386.9 478.9 391.1 479.2 392.9 C 479.5 395.3 479.0 399.3 478.5 400.7 C 478.0 402.2 478.7 403.2 478.6 406.4 C 478.5 408.3 478.3 411.3 478.3 414.2 C 478.3 414.2 478.3 414.2 478.3 414.2 Z M 483.8 414.6 C 483.8 412.0 478.3 412.0 478.3 414.9 C 478.3 418.1 479.3 425.0 479.2 426.8 C 479.0 428.6 478.0 433.6 478.0 435.2 C 478.0 436.8 479.6 444.4 479.2 447.7 C 478.7 451.0 478.9 451.9 478.9 454.2 C 478.9 456.4 479.3 460.0 479.4 462.1 C 479.5 464.3 478.1 466.2 478.4 469.0 C 478.8 471.8 478.3 473.4 478.3 475.3 C 478.3 478.4 483.8 478.2 483.8 475.3 C 483.8 472.5 484.1 470.6 484.0 468.2 C 483.9 465.9 483.3 463.8 483.9 461.6 C 484.5 459.3 483.9 455.0 483.5 452.3 C 483.2 449.5 483.3 446.6 483.6 444.4 C 484.0 440.1 483.0 429.9 483.4 428.4 C 483.9 426.9 483.5 422.2 483.5 420.6 C 483.5 418.9 483.8 418.0 483.8 414.6 C 483.8 414.6 483.8 414.6 483.8 414.6 Z M 478.3 476.1 C 478.3 479.3 479.0 484.6 479.0 486.0 C 479.0 487.3 478.6 491.6 478.7 493.7 C 478.8 495.8 479.3 496.5 479.4 499.9 C 479.5 504.3 479.0 507.1 478.9 507.3 C 478.7 508.0 478.2 510.1 478.4 513.0 C 478.6 516.9 478.1 518.1 478.3 519.8 C 478.9 522.8 478.3 523.1 478.4 525.4 C 478.6 527.7 478.3 529.1 478.6 530.9 C 479.0 532.9 478.2 534.4 478.3 536.2 C 478.3 539.1 483.8 538.8 483.8 536.1 C 483.8 534.4 483.2 533.0 483.2 531.2 C 483.2 529.5 483.3 528.0 483.6 526.2 C 483.8 524.5 483.4 520.9 483.6 518.1 C 483.7 515.3 484.0 510.6 483.9 507.3 C 483.8 504.1 482.5 502.1 483.3 495.4 C 483.6 493.2 483.4 489.0 483.4 487.2 C 483.4 484.2 483.8 478.3 483.8 475.7 C 483.8 472.7 478.3 472.8 478.3 476.1 C 478.3 476.1 478.3 476.1 478.3 476.1 Z M 478.3 597.2 C 478.3 600.0 483.8 600.5 483.8 597.2 C 483.8 593.9 483.3 587.7 483.4 585.9 C 483.5 584.1 483.8 576.6 483.8 575.0 C 483.8 573.4 483.0 567.8 483.5 564.5 C 484.0 561.2 483.0 558.0 483.3 555.8 C 483.6 553.0 483.3 551.5 483.2 549.4 C 483.1 547.2 484.2 543.9 483.7 542.1 C 483.2 540.3 483.8 539.3 483.8 536.7 C 483.8 534.2 478.3 534.2 478.3 536.6 C 478.3 539.0 478.4 541.0 478.5 543.4 C 478.6 545.8 478.7 548.7 478.7 551.2 C 478.7 553.6 478.0 557.1 478.4 559.8 C 478.7 562.5 478.9 566.4 478.9 568.0 C 479.0 570.0 478.9 574.2 479.2 576.0 C 479.5 578.3 479.0 582.3 478.5 583.8 C 478.0 585.2 478.7 586.2 478.6 589.4 C 478.5 591.3 478.3 594.4 478.3 597.2 C 478.3 597.2 478.3 597.2 478.3 597.2 Z M 478.3 598.1 C 478.3 601.3 479.0 606.7 479.0 608.0 C 479.0 609.3 478.6 613.6 478.7 615.7 C 478.8 617.8 479.3 618.5 479.4 621.9 C 479.5 626.3 479.0 629.1 478.9 629.3 C 478.7 630.0 478.2 632.1 478.4 635.0 C 478.6 638.9 478.1 640.1 478.3 641.8 C 478.9 644.8 478.3 645.1 478.4 647.4 C 478.6 649.7 478.3 651.1 478.6 652.9 C 479.0 654.9 478.2 656.4 478.3 658.2 C 478.3 661.1 483.8 660.8 483.8 658.1 C 483.8 656.5 483.2 655.0 483.2 653.2 C 483.2 651.5 483.3 650.0 483.6 648.2 C 483.8 646.5 483.4 643.0 483.6 640.1 C 483.7 637.3 484.0 632.6 483.9 629.4 C 483.8 626.1 482.5 624.1 483.3 617.4 C 483.6 615.2 483.4 611.0 483.4 609.2 C 483.4 606.2 483.8 600.3 483.8 597.7 C 483.8 594.7 478.3 594.8 478.3 598.1 C 478.3 598.1 478.3 598.1 478.3 598.1 Z M 478.3 719.2 C 478.3 722.0 483.8 722.5 483.8 719.2 C 483.8 715.9 483.3 709.7 483.4 707.9 C 483.5 706.1 483.8 698.6 483.8 697.0 C 483.8 695.4 483.0 689.8 483.5 686.5 C 484.0 683.2 483.0 680.1 483.3 677.8 C 483.6 675.0 483.3 673.5 483.2 671.4 C 483.1 669.2 484.2 665.9 483.7 664.1 C 483.2 662.3 483.8 661.3 483.8 658.8 C 483.8 656.2 478.3 656.2 478.3 658.6 C 478.3 661.0 478.4 663.1 478.5 665.4 C 478.6 667.8 478.7 670.7 478.7 673.2 C 478.7 675.6 478.0 679.1 478.4 681.8 C 478.7 684.5 478.9 688.4 478.9 690.0 C 479.0 692.0 478.9 696.2 479.2 698.0 C 479.5 700.3 479.0 704.3 478.5 705.8 C 478.0 707.2 478.7 708.3 478.6 711.4 C 478.5 713.3 478.3 716.4 478.3 719.2 C 478.3 719.2 478.3 719.2 478.3 719.2 Z M 482.5 726.1 C 480.5 726.1 477.7 726.4 477.4 729.4 C 477.1 732.5 479.3 734.8 482.3 734.8 C 485.4 734.8 484.5 733.2 491.7 733.2 C 494.3 733.2 494.5 727.7 491.8 727.7 C 485.4 727.7 486.3 726.1 482.5 726.1 C 482.5 726.1 482.5 726.1 482.5 726.1 Z M 566.5 734.8 C 567.2 734.8 567.8 734.8 568.3 734.7 L 572.5 730.4 C 572.1 728.1 570.7 727.1 568.3 727.0 C 565.9 726.9 564.5 728.2 564.1 730.4 L 568.3 726.2 C 567.7 726.1 567.1 726.0 566.5 726.0 C 563.2 726.0 563.3 727.7 557.8 727.6 C 554.8 727.6 555.3 733.1 557.8 733.1 C 563.6 733.1 562.8 734.8 566.5 734.8 C 566.5 734.8 566.5 734.8 566.5 734.8 Z M 492.2 733.2 C 494.0 733.2 496.8 732.4 497.5 732.4 C 498.2 732.4 500.6 732.9 501.7 732.7 C 502.8 732.6 503.2 732.2 505.0 732.1 C 507.4 731.9 508.9 732.5 509.0 732.5 C 509.3 732.7 510.5 733.3 512.0 733.1 C 514.1 732.9 514.8 733.4 515.7 733.2 C 517.3 732.5 517.5 733.1 518.7 733.0 C 519.9 732.9 520.7 733.1 521.7 732.8 C 522.7 732.5 523.5 733.2 524.5 733.2 C 526.1 733.2 525.9 727.7 524.5 727.7 C 523.6 727.7 522.8 728.2 521.8 728.2 C 520.9 728.2 520.1 728.1 519.2 727.9 C 518.2 727.7 516.3 728.0 514.8 727.9 C 513.3 727.8 510.8 727.5 509.0 727.6 C 507.3 727.7 506.2 729.0 502.6 728.1 C 501.5 727.9 499.2 728.1 498.2 728.1 C 496.6 728.1 493.4 727.7 492.1 727.7 C 490.4 727.7 490.5 733.2 492.2 733.2 C 492.2 733.2 492.2 733.2 492.2 733.2 Z M 557.2 733.2 C 558.7 733.2 559.0 727.7 557.2 727.7 C 555.4 727.7 552.2 728.2 551.2 728.1 C 550.2 727.9 546.2 727.6 545.3 727.6 C 544.5 727.6 541.5 728.4 539.7 728.0 C 537.9 727.5 536.2 728.4 535.0 728.2 C 533.5 727.9 532.7 728.2 531.6 728.3 C 530.4 728.4 528.6 727.3 527.7 727.7 C 526.7 728.2 526.2 727.7 524.8 727.7 C 523.4 727.7 523.4 733.2 524.7 733.2 C 526.0 733.2 527.1 733.1 528.4 732.9 C 529.6 732.8 531.2 732.7 532.6 732.7 C 533.8 732.7 535.7 733.4 537.2 733.1 C 538.6 732.7 540.7 732.6 541.6 732.5 C 542.6 732.4 544.9 732.6 545.8 732.3 C 547.1 731.9 549.2 732.5 550.0 732.9 C 550.8 733.4 551.4 732.8 553.1 732.9 C 554.1 732.9 555.7 733.2 557.2 733.2 C 557.2 733.2 557.2 733.2 557.2 733.2 Z M 564.0 729.0 C 564.0 731.0 564.3 733.7 567.3 734.1 C 570.3 734.4 572.7 732.2 572.7 729.1 C 572.7 726.1 571.0 726.9 571.0 719.8 C 571.0 717.1 565.5 717.0 565.5 719.7 C 565.5 726.0 564.0 725.2 564.0 729.0 C 564.0 729.0 564.0 729.0 564.0 729.0 Z M 572.7 39.4 C 572.7 38.7 572.6 38.1 572.5 37.6 L 568.3 33.3 C 565.9 33.8 564.9 35.1 564.8 37.5 C 564.8 40.0 566.1 41.3 568.3 41.8 L 564.1 37.6 C 564.0 38.1 563.9 38.7 563.9 39.4 C 563.9 42.7 565.6 42.5 565.5 48.1 C 565.5 51.0 571.0 50.5 571.0 48.1 C 571.0 42.3 572.7 43.1 572.7 39.4 C 572.7 39.4 572.7 39.4 572.7 39.4 Z M 565.5 719.5 C 565.5 722.0 571.0 722.1 571.0 719.1 C 571.0 715.9 570.1 709.0 570.2 707.2 C 570.3 705.4 571.3 700.4 571.3 698.8 C 571.3 697.3 569.7 689.6 570.2 686.3 C 570.6 683.1 570.4 682.1 570.4 679.9 C 570.4 677.6 570.1 674.0 569.9 671.9 C 569.8 669.7 571.3 667.8 570.9 665.0 C 570.5 662.2 571.0 660.7 571.0 658.7 C 571.0 655.6 565.6 655.8 565.6 658.7 C 565.6 661.5 565.2 663.4 565.3 665.8 C 565.4 668.2 566.0 670.2 565.4 672.5 C 564.8 674.7 565.5 679.1 565.8 681.8 C 566.2 684.5 566.0 687.5 565.8 689.6 C 565.3 693.9 566.4 704.2 565.9 705.6 C 565.4 707.1 565.9 711.8 565.9 713.5 C 565.9 715.1 565.5 716.0 565.5 719.5 C 565.5 719.5 565.5 719.5 565.5 719.5 Z M 571.0 658.0 C 571.0 654.7 570.3 649.4 570.3 648.1 C 570.3 646.8 570.7 642.4 570.6 640.3 C 570.5 638.3 570.1 637.6 569.9 634.1 C 569.8 629.8 570.3 626.9 570.4 626.7 C 570.6 626.1 571.1 624.0 571.0 621.1 C 570.7 617.1 571.3 616.0 571.0 614.2 C 570.4 611.2 571.0 611.0 570.9 608.7 C 570.8 606.4 571.0 605.0 570.7 603.1 C 570.4 601.1 571.1 599.7 571.0 597.8 C 571.0 594.9 565.5 595.2 565.5 597.9 C 565.5 599.6 566.1 601.1 566.1 602.8 C 566.1 604.6 566.0 606.1 565.8 607.8 C 565.5 609.6 565.9 613.1 565.8 615.9 C 565.6 618.7 565.3 623.4 565.5 626.7 C 565.6 630.0 566.9 632.0 566.0 638.7 C 565.7 640.8 566.0 645.1 566.0 646.8 C 566.0 649.9 565.6 655.8 565.6 658.3 C 565.6 661.3 571.0 661.3 571.0 658.0 C 571.0 658.0 571.0 658.0 571.0 658.0 Z M 571.0 536.9 C 571.0 534.0 565.5 533.5 565.5 536.9 C 565.5 540.2 566.1 546.3 565.9 548.1 C 565.8 549.9 565.5 557.4 565.5 559.0 C 565.5 560.6 566.3 566.3 565.8 569.5 C 565.4 572.8 566.3 576.0 566.0 578.2 C 565.7 581.0 566.0 582.5 566.1 584.7 C 566.3 586.8 565.2 590.1 565.6 591.9 C 566.1 593.7 565.5 594.8 565.5 597.3 C 565.5 599.8 571.0 599.8 571.0 597.4 C 571.0 595.0 570.9 593.0 570.8 590.6 C 570.7 588.3 570.6 585.4 570.6 582.8 C 570.6 580.5 571.3 577.0 570.9 574.3 C 570.6 571.6 570.4 567.6 570.4 566.1 C 570.3 564.1 570.5 559.9 570.2 558.1 C 569.8 555.8 570.4 551.8 570.8 550.3 C 571.3 548.8 570.6 547.8 570.7 544.6 C 570.8 542.7 571.0 539.7 571.0 536.9 C 571.0 536.9 571.0 536.9 571.0 536.9 Z M 571.0 536.0 C 571.0 532.7 570.3 527.4 570.3 526.1 C 570.3 524.8 570.7 520.4 570.6 518.3 C 570.5 516.3 570.1 515.6 569.9 512.1 C 569.8 507.7 570.3 504.9 570.4 504.7 C 570.6 504.1 571.1 502.0 571.0 499.0 C 570.7 495.1 571.3 494.0 571.0 492.2 C 570.4 489.2 571.0 488.9 570.9 486.7 C 570.8 484.4 571.0 482.9 570.7 481.1 C 570.4 479.1 571.1 477.7 571.0 475.8 C 571.0 472.9 565.5 473.2 565.5 475.9 C 565.5 477.6 566.1 479.1 566.1 480.8 C 566.1 482.5 566.0 484.1 565.8 485.8 C 565.5 487.5 565.9 491.1 565.8 493.9 C 565.6 496.7 565.3 501.4 565.5 504.7 C 565.6 507.9 566.9 510.0 566.0 516.6 C 565.7 518.8 566.0 523.1 566.0 524.8 C 566.0 527.9 565.6 533.8 565.6 536.3 C 565.6 539.3 571.0 539.2 571.0 536.0 C 571.0 536.0 571.0 536.0 571.0 536.0 Z M 565.5 475.4 C 565.5 478.0 571.0 478.1 571.0 475.1 C 571.0 471.9 570.1 465.0 570.2 463.2 C 570.3 461.4 571.3 456.4 571.3 454.8 C 571.3 453.2 569.7 445.6 570.2 442.3 C 570.6 439.0 570.4 438.1 570.4 435.8 C 570.4 433.6 570.1 430.0 569.9 427.9 C 569.8 425.7 571.3 423.8 570.9 421.0 C 570.5 418.2 571.0 416.7 571.0 414.7 C 571.0 411.6 565.6 411.8 565.6 414.7 C 565.6 417.5 565.2 419.4 565.3 421.8 C 565.4 424.1 566.0 426.2 565.4 428.4 C 564.8 430.7 565.5 435.0 565.8 437.8 C 566.2 440.5 566.0 443.5 565.8 445.6 C 565.3 449.9 566.4 460.1 565.9 461.6 C 565.4 463.1 565.9 467.8 565.9 469.5 C 565.9 471.1 565.5 472.0 565.5 475.4 C 565.5 475.4 565.5 475.4 565.5 475.4 Z M 571.0 414.0 C 571.0 410.7 570.3 405.4 570.3 404.1 C 570.3 402.8 570.7 398.4 570.6 396.3 C 570.5 394.3 570.1 393.6 569.9 390.1 C 569.8 385.7 570.3 382.9 570.4 382.7 C 570.6 382.1 571.1 380.0 571.0 377.0 C 570.7 373.1 571.3 371.9 571.0 370.2 C 570.4 367.2 571.0 366.9 570.9 364.7 C 570.8 362.4 571.0 360.9 570.7 359.1 C 570.4 357.1 571.1 355.7 571.0 353.8 C 571.0 350.9 565.5 351.2 565.5 353.9 C 565.5 355.6 566.1 357.1 566.1 358.8 C 566.1 360.5 566.0 362.0 565.8 363.8 C 565.5 365.5 565.9 369.1 565.8 371.9 C 565.6 374.7 565.3 379.4 565.5 382.7 C 565.6 385.9 566.9 388.0 566.0 394.6 C 565.7 396.8 566.0 401.1 566.0 402.8 C 566.0 405.9 565.6 411.7 565.6 414.3 C 565.6 417.3 571.0 417.2 571.0 414.0 C 571.0 414.0 571.0 414.0 571.0 414.0 Z M 565.5 353.4 C 565.5 356.0 571.0 356.0 571.0 353.1 C 571.0 349.9 570.1 343.0 570.2 341.2 C 570.3 339.4 571.3 334.4 571.3 332.8 C 571.3 331.2 569.7 323.6 570.2 320.3 C 570.6 317.0 570.4 316.1 570.4 313.8 C 570.4 311.6 570.1 308.0 569.9 305.9 C 569.8 303.7 571.3 301.8 570.9 299.0 C 570.5 296.2 571.0 294.6 571.0 292.7 C 571.0 289.6 565.6 289.8 565.6 292.7 C 565.6 295.5 565.2 297.4 565.3 299.8 C 565.4 302.1 566.0 304.2 565.4 306.4 C 564.8 308.7 565.5 313.0 565.8 315.7 C 566.2 318.5 566.0 321.4 565.8 323.6 C 565.3 327.9 566.4 338.1 565.9 339.6 C 565.4 341.1 565.9 345.8 565.9 347.4 C 565.9 349.1 565.5 350.0 565.5 353.4 C 565.5 353.4 565.5 353.4 565.5 353.4 Z M 571.0 291.9 C 571.0 288.7 570.3 283.4 570.3 282.0 C 570.3 280.7 570.7 276.4 570.6 274.3 C 570.5 272.2 570.1 271.5 569.9 268.1 C 569.8 263.7 570.3 260.9 570.4 260.7 C 570.6 260.0 571.1 257.9 571.0 255.0 C 570.7 251.1 571.3 249.9 571.0 248.2 C 570.4 245.2 571.0 244.9 570.9 242.6 C 570.8 240.3 571.0 238.9 570.7 237.1 C 570.4 235.1 571.1 233.6 571.0 231.8 C 571.0 228.9 565.5 229.2 565.5 231.9 C 565.5 233.6 566.1 235.0 566.1 236.8 C 566.1 238.5 566.0 240.0 565.8 241.8 C 565.5 243.5 565.9 247.1 565.8 249.9 C 565.6 252.7 565.3 257.4 565.5 260.7 C 565.6 263.9 566.9 265.9 566.0 272.6 C 565.7 274.8 566.0 279.0 566.0 280.8 C 566.0 283.8 565.6 289.7 565.6 292.3 C 565.6 295.3 571.0 295.2 571.0 291.9 C 571.0 291.9 571.0 291.9 571.0 291.9 Z M 565.5 231.4 C 565.5 234.0 571.0 234.0 571.0 231.0 C 571.0 227.9 570.1 221.0 570.2 219.2 C 570.3 217.4 571.3 212.4 571.3 210.8 C 571.3 209.2 569.7 201.6 570.2 198.3 C 570.6 195.0 570.4 194.1 570.4 191.8 C 570.4 189.6 570.1 186.0 569.9 183.8 C 569.8 181.7 571.3 179.8 570.9 177.0 C 570.5 174.1 571.0 172.6 571.0 170.7 C 571.0 167.6 565.6 167.8 565.6 170.7 C 565.6 173.5 565.2 175.4 565.3 177.7 C 565.4 180.1 566.0 182.2 565.4 184.4 C 564.8 186.7 565.5 191.0 565.8 193.7 C 566.2 196.4 566.0 199.4 565.8 201.6 C 565.3 205.9 566.4 216.1 565.9 217.6 C 565.4 219.1 565.9 223.8 565.9 225.4 C 565.9 227.1 565.5 228.0 565.5 231.4 C 565.5 231.4 565.5 231.4 565.5 231.4 Z M 571.0 109.8 C 571.0 107.0 565.5 106.5 565.5 109.8 C 565.5 113.1 566.1 119.3 565.9 121.1 C 565.8 122.9 565.5 130.4 565.5 132.0 C 565.5 133.6 566.3 139.2 565.8 142.5 C 565.4 145.8 566.3 149.0 566.0 151.2 C 565.7 154.0 566.0 155.5 566.1 157.6 C 566.3 159.8 565.2 163.1 565.6 164.9 C 566.1 166.7 565.5 167.7 565.5 170.2 C 565.5 172.8 571.0 172.8 571.0 170.4 C 571.0 168.0 570.9 166.0 570.8 163.6 C 570.7 161.2 570.6 158.3 570.6 155.8 C 570.6 153.4 571.3 149.9 570.9 147.2 C 570.6 144.5 570.4 140.6 570.4 139.0 C 570.3 137.0 570.5 132.8 570.2 131.0 C 569.8 128.7 570.4 124.7 570.8 123.2 C 571.3 121.8 570.6 120.8 570.7 117.6 C 570.8 115.7 571.0 112.6 571.0 109.8 C 571.0 109.8 571.0 109.8 571.0 109.8 Z M 571.0 108.9 C 571.0 105.7 570.3 100.3 570.3 99.0 C 570.3 97.7 570.7 93.4 570.6 91.3 C 570.5 89.2 570.1 88.5 569.9 85.0 C 569.8 80.7 570.3 77.9 570.4 77.6 C 570.6 77.0 571.1 74.9 571.0 72.0 C 570.7 68.1 571.3 66.9 571.0 65.2 C 570.4 62.2 571.0 61.9 570.9 59.6 C 570.8 57.3 571.0 55.9 570.7 54.1 C 570.4 52.1 571.1 50.6 571.0 48.8 C 571.0 45.9 565.5 46.2 565.5 48.9 C 565.5 50.5 566.1 52.0 566.1 53.8 C 566.1 55.5 566.0 57.0 565.8 58.8 C 565.5 60.5 565.9 64.0 565.8 66.9 C 565.6 69.7 565.3 74.4 565.5 77.6 C 565.6 80.9 566.9 82.9 566.0 89.6 C 565.7 91.7 566.0 96.0 566.0 97.8 C 566.0 100.8 565.6 106.7 565.6 109.3 C 565.6 112.3 571.0 112.2 571.0 108.9 C 571.0 108.9 571.0 108.9 571.0 108.9 Z M 566.8 41.9 C 568.9 41.9 571.6 41.6 571.9 38.6 C 572.3 35.5 570.1 33.2 567.0 33.2 C 563.9 33.2 564.8 34.8 557.6 34.8 C 555.0 34.8 554.8 40.3 557.5 40.3 C 563.9 40.3 563.0 41.9 566.8 41.9 C 566.8 41.9 566.8 41.9 566.8 41.9 Z M 482.9 33.2 C 479.2 33.2 477.7 34.6 477.6 37.5 C 477.5 40.6 479.6 42.0 482.9 42.0 C 486.2 42.0 486.0 40.3 491.5 40.4 C 494.5 40.4 494.0 34.9 491.6 34.9 C 485.7 34.9 486.6 33.2 482.9 33.2 C 482.9 33.2 482.9 33.2 482.9 33.2 Z M 557.4 40.4 C 558.7 40.4 558.8 34.8 557.2 34.8 C 555.5 34.8 551.8 35.8 550.8 35.7 C 549.8 35.6 547.1 34.5 546.3 34.5 C 545.4 34.5 541.3 36.2 539.6 35.7 C 537.8 35.2 537.3 35.5 536.1 35.5 C 534.9 35.5 533.0 35.8 531.8 35.9 C 530.7 36.1 529.6 34.6 528.1 35.0 C 526.6 35.4 525.8 34.8 524.8 34.8 C 523.1 34.8 523.2 40.3 524.7 40.3 C 526.2 40.3 527.3 40.7 528.5 40.6 C 529.8 40.5 530.9 39.9 532.1 40.5 C 533.3 41.0 535.7 40.4 537.1 40.1 C 538.6 39.7 540.2 39.9 541.3 40.1 C 543.6 40.5 549.1 39.5 549.9 40.0 C 550.7 40.4 553.2 40.0 554.1 40.0 C 555.0 40.0 555.5 40.4 557.4 40.4 C 557.4 40.4 557.4 40.4 557.4 40.4 Z M 492.1 34.8 C 490.6 34.8 490.3 40.3 492.1 40.3 C 493.9 40.3 497.2 39.8 498.1 39.9 C 499.1 40.1 503.1 40.4 504.0 40.4 C 504.8 40.4 507.9 39.6 509.6 40.0 C 511.4 40.5 513.1 39.6 514.3 39.8 C 515.8 40.1 516.6 39.8 517.8 39.7 C 518.9 39.6 520.7 40.7 521.7 40.3 C 522.6 39.8 523.2 40.3 524.5 40.3 C 525.9 40.3 525.9 34.8 524.6 34.8 C 523.3 34.8 522.2 34.9 521.0 35.1 C 519.7 35.2 518.1 35.3 516.8 35.3 C 515.5 35.3 513.6 34.6 512.2 34.9 C 510.7 35.3 508.6 35.4 507.8 35.5 C 506.7 35.6 504.4 35.4 503.5 35.7 C 502.2 36.1 500.1 35.5 499.3 35.1 C 498.5 34.6 498.0 35.2 496.3 35.1 C 495.2 35.1 493.6 34.8 492.1 34.8 C 492.1 34.8 492.1 34.8 492.1 34.8 Z M 492.1 34.8 " fill="#FF2600"></path><path d="M 665.0 543.1 L 665.0 587.7 C 665.0 596.0 671.7 603.0 680.0 603.0 L 935.7 603.0 C 944.0 603.0 951.0 596.0 951.0 587.7 L 951.0 543.1 C 951.0 534.8 944.0 528.0 935.7 528.0 L 680.0 528.0 C 671.7 528.0 665.0 534.8 665.0 543.1 Z M 665.0 543.1 " fill="#D99719"></path><image xlink:href="B57C8CC7A28A0FE820BBC85480983024.png" width="131.00" height="32.00" transform="matrix(1.00, 0.00, -0.00, -1.00, 743.0, 580.0)"></image><text xml:space="preserve" font-family="GillSans-Light,Gill Sans" font-size="36.0" fill="#000000" transform="matrix(1.00, 0.00, -0.00, -1.00, 743.9, 553.5)">B</text><text xml:space="preserve" font-family="GillSans-Light,Gill Sans" font-size="36.0" fill="#000000" transform="matrix(1.00, 0.00, -0.00, -1.00, 763.0, 553.5)">u</text><text xml:space="preserve" font-family="GillSans-Light,Gill Sans" font-size="36.0" fill="#000000" transform="matrix(1.00, 0.00, -0.00, -1.00, 780.7, 553.5)">r</text><text xml:space="preserve" font-family="GillSans-Light,Gill Sans" font-size="36.0" fill="#000000" transform="matrix(1.00, 0.00, -0.00, -1.00, 794.1, 553.5)">s</text><text xml:space="preserve" font-family="GillSans-Light,Gill Sans" font-size="36.0" fill="#000000" transform="matrix(1.00, 0.00, -0.00, -1.00, 806.8, 553.5)">a</text><text xml:space="preserve" font-family="GillSans-Light,Gill Sans" font-size="36.0" fill="#000000" transform="matrix(1.00, 0.00, -0.00, -1.00, 822.2, 553.5)">r</text><text xml:space="preserve" font-family="GillSans-Light,Gill Sans" font-size="36.0" fill="#000000" transform="matrix(1.00, 0.00, -0.00, -1.00, 835.1, 553.5)">i</text><text xml:space="preserve" font-family="GillSans-Light,Gill Sans" font-size="36.0" fill="#000000" transform="matrix(1.00, 0.00, -0.00, -1.00, 841.8, 553.5)">e</text><text xml:space="preserve" font-family="GillSans-Light,Gill Sans" font-size="36.0" fill="#000000" transform="matrix(1.00, 0.00, -0.00, -1.00, 859.1, 553.5)">s</text><path d="M 665.0 431.1 L 665.0 475.7 C 665.0 484.0 671.7 491.0 680.0 491.0 L 935.7 491.0 C 944.0 491.0 951.0 484.0 951.0 475.7 L 951.0 431.1 C 951.0 422.8 944.0 416.0 935.7 416.0 L 680.0 416.0 C 671.7 416.0 665.0 422.8 665.0 431.1 Z M 665.0 431.1 " fill="#D99719"></path><image xlink:href="69A71360A52AF0F9DD651A2FD923871D.png" width="113.00" height="32.00" transform="matrix(1.00, 0.00, -0.00, -1.00, 751.0, 468.0)"></image><text xml:space="preserve" font-family="GillSans-Light,Gill Sans" font-size="36.0" fill="#000000" transform="matrix(1.00, 0.00, -0.00, -1.00, 754.3, 441.5)">A</text><text xml:space="preserve" font-family="GillSans-Light,Gill Sans" font-size="36.0" fill="#000000" transform="matrix(1.00, 0.00, -0.00, -1.00, 777.5, 441.5)">w</text><text xml:space="preserve" font-family="GillSans-Light,Gill Sans" font-size="36.0" fill="#000000" transform="matrix(1.00, 0.00, -0.00, -1.00, 803.0, 441.5)">a</text><text xml:space="preserve" font-family="GillSans-Light,Gill Sans" font-size="36.0" fill="#000000" transform="matrix(1.00, 0.00, -0.00, -1.00, 818.4, 441.5)">r</text><text xml:space="preserve" font-family="GillSans-Light,Gill Sans" font-size="36.0" fill="#000000" transform="matrix(1.00, 0.00, -0.00, -1.00, 830.4, 441.5)">d</text><text xml:space="preserve" font-family="GillSans-Light,Gill Sans" font-size="36.0" fill="#000000" transform="matrix(1.00, 0.00, -0.00, -1.00, 848.7, 441.5)">s</text><path d="M 665.0 319.1 L 665.0 363.7 C 665.0 372.0 671.7 379.0 680.0 379.0 L 935.7 379.0 C 944.0 379.0 951.0 372.0 951.0 363.7 L 951.0 319.1 C 951.0 310.8 944.0 304.0 935.7 304.0 L 680.0 304.0 C 671.7 304.0 665.0 310.8 665.0 319.1 Z M 665.0 319.1 " fill="#D99719"></path><image xlink:href="B9A5D0137A34DA7F37D6779DC6F3A904.png" width="100.00" height="32.00" transform="matrix(1.00, 0.00, -0.00, -1.00, 758.0, 356.0)"></image><text xml:space="preserve" font-family="GillSans-Light,Gill Sans" font-size="36.0" fill="#000000" transform="matrix(1.00, 0.00, -0.00, -1.00, 760.2, 329.5)">G</text><text xml:space="preserve" font-family="GillSans-Light,Gill Sans" font-size="36.0" fill="#000000" transform="matrix(1.00, 0.00, -0.00, -1.00, 786.1, 329.5)">r</text><text xml:space="preserve" font-family="GillSans-Light,Gill Sans" font-size="36.0" fill="#000000" transform="matrix(1.00, 0.00, -0.00, -1.00, 799.0, 329.5)">a</text><text xml:space="preserve" font-family="GillSans-Light,Gill Sans" font-size="36.0" fill="#000000" transform="matrix(1.00, 0.00, -0.00, -1.00, 814.3, 329.5)">n</text><text xml:space="preserve" font-family="GillSans-Light,Gill Sans" font-size="36.0" fill="#000000" transform="matrix(1.00, 0.00, -0.00, -1.00, 832.0, 329.5)">t</text><text xml:space="preserve" font-family="GillSans-Light,Gill Sans" font-size="36.0" fill="#000000" transform="matrix(1.00, 0.00, -0.00, -1.00, 842.9, 329.5)">s</text><path d="M 665.0 194.3 L 665.0 238.9 C 665.0 247.2 671.7 254.0 680.0 254.0 L 935.7 254.0 C 944.0 254.0 951.0 247.2 951.0 238.9 L 951.0 194.3 C 951.0 186.0 944.0 179.0 935.7 179.0 L 680.0 179.0 C 671.7 179.0 665.0 186.0 665.0 194.3 Z M 665.0 194.3 " fill="#D99719"></path><image xlink:href="8882AF0DC75ED1DA7C23E25C57CD62AD.png" width="92.00" height="32.00" transform="matrix(1.00, 0.00, -0.00, -1.00, 763.0, 231.0)"></image><text xml:space="preserve" font-family="GillSans-Light,Gill Sans" font-size="36.0" fill="#000000" transform="matrix(1.00, 0.00, -0.00, -1.00, 763.3, 204.7)">H</text><text xml:space="preserve" font-family="GillSans-Light,Gill Sans" font-size="36.0" fill="#000000" transform="matrix(1.00, 0.00, -0.00, -1.00, 789.2, 204.7)">o</text><text xml:space="preserve" font-family="GillSans-Light,Gill Sans" font-size="36.0" fill="#000000" transform="matrix(1.00, 0.00, -0.00, -1.00, 808.7, 204.7)">u</text><text xml:space="preserve" font-family="GillSans-Light,Gill Sans" font-size="36.0" fill="#000000" transform="matrix(1.00, 0.00, -0.00, -1.00, 826.3, 204.7)">r</text><text xml:space="preserve" font-family="GillSans-Light,Gill Sans" font-size="36.0" fill="#000000" transform="matrix(1.00, 0.00, -0.00, -1.00, 839.7, 204.7)">s</text></g></svg>