<?xml version="1.0" encoding="UTF-8" standalone="no"?><svg xmlns="http://www.w3.org/2000/svg" xmlns:xlink="http://www.w3.org/1999/xlink" clip-rule="evenodd" stroke-miterlimit="4.00" viewBox="0 0 1024 768"><desc>SVG generated by Keynote</desc><defs></defs><g transform="matrix(1.00, 0.00, -0.00, -1.00, 0.0, 768.0)"><g><clipPath id="clip-0"><path d="M 0.0 768.0 L 1024.0 768.0 L 1024.0 0.0 L 0.0 0.0 Z M 0.0 768.0 "></path></clipPath><g clip-path="url(#clip-0)"><image xlink:href="107E65D87114B546DB29000410A7B5AF.jpeg" width="1024.00" height="768.00" transform="matrix(1.00, 0.00, -0.00, -1.00, 0.0, 768.0)"></image></g></g><text xml:space="preserve" font-family="GillSans-Light" font-size="72.0" fill="#525252" transform="matrix(1.00, 0.00, -0.00, -1.00, 317.0, 455.0)">O</text><text xml:space="preserve" font-family="GillSans-Light" font-size="72.0" fill="#525252" transform="matrix(1.00, 0.00, -0.00, -1.00, 376.3, 455.0)">P</text><text xml:space="preserve" font-family="GillSans-Light" font-size="72.0" fill="#525252" transform="matrix(1.00, 0.00, -0.00, -1.00, 413.0, 455.0)">E</text><text xml:space="preserve" font-family="GillSans-Light" font-size="72.0" fill="#525252" transform="matrix(1.00, 0.00, -0.00, -1.00, 448.3, 455.0)">N</text><text xml:space="preserve" font-family="GillSans-Light" font-size="72.0" fill="#525252" transform="matrix(1.00, 0.00, -0.00, -1.00, 503.8, 455.0)"> </text><text xml:space="preserve" font-family="GillSans-Light" font-size="72.0" fill="#525252" transform="matrix(1.00, 0.00, -0.00, -1.00, 523.8, 455.0)">D</text><text xml:space="preserve" font-family="GillSans-Light" font-size="72.0" fill="#525252" transform="matrix(1.00, 0.00, -0.00, -1.00, 574.2, 455.0)">A</text><text xml:space="preserve" font-family="GillSans-Light" font-size="72.0" fill="#525252" transform="matrix(1.00, 0.00, -0.00, -1.00, 615.0, 455.0)">T</text><text xml:space="preserve" font-family="GillSans-Light" font-size="72.0" fill="#525252" transform="matrix(1.00, 0.00, -0.00, -1.00, 649.1, 455.0)">A</text><text xml:space="preserve" font-family="GillSans-Light" font-size="72.0" fill="#525252" transform="matrix(1.00, 0.00, -0.00, -1.00, 697.1, 455.0)"> </text><text xml:space="preserve" font-family="GillSans-Light" font-size="72.0" fill="#525252" transform="matrix(1.00, 0.00, -0.00, -1.00, 717.1, 455.0)">&amp;</text><text xml:space="preserve" font-family="GillSans-Light" font-size="72.0" fill="#525252" transform="matrix(1.00, 0.00, -0.00, -1.00, 220.0, 373.0)">G</text><text xml:space="preserve" font-family="GillSans-Light" font-size="72.0" fill="#525252" transform="matrix(1.00, 0.00, -0.00, -1.00, 271.8, 373.0)">E</text><text xml:space="preserve" font-family="GillSans-Light" font-size="72.0" fill="#525252" transform="matrix(1.00, 0.00, -0.00, -1.00, 307.1, 373.0)">N</text><text xml:space="preserve" font-family="GillSans-Light" font-size="72.0" fill="#525252" transform="matrix(1.00, 0.00, -0.00, -1.00, 362.6, 373.0)">E</text><text xml:space="preserve" font-family="GillSans-Light" font-size="72.0" fill="#525252" transform="matrix(1.00, 0.00, -0.00, -1.00, 397.9, 373.0)">R</text><text xml:space="preserve" font-family="GillSans-Light" font-size="72.0" fill="#525252" transform="matrix(1.00, 0.00, -0.00, -1.00, 439.2, 373.0)">A</text><text xml:space="preserve" font-family="GillSans-Light" font-size="72.0" fill="#525252" transform="matrix(1.00, 0.00, -0.00, -1.00, 480.0, 373.0)">T</text><text xml:space="preserve" font-family="GillSans-Light" font-size="72.0" fill="#525252" transform="matrix(1.00, 0.00, -0.00, -1.00, 521.3, 373.0)">I</text><text xml:space="preserve" font-family="GillSans-Light" font-size="72.0" fill="#525252" transform="matrix(1.00, 0.00, -0.00, -1.00, 536.3, 373.0)">O</text><text xml:space="preserve" font-family="GillSans-Light" font-size="72.0" fill="#525252" transform="matrix(1.00, 0.00, -0.00, -1.00, 595.6, 373.0)">N</text><text xml:space="preserve" font-family="GillSans-Light" font-size="72.0" fill="#525252" transform="matrix(1.00, 0.00, -0.00, -1.00, 651.1, 373.0)"> </text><text xml:space="preserve" font-family="GillSans-Light" font-size="72.0" fill="#525252" transform="matrix(1.00, 0.00, -0.00, -1.00, 671.1, 373.0)">O</text><text xml:space="preserve" font-family="GillSans-Light" font-size="72.0" fill="#525252" transform="matrix(1.00, 0.00, -0.00, -1.00, 730.4, 373.0)">P</text><text xml:space="preserve" font-family="GillSans-Light" font-size="72.0" fill="#525252" transform="matrix(1.00, 0.00, -0.00, -1.00, 767.1, 373.0)">E</text><text xml:space="preserve" font-family="GillSans-Light" font-size="72.0" fill="#525252" transform="matrix(1.00, 0.00, -0.00, -1.00, 802.4, 373.0)">N</text><text xml:space="preserve" font-family="GillSans-Light" font-size="31.2" fill="#525252" transform="matrix(1.00, 0.00, -0.00, -1.00, 460.0, 251.0)">C</text><text xml:space="preserve" font-family="GillSans-Light" font-size="31.2" fill="#525252" transform="matrix(1.00, 0.00, -0.00, -1.00, 481.1, 251.0)">I</text><text xml:space="preserve" font-family="GillSans-Light" font-size="31.2" fill="#525252" transform="matrix(1.00, 0.00, -0.00, -1.00, 487.6, 251.0)">P</text><text xml:space="preserve" font-family="GillSans-Light" font-size="31.2" fill="#525252" transform="matrix(1.00, 0.00, -0.00, -1.00, 503.4, 251.0)">S</text><text xml:space="preserve" font-family="GillSans-Light" font-size="31.2" fill="#525252" transform="matrix(1.00, 0.00, -0.00, -1.00, 518.1, 251.0)"> </text><text xml:space="preserve" font-family="GillSans-Light" font-size="31.2" fill="#525252" transform="matrix(1.00, 0.00, -0.00, -1.00, 526.7, 251.0)">P</text><text xml:space="preserve" font-family="GillSans-Light" font-size="31.2" fill="#525252" transform="matrix(1.00, 0.00, -0.00, -1.00, 542.6, 251.0)">E</text><text xml:space="preserve" font-family="GillSans-Light" font-size="31.2" fill="#525252" transform="matrix(1.00, 0.00, -0.00, -1.00, 557.9, 251.0)">I</text><text xml:space="preserve" font-family="GillSans-Light" font-size="31.2" fill="#525252" transform="matrix(1.00, 0.00, -0.00, -1.00, 424.0, 216.0)">M</text><text xml:space="preserve" font-family="GillSans-Light" font-size="31.2" fill="#525252" transform="matrix(1.00, 0.00, -0.00, -1.00, 448.3, 216.0)">i</text><text xml:space="preserve" font-family="GillSans-Light" font-size="31.2" fill="#525252" transform="matrix(1.00, 0.00, -0.00, -1.00, 454.2, 216.0)">c</text><text xml:space="preserve" font-family="GillSans-Light" font-size="31.2" fill="#525252" transform="matrix(1.00, 0.00, -0.00, -1.00, 467.2, 216.0)">h</text><text xml:space="preserve" font-family="GillSans-Light" font-size="31.2" fill="#525252" transform="matrix(1.00, 0.00, -0.00, -1.00, 482.5, 216.0)">a</text><text xml:space="preserve" font-family="GillSans-Light" font-size="31.2" fill="#525252" transform="matrix(1.00, 0.00, -0.00, -1.00, 495.7, 216.0)">e</text><text xml:space="preserve" font-family="GillSans-Light" font-size="31.2" fill="#525252" transform="matrix(1.00, 0.00, -0.00, -1.00, 510.7, 216.0)">l</text><text xml:space="preserve" font-family="GillSans-Light" font-size="31.2" fill="#525252" transform="matrix(1.00, 0.00, -0.00, -1.00, 516.5, 216.0)"> </text><text xml:space="preserve" font-family="GillSans-Light" font-size="31.2" fill="#525252" transform="matrix(1.00, 0.00, -0.00, -1.00, 525.2, 216.0)">E</text><text xml:space="preserve" font-family="GillSans-Light" font-size="31.2" fill="#525252" transform="matrix(1.00, 0.00, -0.00, -1.00, 540.5, 216.0)">a</text><text xml:space="preserve" font-family="GillSans-Light" font-size="31.2" fill="#525252" transform="matrix(1.00, 0.00, -0.00, -1.00, 553.8, 216.0)">s</text><text xml:space="preserve" font-family="GillSans-Light" font-size="31.2" fill="#525252" transform="matrix(1.00, 0.00, -0.00, -1.00, 564.8, 216.0)">t</text><text xml:space="preserve" font-family="GillSans-Light" font-size="31.2" fill="#525252" transform="matrix(1.00, 0.00, -0.00, -1.00, 574.2, 216.0)">e</text><text xml:space="preserve" font-family="GillSans-Light" font-size="31.2" fill="#525252" transform="matrix(1.00, 0.00, -0.00, -1.00, 589.1, 216.0)">r</text><text xml:space="preserve" font-family="GillSans-Light" font-size="31.2" fill="#525252" transform="matrix(1.00, 0.00, -0.00, -1.00, 432.0, 181.0)">F</text><text xml:space="preserve" font-family="GillSans-Light" font-size="31.2" fill="#525252" transform="matrix(1.00, 0.00, -0.00, -1.00, 445.6, 181.0)">e</text><text xml:space="preserve" font-family="GillSans-Light" font-size="31.2" fill="#525252" transform="matrix(1.00, 0.00, -0.00, -1.00, 460.6, 181.0)">b</text><text xml:space="preserve" font-family="GillSans-Light" font-size="31.2" fill="#525252" transform="matrix(1.00, 0.00, -0.00, -1.00, 475.8, 181.0)">.</text><text xml:space="preserve" font-family="GillSans-Light" font-size="31.2" fill="#525252" transform="matrix(1.00, 0.00, -0.00, -1.00, 478.8, 181.0)"> </text><text xml:space="preserve" font-family="GillSans-Light" font-size="31.2" fill="#525252" transform="matrix(1.00, 0.00, -0.00, -1.00, 487.5, 181.0)">1</text><text xml:space="preserve" font-family="GillSans-Light" font-size="31.2" fill="#525252" transform="matrix(1.00, 0.00, -0.00, -1.00, 503.1, 181.0)">8</text><text xml:space="preserve" font-family="GillSans-Light" font-size="31.2" fill="#525252" transform="matrix(1.00, 0.00, -0.00, -1.00, 518.6, 181.0)">,</text><text xml:space="preserve" font-family="GillSans-Light" font-size="31.2" fill="#525252" transform="matrix(1.00, 0.00, -0.00, -1.00, 521.6, 181.0)"> </text><text xml:space="preserve" font-family="GillSans-Light" font-size="31.2" fill="#525252" transform="matrix(1.00, 0.00, -0.00, -1.00, 530.3, 181.0)">2</text><text xml:space="preserve" font-family="GillSans-Light" font-size="31.2" fill="#525252" transform="matrix(1.00, 0.00, -0.00, -1.00, 545.9, 181.0)">0</text><text xml:space="preserve" font-family="GillSans-Light" font-size="31.2" fill="#525252" transform="matrix(1.00, 0.00, -0.00, -1.00, 561.5, 181.0)">1</text><text xml:space="preserve" font-family="GillSans-Light" font-size="31.2" fill="#525252" transform="matrix(1.00, 0.00, -0.00, -1.00, 577.0, 181.0)">6</text></g></svg>