<?xml version="1.0" encoding="UTF-8" standalone="no"?><svg xmlns="http://www.w3.org/2000/svg" xmlns:xlink="http://www.w3.org/1999/xlink" clip-rule="evenodd" stroke-miterlimit="4.00" viewBox="0 0 1024 768"><desc>SVG generated by Keynote</desc><defs></defs><g transform="matrix(1.00, 0.00, -0.00, -1.00, 0.0, 768.0)"><g><clipPath id="clip-668"><path d="M 0.0 768.0 L 1024.0 768.0 L 1024.0 0.0 L 0.0 0.0 Z M 0.0 768.0 "></path></clipPath><g clip-path="url(#clip-668)"><image xlink:href="../../E8782ACA-0DD6-462E-AFA6-8D26C4A2FECE/assets/107E65D87114B546DB29000410A7B5AF.jpeg" width="1024.00" height="768.00" transform="matrix(1.00, 0.00, -0.00, -1.00, 0.0, 768.0)"></image></g></g><text xml:space="preserve" font-family="GillSans-LightItalic" font-style="italic" font-size="38.0" fill="#525252" transform="matrix(1.00, 0.00, -0.00, -1.00, 299.0, 447.0)">“</text><text xml:space="preserve" font-family="GillSans-LightItalic" font-style="italic" font-size="38.0" fill="#525252" transform="matrix(1.00, 0.00, -0.00, -1.00, 313.2, 447.0)">A</text><text xml:space="preserve" font-family="GillSans-LightItalic" font-style="italic" font-size="38.0" fill="#525252" transform="matrix(1.00, 0.00, -0.00, -1.00, 333.8, 447.0)">s</text><text xml:space="preserve" font-family="GillSans-LightItalic" font-style="italic" font-size="38.0" fill="#525252" transform="matrix(1.00, 0.00, -0.00, -1.00, 347.3, 447.0)"> </text><text xml:space="preserve" font-family="GillSans-LightItalic" font-style="italic" font-size="38.0" fill="#525252" transform="matrix(1.00, 0.00, -0.00, -1.00, 357.8, 447.0)">a</text><text xml:space="preserve" font-family="GillSans-LightItalic" font-style="italic" font-size="38.0" fill="#525252" transform="matrix(1.00, 0.00, -0.00, -1.00, 376.1, 447.0)"> </text><text xml:space="preserve" font-family="GillSans-LightItalic" font-style="italic" font-size="38.0" fill="#525252" transform="matrix(1.00, 0.00, -0.00, -1.00, 386.6, 447.0)">p</text><text xml:space="preserve" font-family="GillSans-LightItalic" font-style="italic" font-size="38.0" fill="#525252" transform="matrix(1.00, 0.00, -0.00, -1.00, 405.6, 447.0)">a</text><text xml:space="preserve" font-family="GillSans-LightItalic" font-style="italic" font-size="38.0" fill="#525252" transform="matrix(1.00, 0.00, -0.00, -1.00, 423.8, 447.0)">r</text><text xml:space="preserve" font-family="GillSans-LightItalic" font-style="italic" font-size="38.0" fill="#525252" transform="matrix(1.00, 0.00, -0.00, -1.00, 434.1, 447.0)">e</text><text xml:space="preserve" font-family="GillSans-LightItalic" font-style="italic" font-size="38.0" fill="#525252" transform="matrix(1.00, 0.00, -0.00, -1.00, 451.1, 447.0)">n</text><text xml:space="preserve" font-family="GillSans-LightItalic" font-style="italic" font-size="38.0" fill="#525252" transform="matrix(1.00, 0.00, -0.00, -1.00, 468.5, 447.0)">t</text><text xml:space="preserve" font-family="GillSans-LightItalic" font-style="italic" font-size="38.0" fill="#525252" transform="matrix(1.00, 0.00, -0.00, -1.00, 479.2, 447.0)">,</text><text xml:space="preserve" font-family="GillSans-LightItalic" font-style="italic" font-size="38.0" fill="#525252" transform="matrix(1.00, 0.00, -0.00, -1.00, 482.5, 447.0)"> </text><text xml:space="preserve" font-family="GillSans-LightItalic" font-style="italic" font-size="38.0" fill="#525252" transform="matrix(1.00, 0.00, -0.00, -1.00, 493.1, 447.0)">I</text><text xml:space="preserve" font-family="GillSans-LightItalic" font-style="italic" font-size="38.0" fill="#525252" transform="matrix(1.00, 0.00, -0.00, -1.00, 500.6, 447.0)">’</text><text xml:space="preserve" font-family="GillSans-LightItalic" font-style="italic" font-size="38.0" fill="#525252" transform="matrix(1.00, 0.00, -0.00, -1.00, 506.9, 447.0)">m</text><text xml:space="preserve" font-family="GillSans-LightItalic" font-style="italic" font-size="38.0" fill="#525252" transform="matrix(1.00, 0.00, -0.00, -1.00, 535.1, 447.0)"> </text><text xml:space="preserve" font-family="GillSans-LightItalic" font-style="italic" font-size="38.0" fill="#525252" transform="matrix(1.00, 0.00, -0.00, -1.00, 545.6, 447.0)">i</text><text xml:space="preserve" font-family="GillSans-LightItalic" font-style="italic" font-size="38.0" fill="#525252" transform="matrix(1.00, 0.00, -0.00, -1.00, 552.3, 447.0)">n</text><text xml:space="preserve" font-family="GillSans-LightItalic" font-style="italic" font-size="38.0" fill="#525252" transform="matrix(1.00, 0.00, -0.00, -1.00, 569.7, 447.0)">t</text><text xml:space="preserve" font-family="GillSans-LightItalic" font-style="italic" font-size="38.0" fill="#525252" transform="matrix(1.00, 0.00, -0.00, -1.00, 580.4, 447.0)">e</text><text xml:space="preserve" font-family="GillSans-LightItalic" font-style="italic" font-size="38.0" fill="#525252" transform="matrix(1.00, 0.00, -0.00, -1.00, 597.4, 447.0)">r</text><text xml:space="preserve" font-family="GillSans-LightItalic" font-style="italic" font-size="38.0" fill="#525252" transform="matrix(1.00, 0.00, -0.00, -1.00, 607.7, 447.0)">e</text><text xml:space="preserve" font-family="GillSans-LightItalic" font-style="italic" font-size="38.0" fill="#525252" transform="matrix(1.00, 0.00, -0.00, -1.00, 624.8, 447.0)">s</text><text xml:space="preserve" font-family="GillSans-LightItalic" font-style="italic" font-size="38.0" fill="#525252" transform="matrix(1.00, 0.00, -0.00, -1.00, 638.2, 447.0)">t</text><text xml:space="preserve" font-family="GillSans-LightItalic" font-style="italic" font-size="38.0" fill="#525252" transform="matrix(1.00, 0.00, -0.00, -1.00, 648.9, 447.0)">e</text><text xml:space="preserve" font-family="GillSans-LightItalic" font-style="italic" font-size="38.0" fill="#525252" transform="matrix(1.00, 0.00, -0.00, -1.00, 665.9, 447.0)">d</text><text xml:space="preserve" font-family="GillSans-LightItalic" font-style="italic" font-size="38.0" fill="#525252" transform="matrix(1.00, 0.00, -0.00, -1.00, 683.8, 447.0)"> </text><text xml:space="preserve" font-family="GillSans-LightItalic" font-style="italic" font-size="38.0" fill="#525252" transform="matrix(1.00, 0.00, -0.00, -1.00, 694.3, 447.0)">i</text><text xml:space="preserve" font-family="GillSans-LightItalic" font-style="italic" font-size="38.0" fill="#525252" transform="matrix(1.00, 0.00, -0.00, -1.00, 701.0, 447.0)">n</text><text xml:space="preserve" font-family="GillSans-LightItalic" font-style="italic" font-size="38.0" fill="#525252" transform="matrix(1.00, 0.00, -0.00, -1.00, 718.4, 447.0)"> </text><text xml:space="preserve" font-family="GillSans-LightItalic" font-style="italic" font-size="38.0" fill="#525252" transform="matrix(1.00, 0.00, -0.00, -1.00, 380.0, 404.0)">o</text><text xml:space="preserve" font-family="GillSans-LightItalic" font-style="italic" font-size="38.0" fill="#525252" transform="matrix(1.00, 0.00, -0.00, -1.00, 397.0, 404.0)">p</text><text xml:space="preserve" font-family="GillSans-LightItalic" font-style="italic" font-size="38.0" fill="#525252" transform="matrix(1.00, 0.00, -0.00, -1.00, 416.0, 404.0)">e</text><text xml:space="preserve" font-family="GillSans-LightItalic" font-style="italic" font-size="38.0" fill="#525252" transform="matrix(1.00, 0.00, -0.00, -1.00, 433.1, 404.0)">n</text><text xml:space="preserve" font-family="GillSans-LightItalic" font-style="italic" font-size="38.0" fill="#525252" transform="matrix(1.00, 0.00, -0.00, -1.00, 450.5, 404.0)"> </text><text xml:space="preserve" font-family="GillSans-LightItalic" font-style="italic" font-size="38.0" fill="#525252" transform="matrix(1.00, 0.00, -0.00, -1.00, 461.0, 404.0)">d</text><text xml:space="preserve" font-family="GillSans-LightItalic" font-style="italic" font-size="38.0" fill="#525252" transform="matrix(1.00, 0.00, -0.00, -1.00, 478.9, 404.0)">a</text><text xml:space="preserve" font-family="GillSans-LightItalic" font-style="italic" font-size="38.0" fill="#525252" transform="matrix(1.00, 0.00, -0.00, -1.00, 497.1, 404.0)">t</text><text xml:space="preserve" font-family="GillSans-LightItalic" font-style="italic" font-size="38.0" fill="#525252" transform="matrix(1.00, 0.00, -0.00, -1.00, 507.7, 404.0)">a</text><text xml:space="preserve" font-family="GillSans-LightItalic" font-style="italic" font-size="38.0" fill="#525252" transform="matrix(1.00, 0.00, -0.00, -1.00, 525.9, 404.0)"> </text><text xml:space="preserve" font-family="GillSans-LightItalic" font-style="italic" font-size="38.0" fill="#525252" transform="matrix(1.00, 0.00, -0.00, -1.00, 536.5, 404.0)">s</text><text xml:space="preserve" font-family="GillSans-LightItalic" font-style="italic" font-size="38.0" fill="#525252" transform="matrix(1.00, 0.00, -0.00, -1.00, 549.9, 404.0)">e</text><text xml:space="preserve" font-family="GillSans-LightItalic" font-style="italic" font-size="38.0" fill="#525252" transform="matrix(1.00, 0.00, -0.00, -1.00, 567.0, 404.0)">t</text><text xml:space="preserve" font-family="GillSans-LightItalic" font-style="italic" font-size="38.0" fill="#525252" transform="matrix(1.00, 0.00, -0.00, -1.00, 577.6, 404.0)">s</text><text xml:space="preserve" font-family="GillSans-LightItalic" font-style="italic" font-size="38.0" fill="#525252" transform="matrix(1.00, 0.00, -0.00, -1.00, 591.1, 404.0)"> </text><text xml:space="preserve" font-family="GillSans-LightItalic" font-style="italic" font-size="38.0" fill="#525252" transform="matrix(1.00, 0.00, -0.00, -1.00, 601.6, 404.0)">f</text><text xml:space="preserve" font-family="GillSans-LightItalic" font-style="italic" font-size="38.0" fill="#525252" transform="matrix(1.00, 0.00, -0.00, -1.00, 610.8, 404.0)">o</text><text xml:space="preserve" font-family="GillSans-LightItalic" font-style="italic" font-size="38.0" fill="#525252" transform="matrix(1.00, 0.00, -0.00, -1.00, 627.8, 404.0)">r</text><text xml:space="preserve" font-family="GillSans-LightItalic" font-style="italic" font-size="38.0" fill="#525252" transform="matrix(1.00, 0.00, -0.00, -1.00, 638.1, 404.0)"> </text><text xml:space="preserve" font-family="GillSans-LightItalic" font-style="italic" font-size="38.0" fill="#525252" transform="matrix(1.00, 0.00, -0.00, -1.00, 315.0, 361.0)">c</text><text xml:space="preserve" font-family="GillSans-LightItalic" font-style="italic" font-size="38.0" fill="#525252" transform="matrix(1.00, 0.00, -0.00, -1.00, 329.6, 361.0)">l</text><text xml:space="preserve" font-family="GillSans-LightItalic" font-style="italic" font-size="38.0" fill="#525252" transform="matrix(1.00, 0.00, -0.00, -1.00, 336.3, 361.0)">a</text><text xml:space="preserve" font-family="GillSans-LightItalic" font-style="italic" font-size="38.0" fill="#525252" transform="matrix(1.00, 0.00, -0.00, -1.00, 354.5, 361.0)">s</text><text xml:space="preserve" font-family="GillSans-LightItalic" font-style="italic" font-size="38.0" fill="#525252" transform="matrix(1.00, 0.00, -0.00, -1.00, 368.0, 361.0)">s</text><text xml:space="preserve" font-family="GillSans-LightItalic" font-style="italic" font-size="38.0" fill="#525252" transform="matrix(1.00, 0.00, -0.00, -1.00, 381.4, 361.0)"> </text><text xml:space="preserve" font-family="GillSans-LightItalic" font-style="italic" font-size="38.0" fill="#525252" transform="matrix(1.00, 0.00, -0.00, -1.00, 392.0, 361.0)">s</text><text xml:space="preserve" font-family="GillSans-LightItalic" font-style="italic" font-size="38.0" fill="#525252" transform="matrix(1.00, 0.00, -0.00, -1.00, 405.4, 361.0)">i</text><text xml:space="preserve" font-family="GillSans-LightItalic" font-style="italic" font-size="38.0" fill="#525252" transform="matrix(1.00, 0.00, -0.00, -1.00, 412.1, 361.0)">z</text><text xml:space="preserve" font-family="GillSans-LightItalic" font-style="italic" font-size="38.0" fill="#525252" transform="matrix(1.00, 0.00, -0.00, -1.00, 428.0, 361.0)">e</text><text xml:space="preserve" font-family="GillSans-LightItalic" font-style="italic" font-size="38.0" fill="#525252" transform="matrix(1.00, 0.00, -0.00, -1.00, 445.0, 361.0)">s</text><text xml:space="preserve" font-family="GillSans-LightItalic" font-style="italic" font-size="38.0" fill="#525252" transform="matrix(1.00, 0.00, -0.00, -1.00, 458.5, 361.0)"> </text><text xml:space="preserve" font-family="GillSans-LightItalic" font-style="italic" font-size="38.0" fill="#525252" transform="matrix(1.00, 0.00, -0.00, -1.00, 469.0, 361.0)">a</text><text xml:space="preserve" font-family="GillSans-LightItalic" font-style="italic" font-size="38.0" fill="#525252" transform="matrix(1.00, 0.00, -0.00, -1.00, 487.2, 361.0)">n</text><text xml:space="preserve" font-family="GillSans-LightItalic" font-style="italic" font-size="38.0" fill="#525252" transform="matrix(1.00, 0.00, -0.00, -1.00, 504.6, 361.0)">d</text><text xml:space="preserve" font-family="GillSans-LightItalic" font-style="italic" font-size="38.0" fill="#525252" transform="matrix(1.00, 0.00, -0.00, -1.00, 522.5, 361.0)"> </text><text xml:space="preserve" font-family="GillSans-LightItalic" font-style="italic" font-size="38.0" fill="#525252" transform="matrix(1.00, 0.00, -0.00, -1.00, 533.0, 361.0)">t</text><text xml:space="preserve" font-family="GillSans-LightItalic" font-style="italic" font-size="38.0" fill="#525252" transform="matrix(1.00, 0.00, -0.00, -1.00, 543.7, 361.0)">e</text><text xml:space="preserve" font-family="GillSans-LightItalic" font-style="italic" font-size="38.0" fill="#525252" transform="matrix(1.00, 0.00, -0.00, -1.00, 560.7, 361.0)">s</text><text xml:space="preserve" font-family="GillSans-LightItalic" font-style="italic" font-size="38.0" fill="#525252" transform="matrix(1.00, 0.00, -0.00, -1.00, 574.2, 361.0)">t</text><text xml:space="preserve" font-family="GillSans-LightItalic" font-style="italic" font-size="38.0" fill="#525252" transform="matrix(1.00, 0.00, -0.00, -1.00, 584.8, 361.0)"> </text><text xml:space="preserve" font-family="GillSans-LightItalic" font-style="italic" font-size="38.0" fill="#525252" transform="matrix(1.00, 0.00, -0.00, -1.00, 595.4, 361.0)">s</text><text xml:space="preserve" font-family="GillSans-LightItalic" font-style="italic" font-size="38.0" fill="#525252" transform="matrix(1.00, 0.00, -0.00, -1.00, 608.8, 361.0)">c</text><text xml:space="preserve" font-family="GillSans-LightItalic" font-style="italic" font-size="38.0" fill="#525252" transform="matrix(1.00, 0.00, -0.00, -1.00, 623.4, 361.0)">o</text><text xml:space="preserve" font-family="GillSans-LightItalic" font-style="italic" font-size="38.0" fill="#525252" transform="matrix(1.00, 0.00, -0.00, -1.00, 640.5, 361.0)">r</text><text xml:space="preserve" font-family="GillSans-LightItalic" font-style="italic" font-size="38.0" fill="#525252" transform="matrix(1.00, 0.00, -0.00, -1.00, 650.8, 361.0)">e</text><text xml:space="preserve" font-family="GillSans-LightItalic" font-style="italic" font-size="38.0" fill="#525252" transform="matrix(1.00, 0.00, -0.00, -1.00, 667.8, 361.0)">s</text><text xml:space="preserve" font-family="GillSans-LightItalic" font-style="italic" font-size="38.0" fill="#525252" transform="matrix(1.00, 0.00, -0.00, -1.00, 682.2, 361.0)">.</text><text xml:space="preserve" font-family="GillSans-LightItalic" font-style="italic" font-size="38.0" fill="#525252" transform="matrix(1.00, 0.00, -0.00, -1.00, 688.6, 361.0)">”</text></g></svg>