<?xml version="1.0" encoding="UTF-8" standalone="no"?><svg xmlns="http://www.w3.org/2000/svg" xmlns:xlink="http://www.w3.org/1999/xlink" clip-rule="evenodd" stroke-miterlimit="4.00" viewBox="0 0 1024 768"><desc>SVG generated by Keynote</desc><defs></defs><g transform="matrix(1.00, 0.00, -0.00, -1.00, 0.0, 768.0)"><g><clipPath id="clip-183"><path d="M 0.0 768.0 L 1024.0 768.0 L 1024.0 0.0 L 0.0 0.0 Z M 0.0 768.0 "></path></clipPath><g clip-path="url(#clip-183)"><image xlink:href="../../E8782ACA-0DD6-462E-AFA6-8D26C4A2FECE/assets/107E65D87114B546DB29000410A7B5AF.jpeg" width="1024.00" height="768.00" transform="matrix(1.00, 0.00, -0.00, -1.00, 0.0, 768.0)"></image></g></g><text xml:space="preserve" font-family="GillSans-Light" font-size="54.0" fill="#525252" transform="matrix(1.00, 0.00, -0.00, -1.00, 396.0, 366.0)">Q</text><text xml:space="preserve" font-family="GillSans-Light" font-size="54.0" fill="#525252" transform="matrix(1.00, 0.00, -0.00, -1.00, 440.5, 366.0)">u</text><text xml:space="preserve" font-family="GillSans-Light" font-size="54.0" fill="#525252" transform="matrix(1.00, 0.00, -0.00, -1.00, 466.9, 366.0)">i</text><text xml:space="preserve" font-family="GillSans-Light" font-size="54.0" fill="#525252" transform="matrix(1.00, 0.00, -0.00, -1.00, 477.1, 366.0)">c</text><text xml:space="preserve" font-family="GillSans-Light" font-size="54.0" fill="#525252" transform="matrix(1.00, 0.00, -0.00, -1.00, 499.6, 366.0)">k</text><text xml:space="preserve" font-family="GillSans-Light" font-size="54.0" fill="#525252" transform="matrix(1.00, 0.00, -0.00, -1.00, 522.7, 366.0)"> </text><text xml:space="preserve" font-family="GillSans-Light" font-size="54.0" fill="#525252" transform="matrix(1.00, 0.00, -0.00, -1.00, 530.1, 366.0)">T</text><text xml:space="preserve" font-family="GillSans-Light" font-size="54.0" fill="#525252" transform="matrix(1.00, 0.00, -0.00, -1.00, 553.5, 366.0)">o</text><text xml:space="preserve" font-family="GillSans-Light" font-size="54.0" fill="#525252" transform="matrix(1.00, 0.00, -0.00, -1.00, 582.7, 366.0)">u</text><text xml:space="preserve" font-family="GillSans-Light" font-size="54.0" fill="#525252" transform="matrix(1.00, 0.00, -0.00, -1.00, 609.2, 366.0)">r</text></g></svg>