<?xml version="1.0" encoding="UTF-8" standalone="no"?><svg xmlns="http://www.w3.org/2000/svg" xmlns:xlink="http://www.w3.org/1999/xlink" clip-rule="evenodd" stroke-miterlimit="4.00" viewBox="0 0 1024 768"><desc>SVG generated by Keynote</desc><defs></defs><g transform="matrix(1.00, 0.00, -0.00, -1.00, 0.0, 768.0)"><g><clipPath id="clip-837"><path d="M 0.0 768.0 L 1024.0 768.0 L 1024.0 0.0 L 0.0 0.0 Z M 0.0 768.0 "></path></clipPath><g clip-path="url(#clip-837)"><image xlink:href="../../E8782ACA-0DD6-462E-AFA6-8D26C4A2FECE/assets/107E65D87114B546DB29000410A7B5AF.jpeg" width="1024.00" height="768.00" transform="matrix(1.00, 0.00, -0.00, -1.00, 0.0, 768.0)"></image></g></g><text xml:space="preserve" font-family="GillSans-Light" font-size="36.0" fill="#525252" transform="matrix(1.00, 0.00, -0.00, -1.00, 209.0, 495.0)">T</text><text xml:space="preserve" font-family="GillSans-Light" font-size="36.0" fill="#525252" transform="matrix(1.00, 0.00, -0.00, -1.00, 229.6, 495.0)">h</text><text xml:space="preserve" font-family="GillSans-Light" font-size="36.0" fill="#525252" transform="matrix(1.00, 0.00, -0.00, -1.00, 247.3, 495.0)">e</text><text xml:space="preserve" font-family="GillSans-Light" font-size="36.0" fill="#525252" transform="matrix(1.00, 0.00, -0.00, -1.00, 264.5, 495.0)">s</text><text xml:space="preserve" font-family="GillSans-Light" font-size="36.0" fill="#525252" transform="matrix(1.00, 0.00, -0.00, -1.00, 277.3, 495.0)">e</text><text xml:space="preserve" font-family="GillSans-Light" font-size="36.0" fill="#525252" transform="matrix(1.00, 0.00, -0.00, -1.00, 294.5, 495.0)"> </text><text xml:space="preserve" font-family="GillSans-Light" font-size="36.0" fill="#525252" transform="matrix(1.00, 0.00, -0.00, -1.00, 304.5, 495.0)">c</text><text xml:space="preserve" font-family="GillSans-Light" font-size="36.0" fill="#525252" transform="matrix(1.00, 0.00, -0.00, -1.00, 319.5, 495.0)">o</text><text xml:space="preserve" font-family="GillSans-Light" font-size="36.0" fill="#525252" transform="matrix(1.00, 0.00, -0.00, -1.00, 339.1, 495.0)">d</text><text xml:space="preserve" font-family="GillSans-Light" font-size="36.0" fill="#525252" transform="matrix(1.00, 0.00, -0.00, -1.00, 357.4, 495.0)">e</text><text xml:space="preserve" font-family="GillSans-Light" font-size="36.0" fill="#525252" transform="matrix(1.00, 0.00, -0.00, -1.00, 374.6, 495.0)">r</text><text xml:space="preserve" font-family="GillSans-Light" font-size="36.0" fill="#525252" transform="matrix(1.00, 0.00, -0.00, -1.00, 388.1, 495.0)">s</text><text xml:space="preserve" font-family="GillSans-Light" font-size="36.0" fill="#525252" transform="matrix(1.00, 0.00, -0.00, -1.00, 400.8, 495.0)"> </text><text xml:space="preserve" font-family="GillSans-Light" font-size="36.0" fill="#525252" transform="matrix(1.00, 0.00, -0.00, -1.00, 410.8, 495.0)">i</text><text xml:space="preserve" font-family="GillSans-Light" font-size="36.0" fill="#525252" transform="matrix(1.00, 0.00, -0.00, -1.00, 417.6, 495.0)">n</text><text xml:space="preserve" font-family="GillSans-Light" font-size="36.0" fill="#525252" transform="matrix(1.00, 0.00, -0.00, -1.00, 435.2, 495.0)">c</text><text xml:space="preserve" font-family="GillSans-Light" font-size="36.0" fill="#525252" transform="matrix(1.00, 0.00, -0.00, -1.00, 450.2, 495.0)">l</text><text xml:space="preserve" font-family="GillSans-Light" font-size="36.0" fill="#525252" transform="matrix(1.00, 0.00, -0.00, -1.00, 457.0, 495.0)">u</text><text xml:space="preserve" font-family="GillSans-Light" font-size="36.0" fill="#525252" transform="matrix(1.00, 0.00, -0.00, -1.00, 474.7, 495.0)">d</text><text xml:space="preserve" font-family="GillSans-Light" font-size="36.0" fill="#525252" transform="matrix(1.00, 0.00, -0.00, -1.00, 493.0, 495.0)">e</text><text xml:space="preserve" font-family="GillSans-Light" font-size="36.0" fill="#525252" transform="matrix(1.00, 0.00, -0.00, -1.00, 510.3, 495.0)"> </text><text xml:space="preserve" font-family="GillSans-Light" font-size="36.0" fill="#525252" transform="matrix(1.00, 0.00, -0.00, -1.00, 520.2, 495.0)">h</text><text xml:space="preserve" font-family="GillSans-Light" font-size="36.0" fill="#525252" transform="matrix(1.00, 0.00, -0.00, -1.00, 537.9, 495.0)">i</text><text xml:space="preserve" font-family="GillSans-Light" font-size="36.0" fill="#525252" transform="matrix(1.00, 0.00, -0.00, -1.00, 544.7, 495.0)">g</text><text xml:space="preserve" font-family="GillSans-Light" font-size="36.0" fill="#525252" transform="matrix(1.00, 0.00, -0.00, -1.00, 560.0, 495.0)">h</text><text xml:space="preserve" font-family="GillSans-Light" font-size="36.0" fill="#525252" transform="matrix(1.00, 0.00, -0.00, -1.00, 577.7, 495.0)">-</text><text xml:space="preserve" font-family="GillSans-Light" font-size="36.0" fill="#525252" transform="matrix(1.00, 0.00, -0.00, -1.00, 588.9, 495.0)">s</text><text xml:space="preserve" font-family="GillSans-Light" font-size="36.0" fill="#525252" transform="matrix(1.00, 0.00, -0.00, -1.00, 601.7, 495.0)">c</text><text xml:space="preserve" font-family="GillSans-Light" font-size="36.0" fill="#525252" transform="matrix(1.00, 0.00, -0.00, -1.00, 616.7, 495.0)">h</text><text xml:space="preserve" font-family="GillSans-Light" font-size="36.0" fill="#525252" transform="matrix(1.00, 0.00, -0.00, -1.00, 634.4, 495.0)">o</text><text xml:space="preserve" font-family="GillSans-Light" font-size="36.0" fill="#525252" transform="matrix(1.00, 0.00, -0.00, -1.00, 653.9, 495.0)">o</text><text xml:space="preserve" font-family="GillSans-Light" font-size="36.0" fill="#525252" transform="matrix(1.00, 0.00, -0.00, -1.00, 673.4, 495.0)">l</text><text xml:space="preserve" font-family="GillSans-Light" font-size="36.0" fill="#525252" transform="matrix(1.00, 0.00, -0.00, -1.00, 680.2, 495.0)"> </text><text xml:space="preserve" font-family="GillSans-Light" font-size="36.0" fill="#525252" transform="matrix(1.00, 0.00, -0.00, -1.00, 690.1, 495.0)">s</text><text xml:space="preserve" font-family="GillSans-Light" font-size="36.0" fill="#525252" transform="matrix(1.00, 0.00, -0.00, -1.00, 702.9, 495.0)">t</text><text xml:space="preserve" font-family="GillSans-Light" font-size="36.0" fill="#525252" transform="matrix(1.00, 0.00, -0.00, -1.00, 713.7, 495.0)">u</text><text xml:space="preserve" font-family="GillSans-Light" font-size="36.0" fill="#525252" transform="matrix(1.00, 0.00, -0.00, -1.00, 731.4, 495.0)">d</text><text xml:space="preserve" font-family="GillSans-Light" font-size="36.0" fill="#525252" transform="matrix(1.00, 0.00, -0.00, -1.00, 749.7, 495.0)">e</text><text xml:space="preserve" font-family="GillSans-Light" font-size="36.0" fill="#525252" transform="matrix(1.00, 0.00, -0.00, -1.00, 767.0, 495.0)">n</text><text xml:space="preserve" font-family="GillSans-Light" font-size="36.0" fill="#525252" transform="matrix(1.00, 0.00, -0.00, -1.00, 784.6, 495.0)">t</text><text xml:space="preserve" font-family="GillSans-Light" font-size="36.0" fill="#525252" transform="matrix(1.00, 0.00, -0.00, -1.00, 795.5, 495.0)">s</text><text xml:space="preserve" font-family="GillSans-Light" font-size="36.0" fill="#525252" transform="matrix(1.00, 0.00, -0.00, -1.00, 808.2, 495.0)">,</text><text xml:space="preserve" font-family="GillSans-Light" font-size="36.0" fill="#525252" transform="matrix(1.00, 0.00, -0.00, -1.00, 211.0, 454.0)">j</text><text xml:space="preserve" font-family="GillSans-Light" font-size="36.0" fill="#525252" transform="matrix(1.00, 0.00, -0.00, -1.00, 217.8, 454.0)">u</text><text xml:space="preserve" font-family="GillSans-Light" font-size="36.0" fill="#525252" transform="matrix(1.00, 0.00, -0.00, -1.00, 235.4, 454.0)">n</text><text xml:space="preserve" font-family="GillSans-Light" font-size="36.0" fill="#525252" transform="matrix(1.00, 0.00, -0.00, -1.00, 253.1, 454.0)">i</text><text xml:space="preserve" font-family="GillSans-Light" font-size="36.0" fill="#525252" transform="matrix(1.00, 0.00, -0.00, -1.00, 259.8, 454.0)">o</text><text xml:space="preserve" font-family="GillSans-Light" font-size="36.0" fill="#525252" transform="matrix(1.00, 0.00, -0.00, -1.00, 279.4, 454.0)">r</text><text xml:space="preserve" font-family="GillSans-Light" font-size="36.0" fill="#525252" transform="matrix(1.00, 0.00, -0.00, -1.00, 291.3, 454.0)"> </text><text xml:space="preserve" font-family="GillSans-Light" font-size="36.0" fill="#525252" transform="matrix(1.00, 0.00, -0.00, -1.00, 301.3, 454.0)">d</text><text xml:space="preserve" font-family="GillSans-Light" font-size="36.0" fill="#525252" transform="matrix(1.00, 0.00, -0.00, -1.00, 319.7, 454.0)">e</text><text xml:space="preserve" font-family="GillSans-Light" font-size="36.0" fill="#525252" transform="matrix(1.00, 0.00, -0.00, -1.00, 336.9, 454.0)">v</text><text xml:space="preserve" font-family="GillSans-Light" font-size="36.0" fill="#525252" transform="matrix(1.00, 0.00, -0.00, -1.00, 351.7, 454.0)">e</text><text xml:space="preserve" font-family="GillSans-Light" font-size="36.0" fill="#525252" transform="matrix(1.00, 0.00, -0.00, -1.00, 369.0, 454.0)">l</text><text xml:space="preserve" font-family="GillSans-Light" font-size="36.0" fill="#525252" transform="matrix(1.00, 0.00, -0.00, -1.00, 375.8, 454.0)">o</text><text xml:space="preserve" font-family="GillSans-Light" font-size="36.0" fill="#525252" transform="matrix(1.00, 0.00, -0.00, -1.00, 395.3, 454.0)">p</text><text xml:space="preserve" font-family="GillSans-Light" font-size="36.0" fill="#525252" transform="matrix(1.00, 0.00, -0.00, -1.00, 413.6, 454.0)">e</text><text xml:space="preserve" font-family="GillSans-Light" font-size="36.0" fill="#525252" transform="matrix(1.00, 0.00, -0.00, -1.00, 430.9, 454.0)">r</text><text xml:space="preserve" font-family="GillSans-Light" font-size="36.0" fill="#525252" transform="matrix(1.00, 0.00, -0.00, -1.00, 444.3, 454.0)">s</text><text xml:space="preserve" font-family="GillSans-Light" font-size="36.0" fill="#525252" transform="matrix(1.00, 0.00, -0.00, -1.00, 457.0, 454.0)">,</text><text xml:space="preserve" font-family="GillSans-Light" font-size="36.0" fill="#525252" transform="matrix(1.00, 0.00, -0.00, -1.00, 460.5, 454.0)"> </text><text xml:space="preserve" font-family="GillSans-Light" font-size="36.0" fill="#525252" transform="matrix(1.00, 0.00, -0.00, -1.00, 470.5, 454.0)">a</text><text xml:space="preserve" font-family="GillSans-Light" font-size="36.0" fill="#525252" transform="matrix(1.00, 0.00, -0.00, -1.00, 485.8, 454.0)">n</text><text xml:space="preserve" font-family="GillSans-Light" font-size="36.0" fill="#525252" transform="matrix(1.00, 0.00, -0.00, -1.00, 503.5, 454.0)">d</text><text xml:space="preserve" font-family="GillSans-Light" font-size="36.0" fill="#525252" transform="matrix(1.00, 0.00, -0.00, -1.00, 521.8, 454.0)"> </text><text xml:space="preserve" font-family="GillSans-Light" font-size="36.0" fill="#525252" transform="matrix(1.00, 0.00, -0.00, -1.00, 531.8, 454.0)">s</text><text xml:space="preserve" font-family="GillSans-Light" font-size="36.0" fill="#525252" transform="matrix(1.00, 0.00, -0.00, -1.00, 544.6, 454.0)">e</text><text xml:space="preserve" font-family="GillSans-Light" font-size="36.0" fill="#525252" transform="matrix(1.00, 0.00, -0.00, -1.00, 561.8, 454.0)">n</text><text xml:space="preserve" font-family="GillSans-Light" font-size="36.0" fill="#525252" transform="matrix(1.00, 0.00, -0.00, -1.00, 579.5, 454.0)">i</text><text xml:space="preserve" font-family="GillSans-Light" font-size="36.0" fill="#525252" transform="matrix(1.00, 0.00, -0.00, -1.00, 586.3, 454.0)">o</text><text xml:space="preserve" font-family="GillSans-Light" font-size="36.0" fill="#525252" transform="matrix(1.00, 0.00, -0.00, -1.00, 605.8, 454.0)">r</text><text xml:space="preserve" font-family="GillSans-Light" font-size="36.0" fill="#525252" transform="matrix(1.00, 0.00, -0.00, -1.00, 617.8, 454.0)"> </text><text xml:space="preserve" font-family="GillSans-Light" font-size="36.0" fill="#525252" transform="matrix(1.00, 0.00, -0.00, -1.00, 627.7, 454.0)">p</text><text xml:space="preserve" font-family="GillSans-Light" font-size="36.0" fill="#525252" transform="matrix(1.00, 0.00, -0.00, -1.00, 646.1, 454.0)">r</text><text xml:space="preserve" font-family="GillSans-Light" font-size="36.0" fill="#525252" transform="matrix(1.00, 0.00, -0.00, -1.00, 658.1, 454.0)">o</text><text xml:space="preserve" font-family="GillSans-Light" font-size="36.0" fill="#525252" transform="matrix(1.00, 0.00, -0.00, -1.00, 677.6, 454.0)">f</text><text xml:space="preserve" font-family="GillSans-Light" font-size="36.0" fill="#525252" transform="matrix(1.00, 0.00, -0.00, -1.00, 685.7, 454.0)">e</text><text xml:space="preserve" font-family="GillSans-Light" font-size="36.0" fill="#525252" transform="matrix(1.00, 0.00, -0.00, -1.00, 702.9, 454.0)">s</text><text xml:space="preserve" font-family="GillSans-Light" font-size="36.0" fill="#525252" transform="matrix(1.00, 0.00, -0.00, -1.00, 715.7, 454.0)">s</text><text xml:space="preserve" font-family="GillSans-Light" font-size="36.0" fill="#525252" transform="matrix(1.00, 0.00, -0.00, -1.00, 728.4, 454.0)">i</text><text xml:space="preserve" font-family="GillSans-Light" font-size="36.0" fill="#525252" transform="matrix(1.00, 0.00, -0.00, -1.00, 735.2, 454.0)">o</text><text xml:space="preserve" font-family="GillSans-Light" font-size="36.0" fill="#525252" transform="matrix(1.00, 0.00, -0.00, -1.00, 754.7, 454.0)">n</text><text xml:space="preserve" font-family="GillSans-Light" font-size="36.0" fill="#525252" transform="matrix(1.00, 0.00, -0.00, -1.00, 772.4, 454.0)">a</text><text xml:space="preserve" font-family="GillSans-Light" font-size="36.0" fill="#525252" transform="matrix(1.00, 0.00, -0.00, -1.00, 787.7, 454.0)">l</text><text xml:space="preserve" font-family="GillSans-Light" font-size="36.0" fill="#525252" transform="matrix(1.00, 0.00, -0.00, -1.00, 794.5, 454.0)">s</text><text xml:space="preserve" font-family="GillSans-Light" font-size="36.0" fill="#525252" transform="matrix(1.00, 0.00, -0.00, -1.00, 807.2, 454.0)">.</text><text xml:space="preserve" font-family="GillSans-Light" font-size="36.0" fill="#525252" transform="matrix(1.00, 0.00, -0.00, -1.00, 322.0, 372.0)">T</text><text xml:space="preserve" font-family="GillSans-Light" font-size="36.0" fill="#525252" transform="matrix(1.00, 0.00, -0.00, -1.00, 342.6, 372.0)">h</text><text xml:space="preserve" font-family="GillSans-Light" font-size="36.0" fill="#525252" transform="matrix(1.00, 0.00, -0.00, -1.00, 360.3, 372.0)">e</text><text xml:space="preserve" font-family="GillSans-Light" font-size="36.0" fill="#525252" transform="matrix(1.00, 0.00, -0.00, -1.00, 377.5, 372.0)">y</text><text xml:space="preserve" font-family="GillSans-Light" font-size="36.0" fill="#525252" transform="matrix(1.00, 0.00, -0.00, -1.00, 392.6, 372.0)"> </text><text xml:space="preserve" font-family="GillSans-Light" font-size="36.0" fill="#525252" transform="matrix(1.00, 0.00, -0.00, -1.00, 402.6, 372.0)">a</text><text xml:space="preserve" font-family="GillSans-Light" font-size="36.0" fill="#525252" transform="matrix(1.00, 0.00, -0.00, -1.00, 417.9, 372.0)">r</text><text xml:space="preserve" font-family="GillSans-Light" font-size="36.0" fill="#525252" transform="matrix(1.00, 0.00, -0.00, -1.00, 429.9, 372.0)">e</text><text xml:space="preserve" font-family="GillSans-Light" font-size="36.0" fill="#525252" transform="matrix(1.00, 0.00, -0.00, -1.00, 447.1, 372.0)"> </text><text xml:space="preserve" font-family="GillSans-Light" font-size="36.0" fill="#525252" transform="matrix(1.00, 0.00, -0.00, -1.00, 457.1, 372.0)">e</text><text xml:space="preserve" font-family="GillSans-Light" font-size="36.0" fill="#525252" transform="matrix(1.00, 0.00, -0.00, -1.00, 474.4, 372.0)">a</text><text xml:space="preserve" font-family="GillSans-Light" font-size="36.0" fill="#525252" transform="matrix(1.00, 0.00, -0.00, -1.00, 489.7, 372.0)">g</text><text xml:space="preserve" font-family="GillSans-Light" font-size="36.0" fill="#525252" transform="matrix(1.00, 0.00, -0.00, -1.00, 505.1, 372.0)">e</text><text xml:space="preserve" font-family="GillSans-Light" font-size="36.0" fill="#525252" transform="matrix(1.00, 0.00, -0.00, -1.00, 522.3, 372.0)">r</text><text xml:space="preserve" font-family="GillSans-Light" font-size="36.0" fill="#525252" transform="matrix(1.00, 0.00, -0.00, -1.00, 534.3, 372.0)"> </text><text xml:space="preserve" font-family="GillSans-Light" font-size="36.0" fill="#525252" transform="matrix(1.00, 0.00, -0.00, -1.00, 544.3, 372.0)">t</text><text xml:space="preserve" font-family="GillSans-Light" font-size="36.0" fill="#525252" transform="matrix(1.00, 0.00, -0.00, -1.00, 555.2, 372.0)">o</text><text xml:space="preserve" font-family="GillSans-Light" font-size="36.0" fill="#525252" transform="matrix(1.00, 0.00, -0.00, -1.00, 574.7, 372.0)"> </text><text xml:space="preserve" font-family="GillSans-Light" font-size="36.0" fill="#525252" transform="matrix(1.00, 0.00, -0.00, -1.00, 584.7, 372.0)">c</text><text xml:space="preserve" font-family="GillSans-Light" font-size="36.0" fill="#525252" transform="matrix(1.00, 0.00, -0.00, -1.00, 599.7, 372.0)">o</text><text xml:space="preserve" font-family="GillSans-Light" font-size="36.0" fill="#525252" transform="matrix(1.00, 0.00, -0.00, -1.00, 619.2, 372.0)">d</text><text xml:space="preserve" font-family="GillSans-Light" font-size="36.0" fill="#525252" transform="matrix(1.00, 0.00, -0.00, -1.00, 637.5, 372.0)">e</text><text xml:space="preserve" font-family="GillSans-Light" font-size="36.0" fill="#525252" transform="matrix(1.00, 0.00, -0.00, -1.00, 654.8, 372.0)"> </text><text xml:space="preserve" font-family="GillSans-Light" font-size="36.0" fill="#525252" transform="matrix(1.00, 0.00, -0.00, -1.00, 664.8, 372.0)">o</text><text xml:space="preserve" font-family="GillSans-Light" font-size="36.0" fill="#525252" transform="matrix(1.00, 0.00, -0.00, -1.00, 684.3, 372.0)">n</text><text xml:space="preserve" font-family="GillSans-Light" font-size="36.0" fill="#525252" transform="matrix(1.00, 0.00, -0.00, -1.00, 702.0, 372.0)"> </text><text xml:space="preserve" font-family="GillSans-Light" font-size="36.0" fill="#525252" transform="matrix(1.00, 0.00, -0.00, -1.00, 312.0, 331.0)">p</text><text xml:space="preserve" font-family="GillSans-Light" font-size="36.0" fill="#525252" transform="matrix(1.00, 0.00, -0.00, -1.00, 330.3, 331.0)">r</text><text xml:space="preserve" font-family="GillSans-Light" font-size="36.0" fill="#525252" transform="matrix(1.00, 0.00, -0.00, -1.00, 342.3, 331.0)">o</text><text xml:space="preserve" font-family="GillSans-Light" font-size="36.0" fill="#525252" transform="matrix(1.00, 0.00, -0.00, -1.00, 361.8, 331.0)">j</text><text xml:space="preserve" font-family="GillSans-Light" font-size="36.0" fill="#525252" transform="matrix(1.00, 0.00, -0.00, -1.00, 368.6, 331.0)">e</text><text xml:space="preserve" font-family="GillSans-Light" font-size="36.0" fill="#525252" transform="matrix(1.00, 0.00, -0.00, -1.00, 385.9, 331.0)">c</text><text xml:space="preserve" font-family="GillSans-Light" font-size="36.0" fill="#525252" transform="matrix(1.00, 0.00, -0.00, -1.00, 400.9, 331.0)">t</text><text xml:space="preserve" font-family="GillSans-Light" font-size="36.0" fill="#525252" transform="matrix(1.00, 0.00, -0.00, -1.00, 411.7, 331.0)">s</text><text xml:space="preserve" font-family="GillSans-Light" font-size="36.0" fill="#525252" transform="matrix(1.00, 0.00, -0.00, -1.00, 424.5, 331.0)">,</text><text xml:space="preserve" font-family="GillSans-Light" font-size="36.0" fill="#525252" transform="matrix(1.00, 0.00, -0.00, -1.00, 427.9, 331.0)"> </text><text xml:space="preserve" font-family="GillSans-Light" font-size="36.0" fill="#525252" transform="matrix(1.00, 0.00, -0.00, -1.00, 437.9, 331.0)">i</text><text xml:space="preserve" font-family="GillSans-Light" font-size="36.0" fill="#525252" transform="matrix(1.00, 0.00, -0.00, -1.00, 444.7, 331.0)">n</text><text xml:space="preserve" font-family="GillSans-Light" font-size="36.0" fill="#525252" transform="matrix(1.00, 0.00, -0.00, -1.00, 462.4, 331.0)">c</text><text xml:space="preserve" font-family="GillSans-Light" font-size="36.0" fill="#525252" transform="matrix(1.00, 0.00, -0.00, -1.00, 477.4, 331.0)">l</text><text xml:space="preserve" font-family="GillSans-Light" font-size="36.0" fill="#525252" transform="matrix(1.00, 0.00, -0.00, -1.00, 484.1, 331.0)">u</text><text xml:space="preserve" font-family="GillSans-Light" font-size="36.0" fill="#525252" transform="matrix(1.00, 0.00, -0.00, -1.00, 501.8, 331.0)">d</text><text xml:space="preserve" font-family="GillSans-Light" font-size="36.0" fill="#525252" transform="matrix(1.00, 0.00, -0.00, -1.00, 520.1, 331.0)">i</text><text xml:space="preserve" font-family="GillSans-Light" font-size="36.0" fill="#525252" transform="matrix(1.00, 0.00, -0.00, -1.00, 526.9, 331.0)">n</text><text xml:space="preserve" font-family="GillSans-Light" font-size="36.0" fill="#525252" transform="matrix(1.00, 0.00, -0.00, -1.00, 544.6, 331.0)">g</text><text xml:space="preserve" font-family="GillSans-Light" font-size="36.0" fill="#525252" transform="matrix(1.00, 0.00, -0.00, -1.00, 559.9, 331.0)"> </text><text xml:space="preserve" font-family="GillSans-Light" font-size="36.0" fill="#525252" transform="matrix(1.00, 0.00, -0.00, -1.00, 569.9, 331.0)">t</text><text xml:space="preserve" font-family="GillSans-Light" font-size="36.0" fill="#525252" transform="matrix(1.00, 0.00, -0.00, -1.00, 580.8, 331.0)">h</text><text xml:space="preserve" font-family="GillSans-Light" font-size="36.0" fill="#525252" transform="matrix(1.00, 0.00, -0.00, -1.00, 598.4, 331.0)">o</text><text xml:space="preserve" font-family="GillSans-Light" font-size="36.0" fill="#525252" transform="matrix(1.00, 0.00, -0.00, -1.00, 617.9, 331.0)">s</text><text xml:space="preserve" font-family="GillSans-Light" font-size="36.0" fill="#525252" transform="matrix(1.00, 0.00, -0.00, -1.00, 630.7, 331.0)">e</text><text xml:space="preserve" font-family="GillSans-Light" font-size="36.0" fill="#525252" transform="matrix(1.00, 0.00, -0.00, -1.00, 647.9, 331.0)"> </text><text xml:space="preserve" font-family="GillSans-Light" font-size="36.0" fill="#525252" transform="matrix(1.00, 0.00, -0.00, -1.00, 657.9, 331.0)">t</text><text xml:space="preserve" font-family="GillSans-Light" font-size="36.0" fill="#525252" transform="matrix(1.00, 0.00, -0.00, -1.00, 668.8, 331.0)">h</text><text xml:space="preserve" font-family="GillSans-Light" font-size="36.0" fill="#525252" transform="matrix(1.00, 0.00, -0.00, -1.00, 686.4, 331.0)">a</text><text xml:space="preserve" font-family="GillSans-Light" font-size="36.0" fill="#525252" transform="matrix(1.00, 0.00, -0.00, -1.00, 701.8, 331.0)">t</text><text xml:space="preserve" font-family="GillSans-Light" font-size="36.0" fill="#525252" transform="matrix(1.00, 0.00, -0.00, -1.00, 436.0, 290.0)">i</text><text xml:space="preserve" font-family="GillSans-Light" font-size="36.0" fill="#525252" transform="matrix(1.00, 0.00, -0.00, -1.00, 442.8, 290.0)">m</text><text xml:space="preserve" font-family="GillSans-Light" font-size="36.0" fill="#525252" transform="matrix(1.00, 0.00, -0.00, -1.00, 470.5, 290.0)">p</text><text xml:space="preserve" font-family="GillSans-Light" font-size="36.0" fill="#525252" transform="matrix(1.00, 0.00, -0.00, -1.00, 488.9, 290.0)">a</text><text xml:space="preserve" font-family="GillSans-Light" font-size="36.0" fill="#525252" transform="matrix(1.00, 0.00, -0.00, -1.00, 504.2, 290.0)">c</text><text xml:space="preserve" font-family="GillSans-Light" font-size="36.0" fill="#525252" transform="matrix(1.00, 0.00, -0.00, -1.00, 519.2, 290.0)">t</text><text xml:space="preserve" font-family="GillSans-Light" font-size="36.0" fill="#525252" transform="matrix(1.00, 0.00, -0.00, -1.00, 530.1, 290.0)"> </text><text xml:space="preserve" font-family="GillSans-Light" font-size="36.0" fill="#525252" transform="matrix(1.00, 0.00, -0.00, -1.00, 540.1, 290.0)">P</text><text xml:space="preserve" font-family="GillSans-Light" font-size="36.0" fill="#525252" transform="matrix(1.00, 0.00, -0.00, -1.00, 558.4, 290.0)">E</text><text xml:space="preserve" font-family="GillSans-Light" font-size="36.0" fill="#525252" transform="matrix(1.00, 0.00, -0.00, -1.00, 576.1, 290.0)">I</text><text xml:space="preserve" font-family="GillSans-Light" font-size="36.0" fill="#525252" transform="matrix(1.00, 0.00, -0.00, -1.00, 583.6, 290.0)">.</text><text xml:space="preserve" font-family="GillSans-Light" font-size="36.0" fill="#525252" transform="matrix(1.00, 0.00, -0.00, -1.00, 587.0, 290.0)"> </text></g></svg>