<?xml version="1.0" encoding="UTF-8" standalone="no"?><svg xmlns="http://www.w3.org/2000/svg" xmlns:xlink="http://www.w3.org/1999/xlink" clip-rule="evenodd" stroke-miterlimit="4.00" viewBox="0 0 1024 768"><desc>SVG generated by Keynote</desc><defs></defs><g transform="matrix(1.00, 0.00, -0.00, -1.00, 0.0, 768.0)"><g><clipPath id="clip-761"><path d="M 0.0 768.0 L 1024.0 768.0 L 1024.0 0.0 L 0.0 0.0 Z M 0.0 768.0 "></path></clipPath><g clip-path="url(#clip-761)"><image xlink:href="../../E8782ACA-0DD6-462E-AFA6-8D26C4A2FECE/assets/107E65D87114B546DB29000410A7B5AF.jpeg" width="1024.00" height="768.00" transform="matrix(1.00, 0.00, -0.00, -1.00, 0.0, 768.0)"></image></g></g><g><clipPath id="clip-762"><path d="M 573.0 427.0 L 933.0 427.0 L 933.0 165.0 L 573.0 165.0 Z M 573.1 426.5 "></path></clipPath><g clip-path="url(#clip-762)"><image xlink:href="6ED367A60B5340D06C4DB252D76B4E3A.jpeg" width="397.00" height="262.00" transform="matrix(1.00, 0.00, -0.00, -1.00, 555.0, 426.0)"></image></g></g><g><clipPath id="clip-763"><path d="M 573.0 728.0 L 933.0 728.0 L 933.0 466.0 L 573.0 466.0 Z M 573.1 728.0 "></path></clipPath><g clip-path="url(#clip-763)"><image xlink:href="899CAE9E0BAF3B1C0EE73B65858F7D63.jpeg" width="393.00" height="261.00" transform="matrix(1.00, 0.00, -0.00, -1.00, 557.0, 728.0)"></image></g></g><g><clipPath id="clip-764"><path d="M 84.0 728.0 L 458.0 728.0 L 458.0 165.0 L 84.0 165.0 Z M 83.8 728.0 "></path></clipPath><g clip-path="url(#clip-764)"><image xlink:href="0A5FB88EA893E6EC54423A81299DB562.jpeg" width="752.00" height="564.00" transform="matrix(1.00, 0.00, -0.00, -1.00, -105.0, 728.0)"></image></g></g><text xml:space="preserve" font-family="GillSans-Light" font-size="24.0" fill="#525252" transform="matrix(1.00, 0.00, -0.00, -1.00, 798.0, 70.0)">P</text><text xml:space="preserve" font-family="GillSans-Light" font-size="24.0" fill="#525252" transform="matrix(1.00, 0.00, -0.00, -1.00, 810.2, 70.0)">h</text><text xml:space="preserve" font-family="GillSans-Light" font-size="24.0" fill="#525252" transform="matrix(1.00, 0.00, -0.00, -1.00, 822.0, 70.0)">o</text><text xml:space="preserve" font-family="GillSans-Light" font-size="24.0" fill="#525252" transform="matrix(1.00, 0.00, -0.00, -1.00, 835.0, 70.0)">t</text><text xml:space="preserve" font-family="GillSans-Light" font-size="24.0" fill="#525252" transform="matrix(1.00, 0.00, -0.00, -1.00, 842.2, 70.0)">o</text><text xml:space="preserve" font-family="GillSans-Light" font-size="24.0" fill="#525252" transform="matrix(1.00, 0.00, -0.00, -1.00, 855.3, 70.0)"> </text><text xml:space="preserve" font-family="GillSans-Light" font-size="24.0" fill="#525252" transform="matrix(1.00, 0.00, -0.00, -1.00, 861.9, 70.0)">C</text><text xml:space="preserve" font-family="GillSans-Light" font-size="24.0" fill="#525252" transform="matrix(1.00, 0.00, -0.00, -1.00, 878.2, 70.0)">r</text><text xml:space="preserve" font-family="GillSans-Light" font-size="24.0" fill="#525252" transform="matrix(1.00, 0.00, -0.00, -1.00, 886.1, 70.0)">e</text><text xml:space="preserve" font-family="GillSans-Light" font-size="24.0" fill="#525252" transform="matrix(1.00, 0.00, -0.00, -1.00, 897.6, 70.0)">d</text><text xml:space="preserve" font-family="GillSans-Light" font-size="24.0" fill="#525252" transform="matrix(1.00, 0.00, -0.00, -1.00, 909.9, 70.0)">i</text><text xml:space="preserve" font-family="GillSans-Light" font-size="24.0" fill="#525252" transform="matrix(1.00, 0.00, -0.00, -1.00, 914.4, 70.0)">t</text><text xml:space="preserve" font-family="GillSans-Light" font-size="24.0" fill="#525252" transform="matrix(1.00, 0.00, -0.00, -1.00, 921.6, 70.0)">s</text><g><clipPath id="clip-765"><path d="M 797.4 66.8 L 930.6 66.8 L 930.6 70.0 L 797.4 70.0 Z M 797.4 66.8 "></path></clipPath><g clip-path="url(#clip-765)"><path d="M 4.5 28.1 L 136.6 28.1 " fill="none" stroke="#525252" stroke-width="1.20" stroke-miterlimit="0.00" transform="matrix(1.00, 0.00, 0.00, -1.00, 793.9, 96.5)"></path></g></g></g></svg>