<?xml version="1.0" encoding="UTF-8" standalone="no"?><svg xmlns="http://www.w3.org/2000/svg" xmlns:xlink="http://www.w3.org/1999/xlink" clip-rule="evenodd" stroke-miterlimit="4.00" viewBox="0 0 1024 768"><desc>SVG generated by Keynote</desc><defs></defs><g transform="matrix(1.00, 0.00, -0.00, -1.00, 0.0, 768.0)"><g><clipPath id="clip-161"><path d="M 0.0 768.0 L 1024.0 768.0 L 1024.0 0.0 L 0.0 0.0 Z M 0.0 768.0 "></path></clipPath><g clip-path="url(#clip-161)"><image xlink:href="../../E8782ACA-0DD6-462E-AFA6-8D26C4A2FECE/assets/107E65D87114B546DB29000410A7B5AF.jpeg" width="1024.00" height="768.00" transform="matrix(1.00, 0.00, -0.00, -1.00, 0.0, 768.0)"></image></g></g><g><clipPath id="clip-162"><path d="M 573.0 427.0 L 933.0 427.0 L 933.0 165.0 L 573.0 165.0 Z M 573.1 426.5 "></path></clipPath><g clip-path="url(#clip-162)"><image xlink:href="../../F660DC62-258D-4F40-BC0F-1582621FC6EA/assets/6ED367A60B5340D06C4DB252D76B4E3A.jpeg" width="397.00" height="262.00" transform="matrix(1.00, 0.00, -0.00, -1.00, 555.0, 426.0)"></image></g></g><g><clipPath id="clip-163"><path d="M 573.0 728.0 L 933.0 728.0 L 933.0 466.0 L 573.0 466.0 Z M 573.1 728.0 "></path></clipPath><g clip-path="url(#clip-163)"><image xlink:href="../../F660DC62-258D-4F40-BC0F-1582621FC6EA/assets/899CAE9E0BAF3B1C0EE73B65858F7D63.jpeg" width="393.00" height="261.00" transform="matrix(1.00, 0.00, -0.00, -1.00, 557.0, 728.0)"></image></g></g><g><clipPath id="clip-164"><path d="M 84.0 728.0 L 458.0 728.0 L 458.0 165.0 L 84.0 165.0 Z M 83.8 728.0 "></path></clipPath><g clip-path="url(#clip-164)"><image xlink:href="../../F660DC62-258D-4F40-BC0F-1582621FC6EA/assets/0A5FB88EA893E6EC54423A81299DB562.jpeg" width="752.00" height="564.00" transform="matrix(1.00, 0.00, -0.00, -1.00, -105.0, 728.0)"></image></g></g><image xlink:href="../../F660DC62-258D-4F40-BC0F-1582621FC6EA/assets/1B1511E03831E1A97EC40D3FDD962D61.png" width="168.00" height="19.00" transform="matrix(1.00, 0.00, -0.00, -1.00, 372.0, 143.0)"></image><text xml:space="preserve" font-family="AvenirNext-MediumItalic" font-style="italic" font-size="17.0" fill="#5D514B" transform="matrix(1.00, 0.00, -0.00, -1.00, 374.0, 129.0)">P</text><text xml:space="preserve" font-family="AvenirNext-MediumItalic" font-style="italic" font-size="17.0" fill="#5D514B" transform="matrix(1.00, 0.00, -0.00, -1.00, 383.1, 129.0)">a</text><text xml:space="preserve" font-family="AvenirNext-MediumItalic" font-style="italic" font-size="17.0" fill="#5D514B" transform="matrix(1.00, 0.00, -0.00, -1.00, 392.2, 129.0)">s</text><text xml:space="preserve" font-family="AvenirNext-MediumItalic" font-style="italic" font-size="17.0" fill="#5D514B" transform="matrix(1.00, 0.00, -0.00, -1.00, 399.8, 129.0)">s</text><text xml:space="preserve" font-family="AvenirNext-MediumItalic" font-style="italic" font-size="17.0" fill="#5D514B" transform="matrix(1.00, 0.00, -0.00, -1.00, 407.3, 129.0)">e</text><text xml:space="preserve" font-family="AvenirNext-MediumItalic" font-style="italic" font-size="17.0" fill="#5D514B" transform="matrix(1.00, 0.00, -0.00, -1.00, 416.9, 129.0)">d</text><text xml:space="preserve" font-family="AvenirNext-MediumItalic" font-style="italic" font-size="17.0" fill="#5D514B" transform="matrix(1.00, 0.00, -0.00, -1.00, 427.6, 129.0)"> </text><text xml:space="preserve" font-family="AvenirNext-MediumItalic" font-style="italic" font-size="17.0" fill="#5D514B" transform="matrix(1.00, 0.00, -0.00, -1.00, 431.9, 129.0)">O</text><text xml:space="preserve" font-family="AvenirNext-MediumItalic" font-style="italic" font-size="17.0" fill="#5D514B" transform="matrix(1.00, 0.00, -0.00, -1.00, 446.0, 129.0)">u</text><text xml:space="preserve" font-family="AvenirNext-MediumItalic" font-style="italic" font-size="17.0" fill="#5D514B" transform="matrix(1.00, 0.00, -0.00, -1.00, 455.9, 129.0)">t</text><text xml:space="preserve" font-family="AvenirNext-MediumItalic" font-style="italic" font-size="17.0" fill="#5D514B" transform="matrix(1.00, 0.00, -0.00, -1.00, 461.4, 129.0)"> </text><text xml:space="preserve" font-family="AvenirNext-MediumItalic" font-style="italic" font-size="17.0" fill="#5D514B" transform="matrix(1.00, 0.00, -0.00, -1.00, 465.3, 129.0)">A</text><text xml:space="preserve" font-family="AvenirNext-MediumItalic" font-style="italic" font-size="17.0" fill="#5D514B" transform="matrix(1.00, 0.00, -0.00, -1.00, 476.9, 129.0)">l</text><text xml:space="preserve" font-family="AvenirNext-MediumItalic" font-style="italic" font-size="17.0" fill="#5D514B" transform="matrix(1.00, 0.00, -0.00, -1.00, 481.3, 129.0)">a</text><text xml:space="preserve" font-family="AvenirNext-MediumItalic" font-style="italic" font-size="17.0" fill="#5D514B" transform="matrix(1.00, 0.00, -0.00, -1.00, 490.4, 129.0)">s</text><text xml:space="preserve" font-family="AvenirNext-MediumItalic" font-style="italic" font-size="17.0" fill="#5D514B" transform="matrix(1.00, 0.00, -0.00, -1.00, 498.0, 129.0)">d</text><text xml:space="preserve" font-family="AvenirNext-MediumItalic" font-style="italic" font-size="17.0" fill="#5D514B" transform="matrix(1.00, 0.00, -0.00, -1.00, 508.7, 129.0)">a</text><text xml:space="preserve" font-family="AvenirNext-MediumItalic" font-style="italic" font-size="17.0" fill="#5D514B" transform="matrix(1.00, 0.00, -0.00, -1.00, 517.8, 129.0)">i</text><text xml:space="preserve" font-family="AvenirNext-MediumItalic" font-style="italic" font-size="17.0" fill="#5D514B" transform="matrix(1.00, 0.00, -0.00, -1.00, 522.2, 129.0)">r</text><text xml:space="preserve" font-family="AvenirNext-MediumItalic" font-style="italic" font-size="17.0" fill="#5D514B" transform="matrix(1.00, 0.00, -0.00, -1.00, 528.0, 129.0)">!</text><text xml:space="preserve" font-family="AvenirNext-MediumItalic" font-style="italic" font-size="17.0" fill="#5D514B" transform="matrix(1.00, 0.00, -0.00, -1.00, 532.9, 129.0)">!</text><image xlink:href="../../F660DC62-258D-4F40-BC0F-1582621FC6EA/assets/5CAC4DBB8570416119F4533DCBEF568F.png" width="114.00" height="23.00" transform="matrix(1.00, 0.00, -0.00, -1.00, 539.0, 143.0)"></image><text xml:space="preserve" font-family="AvenirNext-MediumItalic" font-style="italic" font-size="17.0" fill="#5D514B" transform="matrix(1.00, 0.00, -0.00, -1.00, 537.8, 129.0)"> </text><text xml:space="preserve" font-family="AvenirNext-MediumItalic" font-style="italic" font-size="17.0" fill="#5D514B" transform="matrix(1.00, 0.00, -0.00, -1.00, 542.0, 129.0)">,</text><text xml:space="preserve" font-family="AvenirNext-MediumItalic" font-style="italic" font-size="17.0" fill="#5D514B" transform="matrix(1.00, 0.00, -0.00, -1.00, 545.9, 129.0)"> </text><text xml:space="preserve" font-family="AvenirNext-MediumItalic" font-style="italic" font-size="17.0" fill="#5D514B" transform="matrix(1.00, 0.00, -0.00, -1.00, 550.2, 129.0)">R</text><text xml:space="preserve" font-family="AvenirNext-MediumItalic" font-style="italic" font-size="17.0" fill="#5D514B" transform="matrix(1.00, 0.00, -0.00, -1.00, 560.6, 129.0)">i</text><text xml:space="preserve" font-family="AvenirNext-MediumItalic" font-style="italic" font-size="17.0" fill="#5D514B" transform="matrix(1.00, 0.00, -0.00, -1.00, 565.0, 129.0)">c</text><text xml:space="preserve" font-family="AvenirNext-MediumItalic" font-style="italic" font-size="17.0" fill="#5D514B" transform="matrix(1.00, 0.00, -0.00, -1.00, 573.4, 129.0)">h</text><text xml:space="preserve" font-family="AvenirNext-MediumItalic" font-style="italic" font-size="17.0" fill="#5D514B" transform="matrix(1.00, 0.00, -0.00, -1.00, 583.3, 129.0)">a</text><text xml:space="preserve" font-family="AvenirNext-MediumItalic" font-style="italic" font-size="17.0" fill="#5D514B" transform="matrix(1.00, 0.00, -0.00, -1.00, 592.4, 129.0)">r</text><text xml:space="preserve" font-family="AvenirNext-MediumItalic" font-style="italic" font-size="17.0" fill="#5D514B" transform="matrix(1.00, 0.00, -0.00, -1.00, 598.1, 129.0)">d</text><text xml:space="preserve" font-family="AvenirNext-MediumItalic" font-style="italic" font-size="17.0" fill="#5D514B" transform="matrix(1.00, 0.00, -0.00, -1.00, 608.7, 129.0)"> </text><text xml:space="preserve" font-family="AvenirNext-MediumItalic" font-style="italic" font-size="17.0" fill="#5D514B" transform="matrix(1.00, 0.00, -0.00, -1.00, 613.0, 129.0)">R</text><text xml:space="preserve" font-family="AvenirNext-MediumItalic" font-style="italic" font-size="17.0" fill="#5D514B" transform="matrix(1.00, 0.00, -0.00, -1.00, 623.4, 129.0)">i</text><text xml:space="preserve" font-family="AvenirNext-MediumItalic" font-style="italic" font-size="17.0" fill="#5D514B" transform="matrix(1.00, 0.00, -0.00, -1.00, 627.8, 129.0)">l</text><text xml:space="preserve" font-family="AvenirNext-MediumItalic" font-style="italic" font-size="17.0" fill="#5D514B" transform="matrix(1.00, 0.00, -0.00, -1.00, 632.2, 129.0)">e</text><text xml:space="preserve" font-family="AvenirNext-MediumItalic" font-style="italic" font-size="17.0" fill="#5D514B" transform="matrix(1.00, 0.00, -0.00, -1.00, 641.8, 129.0)">y</text><text xml:space="preserve" font-family="AvenirNext-MediumItalic" font-style="italic" font-size="17.0" fill="#5D514B" transform="matrix(1.00, 0.00, -0.00, -1.00, 650.2, 129.0)"> </text><g><clipPath id="clip-165"><path d="M 372.9 126.0 L 537.7 126.0 L 537.7 128.9 L 372.9 128.9 Z M 372.9 126.0 "></path></clipPath><g clip-path="url(#clip-165)"><path d="M 10.9 22.1 L 174.7 22.1 " fill="none" stroke="#5D514B" stroke-width="0.85" stroke-miterlimit="0.00" transform="matrix(1.00, 0.00, 0.00, -1.00, 363.0, 149.5)"></path></g></g><image xlink:href="../../CEA0FD8A-F045-46A8-B37B-5006F73EBC42/assets/E91B3CDB46CF1215239A28CD98D6C32D.png" width="80.00" height="19.00" transform="matrix(1.00, 0.00, -0.00, -1.00, 789.0, 143.0)"></image><text xml:space="preserve" font-family="AvenirNext-MediumItalic" font-style="italic" font-size="17.0" fill="#5D514B" transform="matrix(1.00, 0.00, -0.00, -1.00, 791.0, 129.0)">C</text><text xml:space="preserve" font-family="AvenirNext-MediumItalic" font-style="italic" font-size="17.0" fill="#5D514B" transform="matrix(1.00, 0.00, -0.00, -1.00, 802.7, 129.0)">C</text><text xml:space="preserve" font-family="AvenirNext-MediumItalic" font-style="italic" font-size="17.0" fill="#5D514B" transform="matrix(1.00, 0.00, -0.00, -1.00, 814.6, 129.0)"> </text><text xml:space="preserve" font-family="AvenirNext-MediumItalic" font-style="italic" font-size="17.0" fill="#5D514B" transform="matrix(1.00, 0.00, -0.00, -1.00, 818.8, 129.0)">B</text><text xml:space="preserve" font-family="AvenirNext-MediumItalic" font-style="italic" font-size="17.0" fill="#5D514B" transform="matrix(1.00, 0.00, -0.00, -1.00, 829.5, 129.0)">Y</text><text xml:space="preserve" font-family="AvenirNext-MediumItalic" font-style="italic" font-size="17.0" fill="#5D514B" transform="matrix(1.00, 0.00, -0.00, -1.00, 838.6, 129.0)"> </text><text xml:space="preserve" font-family="AvenirNext-MediumItalic" font-style="italic" font-size="17.0" fill="#5D514B" transform="matrix(1.00, 0.00, -0.00, -1.00, 842.9, 129.0)">2</text><text xml:space="preserve" font-family="AvenirNext-MediumItalic" font-style="italic" font-size="17.0" fill="#5D514B" transform="matrix(1.00, 0.00, -0.00, -1.00, 853.0, 129.0)">.</text><text xml:space="preserve" font-family="AvenirNext-MediumItalic" font-style="italic" font-size="17.0" fill="#5D514B" transform="matrix(1.00, 0.00, -0.00, -1.00, 857.4, 129.0)">0</text><g><clipPath id="clip-166"><path d="M 789.7 126.0 L 867.3 126.0 L 867.3 128.9 L 789.7 128.9 Z M 789.7 126.0 "></path></clipPath><g clip-path="url(#clip-166)"><path d="M 110.8 22.1 L 187.3 22.1 " fill="none" stroke="#5D514B" stroke-width="0.85" stroke-miterlimit="0.00" transform="matrix(1.00, 0.00, 0.00, -1.00, 680.0, 149.5)"></path></g></g><image xlink:href="../../F660DC62-258D-4F40-BC0F-1582621FC6EA/assets/A222BAD5438071982292BCB4170E5836.png" width="115.00" height="23.00" transform="matrix(1.00, 0.00, -0.00, -1.00, 393.0, 97.0)"></image><text xml:space="preserve" font-family="AvenirNext-MediumItalic" font-style="italic" font-size="17.0" fill="#5D514B" transform="matrix(1.00, 0.00, -0.00, -1.00, 396.0, 83.0)">y</text><text xml:space="preserve" font-family="AvenirNext-MediumItalic" font-style="italic" font-size="17.0" fill="#5D514B" transform="matrix(1.00, 0.00, -0.00, -1.00, 404.4, 83.0)">a</text><text xml:space="preserve" font-family="AvenirNext-MediumItalic" font-style="italic" font-size="17.0" fill="#5D514B" transform="matrix(1.00, 0.00, -0.00, -1.00, 413.5, 83.0)">w</text><text xml:space="preserve" font-family="AvenirNext-MediumItalic" font-style="italic" font-size="17.0" fill="#5D514B" transform="matrix(1.00, 0.00, -0.00, -1.00, 426.4, 83.0)">n</text><text xml:space="preserve" font-family="AvenirNext-MediumItalic" font-style="italic" font-size="17.0" fill="#5D514B" transform="matrix(1.00, 0.00, -0.00, -1.00, 436.3, 83.0)">i</text><text xml:space="preserve" font-family="AvenirNext-MediumItalic" font-style="italic" font-size="17.0" fill="#5D514B" transform="matrix(1.00, 0.00, -0.00, -1.00, 440.7, 83.0)">n</text><text xml:space="preserve" font-family="AvenirNext-MediumItalic" font-style="italic" font-size="17.0" fill="#5D514B" transform="matrix(1.00, 0.00, -0.00, -1.00, 450.6, 83.0)">g</text><text xml:space="preserve" font-family="AvenirNext-MediumItalic" font-style="italic" font-size="17.0" fill="#5D514B" transform="matrix(1.00, 0.00, -0.00, -1.00, 461.3, 83.0)"> </text><text xml:space="preserve" font-family="AvenirNext-MediumItalic" font-style="italic" font-size="17.0" fill="#5D514B" transform="matrix(1.00, 0.00, -0.00, -1.00, 465.6, 83.0)">b</text><text xml:space="preserve" font-family="AvenirNext-MediumItalic" font-style="italic" font-size="17.0" fill="#5D514B" transform="matrix(1.00, 0.00, -0.00, -1.00, 476.3, 83.0)">a</text><text xml:space="preserve" font-family="AvenirNext-MediumItalic" font-style="italic" font-size="17.0" fill="#5D514B" transform="matrix(1.00, 0.00, -0.00, -1.00, 485.5, 83.0)">b</text><text xml:space="preserve" font-family="AvenirNext-MediumItalic" font-style="italic" font-size="17.0" fill="#5D514B" transform="matrix(1.00, 0.00, -0.00, -1.00, 496.2, 83.0)">y</text><image xlink:href="../../F660DC62-258D-4F40-BC0F-1582621FC6EA/assets/92428B2D1DBECC27CD141D6496D821FE.png" width="124.00" height="21.00" transform="matrix(1.00, 0.00, -0.00, -1.00, 506.0, 97.0)"></image><text xml:space="preserve" font-family="AvenirNext-MediumItalic" font-style="italic" font-size="17.0" fill="#5D514B" transform="matrix(1.00, 0.00, -0.00, -1.00, 504.6, 83.0)"> </text><text xml:space="preserve" font-family="AvenirNext-MediumItalic" font-style="italic" font-size="17.0" fill="#5D514B" transform="matrix(1.00, 0.00, -0.00, -1.00, 508.9, 83.0)">,</text><text xml:space="preserve" font-family="AvenirNext-MediumItalic" font-style="italic" font-size="17.0" fill="#5D514B" transform="matrix(1.00, 0.00, -0.00, -1.00, 512.8, 83.0)"> </text><text xml:space="preserve" font-family="AvenirNext-MediumItalic" font-style="italic" font-size="17.0" fill="#5D514B" transform="matrix(1.00, 0.00, -0.00, -1.00, 517.0, 83.0)">H</text><text xml:space="preserve" font-family="AvenirNext-MediumItalic" font-style="italic" font-size="17.0" fill="#5D514B" transform="matrix(1.00, 0.00, -0.00, -1.00, 529.3, 83.0)">a</text><text xml:space="preserve" font-family="AvenirNext-MediumItalic" font-style="italic" font-size="17.0" fill="#5D514B" transform="matrix(1.00, 0.00, -0.00, -1.00, 538.4, 83.0)">r</text><text xml:space="preserve" font-family="AvenirNext-MediumItalic" font-style="italic" font-size="17.0" fill="#5D514B" transform="matrix(1.00, 0.00, -0.00, -1.00, 544.0, 83.0)">a</text><text xml:space="preserve" font-family="AvenirNext-MediumItalic" font-style="italic" font-size="17.0" fill="#5D514B" transform="matrix(1.00, 0.00, -0.00, -1.00, 553.1, 83.0)">l</text><text xml:space="preserve" font-family="AvenirNext-MediumItalic" font-style="italic" font-size="17.0" fill="#5D514B" transform="matrix(1.00, 0.00, -0.00, -1.00, 557.6, 83.0)">d</text><text xml:space="preserve" font-family="AvenirNext-MediumItalic" font-style="italic" font-size="17.0" fill="#5D514B" transform="matrix(1.00, 0.00, -0.00, -1.00, 568.2, 83.0)"> </text><text xml:space="preserve" font-family="AvenirNext-MediumItalic" font-style="italic" font-size="17.0" fill="#5D514B" transform="matrix(1.00, 0.00, -0.00, -1.00, 572.5, 83.0)">G</text><text xml:space="preserve" font-family="AvenirNext-MediumItalic" font-style="italic" font-size="17.0" fill="#5D514B" transform="matrix(1.00, 0.00, -0.00, -1.00, 585.3, 83.0)">r</text><text xml:space="preserve" font-family="AvenirNext-MediumItalic" font-style="italic" font-size="17.0" fill="#5D514B" transform="matrix(1.00, 0.00, -0.00, -1.00, 591.0, 83.0)">o</text><text xml:space="preserve" font-family="AvenirNext-MediumItalic" font-style="italic" font-size="17.0" fill="#5D514B" transform="matrix(1.00, 0.00, -0.00, -1.00, 601.2, 83.0)">v</text><text xml:space="preserve" font-family="AvenirNext-MediumItalic" font-style="italic" font-size="17.0" fill="#5D514B" transform="matrix(1.00, 0.00, -0.00, -1.00, 609.5, 83.0)">e</text><text xml:space="preserve" font-family="AvenirNext-MediumItalic" font-style="italic" font-size="17.0" fill="#5D514B" transform="matrix(1.00, 0.00, -0.00, -1.00, 619.1, 83.0)">n</text><text xml:space="preserve" font-family="AvenirNext-MediumItalic" font-style="italic" font-size="17.0" fill="#5D514B" transform="matrix(1.00, 0.00, -0.00, -1.00, 629.0, 83.0)"> </text><g><clipPath id="clip-167"><path d="M 394.5 79.9 L 504.1 79.9 L 504.1 82.7 L 394.5 82.7 Z M 394.5 79.9 "></path></clipPath><g clip-path="url(#clip-167)"><path d="M 32.6 22.1 L 141.2 22.1 " fill="none" stroke="#5D514B" stroke-width="0.85" stroke-miterlimit="0.00" transform="matrix(1.00, 0.00, 0.00, -1.00, 363.0, 103.4)"></path></g></g><image xlink:href="../../EA0EADA9-572A-470F-9C2B-1D938DA38446/assets/0B04E13C47BED5C167889AA98ECCBD1A.png" width="106.00" height="19.00" transform="matrix(1.00, 0.00, -0.00, -1.00, 776.0, 97.0)"></image><text xml:space="preserve" font-family="AvenirNext-MediumItalic" font-style="italic" font-size="17.0" fill="#5D514B" transform="matrix(1.00, 0.00, -0.00, -1.00, 778.0, 83.0)">C</text><text xml:space="preserve" font-family="AvenirNext-MediumItalic" font-style="italic" font-size="17.0" fill="#5D514B" transform="matrix(1.00, 0.00, -0.00, -1.00, 789.7, 83.0)">C</text><text xml:space="preserve" font-family="AvenirNext-MediumItalic" font-style="italic" font-size="17.0" fill="#5D514B" transform="matrix(1.00, 0.00, -0.00, -1.00, 801.6, 83.0)"> </text><text xml:space="preserve" font-family="AvenirNext-MediumItalic" font-style="italic" font-size="17.0" fill="#5D514B" transform="matrix(1.00, 0.00, -0.00, -1.00, 805.8, 83.0)">B</text><text xml:space="preserve" font-family="AvenirNext-MediumItalic" font-style="italic" font-size="17.0" fill="#5D514B" transform="matrix(1.00, 0.00, -0.00, -1.00, 816.5, 83.0)">Y</text><text xml:space="preserve" font-family="AvenirNext-MediumItalic" font-style="italic" font-size="17.0" fill="#5D514B" transform="matrix(1.00, 0.00, -0.00, -1.00, 825.0, 83.0)">-</text><text xml:space="preserve" font-family="AvenirNext-MediumItalic" font-style="italic" font-size="17.0" fill="#5D514B" transform="matrix(1.00, 0.00, -0.00, -1.00, 830.2, 83.0)">S</text><text xml:space="preserve" font-family="AvenirNext-MediumItalic" font-style="italic" font-size="17.0" fill="#5D514B" transform="matrix(1.00, 0.00, -0.00, -1.00, 839.9, 83.0)">A</text><text xml:space="preserve" font-family="AvenirNext-MediumItalic" font-style="italic" font-size="17.0" fill="#5D514B" transform="matrix(1.00, 0.00, -0.00, -1.00, 851.2, 83.0)"> </text><text xml:space="preserve" font-family="AvenirNext-MediumItalic" font-style="italic" font-size="17.0" fill="#5D514B" transform="matrix(1.00, 0.00, -0.00, -1.00, 855.4, 83.0)">2</text><text xml:space="preserve" font-family="AvenirNext-MediumItalic" font-style="italic" font-size="17.0" fill="#5D514B" transform="matrix(1.00, 0.00, -0.00, -1.00, 865.5, 83.0)">.</text><text xml:space="preserve" font-family="AvenirNext-MediumItalic" font-style="italic" font-size="17.0" fill="#5D514B" transform="matrix(1.00, 0.00, -0.00, -1.00, 870.0, 83.0)">0</text><g><clipPath id="clip-168"><path d="M 777.0 79.9 L 880.0 79.9 L 880.0 82.7 L 777.0 82.7 Z M 777.0 79.9 "></path></clipPath><g clip-path="url(#clip-168)"><path d="M 98.0 22.1 L 200.1 22.1 " fill="none" stroke="#5D514B" stroke-width="0.85" stroke-miterlimit="0.00" transform="matrix(1.00, 0.00, 0.00, -1.00, 680.0, 103.4)"></path></g></g><image xlink:href="../../F660DC62-258D-4F40-BC0F-1582621FC6EA/assets/8D0FC2E20854D6E59070DAD3F2645887.png" width="585.00" height="5.00" transform="matrix(1.00, 0.00, -0.00, -1.00, 343.9, 111.4)" opacity="0.72"></image><path d="M 0.0 0.0 L 580.6 0.0 " fill="none" stroke="#565450" stroke-opacity="0.90" stroke-width="1.00" transform="matrix(1.00, 0.00, 0.00, -1.00, 346.0, 110.9)"></path><image xlink:href="../../F660DC62-258D-4F40-BC0F-1582621FC6EA/assets/8D0FC2E20854D6E59070DAD3F2645887.png" width="585.00" height="5.00" transform="matrix(1.00, 0.00, -0.00, -1.00, 343.9, 65.3)" opacity="0.72"></image><path d="M 0.0 0.0 L 580.6 0.0 " fill="none" stroke="#565450" stroke-opacity="0.90" stroke-width="1.00" transform="matrix(1.00, 0.00, 0.00, -1.00, 346.0, 64.8)"></path><image xlink:href="../../F660DC62-258D-4F40-BC0F-1582621FC6EA/assets/BF0E9904170B13D42BD204C205AD500A.png" width="174.00" height="23.00" transform="matrix(1.00, 0.00, -0.00, -1.00, 389.0, 50.0)"></image><text xml:space="preserve" font-family="AvenirNext-MediumItalic" font-style="italic" font-size="17.0" fill="#5D514B" transform="matrix(1.00, 0.00, -0.00, -1.00, 391.0, 36.0)">L</text><text xml:space="preserve" font-family="AvenirNext-MediumItalic" font-style="italic" font-size="17.0" fill="#5D514B" transform="matrix(1.00, 0.00, -0.00, -1.00, 399.7, 36.0)">a</text><text xml:space="preserve" font-family="AvenirNext-MediumItalic" font-style="italic" font-size="17.0" fill="#5D514B" transform="matrix(1.00, 0.00, -0.00, -1.00, 408.8, 36.0)">z</text><text xml:space="preserve" font-family="AvenirNext-MediumItalic" font-style="italic" font-size="17.0" fill="#5D514B" transform="matrix(1.00, 0.00, -0.00, -1.00, 416.7, 36.0)">y</text><text xml:space="preserve" font-family="AvenirNext-MediumItalic" font-style="italic" font-size="17.0" fill="#5D514B" transform="matrix(1.00, 0.00, -0.00, -1.00, 425.1, 36.0)"> </text><text xml:space="preserve" font-family="AvenirNext-MediumItalic" font-style="italic" font-size="17.0" fill="#5D514B" transform="matrix(1.00, 0.00, -0.00, -1.00, 429.0, 36.0)">A</text><text xml:space="preserve" font-family="AvenirNext-MediumItalic" font-style="italic" font-size="17.0" fill="#5D514B" transform="matrix(1.00, 0.00, -0.00, -1.00, 440.6, 36.0)">f</text><text xml:space="preserve" font-family="AvenirNext-MediumItalic" font-style="italic" font-size="17.0" fill="#5D514B" transform="matrix(1.00, 0.00, -0.00, -1.00, 445.6, 36.0)">t</text><text xml:space="preserve" font-family="AvenirNext-MediumItalic" font-style="italic" font-size="17.0" fill="#5D514B" transform="matrix(1.00, 0.00, -0.00, -1.00, 451.1, 36.0)">e</text><text xml:space="preserve" font-family="AvenirNext-MediumItalic" font-style="italic" font-size="17.0" fill="#5D514B" transform="matrix(1.00, 0.00, -0.00, -1.00, 460.8, 36.0)">r</text><text xml:space="preserve" font-family="AvenirNext-MediumItalic" font-style="italic" font-size="17.0" fill="#5D514B" transform="matrix(1.00, 0.00, -0.00, -1.00, 466.6, 36.0)">n</text><text xml:space="preserve" font-family="AvenirNext-MediumItalic" font-style="italic" font-size="17.0" fill="#5D514B" transform="matrix(1.00, 0.00, -0.00, -1.00, 476.5, 36.0)">o</text><text xml:space="preserve" font-family="AvenirNext-MediumItalic" font-style="italic" font-size="17.0" fill="#5D514B" transform="matrix(1.00, 0.00, -0.00, -1.00, 486.7, 36.0)">o</text><text xml:space="preserve" font-family="AvenirNext-MediumItalic" font-style="italic" font-size="17.0" fill="#5D514B" transform="matrix(1.00, 0.00, -0.00, -1.00, 496.9, 36.0)">n</text><text xml:space="preserve" font-family="AvenirNext-MediumItalic" font-style="italic" font-size="17.0" fill="#5D514B" transform="matrix(1.00, 0.00, -0.00, -1.00, 506.7, 36.0)"> </text><text xml:space="preserve" font-family="AvenirNext-MediumItalic" font-style="italic" font-size="17.0" fill="#5D514B" transform="matrix(1.00, 0.00, -0.00, -1.00, 511.0, 36.0)">D</text><text xml:space="preserve" font-family="AvenirNext-MediumItalic" font-style="italic" font-size="17.0" fill="#5D514B" transform="matrix(1.00, 0.00, -0.00, -1.00, 523.9, 36.0)">r</text><text xml:space="preserve" font-family="AvenirNext-MediumItalic" font-style="italic" font-size="17.0" fill="#5D514B" transform="matrix(1.00, 0.00, -0.00, -1.00, 529.7, 36.0)">i</text><text xml:space="preserve" font-family="AvenirNext-MediumItalic" font-style="italic" font-size="17.0" fill="#5D514B" transform="matrix(1.00, 0.00, -0.00, -1.00, 534.1, 36.0)">f</text><text xml:space="preserve" font-family="AvenirNext-MediumItalic" font-style="italic" font-size="17.0" fill="#5D514B" transform="matrix(1.00, 0.00, -0.00, -1.00, 539.1, 36.0)">t</text><text xml:space="preserve" font-family="AvenirNext-MediumItalic" font-style="italic" font-size="17.0" fill="#5D514B" transform="matrix(1.00, 0.00, -0.00, -1.00, 544.6, 36.0)">e</text><text xml:space="preserve" font-family="AvenirNext-MediumItalic" font-style="italic" font-size="17.0" fill="#5D514B" transform="matrix(1.00, 0.00, -0.00, -1.00, 554.3, 36.0)">r</text><image xlink:href="../../F660DC62-258D-4F40-BC0F-1582621FC6EA/assets/7792ED46F79C7F8289B02B88F5B7B2C9.png" width="74.00" height="19.00" transform="matrix(1.00, 0.00, -0.00, -1.00, 561.0, 48.0)"></image><text xml:space="preserve" font-family="AvenirNext-MediumItalic" font-style="italic" font-size="17.0" fill="#5D514B" transform="matrix(1.00, 0.00, -0.00, -1.00, 560.1, 36.0)"> </text><text xml:space="preserve" font-family="AvenirNext-MediumItalic" font-style="italic" font-size="17.0" fill="#5D514B" transform="matrix(1.00, 0.00, -0.00, -1.00, 564.3, 36.0)">,</text><text xml:space="preserve" font-family="AvenirNext-MediumItalic" font-style="italic" font-size="17.0" fill="#5D514B" transform="matrix(1.00, 0.00, -0.00, -1.00, 568.2, 36.0)"> </text><text xml:space="preserve" font-family="AvenirNext-MediumItalic" font-style="italic" font-size="17.0" fill="#5D514B" transform="matrix(1.00, 0.00, -0.00, -1.00, 572.5, 36.0)">c</text><text xml:space="preserve" font-family="AvenirNext-MediumItalic" font-style="italic" font-size="17.0" fill="#5D514B" transform="matrix(1.00, 0.00, -0.00, -1.00, 580.9, 36.0)">a</text><text xml:space="preserve" font-family="AvenirNext-MediumItalic" font-style="italic" font-size="17.0" fill="#5D514B" transform="matrix(1.00, 0.00, -0.00, -1.00, 590.1, 36.0)">r</text><text xml:space="preserve" font-family="AvenirNext-MediumItalic" font-style="italic" font-size="17.0" fill="#5D514B" transform="matrix(1.00, 0.00, -0.00, -1.00, 595.7, 36.0)">t</text><text xml:space="preserve" font-family="AvenirNext-MediumItalic" font-style="italic" font-size="17.0" fill="#5D514B" transform="matrix(1.00, 0.00, -0.00, -1.00, 601.2, 36.0)">e</text><text xml:space="preserve" font-family="AvenirNext-MediumItalic" font-style="italic" font-size="17.0" fill="#5D514B" transform="matrix(1.00, 0.00, -0.00, -1.00, 610.8, 36.0)">r</text><text xml:space="preserve" font-family="AvenirNext-MediumItalic" font-style="italic" font-size="17.0" fill="#5D514B" transform="matrix(1.00, 0.00, -0.00, -1.00, 616.6, 36.0)">s</text><text xml:space="preserve" font-family="AvenirNext-MediumItalic" font-style="italic" font-size="17.0" fill="#5D514B" transform="matrix(1.00, 0.00, -0.00, -1.00, 624.2, 36.0)">e</text><g><clipPath id="clip-169"><path d="M 389.6 33.7 L 559.7 33.7 L 559.7 36.6 L 389.6 36.6 Z M 389.6 33.7 "></path></clipPath><g clip-path="url(#clip-169)"><path d="M 27.7 22.1 L 196.7 22.1 " fill="none" stroke="#5D514B" stroke-width="0.85" stroke-miterlimit="0.00" transform="matrix(1.00, 0.00, 0.00, -1.00, 363.0, 57.2)"></path></g></g><image xlink:href="../../EA0EADA9-572A-470F-9C2B-1D938DA38446/assets/0B04E13C47BED5C167889AA98ECCBD1A.png" width="106.00" height="19.00" transform="matrix(1.00, 0.00, -0.00, -1.00, 776.0, 50.0)"></image><text xml:space="preserve" font-family="AvenirNext-MediumItalic" font-style="italic" font-size="17.0" fill="#5D514B" transform="matrix(1.00, 0.00, -0.00, -1.00, 778.0, 36.0)">C</text><text xml:space="preserve" font-family="AvenirNext-MediumItalic" font-style="italic" font-size="17.0" fill="#5D514B" transform="matrix(1.00, 0.00, -0.00, -1.00, 789.7, 36.0)">C</text><text xml:space="preserve" font-family="AvenirNext-MediumItalic" font-style="italic" font-size="17.0" fill="#5D514B" transform="matrix(1.00, 0.00, -0.00, -1.00, 801.6, 36.0)"> </text><text xml:space="preserve" font-family="AvenirNext-MediumItalic" font-style="italic" font-size="17.0" fill="#5D514B" transform="matrix(1.00, 0.00, -0.00, -1.00, 805.8, 36.0)">B</text><text xml:space="preserve" font-family="AvenirNext-MediumItalic" font-style="italic" font-size="17.0" fill="#5D514B" transform="matrix(1.00, 0.00, -0.00, -1.00, 816.5, 36.0)">Y</text><text xml:space="preserve" font-family="AvenirNext-MediumItalic" font-style="italic" font-size="17.0" fill="#5D514B" transform="matrix(1.00, 0.00, -0.00, -1.00, 825.0, 36.0)">-</text><text xml:space="preserve" font-family="AvenirNext-MediumItalic" font-style="italic" font-size="17.0" fill="#5D514B" transform="matrix(1.00, 0.00, -0.00, -1.00, 830.2, 36.0)">S</text><text xml:space="preserve" font-family="AvenirNext-MediumItalic" font-style="italic" font-size="17.0" fill="#5D514B" transform="matrix(1.00, 0.00, -0.00, -1.00, 839.9, 36.0)">A</text><text xml:space="preserve" font-family="AvenirNext-MediumItalic" font-style="italic" font-size="17.0" fill="#5D514B" transform="matrix(1.00, 0.00, -0.00, -1.00, 851.2, 36.0)"> </text><text xml:space="preserve" font-family="AvenirNext-MediumItalic" font-style="italic" font-size="17.0" fill="#5D514B" transform="matrix(1.00, 0.00, -0.00, -1.00, 855.4, 36.0)">2</text><text xml:space="preserve" font-family="AvenirNext-MediumItalic" font-style="italic" font-size="17.0" fill="#5D514B" transform="matrix(1.00, 0.00, -0.00, -1.00, 865.5, 36.0)">.</text><text xml:space="preserve" font-family="AvenirNext-MediumItalic" font-style="italic" font-size="17.0" fill="#5D514B" transform="matrix(1.00, 0.00, -0.00, -1.00, 870.0, 36.0)">0</text><g><clipPath id="clip-170"><path d="M 777.0 33.7 L 880.0 33.7 L 880.0 36.6 L 777.0 36.6 Z M 777.0 33.7 "></path></clipPath><g clip-path="url(#clip-170)"><path d="M 98.0 22.1 L 200.1 22.1 " fill="none" stroke="#5D514B" stroke-width="0.85" stroke-miterlimit="0.00" transform="matrix(1.00, 0.00, 0.00, -1.00, 680.0, 57.2)"></path></g></g></g></svg>