<?xml version="1.0" encoding="UTF-8" standalone="no"?><svg xmlns="http://www.w3.org/2000/svg" xmlns:xlink="http://www.w3.org/1999/xlink" clip-rule="evenodd" stroke-miterlimit="4.00" viewBox="0 0 1024 768"><desc>SVG generated by Keynote</desc><defs></defs><g transform="matrix(1.00, 0.00, -0.00, -1.00, 0.0, 768.0)"><g><clipPath id="clip-1026"><path d="M 0.0 768.0 L 1024.0 768.0 L 1024.0 0.0 L 0.0 0.0 Z M 0.0 768.0 "></path></clipPath><g clip-path="url(#clip-1026)"><image xlink:href="../../E8782ACA-0DD6-462E-AFA6-8D26C4A2FECE/assets/107E65D87114B546DB29000410A7B5AF.jpeg" width="1024.00" height="768.00" transform="matrix(1.00, 0.00, -0.00, -1.00, 0.0, 768.0)"></image></g></g><text xml:space="preserve" font-family="GillSans-Light" font-size="54.0" fill="#525252" transform="matrix(1.00, 0.00, -0.00, -1.00, 369.0, 366.0)">O</text><text xml:space="preserve" font-family="GillSans-Light" font-size="54.0" fill="#525252" transform="matrix(1.00, 0.00, -0.00, -1.00, 413.5, 366.0)">p</text><text xml:space="preserve" font-family="GillSans-Light" font-size="54.0" fill="#525252" transform="matrix(1.00, 0.00, -0.00, -1.00, 441.0, 366.0)">e</text><text xml:space="preserve" font-family="GillSans-Light" font-size="54.0" fill="#525252" transform="matrix(1.00, 0.00, -0.00, -1.00, 466.8, 366.0)">n</text><text xml:space="preserve" font-family="GillSans-Light" font-size="54.0" fill="#525252" transform="matrix(1.00, 0.00, -0.00, -1.00, 493.3, 366.0)"> </text><text xml:space="preserve" font-family="GillSans-Light" font-size="54.0" fill="#525252" transform="matrix(1.00, 0.00, -0.00, -1.00, 508.3, 366.0)">S</text><text xml:space="preserve" font-family="GillSans-Light" font-size="54.0" fill="#525252" transform="matrix(1.00, 0.00, -0.00, -1.00, 533.7, 366.0)">o</text><text xml:space="preserve" font-family="GillSans-Light" font-size="54.0" fill="#525252" transform="matrix(1.00, 0.00, -0.00, -1.00, 562.9, 366.0)">u</text><text xml:space="preserve" font-family="GillSans-Light" font-size="54.0" fill="#525252" transform="matrix(1.00, 0.00, -0.00, -1.00, 589.4, 366.0)">r</text><text xml:space="preserve" font-family="GillSans-Light" font-size="54.0" fill="#525252" transform="matrix(1.00, 0.00, -0.00, -1.00, 607.4, 366.0)">c</text><text xml:space="preserve" font-family="GillSans-Light" font-size="54.0" fill="#525252" transform="matrix(1.00, 0.00, -0.00, -1.00, 629.9, 366.0)">e</text></g></svg>