<?xml version="1.0" encoding="UTF-8" standalone="no"?><svg xmlns="http://www.w3.org/2000/svg" xmlns:xlink="http://www.w3.org/1999/xlink" clip-rule="evenodd" stroke-miterlimit="4.00" viewBox="0 0 1024 768"><desc>SVG generated by Keynote</desc><defs></defs><g transform="matrix(1.00, 0.00, -0.00, -1.00, 0.0, 768.0)"><g><clipPath id="clip-903"><path d="M 0.0 768.0 L 1024.0 768.0 L 1024.0 0.0 L 0.0 0.0 Z M 0.0 768.0 "></path></clipPath><g clip-path="url(#clip-903)"><image xlink:href="../../E8782ACA-0DD6-462E-AFA6-8D26C4A2FECE/assets/107E65D87114B546DB29000410A7B5AF.jpeg" width="1024.00" height="768.00" transform="matrix(1.00, 0.00, -0.00, -1.00, 0.0, 768.0)"></image></g></g><path d="M 462.0 579.0 L 462.0 649.0 C 462.0 657.3 468.7 664.0 477.0 664.0 L 547.0 664.0 C 555.3 664.0 562.0 657.3 562.0 649.0 L 562.0 579.0 C 562.0 570.7 555.3 564.0 547.0 564.0 L 477.0 564.0 C 468.7 564.0 462.0 570.7 462.0 579.0 Z M 462.0 579.0 " fill="#D99719"></path><path d="M 107.0 371.0 L 107.0 441.0 C 107.0 449.3 113.7 456.0 122.0 456.0 L 192.0 456.0 C 200.3 456.0 207.0 449.3 207.0 441.0 L 207.0 371.0 C 207.0 362.7 200.3 356.0 192.0 356.0 L 122.0 356.0 C 113.7 356.0 107.0 362.7 107.0 371.0 Z M 107.0 371.0 " fill="#D99719"></path><path d="M 158.0 374.1 L 158.0 397.9 C 158.0 400.7 160.3 403.0 163.1 403.0 L 186.0 403.0 C 188.8 403.0 191.1 400.7 191.1 397.9 L 191.1 374.1 C 191.1 371.3 188.8 369.0 186.0 369.0 L 163.1 369.0 C 160.3 369.0 158.0 371.3 158.0 374.1 Z M 158.0 374.1 " fill="#FF2600"></path><path d="M 276.5 371.0 L 276.5 441.0 C 276.5 449.3 283.3 456.0 291.5 456.0 L 361.5 456.0 C 369.8 456.0 376.5 449.3 376.5 441.0 L 376.5 371.0 C 376.5 362.7 369.8 356.0 361.5 356.0 L 291.5 356.0 C 283.3 356.0 276.5 362.7 276.5 371.0 Z M 276.5 371.0 " fill="#D99719"></path><path d="M 331.0 374.1 L 331.0 397.9 C 331.0 400.7 333.3 403.0 336.2 403.0 L 359.0 403.0 C 361.9 403.0 364.1 400.7 364.1 397.9 L 364.1 374.1 C 364.1 371.3 361.9 369.0 359.0 369.0 L 336.2 369.0 C 333.3 369.0 331.0 371.3 331.0 374.1 Z M 331.0 374.1 " fill="#FF2600"></path><path d="M 462.0 371.0 L 462.0 441.0 C 462.0 449.3 468.7 456.0 477.0 456.0 L 547.0 456.0 C 555.3 456.0 562.0 449.3 562.0 441.0 L 562.0 371.0 C 562.0 362.7 555.3 356.0 547.0 356.0 L 477.0 356.0 C 468.7 356.0 462.0 362.7 462.0 371.0 Z M 462.0 371.0 " fill="#D99719"></path><path d="M 518.0 374.1 L 518.0 397.9 C 518.0 400.7 520.3 403.0 523.1 403.0 L 546.0 403.0 C 548.8 403.0 551.1 400.7 551.1 397.9 L 551.1 374.1 C 551.1 371.3 548.8 369.0 546.0 369.0 L 523.1 369.0 C 520.3 369.0 518.0 371.3 518.0 374.1 Z M 518.0 374.1 " fill="#FF2600"></path><path d="M 647.5 371.0 L 647.5 441.0 C 647.5 449.3 654.2 456.0 662.5 456.0 L 732.5 456.0 C 740.7 456.0 747.5 449.3 747.5 441.0 L 747.5 371.0 C 747.5 362.7 740.7 356.0 732.5 356.0 L 662.5 356.0 C 654.2 356.0 647.5 362.7 647.5 371.0 Z M 647.5 371.0 " fill="#D99719"></path><path d="M 698.5 374.1 L 698.5 397.9 C 698.5 400.7 700.7 403.0 703.6 403.0 L 726.4 403.0 C 729.3 403.0 731.5 400.7 731.5 397.9 L 731.5 374.1 C 731.5 371.3 729.3 369.0 726.4 369.0 L 703.6 369.0 C 700.7 369.0 698.5 371.3 698.5 374.1 Z M 698.5 374.1 " fill="#FF2600"></path><path d="M 817.0 371.0 L 817.0 441.0 C 817.0 449.3 823.7 456.0 832.0 456.0 L 902.0 456.0 C 910.3 456.0 917.0 449.3 917.0 441.0 L 917.0 371.0 C 917.0 362.7 910.3 356.0 902.0 356.0 L 832.0 356.0 C 823.7 356.0 817.0 362.7 817.0 371.0 Z M 817.0 371.0 " fill="#D99719"></path><path d="M 871.5 374.1 L 871.5 397.9 C 871.5 400.7 873.8 403.0 876.6 403.0 L 899.5 403.0 C 902.3 403.0 904.6 400.7 904.6 397.9 L 904.6 374.1 C 904.6 371.3 902.3 369.0 899.5 369.0 L 876.6 369.0 C 873.8 369.0 871.5 371.3 871.5 374.1 Z M 871.5 374.1 " fill="#FF2600"></path></g></svg>