<?xml version="1.0" encoding="UTF-8" standalone="no"?><svg xmlns="http://www.w3.org/2000/svg" xmlns:xlink="http://www.w3.org/1999/xlink" clip-rule="evenodd" stroke-miterlimit="4.00" viewBox="0 0 1024 768"><desc>SVG generated by Keynote</desc><defs></defs><g transform="matrix(1.00, 0.00, -0.00, -1.00, 0.0, 768.0)"><g><clipPath id="clip-1212"><path d="M 0.0 768.0 L 1024.0 768.0 L 1024.0 0.0 L 0.0 0.0 Z M 0.0 768.0 "></path></clipPath><g clip-path="url(#clip-1212)"><image xlink:href="../../E8782ACA-0DD6-462E-AFA6-8D26C4A2FECE/assets/107E65D87114B546DB29000410A7B5AF.jpeg" width="1024.00" height="768.00" transform="matrix(1.00, 0.00, -0.00, -1.00, 0.0, 768.0)"></image></g></g><image xlink:href="../../8AFAD0D8-98D8-44E4-916E-EDA941F22215/assets/62C538891C6BF954A4E8480830BC0FE9.png" width="961.00" height="449.00" transform="matrix(1.01, 0.00, -0.00, -1.01, 29.0, 689.0)"></image><image xlink:href="../../8AFAD0D8-98D8-44E4-916E-EDA941F22215/assets/85B8266E8DDC5988465FB49FDF6568B4.png" width="205.00" height="23.00" transform="matrix(1.00, 0.00, -0.00, -1.00, 399.0, 140.0)"></image><text xml:space="preserve" font-family="AvenirNext-Medium" font-size="17.0" fill="#5D514B" transform="matrix(1.00, 0.00, -0.00, -1.00, 400.0, 126.0)">P</text><text xml:space="preserve" font-family="AvenirNext-Medium" font-size="17.0" fill="#5D514B" transform="matrix(1.00, 0.00, -0.00, -1.00, 410.1, 126.0)">E</text><text xml:space="preserve" font-family="AvenirNext-Medium" font-size="17.0" fill="#5D514B" transform="matrix(1.00, 0.00, -0.00, -1.00, 420.3, 126.0)">I</text><text xml:space="preserve" font-family="AvenirNext-Medium" font-size="17.0" fill="#5D514B" transform="matrix(1.00, 0.00, -0.00, -1.00, 424.9, 126.0)"> </text><text xml:space="preserve" font-family="AvenirNext-Medium" font-size="17.0" fill="#5D514B" transform="matrix(1.00, 0.00, -0.00, -1.00, 429.2, 126.0)">O</text><text xml:space="preserve" font-family="AvenirNext-Medium" font-size="17.0" fill="#5D514B" transform="matrix(1.00, 0.00, -0.00, -1.00, 443.6, 126.0)">p</text><text xml:space="preserve" font-family="AvenirNext-Medium" font-size="17.0" fill="#5D514B" transform="matrix(1.00, 0.00, -0.00, -1.00, 454.4, 126.0)">e</text><text xml:space="preserve" font-family="AvenirNext-Medium" font-size="17.0" fill="#5D514B" transform="matrix(1.00, 0.00, -0.00, -1.00, 464.1, 126.0)">n</text><text xml:space="preserve" font-family="AvenirNext-Medium" font-size="17.0" fill="#5D514B" transform="matrix(1.00, 0.00, -0.00, -1.00, 474.0, 126.0)"> </text><text xml:space="preserve" font-family="AvenirNext-Medium" font-size="17.0" fill="#5D514B" transform="matrix(1.00, 0.00, -0.00, -1.00, 478.3, 126.0)">D</text><text xml:space="preserve" font-family="AvenirNext-Medium" font-size="17.0" fill="#5D514B" transform="matrix(1.00, 0.00, -0.00, -1.00, 491.2, 126.0)">a</text><text xml:space="preserve" font-family="AvenirNext-Medium" font-size="17.0" fill="#5D514B" transform="matrix(1.00, 0.00, -0.00, -1.00, 500.3, 126.0)">t</text><text xml:space="preserve" font-family="AvenirNext-Medium" font-size="17.0" fill="#5D514B" transform="matrix(1.00, 0.00, -0.00, -1.00, 505.9, 126.0)">a</text><text xml:space="preserve" font-family="AvenirNext-Medium" font-size="17.0" fill="#5D514B" transform="matrix(1.00, 0.00, -0.00, -1.00, 515.1, 126.0)"> </text><text xml:space="preserve" font-family="AvenirNext-Medium" font-size="17.0" fill="#5D514B" transform="matrix(1.00, 0.00, -0.00, -1.00, 519.3, 126.0)">H</text><text xml:space="preserve" font-family="AvenirNext-Medium" font-size="17.0" fill="#5D514B" transform="matrix(1.00, 0.00, -0.00, -1.00, 531.7, 126.0)">a</text><text xml:space="preserve" font-family="AvenirNext-Medium" font-size="17.0" fill="#5D514B" transform="matrix(1.00, 0.00, -0.00, -1.00, 540.9, 126.0)">c</text><text xml:space="preserve" font-family="AvenirNext-Medium" font-size="17.0" fill="#5D514B" transform="matrix(1.00, 0.00, -0.00, -1.00, 549.3, 126.0)">k</text><text xml:space="preserve" font-family="AvenirNext-Medium" font-size="17.0" fill="#5D514B" transform="matrix(1.00, 0.00, -0.00, -1.00, 558.2, 126.0)">a</text><text xml:space="preserve" font-family="AvenirNext-Medium" font-size="17.0" fill="#5D514B" transform="matrix(1.00, 0.00, -0.00, -1.00, 567.2, 126.0)">t</text><text xml:space="preserve" font-family="AvenirNext-Medium" font-size="17.0" fill="#5D514B" transform="matrix(1.00, 0.00, -0.00, -1.00, 572.8, 126.0)">h</text><text xml:space="preserve" font-family="AvenirNext-Medium" font-size="17.0" fill="#5D514B" transform="matrix(1.00, 0.00, -0.00, -1.00, 582.8, 126.0)">o</text><text xml:space="preserve" font-family="AvenirNext-Medium" font-size="17.0" fill="#5D514B" transform="matrix(1.00, 0.00, -0.00, -1.00, 593.1, 126.0)">n</text><text xml:space="preserve" font-family="AvenirNext-Medium" font-size="17.0" fill="#5D514B" transform="matrix(1.00, 0.00, -0.00, -1.00, 603.0, 126.0)"> </text><text xml:space="preserve" font-family="AvenirNext-Medium" font-size="17.0" fill="#5D514B" transform="matrix(1.00, 0.00, -0.00, -1.00, 607.3, 126.0)"> </text><g><clipPath id="clip-1213"><path d="M 398.7 123.7 L 602.7 123.7 L 602.7 126.6 L 398.7 126.6 Z M 398.7 123.7 "></path></clipPath><g clip-path="url(#clip-1213)"><path d="M 148.8 22.1 L 351.8 22.1 " fill="none" stroke="#5D514B" stroke-width="0.85" stroke-miterlimit="0.00" transform="matrix(1.00, 0.00, 0.00, -1.00, 250.9, 147.2)"></path></g></g><image xlink:href="../../8AFAD0D8-98D8-44E4-916E-EDA941F22215/assets/A3AE4CB0FBF7532D84778F9E5848D4D8.png" width="114.00" height="21.00" transform="matrix(1.00, 0.00, -0.00, -1.00, 444.0, 117.0)"></image><text xml:space="preserve" font-family="AvenirNext-Medium" font-size="17.0" fill="#5D514B" transform="matrix(1.00, 0.00, -0.00, -1.00, 445.0, 103.0)">M</text><text xml:space="preserve" font-family="AvenirNext-Medium" font-size="17.0" fill="#5D514B" transform="matrix(1.00, 0.00, -0.00, -1.00, 460.4, 103.0)">a</text><text xml:space="preserve" font-family="AvenirNext-Medium" font-size="17.0" fill="#5D514B" transform="matrix(1.00, 0.00, -0.00, -1.00, 469.6, 103.0)">r</text><text xml:space="preserve" font-family="AvenirNext-Medium" font-size="17.0" fill="#5D514B" transform="matrix(1.00, 0.00, -0.00, -1.00, 475.4, 103.0)">c</text><text xml:space="preserve" font-family="AvenirNext-Medium" font-size="17.0" fill="#5D514B" transform="matrix(1.00, 0.00, -0.00, -1.00, 483.8, 103.0)">h</text><text xml:space="preserve" font-family="AvenirNext-Medium" font-size="17.0" fill="#5D514B" transform="matrix(1.00, 0.00, -0.00, -1.00, 493.7, 103.0)"> </text><text xml:space="preserve" font-family="AvenirNext-Medium" font-size="17.0" fill="#5D514B" transform="matrix(1.00, 0.00, -0.00, -1.00, 498.0, 103.0)">5</text><text xml:space="preserve" font-family="AvenirNext-Medium" font-size="17.0" fill="#5D514B" transform="matrix(1.00, 0.00, -0.00, -1.00, 508.1, 103.0)">,</text><text xml:space="preserve" font-family="AvenirNext-Medium" font-size="17.0" fill="#5D514B" transform="matrix(1.00, 0.00, -0.00, -1.00, 512.0, 103.0)"> </text><text xml:space="preserve" font-family="AvenirNext-Medium" font-size="17.0" fill="#5D514B" transform="matrix(1.00, 0.00, -0.00, -1.00, 516.3, 103.0)">2</text><text xml:space="preserve" font-family="AvenirNext-Medium" font-size="17.0" fill="#5D514B" transform="matrix(1.00, 0.00, -0.00, -1.00, 526.4, 103.0)">0</text><text xml:space="preserve" font-family="AvenirNext-Medium" font-size="17.0" fill="#5D514B" transform="matrix(1.00, 0.00, -0.00, -1.00, 536.5, 103.0)">1</text><text xml:space="preserve" font-family="AvenirNext-Medium" font-size="17.0" fill="#5D514B" transform="matrix(1.00, 0.00, -0.00, -1.00, 546.6, 103.0)">6</text></g></svg>