<?xml version="1.0" encoding="UTF-8" standalone="no"?><svg xmlns="http://www.w3.org/2000/svg" xmlns:xlink="http://www.w3.org/1999/xlink" clip-rule="evenodd" stroke-miterlimit="4.00" viewBox="0 0 1024 768"><desc>SVG generated by Keynote</desc><defs></defs><g transform="matrix(1.00, 0.00, -0.00, -1.00, 0.0, 768.0)"><g><clipPath id="clip-503"><path d="M 0.0 768.0 L 1024.0 768.0 L 1024.0 0.0 L 0.0 0.0 Z M 0.0 768.0 "></path></clipPath><g clip-path="url(#clip-503)"><image xlink:href="../../E8782ACA-0DD6-462E-AFA6-8D26C4A2FECE/assets/107E65D87114B546DB29000410A7B5AF.jpeg" width="1024.00" height="768.00" transform="matrix(1.00, 0.00, -0.00, -1.00, 0.0, 768.0)"></image></g></g><text xml:space="preserve" font-family="GillSans-Light" font-size="36.0" fill="#525252" transform="matrix(1.00, 0.00, -0.00, -1.00, 391.0, 434.0)">B</text><text xml:space="preserve" font-family="GillSans-Light" font-size="36.0" fill="#525252" transform="matrix(1.00, 0.00, -0.00, -1.00, 410.1, 434.0)">e</text><text xml:space="preserve" font-family="GillSans-Light" font-size="36.0" fill="#525252" transform="matrix(1.00, 0.00, -0.00, -1.00, 427.3, 434.0)">f</text><text xml:space="preserve" font-family="GillSans-Light" font-size="36.0" fill="#525252" transform="matrix(1.00, 0.00, -0.00, -1.00, 435.7, 434.0)">o</text><text xml:space="preserve" font-family="GillSans-Light" font-size="36.0" fill="#525252" transform="matrix(1.00, 0.00, -0.00, -1.00, 455.2, 434.0)">r</text><text xml:space="preserve" font-family="GillSans-Light" font-size="36.0" fill="#525252" transform="matrix(1.00, 0.00, -0.00, -1.00, 467.2, 434.0)">e</text><text xml:space="preserve" font-family="GillSans-Light" font-size="36.0" fill="#525252" transform="matrix(1.00, 0.00, -0.00, -1.00, 484.4, 434.0)"> </text><text xml:space="preserve" font-family="GillSans-Light" font-size="36.0" fill="#525252" transform="matrix(1.00, 0.00, -0.00, -1.00, 494.4, 434.0)">e</text><text xml:space="preserve" font-family="GillSans-Light" font-size="36.0" fill="#525252" transform="matrix(1.00, 0.00, -0.00, -1.00, 511.6, 434.0)">x</text><text xml:space="preserve" font-family="GillSans-Light" font-size="36.0" fill="#525252" transform="matrix(1.00, 0.00, -0.00, -1.00, 528.9, 434.0)">p</text><text xml:space="preserve" font-family="GillSans-Light" font-size="36.0" fill="#525252" transform="matrix(1.00, 0.00, -0.00, -1.00, 547.2, 434.0)">l</text><text xml:space="preserve" font-family="GillSans-Light" font-size="36.0" fill="#525252" transform="matrix(1.00, 0.00, -0.00, -1.00, 554.0, 434.0)">a</text><text xml:space="preserve" font-family="GillSans-Light" font-size="36.0" fill="#525252" transform="matrix(1.00, 0.00, -0.00, -1.00, 569.3, 434.0)">i</text><text xml:space="preserve" font-family="GillSans-Light" font-size="36.0" fill="#525252" transform="matrix(1.00, 0.00, -0.00, -1.00, 576.1, 434.0)">n</text><text xml:space="preserve" font-family="GillSans-Light" font-size="36.0" fill="#525252" transform="matrix(1.00, 0.00, -0.00, -1.00, 593.8, 434.0)">i</text><text xml:space="preserve" font-family="GillSans-Light" font-size="36.0" fill="#525252" transform="matrix(1.00, 0.00, -0.00, -1.00, 600.5, 434.0)">n</text><text xml:space="preserve" font-family="GillSans-Light" font-size="36.0" fill="#525252" transform="matrix(1.00, 0.00, -0.00, -1.00, 618.2, 434.0)">g</text><text xml:space="preserve" font-family="GillSans-Light" font-size="36.0" fill="#525252" transform="matrix(1.00, 0.00, -0.00, -1.00, 348.0, 393.0)">O</text><text xml:space="preserve" font-family="GillSans-Light" font-size="36.0" fill="#525252" transform="matrix(1.00, 0.00, -0.00, -1.00, 377.6, 393.0)">p</text><text xml:space="preserve" font-family="GillSans-Light" font-size="36.0" fill="#525252" transform="matrix(1.00, 0.00, -0.00, -1.00, 396.0, 393.0)">e</text><text xml:space="preserve" font-family="GillSans-Light" font-size="36.0" fill="#525252" transform="matrix(1.00, 0.00, -0.00, -1.00, 413.2, 393.0)">n</text><text xml:space="preserve" font-family="GillSans-Light" font-size="36.0" fill="#525252" transform="matrix(1.00, 0.00, -0.00, -1.00, 430.9, 393.0)"> </text><text xml:space="preserve" font-family="GillSans-Light" font-size="36.0" fill="#525252" transform="matrix(1.00, 0.00, -0.00, -1.00, 440.9, 393.0)">D</text><text xml:space="preserve" font-family="GillSans-Light" font-size="36.0" fill="#525252" transform="matrix(1.00, 0.00, -0.00, -1.00, 467.5, 393.0)">a</text><text xml:space="preserve" font-family="GillSans-Light" font-size="36.0" fill="#525252" transform="matrix(1.00, 0.00, -0.00, -1.00, 482.9, 393.0)">t</text><text xml:space="preserve" font-family="GillSans-Light" font-size="36.0" fill="#525252" transform="matrix(1.00, 0.00, -0.00, -1.00, 493.8, 393.0)">a</text><text xml:space="preserve" font-family="GillSans-Light" font-size="36.0" fill="#525252" transform="matrix(1.00, 0.00, -0.00, -1.00, 509.1, 393.0)"> </text><text xml:space="preserve" font-family="GillSans-Light" font-size="36.0" fill="#525252" transform="matrix(1.00, 0.00, -0.00, -1.00, 519.1, 393.0)">B</text><text xml:space="preserve" font-family="GillSans-Light" font-size="36.0" fill="#525252" transform="matrix(1.00, 0.00, -0.00, -1.00, 538.2, 393.0)">o</text><text xml:space="preserve" font-family="GillSans-Light" font-size="36.0" fill="#525252" transform="matrix(1.00, 0.00, -0.00, -1.00, 557.7, 393.0)">o</text><text xml:space="preserve" font-family="GillSans-Light" font-size="36.0" fill="#525252" transform="matrix(1.00, 0.00, -0.00, -1.00, 577.2, 393.0)">k</text><text xml:space="preserve" font-family="GillSans-Light" font-size="36.0" fill="#525252" transform="matrix(1.00, 0.00, -0.00, -1.00, 592.6, 393.0)"> </text><text xml:space="preserve" font-family="GillSans-Light" font-size="36.0" fill="#525252" transform="matrix(1.00, 0.00, -0.00, -1.00, 602.6, 393.0)">C</text><text xml:space="preserve" font-family="GillSans-Light" font-size="36.0" fill="#525252" transform="matrix(1.00, 0.00, -0.00, -1.00, 626.9, 393.0)">l</text><text xml:space="preserve" font-family="GillSans-Light" font-size="36.0" fill="#525252" transform="matrix(1.00, 0.00, -0.00, -1.00, 633.7, 393.0)">u</text><text xml:space="preserve" font-family="GillSans-Light" font-size="36.0" fill="#525252" transform="matrix(1.00, 0.00, -0.00, -1.00, 651.4, 393.0)">b</text><text xml:space="preserve" font-family="GillSans-Light" font-size="36.0" fill="#525252" transform="matrix(1.00, 0.00, -0.00, -1.00, 669.0, 393.0)">,</text><text xml:space="preserve" font-family="GillSans-Light" font-size="36.0" fill="#525252" transform="matrix(1.00, 0.00, -0.00, -1.00, 341.0, 352.0)">l</text><text xml:space="preserve" font-family="GillSans-Light" font-size="36.0" fill="#525252" transform="matrix(1.00, 0.00, -0.00, -1.00, 347.8, 352.0)">e</text><text xml:space="preserve" font-family="GillSans-Light" font-size="36.0" fill="#525252" transform="matrix(1.00, 0.00, -0.00, -1.00, 365.0, 352.0)">t</text><text xml:space="preserve" font-family="GillSans-Light" font-size="36.0" fill="#525252" transform="matrix(1.00, 0.00, -0.00, -1.00, 375.9, 352.0)">’</text><text xml:space="preserve" font-family="GillSans-Light" font-size="36.0" fill="#525252" transform="matrix(1.00, 0.00, -0.00, -1.00, 380.8, 352.0)">s</text><text xml:space="preserve" font-family="GillSans-Light" font-size="36.0" fill="#525252" transform="matrix(1.00, 0.00, -0.00, -1.00, 393.5, 352.0)"> </text><text xml:space="preserve" font-family="GillSans-Light" font-size="36.0" fill="#525252" transform="matrix(1.00, 0.00, -0.00, -1.00, 403.5, 352.0)">h</text><text xml:space="preserve" font-family="GillSans-Light" font-size="36.0" fill="#525252" transform="matrix(1.00, 0.00, -0.00, -1.00, 421.2, 352.0)">a</text><text xml:space="preserve" font-family="GillSans-Light" font-size="36.0" fill="#525252" transform="matrix(1.00, 0.00, -0.00, -1.00, 435.6, 352.0)">v</text><text xml:space="preserve" font-family="GillSans-Light" font-size="36.0" fill="#525252" transform="matrix(1.00, 0.00, -0.00, -1.00, 450.4, 352.0)">e</text><text xml:space="preserve" font-family="GillSans-Light" font-size="36.0" fill="#525252" transform="matrix(1.00, 0.00, -0.00, -1.00, 467.7, 352.0)"> </text><text xml:space="preserve" font-family="GillSans-Light" font-size="36.0" fill="#525252" transform="matrix(1.00, 0.00, -0.00, -1.00, 477.7, 352.0)">a</text><text xml:space="preserve" font-family="GillSans-Light" font-size="36.0" fill="#525252" transform="matrix(1.00, 0.00, -0.00, -1.00, 493.0, 352.0)"> </text><text xml:space="preserve" font-family="GillSans-Light" font-size="36.0" fill="#525252" transform="matrix(1.00, 0.00, -0.00, -1.00, 503.0, 352.0)">c</text><text xml:space="preserve" font-family="GillSans-Light" font-size="36.0" fill="#525252" transform="matrix(1.00, 0.00, -0.00, -1.00, 518.0, 352.0)">o</text><text xml:space="preserve" font-family="GillSans-Light" font-size="36.0" fill="#525252" transform="matrix(1.00, 0.00, -0.00, -1.00, 537.6, 352.0)">n</text><text xml:space="preserve" font-family="GillSans-Light" font-size="36.0" fill="#525252" transform="matrix(1.00, 0.00, -0.00, -1.00, 554.7, 352.0)">v</text><text xml:space="preserve" font-family="GillSans-Light" font-size="36.0" fill="#525252" transform="matrix(1.00, 0.00, -0.00, -1.00, 569.5, 352.0)">e</text><text xml:space="preserve" font-family="GillSans-Light" font-size="36.0" fill="#525252" transform="matrix(1.00, 0.00, -0.00, -1.00, 586.7, 352.0)">r</text><text xml:space="preserve" font-family="GillSans-Light" font-size="36.0" fill="#525252" transform="matrix(1.00, 0.00, -0.00, -1.00, 600.1, 352.0)">s</text><text xml:space="preserve" font-family="GillSans-Light" font-size="36.0" fill="#525252" transform="matrix(1.00, 0.00, -0.00, -1.00, 612.9, 352.0)">a</text><text xml:space="preserve" font-family="GillSans-Light" font-size="36.0" fill="#525252" transform="matrix(1.00, 0.00, -0.00, -1.00, 628.3, 352.0)">t</text><text xml:space="preserve" font-family="GillSans-Light" font-size="36.0" fill="#525252" transform="matrix(1.00, 0.00, -0.00, -1.00, 639.1, 352.0)">i</text><text xml:space="preserve" font-family="GillSans-Light" font-size="36.0" fill="#525252" transform="matrix(1.00, 0.00, -0.00, -1.00, 645.9, 352.0)">o</text><text xml:space="preserve" font-family="GillSans-Light" font-size="36.0" fill="#525252" transform="matrix(1.00, 0.00, -0.00, -1.00, 665.4, 352.0)">n</text><text xml:space="preserve" font-family="GillSans-Light" font-size="36.0" fill="#525252" transform="matrix(1.00, 0.00, -0.00, -1.00, 347.0, 311.0)">a</text><text xml:space="preserve" font-family="GillSans-Light" font-size="36.0" fill="#525252" transform="matrix(1.00, 0.00, -0.00, -1.00, 362.4, 311.0)">b</text><text xml:space="preserve" font-family="GillSans-Light" font-size="36.0" fill="#525252" transform="matrix(1.00, 0.00, -0.00, -1.00, 380.7, 311.0)">o</text><text xml:space="preserve" font-family="GillSans-Light" font-size="36.0" fill="#525252" transform="matrix(1.00, 0.00, -0.00, -1.00, 400.2, 311.0)">u</text><text xml:space="preserve" font-family="GillSans-Light" font-size="36.0" fill="#525252" transform="matrix(1.00, 0.00, -0.00, -1.00, 417.9, 311.0)">t</text><text xml:space="preserve" font-family="GillSans-Light" font-size="36.0" fill="#525252" transform="matrix(1.00, 0.00, -0.00, -1.00, 428.7, 311.0)"> </text><text xml:space="preserve" font-family="GillSans-Light" font-size="36.0" fill="#525252" transform="matrix(1.00, 0.00, -0.00, -1.00, 438.7, 311.0)">I</text><text xml:space="preserve" font-family="GillSans-Light" font-size="36.0" fill="#525252" transform="matrix(1.00, 0.00, -0.00, -1.00, 446.2, 311.0)">s</text><text xml:space="preserve" font-family="GillSans-Light" font-size="36.0" fill="#525252" transform="matrix(1.00, 0.00, -0.00, -1.00, 459.0, 311.0)">l</text><text xml:space="preserve" font-family="GillSans-Light" font-size="36.0" fill="#525252" transform="matrix(1.00, 0.00, -0.00, -1.00, 465.7, 311.0)">a</text><text xml:space="preserve" font-family="GillSans-Light" font-size="36.0" fill="#525252" transform="matrix(1.00, 0.00, -0.00, -1.00, 481.1, 311.0)">n</text><text xml:space="preserve" font-family="GillSans-Light" font-size="36.0" fill="#525252" transform="matrix(1.00, 0.00, -0.00, -1.00, 498.7, 311.0)">d</text><text xml:space="preserve" font-family="GillSans-Light" font-size="36.0" fill="#525252" transform="matrix(1.00, 0.00, -0.00, -1.00, 517.1, 311.0)"> </text><text xml:space="preserve" font-family="GillSans-Light" font-size="36.0" fill="#525252" transform="matrix(1.00, 0.00, -0.00, -1.00, 527.1, 311.0)">l</text><text xml:space="preserve" font-family="GillSans-Light" font-size="36.0" fill="#525252" transform="matrix(1.00, 0.00, -0.00, -1.00, 533.8, 311.0)">a</text><text xml:space="preserve" font-family="GillSans-Light" font-size="36.0" fill="#525252" transform="matrix(1.00, 0.00, -0.00, -1.00, 549.2, 311.0)">n</text><text xml:space="preserve" font-family="GillSans-Light" font-size="36.0" fill="#525252" transform="matrix(1.00, 0.00, -0.00, -1.00, 566.8, 311.0)">d</text><text xml:space="preserve" font-family="GillSans-Light" font-size="36.0" fill="#525252" transform="matrix(1.00, 0.00, -0.00, -1.00, 585.2, 311.0)">m</text><text xml:space="preserve" font-family="GillSans-Light" font-size="36.0" fill="#525252" transform="matrix(1.00, 0.00, -0.00, -1.00, 612.9, 311.0)">a</text><text xml:space="preserve" font-family="GillSans-Light" font-size="36.0" fill="#525252" transform="matrix(1.00, 0.00, -0.00, -1.00, 628.3, 311.0)">r</text><text xml:space="preserve" font-family="GillSans-Light" font-size="36.0" fill="#525252" transform="matrix(1.00, 0.00, -0.00, -1.00, 641.7, 311.0)">k</text><text xml:space="preserve" font-family="GillSans-Light" font-size="36.0" fill="#525252" transform="matrix(1.00, 0.00, -0.00, -1.00, 657.1, 311.0)">s</text><text xml:space="preserve" font-family="GillSans-Light" font-size="36.0" fill="#525252" transform="matrix(1.00, 0.00, -0.00, -1.00, 669.8, 311.0)">.</text></g></svg>