<?xml version="1.0" encoding="UTF-8" standalone="no"?><svg xmlns="http://www.w3.org/2000/svg" xmlns:xlink="http://www.w3.org/1999/xlink" clip-rule="evenodd" stroke-miterlimit="10" viewBox="0 0 1024 768"><desc>SVG generated by Keynote</desc><defs></defs><g transform="matrix(1.00, 0.00, -0.00, -1.00, 0.0, 768.0)"><g><clipPath id="clip0x6000008bb600"><path d="M 0.0 768.0 L 1024.0 768.0 L 1024.0 0.0 L 0.0 0.0 Z M 0.0 768.0 "></path></clipPath><g clip-path="url(#clip0x6000008bb600)"><image xlink:href="../../B32C0A43-AFB7-4D6F-9198-B3909335F6E9/assets/574DCE55A4CF432400CBDDDE1DFDFC9B.jpeg" width="2048.00" height="1536.00" transform="matrix(0.50, 0.00, -0.00, -0.50, 0.0, 768.0)"></image></g></g><g><clipPath id="clip0x6100008abb80"><path d="M 524.0 372.0 L 981.0 372.0 L 981.0 40.0 L 524.0 40.0 Z M 524.0 372.0 "></path></clipPath><g clip-path="url(#clip0x6100008abb80)"><image xlink:href="../../57E2FB28-477F-45DB-9B26-7A8A46BEAD3F/assets/1868C9AC3B4EA842D24821564DDE20D5.jpeg" width="1600.00" height="1200.00" transform="matrix(0.29, 0.00, -0.00, -0.29, 524.0, 377.0)"></image></g></g><g><clipPath id="clip0x6080008a2fa0"><path d="M 525.0 728.0 L 982.0 728.0 L 982.0 396.0 L 525.0 396.0 Z M 524.8 728.0 "></path></clipPath><g clip-path="url(#clip0x6080008a2fa0)"><image xlink:href="../../57E2FB28-477F-45DB-9B26-7A8A46BEAD3F/assets/16BFD0F44C269E70194CBEAF169450AE.png" width="1504.00" height="1128.00" transform="matrix(0.30, 0.00, -0.00, -0.30, 525.0, 733.0)"></image></g></g><g><clipPath id="clip0x600000abdc40"><path d="M 42.0 728.0 L 499.0 728.0 L 499.0 40.0 L 42.0 40.0 Z M 42.0 728.0 "></path></clipPath><g clip-path="url(#clip0x600000abdc40)"><image xlink:href="../../57E2FB28-477F-45DB-9B26-7A8A46BEAD3F/assets/0E5FD81DC5744E67143796CEE60D5C9E.jpeg" width="1536.00" height="2048.00" transform="matrix(0.34, 0.00, -0.00, -0.34, 13.0, 728.0)"></image></g></g></g></svg>