<?xml version="1.0" encoding="UTF-8" standalone="no"?><svg xmlns="http://www.w3.org/2000/svg" xmlns:xlink="http://www.w3.org/1999/xlink" clip-rule="evenodd" stroke-miterlimit="4.00" viewBox="0 0 1024 768"><desc>SVG generated by Keynote</desc><defs></defs><g transform="matrix(1.00, 0.00, -0.00, -1.00, 0.0, 768.0)"><g><clipPath id="clip-785"><path d="M 0.0 768.0 L 1024.0 768.0 L 1024.0 0.0 L 0.0 0.0 Z M 0.0 768.0 "></path></clipPath><g clip-path="url(#clip-785)"><image xlink:href="../../E8782ACA-0DD6-462E-AFA6-8D26C4A2FECE/assets/107E65D87114B546DB29000410A7B5AF.jpeg" width="1024.00" height="768.00" transform="matrix(1.00, 0.00, -0.00, -1.00, 0.0, 768.0)"></image></g></g><g><clipPath id="clip-786"><path d="M 0.0 768.0 L 1024.0 768.0 L 1024.0 0.0 L 0.0 0.0 Z M 0.0 768.0 "></path></clipPath><g clip-path="url(#clip-786)"><image xlink:href="../../1D049CEB-B4F4-4706-9084-BB713A525C54/assets/FB9A32D8DBBA06DB298BF4DECB136836.png" width="579.00" height="540.00" transform="matrix(1.16, 0.00, -0.00, -1.16, 175.0, 734.0)"></image></g></g><text xml:space="preserve" font-family="GillSans-Light" font-size="18.0" fill="#525252" transform="matrix(1.00, 0.00, -0.00, -1.00, 642.0, 58.0)">h</text><text xml:space="preserve" font-family="GillSans-Light" font-size="18.0" fill="#525252" transform="matrix(1.00, 0.00, -0.00, -1.00, 650.8, 58.0)">t</text><text xml:space="preserve" font-family="GillSans-Light" font-size="18.0" fill="#525252" transform="matrix(1.00, 0.00, -0.00, -1.00, 656.3, 58.0)">t</text><text xml:space="preserve" font-family="GillSans-Light" font-size="18.0" fill="#525252" transform="matrix(1.00, 0.00, -0.00, -1.00, 661.7, 58.0)">p</text><text xml:space="preserve" font-family="GillSans-Light" font-size="18.0" fill="#525252" transform="matrix(1.00, 0.00, -0.00, -1.00, 670.9, 58.0)">s</text><text xml:space="preserve" font-family="GillSans-Light" font-size="18.0" fill="#525252" transform="matrix(1.00, 0.00, -0.00, -1.00, 677.2, 58.0)">:</text><text xml:space="preserve" font-family="GillSans-Light" font-size="18.0" fill="#525252" transform="matrix(1.00, 0.00, -0.00, -1.00, 680.4, 58.0)">/</text><text xml:space="preserve" font-family="GillSans-Light" font-size="18.0" fill="#525252" transform="matrix(1.00, 0.00, -0.00, -1.00, 685.5, 58.0)">/</text><text xml:space="preserve" font-family="GillSans-Light" font-size="18.0" fill="#525252" transform="matrix(1.00, 0.00, -0.00, -1.00, 690.5, 58.0)">c</text><text xml:space="preserve" font-family="GillSans-Light" font-size="18.0" fill="#525252" transform="matrix(1.00, 0.00, -0.00, -1.00, 698.0, 58.0)">r</text><text xml:space="preserve" font-family="GillSans-Light" font-size="18.0" fill="#525252" transform="matrix(1.00, 0.00, -0.00, -1.00, 704.0, 58.0)">e</text><text xml:space="preserve" font-family="GillSans-Light" font-size="18.0" fill="#525252" transform="matrix(1.00, 0.00, -0.00, -1.00, 712.6, 58.0)">a</text><text xml:space="preserve" font-family="GillSans-Light" font-size="18.0" fill="#525252" transform="matrix(1.00, 0.00, -0.00, -1.00, 720.3, 58.0)">t</text><text xml:space="preserve" font-family="GillSans-Light" font-size="18.0" fill="#525252" transform="matrix(1.00, 0.00, -0.00, -1.00, 725.7, 58.0)">i</text><text xml:space="preserve" font-family="GillSans-Light" font-size="18.0" fill="#525252" transform="matrix(1.00, 0.00, -0.00, -1.00, 729.1, 58.0)">v</text><text xml:space="preserve" font-family="GillSans-Light" font-size="18.0" fill="#525252" transform="matrix(1.00, 0.00, -0.00, -1.00, 736.5, 58.0)">e</text><text xml:space="preserve" font-family="GillSans-Light" font-size="18.0" fill="#525252" transform="matrix(1.00, 0.00, -0.00, -1.00, 745.1, 58.0)">c</text><text xml:space="preserve" font-family="GillSans-Light" font-size="18.0" fill="#525252" transform="matrix(1.00, 0.00, -0.00, -1.00, 752.7, 58.0)">o</text><text xml:space="preserve" font-family="GillSans-Light" font-size="18.0" fill="#525252" transform="matrix(1.00, 0.00, -0.00, -1.00, 762.4, 58.0)">m</text><text xml:space="preserve" font-family="GillSans-Light" font-size="18.0" fill="#525252" transform="matrix(1.00, 0.00, -0.00, -1.00, 776.3, 58.0)">m</text><text xml:space="preserve" font-family="GillSans-Light" font-size="18.0" fill="#525252" transform="matrix(1.00, 0.00, -0.00, -1.00, 790.2, 58.0)">o</text><text xml:space="preserve" font-family="GillSans-Light" font-size="18.0" fill="#525252" transform="matrix(1.00, 0.00, -0.00, -1.00, 799.9, 58.0)">n</text><text xml:space="preserve" font-family="GillSans-Light" font-size="18.0" fill="#525252" transform="matrix(1.00, 0.00, -0.00, -1.00, 808.7, 58.0)">s</text><text xml:space="preserve" font-family="GillSans-Light" font-size="18.0" fill="#525252" transform="matrix(1.00, 0.00, -0.00, -1.00, 815.1, 58.0)">.</text><text xml:space="preserve" font-family="GillSans-Light" font-size="18.0" fill="#525252" transform="matrix(1.00, 0.00, -0.00, -1.00, 818.3, 58.0)">o</text><text xml:space="preserve" font-family="GillSans-Light" font-size="18.0" fill="#525252" transform="matrix(1.00, 0.00, -0.00, -1.00, 828.1, 58.0)">r</text><text xml:space="preserve" font-family="GillSans-Light" font-size="18.0" fill="#525252" transform="matrix(1.00, 0.00, -0.00, -1.00, 834.5, 58.0)">g</text><text xml:space="preserve" font-family="GillSans-Light" font-size="18.0" fill="#525252" transform="matrix(1.00, 0.00, -0.00, -1.00, 842.2, 58.0)">/</text><text xml:space="preserve" font-family="GillSans-Light" font-size="18.0" fill="#525252" transform="matrix(1.00, 0.00, -0.00, -1.00, 847.2, 58.0)">l</text><text xml:space="preserve" font-family="GillSans-Light" font-size="18.0" fill="#525252" transform="matrix(1.00, 0.00, -0.00, -1.00, 850.6, 58.0)">i</text><text xml:space="preserve" font-family="GillSans-Light" font-size="18.0" fill="#525252" transform="matrix(1.00, 0.00, -0.00, -1.00, 854.0, 58.0)">c</text><text xml:space="preserve" font-family="GillSans-Light" font-size="18.0" fill="#525252" transform="matrix(1.00, 0.00, -0.00, -1.00, 861.5, 58.0)">e</text><text xml:space="preserve" font-family="GillSans-Light" font-size="18.0" fill="#525252" transform="matrix(1.00, 0.00, -0.00, -1.00, 870.1, 58.0)">n</text><text xml:space="preserve" font-family="GillSans-Light" font-size="18.0" fill="#525252" transform="matrix(1.00, 0.00, -0.00, -1.00, 878.9, 58.0)">s</text><text xml:space="preserve" font-family="GillSans-Light" font-size="18.0" fill="#525252" transform="matrix(1.00, 0.00, -0.00, -1.00, 885.3, 58.0)">e</text><text xml:space="preserve" font-family="GillSans-Light" font-size="18.0" fill="#525252" transform="matrix(1.00, 0.00, -0.00, -1.00, 893.9, 58.0)">s</text><text xml:space="preserve" font-family="GillSans-Light" font-size="18.0" fill="#525252" transform="matrix(1.00, 0.00, -0.00, -1.00, 900.3, 58.0)">/</text><text xml:space="preserve" font-family="GillSans-Light" font-size="18.0" fill="#525252" transform="matrix(1.00, 0.00, -0.00, -1.00, 905.4, 58.0)">b</text><text xml:space="preserve" font-family="GillSans-Light" font-size="18.0" fill="#525252" transform="matrix(1.00, 0.00, -0.00, -1.00, 914.3, 58.0)">y</text><text xml:space="preserve" font-family="GillSans-Light" font-size="18.0" fill="#525252" transform="matrix(1.00, 0.00, -0.00, -1.00, 921.8, 58.0)">/</text><text xml:space="preserve" font-family="GillSans-Light" font-size="18.0" fill="#525252" transform="matrix(1.00, 0.00, -0.00, -1.00, 926.8, 58.0)">4</text><text xml:space="preserve" font-family="GillSans-Light" font-size="18.0" fill="#525252" transform="matrix(1.00, 0.00, -0.00, -1.00, 935.8, 58.0)">.</text><text xml:space="preserve" font-family="GillSans-Light" font-size="18.0" fill="#525252" transform="matrix(1.00, 0.00, -0.00, -1.00, 939.0, 58.0)">0</text><text xml:space="preserve" font-family="GillSans-Light" font-size="18.0" fill="#525252" transform="matrix(1.00, 0.00, -0.00, -1.00, 948.0, 58.0)">/</text><g><clipPath id="clip-787"><path d="M 641.5 55.5 L 953.5 55.5 L 953.5 58.4 L 641.5 58.4 Z M 641.5 55.5 "></path></clipPath><g clip-path="url(#clip-787)"><path d="M 4.5 21.1 L 315.6 21.1 " fill="none" stroke="#525252" stroke-width="0.90" stroke-miterlimit="0.00" transform="matrix(1.00, 0.00, 0.00, -1.00, 638.0, 78.0)"></path></g></g></g></svg>