<?xml version="1.0" encoding="UTF-8" standalone="no"?><svg xmlns="http://www.w3.org/2000/svg" xmlns:xlink="http://www.w3.org/1999/xlink" clip-rule="evenodd" stroke-miterlimit="4.00" viewBox="0 0 1024 768"><desc>SVG generated by Keynote</desc><defs></defs><g transform="matrix(1.00, 0.00, -0.00, -1.00, 0.0, 768.0)"><g><clipPath id="clip-1004"><path d="M 0.0 768.0 L 1024.0 768.0 L 1024.0 0.0 L 0.0 0.0 Z M 0.0 768.0 "></path></clipPath><g clip-path="url(#clip-1004)"><image xlink:href="../../E8782ACA-0DD6-462E-AFA6-8D26C4A2FECE/assets/107E65D87114B546DB29000410A7B5AF.jpeg" width="1024.00" height="768.00" transform="matrix(1.00, 0.00, -0.00, -1.00, 0.0, 768.0)"></image></g></g><image xlink:href="../../4579FAE4-9D78-49B2-B89C-A41DC67B6C4D/assets/334B4D1FE2867E283D91C5B208AE9436.jpeg" width="759.00" height="505.00" transform="matrix(1.00, 0.00, -0.00, -1.00, 133.0, 676.0)"></image><text xml:space="preserve" font-family="GillSans-Light" font-size="24.0" fill="#525252" transform="matrix(1.00, 0.00, -0.00, -1.00, 754.0, 87.0)">P</text><text xml:space="preserve" font-family="GillSans-Light" font-size="24.0" fill="#525252" transform="matrix(1.00, 0.00, -0.00, -1.00, 766.2, 87.0)">h</text><text xml:space="preserve" font-family="GillSans-Light" font-size="24.0" fill="#525252" transform="matrix(1.00, 0.00, -0.00, -1.00, 778.0, 87.0)">o</text><text xml:space="preserve" font-family="GillSans-Light" font-size="24.0" fill="#525252" transform="matrix(1.00, 0.00, -0.00, -1.00, 791.0, 87.0)">t</text><text xml:space="preserve" font-family="GillSans-Light" font-size="24.0" fill="#525252" transform="matrix(1.00, 0.00, -0.00, -1.00, 798.2, 87.0)">o</text><text xml:space="preserve" font-family="GillSans-Light" font-size="24.0" fill="#525252" transform="matrix(1.00, 0.00, -0.00, -1.00, 811.3, 87.0)"> </text><text xml:space="preserve" font-family="GillSans-Light" font-size="24.0" fill="#525252" transform="matrix(1.00, 0.00, -0.00, -1.00, 817.9, 87.0)">C</text><text xml:space="preserve" font-family="GillSans-Light" font-size="24.0" fill="#525252" transform="matrix(1.00, 0.00, -0.00, -1.00, 834.2, 87.0)">r</text><text xml:space="preserve" font-family="GillSans-Light" font-size="24.0" fill="#525252" transform="matrix(1.00, 0.00, -0.00, -1.00, 842.1, 87.0)">e</text><text xml:space="preserve" font-family="GillSans-Light" font-size="24.0" fill="#525252" transform="matrix(1.00, 0.00, -0.00, -1.00, 853.6, 87.0)">d</text><text xml:space="preserve" font-family="GillSans-Light" font-size="24.0" fill="#525252" transform="matrix(1.00, 0.00, -0.00, -1.00, 865.9, 87.0)">i</text><text xml:space="preserve" font-family="GillSans-Light" font-size="24.0" fill="#525252" transform="matrix(1.00, 0.00, -0.00, -1.00, 870.4, 87.0)">t</text><text xml:space="preserve" font-family="GillSans-Light" font-size="24.0" fill="#525252" transform="matrix(1.00, 0.00, -0.00, -1.00, 877.6, 87.0)">s</text><g><clipPath id="clip-1005"><path d="M 753.4 83.8 L 886.6 83.8 L 886.6 87.0 L 753.4 87.0 Z M 753.4 83.8 "></path></clipPath><g clip-path="url(#clip-1005)"><path d="M 4.5 28.1 L 136.6 28.1 " fill="none" stroke="#525252" stroke-width="1.20" stroke-miterlimit="0.00" transform="matrix(1.00, 0.00, 0.00, -1.00, 749.9, 113.5)"></path></g></g></g></svg>