<?xml version="1.0" encoding="UTF-8" standalone="no"?><svg xmlns="http://www.w3.org/2000/svg" xmlns:xlink="http://www.w3.org/1999/xlink" clip-rule="evenodd" stroke-miterlimit="4.00" viewBox="0 0 1024 768"><desc>SVG generated by Keynote</desc><defs></defs><g transform="matrix(1.00, 0.00, -0.00, -1.00, 0.0, 768.0)"><g><clipPath id="clip-827"><path d="M 0.0 768.0 L 1024.0 768.0 L 1024.0 0.0 L 0.0 0.0 Z M 0.0 768.0 "></path></clipPath><g clip-path="url(#clip-827)"><image xlink:href="../../E8782ACA-0DD6-462E-AFA6-8D26C4A2FECE/assets/107E65D87114B546DB29000410A7B5AF.jpeg" width="1024.00" height="768.00" transform="matrix(1.00, 0.00, -0.00, -1.00, 0.0, 768.0)"></image></g></g><path d="M 105.0 253.7 L 105.0 298.3 C 105.0 306.6 111.7 313.3 120.0 313.3 L 375.7 313.3 C 384.0 313.3 390.7 306.6 390.7 298.3 L 390.7 253.7 C 390.7 245.4 384.0 238.7 375.7 238.7 L 120.0 238.7 C 111.7 238.7 105.0 245.4 105.0 253.7 Z M 105.0 253.7 " fill="#D99719"></path><image xlink:href="../../54B2811F-6CCE-482C-919A-9CFC0C84F49B/assets/FA22DB6029A1232C6AA628225B107420.jpeg" width="105.00" height="165.00" transform="matrix(0.99, 0.00, -0.00, -0.99, 460.0, 466.0)"></image><image xlink:href="../../54B2811F-6CCE-482C-919A-9CFC0C84F49B/assets/7D2C3D443B3B88D45A59FA5409363AF9.png" width="212.00" height="32.00" transform="matrix(1.00, 0.00, -0.00, -1.00, 142.0, 290.0)"></image><text xml:space="preserve" font-family="GillSans-Light" font-size="36.0" fill="#000000" transform="matrix(1.00, 0.00, -0.00, -1.00, 144.0, 264.0)">S</text><text xml:space="preserve" font-family="GillSans-Light" font-size="36.0" fill="#000000" transform="matrix(1.00, 0.00, -0.00, -1.00, 160.9, 264.0)">o</text><text xml:space="preserve" font-family="GillSans-Light" font-size="36.0" fill="#000000" transform="matrix(1.00, 0.00, -0.00, -1.00, 180.4, 264.0)">f</text><text xml:space="preserve" font-family="GillSans-Light" font-size="36.0" fill="#000000" transform="matrix(1.00, 0.00, -0.00, -1.00, 189.1, 264.0)">t</text><text xml:space="preserve" font-family="GillSans-Light" font-size="36.0" fill="#000000" transform="matrix(1.00, 0.00, -0.00, -1.00, 199.9, 264.0)">w</text><text xml:space="preserve" font-family="GillSans-Light" font-size="36.0" fill="#000000" transform="matrix(1.00, 0.00, -0.00, -1.00, 225.4, 264.0)">a</text><text xml:space="preserve" font-family="GillSans-Light" font-size="36.0" fill="#000000" transform="matrix(1.00, 0.00, -0.00, -1.00, 240.8, 264.0)">r</text><text xml:space="preserve" font-family="GillSans-Light" font-size="36.0" fill="#000000" transform="matrix(1.00, 0.00, -0.00, -1.00, 252.8, 264.0)">e</text><text xml:space="preserve" font-family="GillSans-Light" font-size="36.0" fill="#000000" transform="matrix(1.00, 0.00, -0.00, -1.00, 270.0, 264.0)"> </text><text xml:space="preserve" font-family="GillSans-Light" font-size="36.0" fill="#000000" transform="matrix(1.00, 0.00, -0.00, -1.00, 280.0, 264.0)">D</text><text xml:space="preserve" font-family="GillSans-Light" font-size="36.0" fill="#000000" transform="matrix(1.00, 0.00, -0.00, -1.00, 306.7, 264.0)">e</text><text xml:space="preserve" font-family="GillSans-Light" font-size="36.0" fill="#000000" transform="matrix(1.00, 0.00, -0.00, -1.00, 323.9, 264.0)">v</text><text xml:space="preserve" font-family="GillSans-Light" font-size="36.0" fill="#000000" transform="matrix(1.00, 0.00, -0.00, -1.00, 339.3, 264.0)">s</text><path d="M 633.3 455.1 L 633.3 499.7 C 633.3 508.0 640.0 514.7 648.3 514.7 L 904.0 514.7 C 912.3 514.7 919.0 508.0 919.0 499.7 L 919.0 455.1 C 919.0 446.8 912.3 440.1 904.0 440.1 L 648.3 440.1 C 640.0 440.1 633.3 446.8 633.3 455.1 Z M 633.3 455.1 " fill="#D99719"></path><image xlink:href="../../54B2811F-6CCE-482C-919A-9CFC0C84F49B/assets/D8F3C893D5B1FA67B02EFEC1CF42A5E0.png" width="209.00" height="32.00" transform="matrix(1.00, 0.00, -0.00, -1.00, 672.0, 491.0)"></image><text xml:space="preserve" font-family="GillSans-Light" font-size="36.0" fill="#000000" transform="matrix(1.00, 0.00, -0.00, -1.00, 673.0, 465.0)">D</text><text xml:space="preserve" font-family="GillSans-Light" font-size="36.0" fill="#000000" transform="matrix(1.00, 0.00, -0.00, -1.00, 699.7, 465.0)">a</text><text xml:space="preserve" font-family="GillSans-Light" font-size="36.0" fill="#000000" transform="matrix(1.00, 0.00, -0.00, -1.00, 715.0, 465.0)">t</text><text xml:space="preserve" font-family="GillSans-Light" font-size="36.0" fill="#000000" transform="matrix(1.00, 0.00, -0.00, -1.00, 725.9, 465.0)">a</text><text xml:space="preserve" font-family="GillSans-Light" font-size="36.0" fill="#000000" transform="matrix(1.00, 0.00, -0.00, -1.00, 741.2, 465.0)"> </text><text xml:space="preserve" font-family="GillSans-Light" font-size="36.0" fill="#000000" transform="matrix(1.00, 0.00, -0.00, -1.00, 751.2, 465.0)">S</text><text xml:space="preserve" font-family="GillSans-Light" font-size="36.0" fill="#000000" transform="matrix(1.00, 0.00, -0.00, -1.00, 768.1, 465.0)">c</text><text xml:space="preserve" font-family="GillSans-Light" font-size="36.0" fill="#000000" transform="matrix(1.00, 0.00, -0.00, -1.00, 783.1, 465.0)">i</text><text xml:space="preserve" font-family="GillSans-Light" font-size="36.0" fill="#000000" transform="matrix(1.00, 0.00, -0.00, -1.00, 789.9, 465.0)">e</text><text xml:space="preserve" font-family="GillSans-Light" font-size="36.0" fill="#000000" transform="matrix(1.00, 0.00, -0.00, -1.00, 807.1, 465.0)">n</text><text xml:space="preserve" font-family="GillSans-Light" font-size="36.0" fill="#000000" transform="matrix(1.00, 0.00, -0.00, -1.00, 824.8, 465.0)">t</text><text xml:space="preserve" font-family="GillSans-Light" font-size="36.0" fill="#000000" transform="matrix(1.00, 0.00, -0.00, -1.00, 835.7, 465.0)">i</text><text xml:space="preserve" font-family="GillSans-Light" font-size="36.0" fill="#000000" transform="matrix(1.00, 0.00, -0.00, -1.00, 842.4, 465.0)">s</text><text xml:space="preserve" font-family="GillSans-Light" font-size="36.0" fill="#000000" transform="matrix(1.00, 0.00, -0.00, -1.00, 855.2, 465.0)">t</text><text xml:space="preserve" font-family="GillSans-Light" font-size="36.0" fill="#000000" transform="matrix(1.00, 0.00, -0.00, -1.00, 866.0, 465.0)">s</text><path d="M 326.3 597.4 L 326.3 642.0 C 326.3 650.3 333.0 657.0 341.3 657.0 L 693.1 657.0 C 701.4 657.0 708.1 650.3 708.1 642.0 L 708.1 597.4 C 708.1 589.1 701.4 582.4 693.1 582.4 L 341.3 582.4 C 333.0 582.4 326.3 589.1 326.3 597.4 Z M 326.3 597.4 " fill="#D99719"></path><image xlink:href="../../54B2811F-6CCE-482C-919A-9CFC0C84F49B/assets/EC3CC8211906CA486E7A77741E645826.png" width="161.00" height="40.00" transform="matrix(1.00, 0.00, -0.00, -1.00, 437.0, 634.0)"></image><text xml:space="preserve" font-family="GillSans-Light" font-size="36.0" fill="#000000" transform="matrix(1.00, 0.00, -0.00, -1.00, 439.0, 608.0)">G</text><text xml:space="preserve" font-family="GillSans-Light" font-size="36.0" fill="#000000" transform="matrix(1.00, 0.00, -0.00, -1.00, 464.9, 608.0)">o</text><text xml:space="preserve" font-family="GillSans-Light" font-size="36.0" fill="#000000" transform="matrix(1.00, 0.00, -0.00, -1.00, 483.7, 608.0)">v</text><text xml:space="preserve" font-family="GillSans-Light" font-size="36.0" fill="#000000" transform="matrix(1.00, 0.00, -0.00, -1.00, 499.0, 608.0)">’</text><text xml:space="preserve" font-family="GillSans-Light" font-size="36.0" fill="#000000" transform="matrix(1.00, 0.00, -0.00, -1.00, 505.4, 608.0)">t</text><text xml:space="preserve" font-family="GillSans-Light" font-size="36.0" fill="#000000" transform="matrix(1.00, 0.00, -0.00, -1.00, 516.3, 608.0)"> </text><text xml:space="preserve" font-family="GillSans-Light" font-size="36.0" fill="#000000" transform="matrix(1.00, 0.00, -0.00, -1.00, 526.3, 608.0)">R</text><text xml:space="preserve" font-family="GillSans-Light" font-size="36.0" fill="#000000" transform="matrix(1.00, 0.00, -0.00, -1.00, 546.9, 608.0)">e</text><text xml:space="preserve" font-family="GillSans-Light" font-size="36.0" fill="#000000" transform="matrix(1.00, 0.00, -0.00, -1.00, 564.1, 608.0)">p</text><text xml:space="preserve" font-family="GillSans-Light" font-size="36.0" fill="#000000" transform="matrix(1.00, 0.00, -0.00, -1.00, 582.5, 608.0)">s</text><path d="M 105.0 455.1 L 105.0 499.7 C 105.0 508.0 111.7 514.7 120.0 514.7 L 375.7 514.7 C 384.0 514.7 390.7 508.0 390.7 499.7 L 390.7 455.1 C 390.7 446.8 384.0 440.1 375.7 440.1 L 120.0 440.1 C 111.7 440.1 105.0 446.8 105.0 455.1 Z M 105.0 455.1 " fill="#D99719"></path><image xlink:href="../../54B2811F-6CCE-482C-919A-9CFC0C84F49B/assets/5E58B0318BC0613CAB20AD5AB193DFFB.png" width="163.00" height="32.00" transform="matrix(1.00, 0.00, -0.00, -1.00, 167.0, 491.0)"></image><text xml:space="preserve" font-family="GillSans-Light" font-size="36.0" fill="#000000" transform="matrix(1.00, 0.00, -0.00, -1.00, 169.0, 465.0)">S</text><text xml:space="preserve" font-family="GillSans-Light" font-size="36.0" fill="#000000" transform="matrix(1.00, 0.00, -0.00, -1.00, 185.9, 465.0)">t</text><text xml:space="preserve" font-family="GillSans-Light" font-size="36.0" fill="#000000" transform="matrix(1.00, 0.00, -0.00, -1.00, 196.8, 465.0)">a</text><text xml:space="preserve" font-family="GillSans-Light" font-size="36.0" fill="#000000" transform="matrix(1.00, 0.00, -0.00, -1.00, 212.1, 465.0)">t</text><text xml:space="preserve" font-family="GillSans-Light" font-size="36.0" fill="#000000" transform="matrix(1.00, 0.00, -0.00, -1.00, 223.0, 465.0)">i</text><text xml:space="preserve" font-family="GillSans-Light" font-size="36.0" fill="#000000" transform="matrix(1.00, 0.00, -0.00, -1.00, 229.7, 465.0)">s</text><text xml:space="preserve" font-family="GillSans-Light" font-size="36.0" fill="#000000" transform="matrix(1.00, 0.00, -0.00, -1.00, 242.5, 465.0)">t</text><text xml:space="preserve" font-family="GillSans-Light" font-size="36.0" fill="#000000" transform="matrix(1.00, 0.00, -0.00, -1.00, 253.3, 465.0)">i</text><text xml:space="preserve" font-family="GillSans-Light" font-size="36.0" fill="#000000" transform="matrix(1.00, 0.00, -0.00, -1.00, 260.1, 465.0)">c</text><text xml:space="preserve" font-family="GillSans-Light" font-size="36.0" fill="#000000" transform="matrix(1.00, 0.00, -0.00, -1.00, 275.1, 465.0)">i</text><text xml:space="preserve" font-family="GillSans-Light" font-size="36.0" fill="#000000" transform="matrix(1.00, 0.00, -0.00, -1.00, 281.9, 465.0)">a</text><text xml:space="preserve" font-family="GillSans-Light" font-size="36.0" fill="#000000" transform="matrix(1.00, 0.00, -0.00, -1.00, 297.2, 465.0)">n</text><text xml:space="preserve" font-family="GillSans-Light" font-size="36.0" fill="#000000" transform="matrix(1.00, 0.00, -0.00, -1.00, 314.9, 465.0)">s</text><path d="M 633.3 253.7 L 633.3 298.3 C 633.3 306.6 640.0 313.3 648.3 313.3 L 904.0 313.3 C 912.3 313.3 919.0 306.6 919.0 298.3 L 919.0 253.7 C 919.0 245.4 912.3 238.7 904.0 238.7 L 648.3 238.7 C 640.0 238.7 633.3 245.4 633.3 253.7 Z M 633.3 253.7 " fill="#D99719"></path><image xlink:href="../../54B2811F-6CCE-482C-919A-9CFC0C84F49B/assets/A951469C726BB5ED959315CF191F0C5C.png" width="240.00" height="40.00" transform="matrix(1.00, 0.00, -0.00, -1.00, 657.0, 290.0)"></image><text xml:space="preserve" font-family="GillSans-Light" font-size="36.0" fill="#000000" transform="matrix(1.00, 0.00, -0.00, -1.00, 658.0, 264.0)">E</text><text xml:space="preserve" font-family="GillSans-Light" font-size="36.0" fill="#000000" transform="matrix(1.00, 0.00, -0.00, -1.00, 675.7, 264.0)">n</text><text xml:space="preserve" font-family="GillSans-Light" font-size="36.0" fill="#000000" transform="matrix(1.00, 0.00, -0.00, -1.00, 693.3, 264.0)">g</text><text xml:space="preserve" font-family="GillSans-Light" font-size="36.0" fill="#000000" transform="matrix(1.00, 0.00, -0.00, -1.00, 708.7, 264.0)">a</text><text xml:space="preserve" font-family="GillSans-Light" font-size="36.0" fill="#000000" transform="matrix(1.00, 0.00, -0.00, -1.00, 724.0, 264.0)">g</text><text xml:space="preserve" font-family="GillSans-Light" font-size="36.0" fill="#000000" transform="matrix(1.00, 0.00, -0.00, -1.00, 739.4, 264.0)">e</text><text xml:space="preserve" font-family="GillSans-Light" font-size="36.0" fill="#000000" transform="matrix(1.00, 0.00, -0.00, -1.00, 756.6, 264.0)">d</text><text xml:space="preserve" font-family="GillSans-Light" font-size="36.0" fill="#000000" transform="matrix(1.00, 0.00, -0.00, -1.00, 775.0, 264.0)"> </text><text xml:space="preserve" font-family="GillSans-Light" font-size="36.0" fill="#000000" transform="matrix(1.00, 0.00, -0.00, -1.00, 785.0, 264.0)">C</text><text xml:space="preserve" font-family="GillSans-Light" font-size="36.0" fill="#000000" transform="matrix(1.00, 0.00, -0.00, -1.00, 809.3, 264.0)">i</text><text xml:space="preserve" font-family="GillSans-Light" font-size="36.0" fill="#000000" transform="matrix(1.00, 0.00, -0.00, -1.00, 816.1, 264.0)">t</text><text xml:space="preserve" font-family="GillSans-Light" font-size="36.0" fill="#000000" transform="matrix(1.00, 0.00, -0.00, -1.00, 826.9, 264.0)">i</text><text xml:space="preserve" font-family="GillSans-Light" font-size="36.0" fill="#000000" transform="matrix(1.00, 0.00, -0.00, -1.00, 833.7, 264.0)">z</text><text xml:space="preserve" font-family="GillSans-Light" font-size="36.0" fill="#000000" transform="matrix(1.00, 0.00, -0.00, -1.00, 847.4, 264.0)">e</text><text xml:space="preserve" font-family="GillSans-Light" font-size="36.0" fill="#000000" transform="matrix(1.00, 0.00, -0.00, -1.00, 864.7, 264.0)">n</text><text xml:space="preserve" font-family="GillSans-Light" font-size="36.0" fill="#000000" transform="matrix(1.00, 0.00, -0.00, -1.00, 882.3, 264.0)">s</text></g></svg>