<?xml version="1.0" encoding="UTF-8" standalone="no"?><svg xmlns="http://www.w3.org/2000/svg" xmlns:xlink="http://www.w3.org/1999/xlink" clip-rule="evenodd" stroke-miterlimit="10" viewBox="0 0 1024 768"><desc>SVG generated by Keynote</desc><defs></defs><g transform="matrix(1.00, 0.00, -0.00, -1.00, 0.0, 768.0)"><g><clipPath id="clip0x600000aab700"><path d="M 0.0 768.0 L 1024.0 768.0 L 1024.0 0.0 L 0.0 0.0 Z M 0.0 768.0 "></path></clipPath><g clip-path="url(#clip0x600000aab700)"><image xlink:href="../../B32C0A43-AFB7-4D6F-9198-B3909335F6E9/assets/574DCE55A4CF432400CBDDDE1DFDFC9B.jpeg" width="2048.00" height="1536.00" transform="matrix(0.50, 0.00, -0.00, -0.50, 0.0, 768.0)"></image></g></g><g><clipPath id="clip0x6080004b4ee0"><path d="M 0.0 768.0 L 1024.0 768.0 L 1024.0 0.0 L 0.0 0.0 Z M 0.0 768.0 "></path></clipPath><g clip-path="url(#clip0x6080004b4ee0)"><image xlink:href="1C92EF3AB59FA5030F6B6DC8BBD3EAF3.png" width="1526.00" height="1424.00" transform="matrix(0.44, 0.00, -0.00, -0.44, 175.0, 734.0)"></image></g></g><text xml:space="preserve" font-family="GillSans-Light,Gill Sans" font-size="18.0" fill="#525252" transform="matrix(1.00, 0.00, -0.00, -1.00, 642.5, 58.3)">h</text><text xml:space="preserve" font-family="GillSans-Light,Gill Sans" font-size="18.0" fill="#525252" transform="matrix(1.00, 0.00, -0.00, -1.00, 651.3, 58.3)">t</text><text xml:space="preserve" font-family="GillSans-Light,Gill Sans" font-size="18.0" fill="#525252" transform="matrix(1.00, 0.00, -0.00, -1.00, 656.7, 58.3)">t</text><text xml:space="preserve" font-family="GillSans-Light,Gill Sans" font-size="18.0" fill="#525252" transform="matrix(1.00, 0.00, -0.00, -1.00, 662.1, 58.3)">p</text><text xml:space="preserve" font-family="GillSans-Light,Gill Sans" font-size="18.0" fill="#525252" transform="matrix(1.00, 0.00, -0.00, -1.00, 671.3, 58.3)">s</text><text xml:space="preserve" font-family="GillSans-Light,Gill Sans" font-size="18.0" fill="#525252" transform="matrix(1.00, 0.00, -0.00, -1.00, 677.7, 58.3)">:</text><text xml:space="preserve" font-family="GillSans-Light,Gill Sans" font-size="18.0" fill="#525252" transform="matrix(1.00, 0.00, -0.00, -1.00, 680.9, 58.3)">/</text><text xml:space="preserve" font-family="GillSans-Light,Gill Sans" font-size="18.0" fill="#525252" transform="matrix(1.00, 0.00, -0.00, -1.00, 685.9, 58.3)">/</text><text xml:space="preserve" font-family="GillSans-Light,Gill Sans" font-size="18.0" fill="#525252" transform="matrix(1.00, 0.00, -0.00, -1.00, 691.0, 58.3)">c</text><text xml:space="preserve" font-family="GillSans-Light,Gill Sans" font-size="18.0" fill="#525252" transform="matrix(1.00, 0.00, -0.00, -1.00, 698.5, 58.3)">r</text><text xml:space="preserve" font-family="GillSans-Light,Gill Sans" font-size="18.0" fill="#525252" transform="matrix(1.00, 0.00, -0.00, -1.00, 704.5, 58.3)">e</text><text xml:space="preserve" font-family="GillSans-Light,Gill Sans" font-size="18.0" fill="#525252" transform="matrix(1.00, 0.00, -0.00, -1.00, 713.1, 58.3)">a</text><text xml:space="preserve" font-family="GillSans-Light,Gill Sans" font-size="18.0" fill="#525252" transform="matrix(1.00, 0.00, -0.00, -1.00, 720.8, 58.3)">t</text><text xml:space="preserve" font-family="GillSans-Light,Gill Sans" font-size="18.0" fill="#525252" transform="matrix(1.00, 0.00, -0.00, -1.00, 726.2, 58.3)">i</text><text xml:space="preserve" font-family="GillSans-Light,Gill Sans" font-size="18.0" fill="#525252" transform="matrix(1.00, 0.00, -0.00, -1.00, 729.6, 58.3)">v</text><text xml:space="preserve" font-family="GillSans-Light,Gill Sans" font-size="18.0" fill="#525252" transform="matrix(1.00, 0.00, -0.00, -1.00, 737.0, 58.3)">e</text><text xml:space="preserve" font-family="GillSans-Light,Gill Sans" font-size="18.0" fill="#525252" transform="matrix(1.00, 0.00, -0.00, -1.00, 745.6, 58.3)">c</text><text xml:space="preserve" font-family="GillSans-Light,Gill Sans" font-size="18.0" fill="#525252" transform="matrix(1.00, 0.00, -0.00, -1.00, 753.1, 58.3)">o</text><text xml:space="preserve" font-family="GillSans-Light,Gill Sans" font-size="18.0" fill="#525252" transform="matrix(1.00, 0.00, -0.00, -1.00, 762.9, 58.3)">m</text><text xml:space="preserve" font-family="GillSans-Light,Gill Sans" font-size="18.0" fill="#525252" transform="matrix(1.00, 0.00, -0.00, -1.00, 776.7, 58.3)">m</text><text xml:space="preserve" font-family="GillSans-Light,Gill Sans" font-size="18.0" fill="#525252" transform="matrix(1.00, 0.00, -0.00, -1.00, 790.6, 58.3)">o</text><text xml:space="preserve" font-family="GillSans-Light,Gill Sans" font-size="18.0" fill="#525252" transform="matrix(1.00, 0.00, -0.00, -1.00, 800.4, 58.3)">n</text><text xml:space="preserve" font-family="GillSans-Light,Gill Sans" font-size="18.0" fill="#525252" transform="matrix(1.00, 0.00, -0.00, -1.00, 809.2, 58.3)">s</text><text xml:space="preserve" font-family="GillSans-Light,Gill Sans" font-size="18.0" fill="#525252" transform="matrix(1.00, 0.00, -0.00, -1.00, 815.6, 58.3)">.</text><text xml:space="preserve" font-family="GillSans-Light,Gill Sans" font-size="18.0" fill="#525252" transform="matrix(1.00, 0.00, -0.00, -1.00, 818.7, 58.3)">o</text><text xml:space="preserve" font-family="GillSans-Light,Gill Sans" font-size="18.0" fill="#525252" transform="matrix(1.00, 0.00, -0.00, -1.00, 828.5, 58.3)">r</text><text xml:space="preserve" font-family="GillSans-Light,Gill Sans" font-size="18.0" fill="#525252" transform="matrix(1.00, 0.00, -0.00, -1.00, 834.9, 58.3)">g</text><text xml:space="preserve" font-family="GillSans-Light,Gill Sans" font-size="18.0" fill="#525252" transform="matrix(1.00, 0.00, -0.00, -1.00, 842.6, 58.3)">/</text><text xml:space="preserve" font-family="GillSans-Light,Gill Sans" font-size="18.0" fill="#525252" transform="matrix(1.00, 0.00, -0.00, -1.00, 847.7, 58.3)">l</text><text xml:space="preserve" font-family="GillSans-Light,Gill Sans" font-size="18.0" fill="#525252" transform="matrix(1.00, 0.00, -0.00, -1.00, 851.1, 58.3)">i</text><text xml:space="preserve" font-family="GillSans-Light,Gill Sans" font-size="18.0" fill="#525252" transform="matrix(1.00, 0.00, -0.00, -1.00, 854.4, 58.3)">c</text><text xml:space="preserve" font-family="GillSans-Light,Gill Sans" font-size="18.0" fill="#525252" transform="matrix(1.00, 0.00, -0.00, -1.00, 861.9, 58.3)">e</text><text xml:space="preserve" font-family="GillSans-Light,Gill Sans" font-size="18.0" fill="#525252" transform="matrix(1.00, 0.00, -0.00, -1.00, 870.6, 58.3)">n</text><text xml:space="preserve" font-family="GillSans-Light,Gill Sans" font-size="18.0" fill="#525252" transform="matrix(1.00, 0.00, -0.00, -1.00, 879.4, 58.3)">s</text><text xml:space="preserve" font-family="GillSans-Light,Gill Sans" font-size="18.0" fill="#525252" transform="matrix(1.00, 0.00, -0.00, -1.00, 885.8, 58.3)">e</text><text xml:space="preserve" font-family="GillSans-Light,Gill Sans" font-size="18.0" fill="#525252" transform="matrix(1.00, 0.00, -0.00, -1.00, 894.4, 58.3)">s</text><text xml:space="preserve" font-family="GillSans-Light,Gill Sans" font-size="18.0" fill="#525252" transform="matrix(1.00, 0.00, -0.00, -1.00, 900.8, 58.3)">/</text><text xml:space="preserve" font-family="GillSans-Light,Gill Sans" font-size="18.0" fill="#525252" transform="matrix(1.00, 0.00, -0.00, -1.00, 905.8, 58.3)">b</text><text xml:space="preserve" font-family="GillSans-Light,Gill Sans" font-size="18.0" fill="#525252" transform="matrix(1.00, 0.00, -0.00, -1.00, 914.7, 58.3)">y</text><text xml:space="preserve" font-family="GillSans-Light,Gill Sans" font-size="18.0" fill="#525252" transform="matrix(1.00, 0.00, -0.00, -1.00, 922.2, 58.3)">/</text><text xml:space="preserve" font-family="GillSans-Light,Gill Sans" font-size="18.0" fill="#525252" transform="matrix(1.00, 0.00, -0.00, -1.00, 927.3, 58.3)">4</text><text xml:space="preserve" font-family="GillSans-Light,Gill Sans" font-size="18.0" fill="#525252" transform="matrix(1.00, 0.00, -0.00, -1.00, 936.3, 58.3)">.</text><text xml:space="preserve" font-family="GillSans-Light,Gill Sans" font-size="18.0" fill="#525252" transform="matrix(1.00, 0.00, -0.00, -1.00, 939.4, 58.3)">0</text><text xml:space="preserve" font-family="GillSans-Light,Gill Sans" font-size="18.0" fill="#525252" transform="matrix(1.00, 0.00, -0.00, -1.00, 948.4, 58.3)">/</text><g><clipPath id="clip0x6180006bbcc0"><path d="M 641.5 55.5 L 953.5 55.5 L 953.5 58.4 L 641.5 58.4 Z M 641.5 55.5 "></path></clipPath><g clip-path="url(#clip0x6180006bbcc0)"><path d="M 4.5 21.1 L 315.6 21.1 " fill="none" stroke="#525252" stroke-width="0.90" transform="matrix(1.00, 0.00, 0.00, -1.00, 638.0, 78.0)"></path></g></g></g></svg>