<?xml version="1.0" encoding="UTF-8" standalone="no"?><svg xmlns="http://www.w3.org/2000/svg" xmlns:xlink="http://www.w3.org/1999/xlink" clip-rule="evenodd" stroke-miterlimit="10" viewBox="0 0 1024 768"><desc>SVG generated by Keynote</desc><defs></defs><g transform="matrix(1.00, 0.00, -0.00, -1.00, 0.0, 768.0)"><g><clipPath id="clip0x6080008bdd60"><path d="M 0.0 768.0 L 1024.0 768.0 L 1024.0 0.0 L 0.0 0.0 Z M 0.0 768.0 "></path></clipPath><g clip-path="url(#clip0x6080008bdd60)"><image xlink:href="../../B32C0A43-AFB7-4D6F-9198-B3909335F6E9/assets/574DCE55A4CF432400CBDDDE1DFDFC9B.jpeg" width="2048.00" height="1536.00" transform="matrix(0.50, 0.00, -0.00, -0.50, 0.0, 768.0)"></image></g></g><g><clipPath id="clip0x6080008bd9a0"><path d="M 0.0 768.0 L 1024.0 768.0 L 1024.0 0.0 L 0.0 0.0 Z M 0.0 768.0 "></path></clipPath><g clip-path="url(#clip0x6080008bd9a0)"><image xlink:href="../../7E598971-446F-4989-AC84-25AA5E192499/assets/8EC3B97F166AEE23D17F97B2B7147EC5.jpeg" width="4096.00" height="3007.00" transform="matrix(0.20, 0.00, -0.00, -0.20, 109.0, 680.0)"></image></g></g><text xml:space="preserve" font-family="GillSans-Light,Gill Sans" font-size="18.0" fill="#525252" transform="matrix(1.00, 0.00, -0.00, -1.00, 629.7, 35.3)">S</text><text xml:space="preserve" font-family="GillSans-Light,Gill Sans" font-size="18.0" fill="#525252" transform="matrix(1.00, 0.00, -0.00, -1.00, 638.2, 35.3)">a</text><text xml:space="preserve" font-family="GillSans-Light,Gill Sans" font-size="18.0" fill="#525252" transform="matrix(1.00, 0.00, -0.00, -1.00, 645.8, 35.3)">m</text><text xml:space="preserve" font-family="GillSans-Light,Gill Sans" font-size="18.0" fill="#525252" transform="matrix(1.00, 0.00, -0.00, -1.00, 659.5, 35.3)">u</text><text xml:space="preserve" font-family="GillSans-Light,Gill Sans" font-size="18.0" fill="#525252" transform="matrix(1.00, 0.00, -0.00, -1.00, 668.3, 35.3)">e</text><text xml:space="preserve" font-family="GillSans-Light,Gill Sans" font-size="18.0" fill="#525252" transform="matrix(1.00, 0.00, -0.00, -1.00, 676.9, 35.3)">l</text><text xml:space="preserve" font-family="GillSans-Light,Gill Sans" font-size="18.0" fill="#525252" transform="matrix(1.00, 0.00, -0.00, -1.00, 680.3, 35.3)"> </text><text xml:space="preserve" font-family="GillSans-Light,Gill Sans" font-size="18.0" fill="#525252" transform="matrix(1.00, 0.00, -0.00, -1.00, 685.3, 35.3)">H</text><text xml:space="preserve" font-family="GillSans-Light,Gill Sans" font-size="18.0" fill="#525252" transform="matrix(1.00, 0.00, -0.00, -1.00, 698.2, 35.3)">o</text><text xml:space="preserve" font-family="GillSans-Light,Gill Sans" font-size="18.0" fill="#525252" transform="matrix(1.00, 0.00, -0.00, -1.00, 708.0, 35.3)">l</text><text xml:space="preserve" font-family="GillSans-Light,Gill Sans" font-size="18.0" fill="#525252" transform="matrix(1.00, 0.00, -0.00, -1.00, 711.4, 35.3)">l</text><text xml:space="preserve" font-family="GillSans-Light,Gill Sans" font-size="18.0" fill="#525252" transform="matrix(1.00, 0.00, -0.00, -1.00, 714.8, 35.3)">a</text><text xml:space="preserve" font-family="GillSans-Light,Gill Sans" font-size="18.0" fill="#525252" transform="matrix(1.00, 0.00, -0.00, -1.00, 722.4, 35.3)">n</text><text xml:space="preserve" font-family="GillSans-Light,Gill Sans" font-size="18.0" fill="#525252" transform="matrix(1.00, 0.00, -0.00, -1.00, 731.3, 35.3)">d</text><text xml:space="preserve" font-family="GillSans-Light,Gill Sans" font-size="18.0" fill="#525252" transform="matrix(1.00, 0.00, -0.00, -1.00, 740.4, 35.3)">,</text><text xml:space="preserve" font-family="GillSans-Light,Gill Sans" font-size="18.0" fill="#525252" transform="matrix(1.00, 0.00, -0.00, -1.00, 742.2, 35.3)"> </text><text xml:space="preserve" font-family="GillSans-Light,Gill Sans" font-size="18.0" fill="#525252" transform="matrix(1.00, 0.00, -0.00, -1.00, 747.2, 35.3)">I</text><text xml:space="preserve" font-family="GillSans-Light,Gill Sans" font-size="18.0" fill="#525252" transform="matrix(1.00, 0.00, -0.00, -1.00, 750.9, 35.3)">m</text><text xml:space="preserve" font-family="GillSans-Light,Gill Sans" font-size="18.0" fill="#525252" transform="matrix(1.00, 0.00, -0.00, -1.00, 764.8, 35.3)">a</text><text xml:space="preserve" font-family="GillSans-Light,Gill Sans" font-size="18.0" fill="#525252" transform="matrix(1.00, 0.00, -0.00, -1.00, 772.5, 35.3)">g</text><text xml:space="preserve" font-family="GillSans-Light,Gill Sans" font-size="18.0" fill="#525252" transform="matrix(1.00, 0.00, -0.00, -1.00, 780.1, 35.3)">e</text><text xml:space="preserve" font-family="GillSans-Light,Gill Sans" font-size="18.0" fill="#525252" transform="matrix(1.00, 0.00, -0.00, -1.00, 788.8, 35.3)">:</text><text xml:space="preserve" font-family="GillSans-Light,Gill Sans" font-size="18.0" fill="#525252" transform="matrix(1.00, 0.00, -0.00, -1.00, 790.5, 35.3)"> </text><text xml:space="preserve" font-family="GillSans-Light,Gill Sans" font-size="18.0" fill="#525252" transform="matrix(1.00, 0.00, -0.00, -1.00, 795.5, 35.3)">B</text><text xml:space="preserve" font-family="GillSans-Light,Gill Sans" font-size="18.0" fill="#525252" transform="matrix(1.00, 0.00, -0.00, -1.00, 805.1, 35.3)">o</text><text xml:space="preserve" font-family="GillSans-Light,Gill Sans" font-size="18.0" fill="#525252" transform="matrix(1.00, 0.00, -0.00, -1.00, 814.8, 35.3)">s</text><text xml:space="preserve" font-family="GillSans-Light,Gill Sans" font-size="18.0" fill="#525252" transform="matrix(1.00, 0.00, -0.00, -1.00, 821.2, 35.3)">t</text><text xml:space="preserve" font-family="GillSans-Light,Gill Sans" font-size="18.0" fill="#525252" transform="matrix(1.00, 0.00, -0.00, -1.00, 826.6, 35.3)">o</text><text xml:space="preserve" font-family="GillSans-Light,Gill Sans" font-size="18.0" fill="#525252" transform="matrix(1.00, 0.00, -0.00, -1.00, 836.4, 35.3)">n</text><text xml:space="preserve" font-family="GillSans-Light,Gill Sans" font-size="18.0" fill="#525252" transform="matrix(1.00, 0.00, -0.00, -1.00, 845.2, 35.3)"> </text><text xml:space="preserve" font-family="GillSans-Light,Gill Sans" font-size="18.0" fill="#525252" transform="matrix(1.00, 0.00, -0.00, -1.00, 850.2, 35.3)">P</text><text xml:space="preserve" font-family="GillSans-Light,Gill Sans" font-size="18.0" fill="#525252" transform="matrix(1.00, 0.00, -0.00, -1.00, 859.4, 35.3)">u</text><text xml:space="preserve" font-family="GillSans-Light,Gill Sans" font-size="18.0" fill="#525252" transform="matrix(1.00, 0.00, -0.00, -1.00, 868.2, 35.3)">b</text><text xml:space="preserve" font-family="GillSans-Light,Gill Sans" font-size="18.0" fill="#525252" transform="matrix(1.00, 0.00, -0.00, -1.00, 877.1, 35.3)">l</text><text xml:space="preserve" font-family="GillSans-Light,Gill Sans" font-size="18.0" fill="#525252" transform="matrix(1.00, 0.00, -0.00, -1.00, 880.5, 35.3)">i</text><text xml:space="preserve" font-family="GillSans-Light,Gill Sans" font-size="18.0" fill="#525252" transform="matrix(1.00, 0.00, -0.00, -1.00, 883.9, 35.3)">c</text><text xml:space="preserve" font-family="GillSans-Light,Gill Sans" font-size="18.0" fill="#525252" transform="matrix(1.00, 0.00, -0.00, -1.00, 891.4, 35.3)"> </text><text xml:space="preserve" font-family="GillSans-Light,Gill Sans" font-size="18.0" fill="#525252" transform="matrix(1.00, 0.00, -0.00, -1.00, 896.4, 35.3)">L</text><text xml:space="preserve" font-family="GillSans-Light,Gill Sans" font-size="18.0" fill="#525252" transform="matrix(1.00, 0.00, -0.00, -1.00, 904.8, 35.3)">i</text><text xml:space="preserve" font-family="GillSans-Light,Gill Sans" font-size="18.0" fill="#525252" transform="matrix(1.00, 0.00, -0.00, -1.00, 908.2, 35.3)">b</text><text xml:space="preserve" font-family="GillSans-Light,Gill Sans" font-size="18.0" fill="#525252" transform="matrix(1.00, 0.00, -0.00, -1.00, 917.4, 35.3)">r</text><text xml:space="preserve" font-family="GillSans-Light,Gill Sans" font-size="18.0" fill="#525252" transform="matrix(1.00, 0.00, -0.00, -1.00, 923.8, 35.3)">a</text><text xml:space="preserve" font-family="GillSans-Light,Gill Sans" font-size="18.0" fill="#525252" transform="matrix(1.00, 0.00, -0.00, -1.00, 931.5, 35.3)">r</text><text xml:space="preserve" font-family="GillSans-Light,Gill Sans" font-size="18.0" fill="#525252" transform="matrix(1.00, 0.00, -0.00, -1.00, 938.7, 35.3)">y</text></g></svg>