<?xml version="1.0" encoding="UTF-8" standalone="no"?><svg xmlns="http://www.w3.org/2000/svg" xmlns:xlink="http://www.w3.org/1999/xlink" clip-rule="evenodd" stroke-miterlimit="4.00" viewBox="0 0 1024 768"><desc>SVG generated by Keynote</desc><defs></defs><g transform="matrix(1.00, 0.00, -0.00, -1.00, 0.0, 768.0)"><g><clipPath id="clip-810"><path d="M 0.0 768.0 L 1024.0 768.0 L 1024.0 0.0 L 0.0 0.0 Z M 0.0 768.0 "></path></clipPath><g clip-path="url(#clip-810)"><image xlink:href="../../E8782ACA-0DD6-462E-AFA6-8D26C4A2FECE/assets/107E65D87114B546DB29000410A7B5AF.jpeg" width="1024.00" height="768.00" transform="matrix(1.00, 0.00, -0.00, -1.00, 0.0, 768.0)"></image></g></g><text xml:space="preserve" font-family="GillSans-Light" font-size="54.0" fill="#525252" transform="matrix(1.00, 0.00, -0.00, -1.00, 439.0, 427.0)">P</text><text xml:space="preserve" font-family="GillSans-Light" font-size="54.0" fill="#525252" transform="matrix(1.00, 0.00, -0.00, -1.00, 463.8, 427.0)">o</text><text xml:space="preserve" font-family="GillSans-Light" font-size="54.0" fill="#525252" transform="matrix(1.00, 0.00, -0.00, -1.00, 493.1, 427.0)">r</text><text xml:space="preserve" font-family="GillSans-Light" font-size="54.0" fill="#525252" transform="matrix(1.00, 0.00, -0.00, -1.00, 515.4, 427.0)">t</text><text xml:space="preserve" font-family="GillSans-Light" font-size="54.0" fill="#525252" transform="matrix(1.00, 0.00, -0.00, -1.00, 531.7, 427.0)">a</text><text xml:space="preserve" font-family="GillSans-Light" font-size="54.0" fill="#525252" transform="matrix(1.00, 0.00, -0.00, -1.00, 554.7, 427.0)">l</text><text xml:space="preserve" font-family="GillSans-Light" font-size="54.0" fill="#525252" transform="matrix(1.00, 0.00, -0.00, -1.00, 564.9, 427.0)">s</text><text xml:space="preserve" font-family="GillSans-Light" font-size="54.0" fill="#525252" transform="matrix(1.00, 0.00, -0.00, -1.00, 495.0, 366.0)">&amp;</text><text xml:space="preserve" font-family="GillSans-Light" font-size="54.0" fill="#525252" transform="matrix(1.00, 0.00, -0.00, -1.00, 413.0, 305.0)">D</text><text xml:space="preserve" font-family="GillSans-Light" font-size="54.0" fill="#525252" transform="matrix(1.00, 0.00, -0.00, -1.00, 453.0, 305.0)">a</text><text xml:space="preserve" font-family="GillSans-Light" font-size="54.0" fill="#525252" transform="matrix(1.00, 0.00, -0.00, -1.00, 476.0, 305.0)">t</text><text xml:space="preserve" font-family="GillSans-Light" font-size="54.0" fill="#525252" transform="matrix(1.00, 0.00, -0.00, -1.00, 492.3, 305.0)">a</text><text xml:space="preserve" font-family="GillSans-Light" font-size="54.0" fill="#525252" transform="matrix(1.00, 0.00, -0.00, -1.00, 515.3, 305.0)"> </text><text xml:space="preserve" font-family="GillSans-Light" font-size="54.0" fill="#525252" transform="matrix(1.00, 0.00, -0.00, -1.00, 530.3, 305.0)">s</text><text xml:space="preserve" font-family="GillSans-Light" font-size="54.0" fill="#525252" transform="matrix(1.00, 0.00, -0.00, -1.00, 549.4, 305.0)">e</text><text xml:space="preserve" font-family="GillSans-Light" font-size="54.0" fill="#525252" transform="matrix(1.00, 0.00, -0.00, -1.00, 575.3, 305.0)">t</text><text xml:space="preserve" font-family="GillSans-Light" font-size="54.0" fill="#525252" transform="matrix(1.00, 0.00, -0.00, -1.00, 591.6, 305.0)">s</text></g></svg>