<?xml version="1.0" encoding="UTF-8" standalone="no"?><svg xmlns="http://www.w3.org/2000/svg" xmlns:xlink="http://www.w3.org/1999/xlink" clip-rule="evenodd" stroke-miterlimit="4.00" viewBox="0 0 1024 768"><desc>SVG generated by Keynote</desc><defs></defs><g transform="matrix(1.00, 0.00, -0.00, -1.00, 0.0, 768.0)"><g><clipPath id="clip-115"><path d="M 0.0 768.0 L 1024.0 768.0 L 1024.0 0.0 L 0.0 0.0 Z M 0.0 768.0 "></path></clipPath><g clip-path="url(#clip-115)"><image xlink:href="../../E8782ACA-0DD6-462E-AFA6-8D26C4A2FECE/assets/107E65D87114B546DB29000410A7B5AF.jpeg" width="1024.00" height="768.00" transform="matrix(1.00, 0.00, -0.00, -1.00, 0.0, 768.0)"></image></g></g><image xlink:href="646211EC7EB14DE8BB25B4385C7F0F26.jpeg" width="658.00" height="641.00" transform="matrix(1.00, 0.00, -0.00, -1.00, 183.0, 734.0)"></image><image xlink:href="227858FCE6FFFDA645AAB24F0853A47B.png" width="307.00" height="23.00" transform="matrix(1.00, 0.00, -0.00, -1.00, 312.0, 65.0)"></image><text xml:space="preserve" font-family="AvenirNext-MediumItalic" font-style="italic" font-size="17.0" fill="#5D514B" transform="matrix(1.00, 0.00, -0.00, -1.00, 314.0, 51.0)">o</text><text xml:space="preserve" font-family="AvenirNext-MediumItalic" font-style="italic" font-size="17.0" fill="#5D514B" transform="matrix(1.00, 0.00, -0.00, -1.00, 324.2, 51.0)">p</text><text xml:space="preserve" font-family="AvenirNext-MediumItalic" font-style="italic" font-size="17.0" fill="#5D514B" transform="matrix(1.00, 0.00, -0.00, -1.00, 334.9, 51.0)">e</text><text xml:space="preserve" font-family="AvenirNext-MediumItalic" font-style="italic" font-size="17.0" fill="#5D514B" transform="matrix(1.00, 0.00, -0.00, -1.00, 344.5, 51.0)">n</text><text xml:space="preserve" font-family="AvenirNext-MediumItalic" font-style="italic" font-size="17.0" fill="#5D514B" transform="matrix(1.00, 0.00, -0.00, -1.00, 354.4, 51.0)"> </text><text xml:space="preserve" font-family="AvenirNext-MediumItalic" font-style="italic" font-size="17.0" fill="#5D514B" transform="matrix(1.00, 0.00, -0.00, -1.00, 358.7, 51.0)">g</text><text xml:space="preserve" font-family="AvenirNext-MediumItalic" font-style="italic" font-size="17.0" fill="#5D514B" transform="matrix(1.00, 0.00, -0.00, -1.00, 369.4, 51.0)">o</text><text xml:space="preserve" font-family="AvenirNext-MediumItalic" font-style="italic" font-size="17.0" fill="#5D514B" transform="matrix(1.00, 0.00, -0.00, -1.00, 379.6, 51.0)">v</text><text xml:space="preserve" font-family="AvenirNext-MediumItalic" font-style="italic" font-size="17.0" fill="#5D514B" transform="matrix(1.00, 0.00, -0.00, -1.00, 387.9, 51.0)">e</text><text xml:space="preserve" font-family="AvenirNext-MediumItalic" font-style="italic" font-size="17.0" fill="#5D514B" transform="matrix(1.00, 0.00, -0.00, -1.00, 397.5, 51.0)">r</text><text xml:space="preserve" font-family="AvenirNext-MediumItalic" font-style="italic" font-size="17.0" fill="#5D514B" transform="matrix(1.00, 0.00, -0.00, -1.00, 403.4, 51.0)">n</text><text xml:space="preserve" font-family="AvenirNext-MediumItalic" font-style="italic" font-size="17.0" fill="#5D514B" transform="matrix(1.00, 0.00, -0.00, -1.00, 413.2, 51.0)">e</text><text xml:space="preserve" font-family="AvenirNext-MediumItalic" font-style="italic" font-size="17.0" fill="#5D514B" transform="matrix(1.00, 0.00, -0.00, -1.00, 422.8, 51.0)">m</text><text xml:space="preserve" font-family="AvenirNext-MediumItalic" font-style="italic" font-size="17.0" fill="#5D514B" transform="matrix(1.00, 0.00, -0.00, -1.00, 437.9, 51.0)">e</text><text xml:space="preserve" font-family="AvenirNext-MediumItalic" font-style="italic" font-size="17.0" fill="#5D514B" transform="matrix(1.00, 0.00, -0.00, -1.00, 447.5, 51.0)">n</text><text xml:space="preserve" font-family="AvenirNext-MediumItalic" font-style="italic" font-size="17.0" fill="#5D514B" transform="matrix(1.00, 0.00, -0.00, -1.00, 457.3, 51.0)">t</text><text xml:space="preserve" font-family="AvenirNext-MediumItalic" font-style="italic" font-size="17.0" fill="#5D514B" transform="matrix(1.00, 0.00, -0.00, -1.00, 462.9, 51.0)"> </text><text xml:space="preserve" font-family="AvenirNext-MediumItalic" font-style="italic" font-size="17.0" fill="#5D514B" transform="matrix(1.00, 0.00, -0.00, -1.00, 467.1, 51.0)">p</text><text xml:space="preserve" font-family="AvenirNext-MediumItalic" font-style="italic" font-size="17.0" fill="#5D514B" transform="matrix(1.00, 0.00, -0.00, -1.00, 477.8, 51.0)">a</text><text xml:space="preserve" font-family="AvenirNext-MediumItalic" font-style="italic" font-size="17.0" fill="#5D514B" transform="matrix(1.00, 0.00, -0.00, -1.00, 487.0, 51.0)">r</text><text xml:space="preserve" font-family="AvenirNext-MediumItalic" font-style="italic" font-size="17.0" fill="#5D514B" transform="matrix(1.00, 0.00, -0.00, -1.00, 492.6, 51.0)">t</text><text xml:space="preserve" font-family="AvenirNext-MediumItalic" font-style="italic" font-size="17.0" fill="#5D514B" transform="matrix(1.00, 0.00, -0.00, -1.00, 498.1, 51.0)">n</text><text xml:space="preserve" font-family="AvenirNext-MediumItalic" font-style="italic" font-size="17.0" fill="#5D514B" transform="matrix(1.00, 0.00, -0.00, -1.00, 508.0, 51.0)">e</text><text xml:space="preserve" font-family="AvenirNext-MediumItalic" font-style="italic" font-size="17.0" fill="#5D514B" transform="matrix(1.00, 0.00, -0.00, -1.00, 517.6, 51.0)">r</text><text xml:space="preserve" font-family="AvenirNext-MediumItalic" font-style="italic" font-size="17.0" fill="#5D514B" transform="matrix(1.00, 0.00, -0.00, -1.00, 523.4, 51.0)">s</text><text xml:space="preserve" font-family="AvenirNext-MediumItalic" font-style="italic" font-size="17.0" fill="#5D514B" transform="matrix(1.00, 0.00, -0.00, -1.00, 531.0, 51.0)">h</text><text xml:space="preserve" font-family="AvenirNext-MediumItalic" font-style="italic" font-size="17.0" fill="#5D514B" transform="matrix(1.00, 0.00, -0.00, -1.00, 540.8, 51.0)">i</text><text xml:space="preserve" font-family="AvenirNext-MediumItalic" font-style="italic" font-size="17.0" fill="#5D514B" transform="matrix(1.00, 0.00, -0.00, -1.00, 545.3, 51.0)">p</text><text xml:space="preserve" font-family="AvenirNext-MediumItalic" font-style="italic" font-size="17.0" fill="#5D514B" transform="matrix(1.00, 0.00, -0.00, -1.00, 556.0, 51.0)"> </text><text xml:space="preserve" font-family="AvenirNext-MediumItalic" font-style="italic" font-size="17.0" fill="#5D514B" transform="matrix(1.00, 0.00, -0.00, -1.00, 560.2, 51.0)">t</text><text xml:space="preserve" font-family="AvenirNext-MediumItalic" font-style="italic" font-size="17.0" fill="#5D514B" transform="matrix(1.00, 0.00, -0.00, -1.00, 565.8, 51.0)">h</text><text xml:space="preserve" font-family="AvenirNext-MediumItalic" font-style="italic" font-size="17.0" fill="#5D514B" transform="matrix(1.00, 0.00, -0.00, -1.00, 575.6, 51.0)">e</text><text xml:space="preserve" font-family="AvenirNext-MediumItalic" font-style="italic" font-size="17.0" fill="#5D514B" transform="matrix(1.00, 0.00, -0.00, -1.00, 585.2, 51.0)">m</text><text xml:space="preserve" font-family="AvenirNext-MediumItalic" font-style="italic" font-size="17.0" fill="#5D514B" transform="matrix(1.00, 0.00, -0.00, -1.00, 600.3, 51.0)">e</text><text xml:space="preserve" font-family="AvenirNext-MediumItalic" font-style="italic" font-size="17.0" fill="#5D514B" transform="matrix(1.00, 0.00, -0.00, -1.00, 609.9, 51.0)">s</text><image xlink:href="5C31C7CED7DB6219FB321B3963DF7B6A.png" width="94.00" height="22.00" transform="matrix(1.00, 0.00, -0.00, -1.00, 618.0, 64.0)"></image><text xml:space="preserve" font-family="AvenirNext-MediumItalic" font-style="italic" font-size="17.0" fill="#5D514B" transform="matrix(1.00, 0.00, -0.00, -1.00, 617.4, 51.0)"> </text><text xml:space="preserve" font-family="AvenirNext-MediumItalic" font-style="italic" font-size="17.0" fill="#5D514B" transform="matrix(1.00, 0.00, -0.00, -1.00, 621.7, 51.0)">,</text><text xml:space="preserve" font-family="AvenirNext-MediumItalic" font-style="italic" font-size="17.0" fill="#5D514B" transform="matrix(1.00, 0.00, -0.00, -1.00, 625.6, 51.0)"> </text><text xml:space="preserve" font-family="AvenirNext-MediumItalic" font-style="italic" font-size="17.0" fill="#5D514B" transform="matrix(1.00, 0.00, -0.00, -1.00, 629.8, 51.0)">j</text><text xml:space="preserve" font-family="AvenirNext-MediumItalic" font-style="italic" font-size="17.0" fill="#5D514B" transform="matrix(1.00, 0.00, -0.00, -1.00, 634.2, 51.0)">u</text><text xml:space="preserve" font-family="AvenirNext-MediumItalic" font-style="italic" font-size="17.0" fill="#5D514B" transform="matrix(1.00, 0.00, -0.00, -1.00, 644.1, 51.0)">s</text><text xml:space="preserve" font-family="AvenirNext-MediumItalic" font-style="italic" font-size="17.0" fill="#5D514B" transform="matrix(1.00, 0.00, -0.00, -1.00, 651.7, 51.0)">t</text><text xml:space="preserve" font-family="AvenirNext-MediumItalic" font-style="italic" font-size="17.0" fill="#5D514B" transform="matrix(1.00, 0.00, -0.00, -1.00, 657.2, 51.0)">g</text><text xml:space="preserve" font-family="AvenirNext-MediumItalic" font-style="italic" font-size="17.0" fill="#5D514B" transform="matrix(1.00, 0.00, -0.00, -1.00, 667.9, 51.0)">r</text><text xml:space="preserve" font-family="AvenirNext-MediumItalic" font-style="italic" font-size="17.0" fill="#5D514B" transform="matrix(1.00, 0.00, -0.00, -1.00, 673.7, 51.0)">i</text><text xml:space="preserve" font-family="AvenirNext-MediumItalic" font-style="italic" font-size="17.0" fill="#5D514B" transform="matrix(1.00, 0.00, -0.00, -1.00, 678.1, 51.0)">m</text><text xml:space="preserve" font-family="AvenirNext-MediumItalic" font-style="italic" font-size="17.0" fill="#5D514B" transform="matrix(1.00, 0.00, -0.00, -1.00, 693.1, 51.0)">e</text><text xml:space="preserve" font-family="AvenirNext-MediumItalic" font-style="italic" font-size="17.0" fill="#5D514B" transform="matrix(1.00, 0.00, -0.00, -1.00, 702.7, 51.0)">s</text><text xml:space="preserve" font-family="AvenirNext-MediumItalic" font-style="italic" font-size="17.0" fill="#5D514B" transform="matrix(1.00, 0.00, -0.00, -1.00, 710.3, 51.0)"> </text><g><clipPath id="clip-116"><path d="M 312.9 48.0 L 617.3 48.0 L 617.3 50.9 L 312.9 50.9 Z M 312.9 48.0 "></path></clipPath><g clip-path="url(#clip-116)"><path d="M 52.2 22.1 L 355.6 22.1 " fill="none" stroke="#5D514B" stroke-width="0.85" stroke-miterlimit="0.00" transform="matrix(1.00, 0.00, 0.00, -1.00, 261.7, 71.5)"></path></g></g><image xlink:href="0B04E13C47BED5C167889AA98ECCBD1A.png" width="106.00" height="19.00" transform="matrix(1.00, 0.00, -0.00, -1.00, 823.0, 65.0)"></image><text xml:space="preserve" font-family="AvenirNext-MediumItalic" font-style="italic" font-size="17.0" fill="#5D514B" transform="matrix(1.00, 0.00, -0.00, -1.00, 825.0, 51.0)">C</text><text xml:space="preserve" font-family="AvenirNext-MediumItalic" font-style="italic" font-size="17.0" fill="#5D514B" transform="matrix(1.00, 0.00, -0.00, -1.00, 836.7, 51.0)">C</text><text xml:space="preserve" font-family="AvenirNext-MediumItalic" font-style="italic" font-size="17.0" fill="#5D514B" transform="matrix(1.00, 0.00, -0.00, -1.00, 848.6, 51.0)"> </text><text xml:space="preserve" font-family="AvenirNext-MediumItalic" font-style="italic" font-size="17.0" fill="#5D514B" transform="matrix(1.00, 0.00, -0.00, -1.00, 852.8, 51.0)">B</text><text xml:space="preserve" font-family="AvenirNext-MediumItalic" font-style="italic" font-size="17.0" fill="#5D514B" transform="matrix(1.00, 0.00, -0.00, -1.00, 863.5, 51.0)">Y</text><text xml:space="preserve" font-family="AvenirNext-MediumItalic" font-style="italic" font-size="17.0" fill="#5D514B" transform="matrix(1.00, 0.00, -0.00, -1.00, 872.0, 51.0)">-</text><text xml:space="preserve" font-family="AvenirNext-MediumItalic" font-style="italic" font-size="17.0" fill="#5D514B" transform="matrix(1.00, 0.00, -0.00, -1.00, 877.2, 51.0)">S</text><text xml:space="preserve" font-family="AvenirNext-MediumItalic" font-style="italic" font-size="17.0" fill="#5D514B" transform="matrix(1.00, 0.00, -0.00, -1.00, 886.9, 51.0)">A</text><text xml:space="preserve" font-family="AvenirNext-MediumItalic" font-style="italic" font-size="17.0" fill="#5D514B" transform="matrix(1.00, 0.00, -0.00, -1.00, 898.2, 51.0)"> </text><text xml:space="preserve" font-family="AvenirNext-MediumItalic" font-style="italic" font-size="17.0" fill="#5D514B" transform="matrix(1.00, 0.00, -0.00, -1.00, 902.4, 51.0)">2</text><text xml:space="preserve" font-family="AvenirNext-MediumItalic" font-style="italic" font-size="17.0" fill="#5D514B" transform="matrix(1.00, 0.00, -0.00, -1.00, 912.5, 51.0)">.</text><text xml:space="preserve" font-family="AvenirNext-MediumItalic" font-style="italic" font-size="17.0" fill="#5D514B" transform="matrix(1.00, 0.00, -0.00, -1.00, 917.0, 51.0)">0</text><g><clipPath id="clip-117"><path d="M 824.0 48.0 L 927.0 48.0 L 927.0 50.9 L 824.0 50.9 Z M 824.0 48.0 "></path></clipPath><g clip-path="url(#clip-117)"><path d="M 98.0 22.1 L 200.1 22.1 " fill="none" stroke="#5D514B" stroke-width="0.85" stroke-miterlimit="0.00" transform="matrix(1.00, 0.00, 0.00, -1.00, 727.0, 71.5)"></path></g></g></g></svg>