<?xml version="1.0" encoding="UTF-8" standalone="no"?><svg xmlns="http://www.w3.org/2000/svg" xmlns:xlink="http://www.w3.org/1999/xlink" clip-rule="evenodd" stroke-miterlimit="4.00" viewBox="0 0 1024 768"><desc>SVG generated by Keynote</desc><defs></defs><g transform="matrix(1.00, 0.00, -0.00, -1.00, 0.0, 768.0)"><g><clipPath id="clip-1088"><path d="M 0.0 768.0 L 1024.0 768.0 L 1024.0 0.0 L 0.0 0.0 Z M 0.0 768.0 "></path></clipPath><g clip-path="url(#clip-1088)"><image xlink:href="../../E8782ACA-0DD6-462E-AFA6-8D26C4A2FECE/assets/107E65D87114B546DB29000410A7B5AF.jpeg" width="1024.00" height="768.00" transform="matrix(1.00, 0.00, -0.00, -1.00, 0.0, 768.0)"></image></g></g><g><clipPath id="clip-1089"><path d="M 524.0 372.0 L 981.0 372.0 L 981.0 40.0 L 524.0 40.0 Z M 524.0 372.0 "></path></clipPath><g clip-path="url(#clip-1089)"><image xlink:href="../../804F46E1-B6CF-4238-898C-6751DB2F38A9/assets/CF5B9947D2EFA4FA7D613D8C431E581E.jpeg" width="457.00" height="342.00" transform="matrix(1.00, 0.00, -0.00, -1.00, 524.0, 377.0)"></image></g></g><g><clipPath id="clip-1090"><path d="M 525.0 728.0 L 982.0 728.0 L 982.0 396.0 L 525.0 396.0 Z M 524.8 728.0 "></path></clipPath><g clip-path="url(#clip-1090)"><image xlink:href="../../804F46E1-B6CF-4238-898C-6751DB2F38A9/assets/D29CFA94E88F6AAD4338DA87BED06632.png" width="457.00" height="342.00" transform="matrix(1.00, 0.00, -0.00, -1.00, 525.0, 733.0)"></image></g></g><g><clipPath id="clip-1091"><path d="M 42.0 728.0 L 499.0 728.0 L 499.0 40.0 L 42.0 40.0 Z M 42.0 728.0 "></path></clipPath><g clip-path="url(#clip-1091)"><image xlink:href="../../804F46E1-B6CF-4238-898C-6751DB2F38A9/assets/69E01BC332EBD16B388E4A377ABB3327.jpeg" width="516.00" height="688.00" transform="matrix(1.00, 0.00, -0.00, -1.00, 13.0, 728.0)"></image></g></g></g></svg>